<?xml version="1.0" encoding="UTF-8" standalone="no"?>
<!-- Created with Inkscape (http://www.inkscape.org/) -->

<svg
   xmlns:dc="http://purl.org/dc/elements/1.1/"
   xmlns:cc="http://creativecommons.org/ns#"
   xmlns:rdf="http://www.w3.org/1999/02/22-rdf-syntax-ns#"
   xmlns:svg="http://www.w3.org/2000/svg"
   xmlns="http://www.w3.org/2000/svg"
   xmlns:sodipodi="http://sodipodi.sourceforge.net/DTD/sodipodi-0.dtd"
   xmlns:inkscape="http://www.inkscape.org/namespaces/inkscape"
   width="210mm"
   height="297mm"
   viewBox="0 0 210 297"
   version="1.1"
   id="svg8"
   inkscape:version="0.92.2 (5c3e80d, 2017-08-06)"
   sodipodi:docname="Calpinage soute a ballast.svg">
  <defs
     id="defs2" />
  <sodipodi:namedview
     id="base"
     pagecolor="#ffffff"
     bordercolor="#666666"
     borderopacity="1.0"
     inkscape:pageopacity="0.0"
     inkscape:pageshadow="2"
     inkscape:zoom="0.98994949"
     inkscape:cx="287.2139"
     inkscape:cy="238.02241"
     inkscape:document-units="mm"
     inkscape:current-layer="layer1"
     showgrid="false"
     inkscape:window-width="1920"
     inkscape:window-height="1017"
     inkscape:window-x="-8"
     inkscape:window-y="-8"
     inkscape:window-maximized="1" />
  <metadata
     id="metadata5">
    <rdf:RDF>
      <cc:Work
         rdf:about="">
        <dc:format>image/svg+xml</dc:format>
        <dc:type
           rdf:resource="http://purl.org/dc/dcmitype/StillImage" />
        <dc:title></dc:title>
      </cc:Work>
    </rdf:RDF>
  </metadata>
  <g
     inkscape:label="Calque 1"
     inkscape:groupmode="layer"
     id="layer1">
    <g
       transform="matrix(1,0,0,-1,39.752351,274.60937)"
       id="Sketch005">
      <path
         style="fill:none;fill-rule:evenodd;stroke:#000000;stroke-width:0.34999999;stroke-miterlimit:4;stroke-dasharray:none"
         d="M -6.3245553,14 H -37 V -4 a 15,15 0 0 1 15,-15 H 22 A 15,15 0 0 1 37,-4 V 14 H 6.3245553 A 7,7 0 0 1 -6.32456,14"
         id="Sketch005_w0000"
         inkscape:connector-curvature="0" />
      <circle
         id="circle919"
         style="fill:none;stroke:#000000;stroke-width:0.34999999;stroke-miterlimit:4;stroke-dasharray:none"
         r="1.5"
         cy="11"
         cx="5.5584164e-022" />
      <title
         id="title921">b'Sketch005'</title>
    </g>
    <g
       transform="matrix(1,0,0,-1,39.530937,237.85038)"
       id="Sketch004">
      <circle
         id="circle956"
         style="fill:none;stroke:#000000;stroke-width:0.34999999;stroke-miterlimit:4;stroke-dasharray:none"
         r="7.5"
         cy="0"
         cx="-27" />
      <circle
         id="circle958"
         style="fill:none;stroke:#000000;stroke-width:0.34999999;stroke-miterlimit:4;stroke-dasharray:none"
         r="7.5"
         cy="0"
         cx="-9" />
      <circle
         id="circle960"
         style="fill:none;stroke:#000000;stroke-width:0.34999999;stroke-miterlimit:4;stroke-dasharray:none"
         r="7.5"
         cy="0"
         cx="9" />
      <circle
         id="circle962"
         style="fill:none;stroke:#000000;stroke-width:0.34999999;stroke-miterlimit:4;stroke-dasharray:none"
         r="7.5"
         cy="0"
         cx="27" />
      <path
         style="fill:none;fill-rule:evenodd;stroke:#000000;stroke-width:0.34999999;stroke-miterlimit:4;stroke-dasharray:none"
         d="M -37,14 V 1 a 15,15 0 0 1 15,-15 h 1.5 v 5 h 5 v -5 h 31 v 5 h 5 v -5 H 22 A 15,15 0 0 1 37,1 v 13 h -74"
         id="Sketch004_w0004"
         inkscape:connector-curvature="0" />
      <title
         id="title965">b'Sketch004'</title>
    </g>
    <g
       transform="matrix(1,0,0,-1,39.374375,202.80463)"
       id="Sketch">
      <circle
         id="circle1005"
         style="fill:none;stroke:#000000;stroke-width:0.34999999;stroke-miterlimit:4;stroke-dasharray:none"
         r="7.5"
         cy="0"
         cx="9" />
      <circle
         id="circle1007"
         style="fill:none;stroke:#000000;stroke-width:0.34999999;stroke-miterlimit:4;stroke-dasharray:none"
         r="7.5"
         cy="0"
         cx="27" />
      <circle
         id="circle1009"
         style="fill:none;stroke:#000000;stroke-width:0.34999999;stroke-miterlimit:4;stroke-dasharray:none"
         r="7.5"
         cy="0"
         cx="-9" />
      <circle
         id="circle1011"
         style="fill:none;stroke:#000000;stroke-width:0.34999999;stroke-miterlimit:4;stroke-dasharray:none"
         r="7.5"
         cy="0"
         cx="-27" />
      <path
         style="fill:none;fill-rule:evenodd;stroke:#000000;stroke-width:0.34999999;stroke-miterlimit:4;stroke-dasharray:none"
         d="M 6.3245553,14 A 7,7 0 0 1 -6.32456,14 H -37 v -28 h 16.5 v 5 h 5 v -5 h 31 v 5 h 5 v -5 H 37 V 14 H 6.3245553"
         id="Sketch_w0004"
         inkscape:connector-curvature="0" />
      <circle
         id="circle1014"
         style="fill:none;stroke:#000000;stroke-width:0.34999999;stroke-miterlimit:4;stroke-dasharray:none"
         r="2"
         cy="11"
         cx="-3.3881338e-021" />
      <title
         id="title1016">b'Sketch'</title>
    </g>
    <g
       transform="matrix(0.99999999,0,0,-0.99999999,49.369051,270.16353)"
       id="Sketch002">
      <path
         style="fill:none;fill-rule:evenodd;stroke:#000000;stroke-width:0.34999999;stroke-miterlimit:4;stroke-dasharray:none"
         d="m 35.211148,-23.860281 h 30 l -20,115 h -10 v -5 h 5 v -5 h -5 V -8.8602806 h 5 v -5.0000004 h 10 v -5 h -15 v -5"
         id="Sketch002_w0000"
         inkscape:connector-curvature="0" />
      <title
         id="title1048">b'Sketch002'</title>
    </g>
    <g
       transform="matrix(-1,0,0,1,160.57937,162.4131)"
       id="Sketch002-0">
      <path
         style="fill:none;fill-rule:evenodd;stroke:#000000;stroke-width:0.34999999;stroke-miterlimit:4;stroke-dasharray:none"
         d="m 35.211148,-23.860281 h 30 l -20,115 h -10 v -5 h 5 v -5 h -5 V -8.8602806 h 5 v -5.0000004 h 10 v -5 h -15 v -5"
         id="Sketch002_w0000-0"
         inkscape:connector-curvature="0" />
      <title
         id="title1048-8">b'Sketch002'</title>
    </g>
    <g
       transform="matrix(1,0,0,-1,170.78523,237.41535)"
       id="Sketch003-1">
      <path
         style="fill:none;fill-rule:evenodd;stroke:#000000;stroke-width:0.34999999;stroke-miterlimit:4;stroke-dasharray:none"
         d="m -167.42753,84.024616 v -13 a 15,15 0 0 1 15,-15 h 1.5 v 10 h 5 v -10 h 31 v 10 h 5 v -10 h 1.5 a 15,15 0 0 1 15,15 v 13 h -9.5 v 7 a 8,8 0 0 1 -8,8 v -15 h -5 v 15 a 8,8 0 0 1 -8,-8 v -7 h -43.5"
         id="Sketch003_w0000-4"
         inkscape:connector-curvature="0" />
      <title
         id="title921-2">b'Sketch003'</title>
    </g>
  </g>
</svg>
