<?xml version="1.0"?>
<!DOCTYPE svg PUBLIC "-//W3C//DTD SVG 1.1//EN" "http://www.w3.org/Graphics/SVG/1.1/DTD/svg11.dtd">
<svg width="75.48mm" height="44.480000000000004mm" viewBox="0 0 75.48 44.480000000000004" xmlns="http://www.w3.org/2000/svg" version="1.1">
<g id="Sketch003" transform="translate(37.740000,29.740000) scale(1,-1)">
<path id="Sketch003_w0000"  d="M -37.0 14.0 L -37.0 0.9999999999999989 A 15 15 0 0 1 -22 -14L -20.5 -14.000000000000002 L -20.5 -4.000000000000002 L -15.5 -4.000000000000002 L -15.5 -14.000000000000002 L 15.5 -14.000000000000002 L 15.5 -4.000000000000002 L 20.5 -4.000000000000002 L 20.5 -14.000000000000002 L 21.999999999999996 -14.000000000000002 A 15 15 0 0 1 37 1L 37.0 14.0 L 27.5 14.0 L 27.5 20.999999999999662 A 8 8 0 0 1 19.5 29L 19.500000000000004 14.000000000000002 L 14.5 14.000000000000002 L 14.5 29.0 A 8 8 0 0 1 6.5 21L 6.5 14.0 L -37.0 14.0 " stroke="#000000" stroke-width="0.35 px" style="stroke-width:0.35;stroke-miterlimit:4;stroke-dasharray:none;fill:none;fill-rule: evenodd "/>
<title>b'Sketch003'</title>
</g>
</svg>