<?xml version="1.0" encoding="UTF-8" standalone="no"?>
<!-- Created with Inkscape (http://www.inkscape.org/) -->

<svg
   width="400mm"
   height="320mm"
   viewBox="0 0 400 320"
   version="1.1"
   id="svg1"
   xml:space="preserve"
   inkscape:version="1.3.2 (091e20e, 2023-11-25, custom)"
   sodipodi:docname="Calpinage Kit complet.svg"
   xmlns:inkscape="http://www.inkscape.org/namespaces/inkscape"
   xmlns:sodipodi="http://sodipodi.sourceforge.net/DTD/sodipodi-0.dtd"
   xmlns="http://www.w3.org/2000/svg"
   xmlns:svg="http://www.w3.org/2000/svg"><sodipodi:namedview
     id="namedview1"
     pagecolor="#7e7e7e"
     bordercolor="#eeeeee"
     borderopacity="1"
     inkscape:showpageshadow="0"
     inkscape:pageopacity="0"
     inkscape:pagecheckerboard="0"
     inkscape:deskcolor="#505050"
     inkscape:document-units="mm"
     showguides="true"
     inkscape:zoom="0.51717104"
     inkscape:cx="470.8307"
     inkscape:cy="637.11998"
     inkscape:window-width="1920"
     inkscape:window-height="1017"
     inkscape:window-x="-8"
     inkscape:window-y="-8"
     inkscape:window-maximized="1"
     inkscape:current-layer="layer1" /><defs
     id="defs1" /><g
     inkscape:label="Calque 1"
     inkscape:groupmode="layer"
     id="layer1"><g
       inkscape:label="Fixation d'aile"
       id="layer1-7"
       transform="translate(-103.16725,585.22083)" /><g
       inkscape:label="Soute a Blaste"
       id="layer1-1"
       transform="translate(399.02889,354.05177)" /><g
       id="Sketch001-6"
       transform="matrix(1,0,0,-1,83.718625,131.1132)"
       inkscape:label="Frein bois"><circle
         cx="34.075001"
         cy="-19.075045"
         r="2"
         stroke="#000000"
         stroke-width="0.35 px"
         style="fill:none;stroke-width:0.35;stroke-miterlimit:4;stroke-dasharray:none"
         id="circle1"
         transform="rotate(90)" /><path
         id="Sketch001_w0001-5"
         d="M 15.251516,23.780882 A 10.4167,10.4167 0 0 1 24.075045,34.075 5,5 0 0 1 18.920493,39.07261 l -54.942816,-1.699115 a 3.15,3.15 0 0 1 0.09737,-6.298495 h 20 a 5,5 0 0 0 5,-5 v -10 a 2,2 0 0 1 2.0000003,-2 h 7.023823 a 2,2 0 0 1 1.55377697,0.7407 25,25 0 0 0 15.59886973,8.9652"
         stroke="#000000"
         stroke-width="0.35 px"
         style="fill:none;fill-rule:evenodd;stroke-width:0.35;stroke-miterlimit:4;stroke-dasharray:none" /><title
         id="title1">Sketch001</title></g><g
       id="g2"
       transform="matrix(0,1,1,0,10.012409,109.05643)"
       inkscape:label="Frein bois"><circle
         cx="0"
         cy="0"
         r="2"
         stroke="#000000"
         stroke-width="0.35 px"
         style="fill:none;stroke-width:0.35;stroke-miterlimit:4;stroke-dasharray:none"
         id="circle2" /><path
         id="path2"
         d="M -10.294118,3.8235294 A 10.4167,10.4167 0 0 1 0,-5 5,5 0 0 1 4.99761,0.154552 L 3.2984948,55.097368 A 3.15,3.15 0 0 1 -3,55 V 35 a 5,5 0 0 0 -5,-5 h -10 a 2,2 0 0 1 -2,-2 v -7.023823 a 2,2 0 0 1 0.7407,-1.553777 25,25 0 0 0 8.9652,-15.59887"
         stroke="#000000"
         stroke-width="0.35 px"
         style="fill:none;fill-rule:evenodd;stroke-width:0.35;stroke-miterlimit:4;stroke-dasharray:none" /><title
         id="title2">Sketch001</title></g><g
       id="Sketch002-48"
       transform="matrix(1,0,0,-1,6.6754781,253.77015)"
       inkscape:label="platine radio V2"><path
         id="Sketch002_w0000-08"
         d="m 10,-0.5 h 41.5 v 41 H 10 v -41"
         stroke="#000000"
         stroke-width="0.35 px"
         style="fill:none;fill-opacity:1;fill-rule:evenodd;stroke-width:0.35;stroke-miterlimit:4;stroke-dasharray:none" /><path
         id="Sketch002_w0001"
         d="M 10,-20 H 51.5 V -40.442749 H 10 V -20"
         stroke="#000000"
         stroke-width="0.35 px"
         style="fill:none;fill-opacity:1;fill-rule:evenodd;stroke-width:0.35;stroke-miterlimit:4;stroke-dasharray:none" /><path
         id="Sketch002_w0002"
         d="m 162.16573,42.354715 -3.35407,-20.165719 40.93761,-6.808953 3.35407,20.165719 -40.93761,6.808953"
         stroke="#000000"
         stroke-width="0.35 px"
         style="fill:none;fill-opacity:1;fill-rule:evenodd;stroke-width:0.35;stroke-miterlimit:4;stroke-dasharray:none" /><path
         id="Sketch002_w0003"
         d="m 122.27022,-26 h 21 v 52 h -21 v -52"
         stroke="#000000"
         stroke-width="0.35 px"
         style="fill:none;fill-opacity:1;fill-rule:evenodd;stroke-width:0.35;stroke-miterlimit:4;stroke-dasharray:none" /><path
         id="Sketch002_w0004"
         d="M 177,5.9484762 V -24.051524 h 93 V 5.9484762 h -93"
         stroke="#000000"
         stroke-width="0.35 px"
         style="fill:none;fill-opacity:1;fill-rule:evenodd;stroke-width:0.35;stroke-miterlimit:4;stroke-dasharray:none" /><path
         id="Sketch002_w0005"
         d="m 75.540325,40.5 h 25.000005 v -10 H 75.540325 v 10"
         stroke="#000000"
         stroke-width="0.35 px"
         style="fill:none;fill-opacity:1;fill-rule:evenodd;stroke-width:0.35;stroke-miterlimit:4;stroke-dasharray:none" /><path
         id="Sketch002_w0006"
         d="m 75.540325,-30.5 h 25.000005 v -10 H 75.540325 v 10"
         stroke="#000000"
         stroke-width="0.35 px"
         style="fill:none;fill-opacity:1;fill-rule:evenodd;stroke-width:0.35;stroke-miterlimit:4;stroke-dasharray:none" /><path
         id="Sketch002_w0007"
         d="m 280,-29.5 v 59 c -20,4 -30,6.25 -38.33333,7.791667 -8.33334,1.541666 -15,2.375 -21.66667,3.458333 -6.66667,1.083333 -13.33333,2.416667 -20,3.583333 C 193.33333,45.5 186.66667,46.5 180,47.5 c -6.66667,1 -13.33333,2 -23.33333,3.083333 -10,1.083334 -23.33334,2.25 -36.66667,3.166667 -13.33333,0.916667 -26.666667,1.583333 -43.333333,2.166667 C 60,56.5 40,57 0,57.5 v -115 c 40,0.5 60,1 76.666667,1.583333 16.666666,0.583334 30.000003,1.25 43.333333,2.166667 13.33333,0.916667 26.66667,2.083333 36.66667,3.166667 C 166.66667,-49.5 173.33333,-48.5 180,-47.5 c 6.66667,1 13.33333,2 20,3.166667 6.66667,1.166666 13.33333,2.5 20,3.583333 6.66667,1.083333 13.33333,1.916667 21.66667,3.458333 C 250,-35.75 260,-33.5 280,-29.5"
         stroke="#000000"
         stroke-width="0.35 px"
         style="fill:none;fill-opacity:1;fill-rule:evenodd;stroke-width:0.35;stroke-miterlimit:4;stroke-dasharray:none" /><path
         id="Sketch002_w0008"
         d="m 157.05365,0 h 10 v -15 h -10 V 0"
         stroke="#000000"
         stroke-width="0.35 px"
         style="fill:none;fill-opacity:1;fill-rule:evenodd;stroke-width:0.35;stroke-miterlimit:4;stroke-dasharray:none" /><title
         id="title1-3">b'Sketch002'</title></g><g
       id="Sketch-5"
       transform="matrix(1,0,0,-1,6.7417091,45.999679)"
       inkscape:label="Support d'aile"><path
         id="Sketch_w0000-32"
         d="m 65,25 70,-5 v -40 l -70,-5 v 50"
         stroke="#000000"
         stroke-width="0.35 px"
         style="fill:none;fill-rule:evenodd;stroke-width:0.35;stroke-miterlimit:4;stroke-dasharray:none" /><path
         id="Sketch_w0001"
         d="m 0,-40 c 20,0 30,0.25 38.333333,0.541667 8.333334,0.291666 15,0.625 21.666667,1.041666 C 66.666667,-38 73.333333,-37.5 80,-37.083333 c 6.666667,0.416666 13.333333,0.75 20,1.25 6.66667,0.5 13.33333,1.166666 20,1.75 C 126.66667,-33.5 133.33333,-33 141.66667,-32.22981 150,-31.459619 160,-30.419239 180,-29 v 58 c -20,1.580761 -30,2.540381 -38.33333,3.27019 C 133.33333,33 126.66667,33.5 120,34.083333 c -6.66667,0.583334 -13.33333,1.25 -20,1.75 -6.666667,0.5 -13.333333,0.833334 -20,1.25 C 73.333333,37.5 66.666667,38 60,38.416667 c -6.666667,0.416666 -13.333333,0.75 -21.666667,1.041666 C 30,39.75 20,40 0,40 v -80"
         stroke="#000000"
         stroke-width="0.35 px"
         style="fill:none;fill-rule:evenodd;stroke-width:0.35;stroke-miterlimit:4;stroke-dasharray:none" /><title
         id="title1-1">b'Sketch'</title></g><g
       id="g4"
       transform="matrix(-1,0,0,1,287.84037,164.59365)"
       inkscape:label="Support d'aile"><path
         id="path3"
         d="m 65,25 70,-5 v -40 l -70,-5 v 50"
         stroke="#000000"
         stroke-width="0.35 px"
         style="fill:none;fill-rule:evenodd;stroke-width:0.35;stroke-miterlimit:4;stroke-dasharray:none" /><path
         id="path4"
         d="m 0,-40 c 20,0 30,0.25 38.333333,0.541667 8.333334,0.291666 15,0.625 21.666667,1.041666 C 66.666667,-38 73.333333,-37.5 80,-37.083333 c 6.666667,0.416666 13.333333,0.75 20,1.25 6.66667,0.5 13.33333,1.166666 20,1.75 C 126.66667,-33.5 133.33333,-33 141.66667,-32.22981 150,-31.459619 160,-30.419239 180,-29 v 58 c -20,1.580761 -30,2.540381 -38.33333,3.27019 C 133.33333,33 126.66667,33.5 120,34.083333 c -6.66667,0.583334 -13.33333,1.25 -20,1.75 -6.666667,0.5 -13.333333,0.833334 -20,1.25 C 73.333333,37.5 66.666667,38 60,38.416667 c -6.666667,0.416666 -13.333333,0.75 -21.666667,1.041666 C 30,39.75 20,40 0,40 v -80"
         stroke="#000000"
         stroke-width="0.35 px"
         style="fill:none;fill-rule:evenodd;stroke-width:0.35;stroke-miterlimit:4;stroke-dasharray:none" /><title
         id="title4">b'Sketch'</title></g><g
       transform="translate(88.082161,54.591449)"
       id="Sketch003"><path
         style="fill:none;fill-opacity:1;fill-rule:evenodd;stroke:#000000;stroke-width:0.35;stroke-miterlimit:4;stroke-dasharray:none"
         d="m -12.5,0 v 12 l 25,-4 V 0 h -25"
         id="Sketch003_w0000"
         inkscape:connector-curvature="0" /><path
         style="fill:none;fill-opacity:1;fill-rule:evenodd;stroke:#000000;stroke-width:0.35;stroke-miterlimit:4;stroke-dasharray:none"
         d="m -8.5,3.2 h 17 v 3 h -17 v -3"
         id="Sketch003_w0001"
         inkscape:connector-curvature="0" /><title
         id="title842">b'Sketch003'</title></g><g
       transform="matrix(1,0,0,-1,37.224822,289.85361)"
       id="Sketch002"><path
         style="fill:none;fill-opacity:1;fill-rule:evenodd;stroke:#000000;stroke-width:0.35;stroke-miterlimit:4;stroke-dasharray:none"
         d="m -8.5,0 v 3 h 17 V 0 h 4 v 8 l -25,4 V 0 h 4"
         id="Sketch002_w0000"
         inkscape:connector-curvature="0" /><title
         id="title870">b'Sketch002'</title></g><g
       transform="matrix(1,0,0,-1,125.15295,129.44689)"
       id="Sketch001"><path
         style="fill:none;fill-opacity:1;fill-rule:evenodd;stroke:#000000;stroke-width:0.35;stroke-miterlimit:4;stroke-dasharray:none"
         d="m -8.5,3.2 h 17 v 3 h -17 v -3"
         id="Sketch001_w0000"
         inkscape:connector-curvature="0" /><path
         style="fill:none;fill-opacity:1;fill-rule:evenodd;stroke:#000000;stroke-width:0.35;stroke-miterlimit:4;stroke-dasharray:none"
         d="m -12.5,0 v 13 l 25,4 V 0 h -25"
         id="Sketch001_w0001"
         inkscape:connector-curvature="0" /><title
         id="title899">b'Sketch001'</title></g><g
       transform="matrix(0.99999998,0,0,-0.99999998,-102.48271,481.31861)"
       id="Sketch"><path
         style="fill:none;fill-opacity:1;fill-rule:evenodd;stroke:#000000;stroke-width:0.35;stroke-miterlimit:4;stroke-dasharray:none"
         d="m 316.20114,324.86876 v -17 h 3 v -4 h -13 l -4,25 h 17 v -4 h -3"
         id="Sketch_w0000"
         inkscape:connector-curvature="0" /><title
         id="title927">b'Sketch'</title></g><g
       transform="matrix(0,0.99999998,0.99999998,0,181.68732,165.14777)"
       id="Sketch-2"><path
         style="fill:none;fill-opacity:1;fill-rule:evenodd;stroke:#000000;stroke-width:0.35;stroke-miterlimit:4;stroke-dasharray:none"
         d="m 8.5,3 h -17 V 0 h -4 v 13 l 25,4 V 0 h -4 v 3"
         id="Sketch_w0000-4"
         inkscape:connector-curvature="0" /><title
         id="title927-3">b'Sketch'</title></g><g
       transform="matrix(-0.99999998,0,0,0.99999998,89.214548,120.61835)"
       id="Sketch001-5"><path
         style="fill:none;fill-opacity:1;fill-rule:evenodd;stroke:#000000;stroke-width:0.35;stroke-miterlimit:4;stroke-dasharray:none"
         d="m -8.5,3.2 h 17 v 3 h -17 v -3"
         id="Sketch001_w0000-4"
         inkscape:connector-curvature="0" /><path
         style="fill:none;fill-opacity:1;fill-rule:evenodd;stroke:#000000;stroke-width:0.35;stroke-miterlimit:4;stroke-dasharray:none"
         d="m -12.5,0 v 13 l 25,4 V 0 h -25"
         id="Sketch001_w0001-9"
         inkscape:connector-curvature="0" /><title
         id="title899-4">b'Sketch001'</title></g><g
       transform="matrix(0,1,1,0,241.6212,262.72131)"
       id="Sketch002-7"><path
         style="fill:none;fill-opacity:1;fill-rule:evenodd;stroke:#000000;stroke-width:0.35;stroke-miterlimit:4;stroke-dasharray:none"
         d="m -8.5,0 v 3 h 17 V 0 h 4 v 8 l -25,4 V 0 h 4"
         id="Sketch002_w0000-4"
         inkscape:connector-curvature="0" /><title
         id="title870-0">b'Sketch002'</title></g><g
       transform="matrix(-1,0,0,1,88.115951,40.250029)"
       id="Sketch003-3"><path
         style="fill:none;fill-opacity:1;fill-rule:evenodd;stroke:#000000;stroke-width:0.35;stroke-miterlimit:4;stroke-dasharray:none"
         d="m -12.5,0 v 12 l 25,-4 V 0 h -25"
         id="Sketch003_w0000-7"
         inkscape:connector-curvature="0" /><path
         style="fill:none;fill-opacity:1;fill-rule:evenodd;stroke:#000000;stroke-width:0.35;stroke-miterlimit:4;stroke-dasharray:none"
         d="m -8.5,3.2 h 17 v 3 h -17 v -3"
         id="Sketch003_w0001-7"
         inkscape:connector-curvature="0" /><title
         id="title842-6">b'Sketch003'</title></g><g
       transform="matrix(-1,0,0,1,154.82733,111.22781)"
       id="Sketch001-7"><path
         style="fill:none;fill-opacity:1;fill-rule:evenodd;stroke:#000000;stroke-width:0.35;stroke-miterlimit:4;stroke-dasharray:none"
         d="m -8.5,3.2 h 17 v 3 h -17 v -3"
         id="Sketch001_w0000-1"
         inkscape:connector-curvature="0" /><path
         style="fill:none;fill-opacity:1;fill-rule:evenodd;stroke:#000000;stroke-width:0.35;stroke-miterlimit:4;stroke-dasharray:none"
         d="m -12.5,0 v 13 l 25,4 V 0 h -25"
         id="Sketch001_w0001-0"
         inkscape:connector-curvature="0" /><title
         id="title899-0">b'Sketch001'</title></g><g
       transform="matrix(0,-0.99999998,-0.99999998,0,177.30694,165.18703)"
       id="Sketch-6"><path
         style="fill:none;fill-opacity:1;fill-rule:evenodd;stroke:#000000;stroke-width:0.35;stroke-miterlimit:4;stroke-dasharray:none"
         d="m 8.5,3 h -17 V 0 h -4 v 13 l 25,4 V 0 h -4 v 3"
         id="Sketch_w0000-1"
         inkscape:connector-curvature="0" /><title
         id="title927-7">b'Sketch'</title></g><g
       transform="matrix(-0.99999998,0,0,0.99999998,37.258455,216.93537)"
       id="Sketch-2-9"><path
         style="fill:none;fill-opacity:1;fill-rule:evenodd;stroke:#000000;stroke-width:0.35;stroke-miterlimit:4;stroke-dasharray:none"
         d="m 8.5,3 h -17 V 0 h -4 v 13 l 25,4 V 0 h -4 v 3"
         id="Sketch_w0000-4-0"
         inkscape:connector-curvature="0" /><title
         id="title927-3-9">b'Sketch'</title></g><g
       transform="matrix(-0.99999998,0,0,0.99999998,90.129844,159.36481)"
       id="Sketch001-5-6"><path
         style="fill:none;fill-opacity:1;fill-rule:evenodd;stroke:#000000;stroke-width:0.35;stroke-miterlimit:4;stroke-dasharray:none"
         d="m -8.5,3.2 h 17 v 3 h -17 v -3"
         id="Sketch001_w0000-4-9"
         inkscape:connector-curvature="0" /><path
         style="fill:none;fill-opacity:1;fill-rule:evenodd;stroke:#000000;stroke-width:0.35;stroke-miterlimit:4;stroke-dasharray:none"
         d="m -12.5,0 v 13 l 25,4 V 0 h -25"
         id="Sketch001_w0001-9-4"
         inkscape:connector-curvature="0" /><title
         id="title899-4-1">b'Sketch001'</title></g><g
       transform="matrix(0.99999998,0,0,-0.99999998,89.791964,155.52751)"
       id="Sketch001-0"><path
         style="fill:none;fill-opacity:1;fill-rule:evenodd;stroke:#000000;stroke-width:0.35;stroke-miterlimit:4;stroke-dasharray:none"
         d="m -8.5,3.2 h 17 v 3 h -17 v -3"
         id="Sketch001_w0000-48"
         inkscape:connector-curvature="0" /><path
         style="fill:none;fill-opacity:1;fill-rule:evenodd;stroke:#000000;stroke-width:0.35;stroke-miterlimit:4;stroke-dasharray:none"
         d="m -12.5,0 v 13 l 25,4 V 0 h -25"
         id="Sketch001_w0001-06"
         inkscape:connector-curvature="0" /><title
         id="title899-2">b'Sketch001'</title></g><g
       transform="matrix(0.99999998,0,0,-0.99999998,35.00183,251.85768)"
       id="Sketch-3"><path
         style="fill:none;fill-opacity:1;fill-rule:evenodd;stroke:#000000;stroke-width:0.35;stroke-miterlimit:4;stroke-dasharray:none"
         d="M 10.616667,4.0583334 H -6.3833332 v -3 H -10.383332 V 14.058334 l 25,4 V 1.0583334 h -4.000001 v 3"
         id="Sketch_w0000-3"
         inkscape:connector-curvature="0" /><title
         id="title927-79">b'Sketch'</title></g><g
       transform="translate(384.8474,364.98475)"
       id="Sketch-2-0"><path
         style="fill:none;fill-opacity:1;fill-rule:evenodd;stroke:#000000;stroke-width:0.35;stroke-miterlimit:4;stroke-dasharray:none"
         d="m -118.50903,-93.801971 v -16.999999 h 3 v -4 h -13 l -4,24.999999 h 17 v -4 h -3"
         id="Sketch_w0000-4-04"
         inkscape:connector-curvature="0" /><title
         id="title927-3-3">b'Sketch'</title></g><g
       transform="matrix(1,0,0,-1,90.651483,193.64269)"
       id="Sketch001-5-5"><path
         style="fill:none;fill-opacity:1;fill-rule:evenodd;stroke:#000000;stroke-width:0.35;stroke-miterlimit:4;stroke-dasharray:none"
         d="M -9.0291666,4.2583334 H 7.9708333 V 7.2583338 H -9.0291666 V 4.2583334"
         id="Sketch001_w0000-4-0"
         inkscape:connector-curvature="0" /><path
         style="fill:none;fill-opacity:1;fill-rule:evenodd;stroke:#000000;stroke-width:0.35;stroke-miterlimit:4;stroke-dasharray:none"
         d="M -13.029167,1.0583333 V 14.058334 l 25,4 V 1.0583333 h -25"
         id="Sketch001_w0001-9-7"
         inkscape:connector-curvature="0" /><title
         id="title899-4-3">b'Sketch001'</title></g><g
       transform="matrix(1,0,0,-1,88.082562,37.700979)"
       id="Sketch003-7"><path
         style="fill:none;fill-opacity:1;fill-rule:evenodd;stroke:#000000;stroke-width:0.35;stroke-miterlimit:4;stroke-dasharray:none"
         d="m -12.5,0 v 12 l 25,-4 V 0 h -25"
         id="Sketch003_w0000-2"
         inkscape:connector-curvature="0" /><path
         style="fill:none;fill-opacity:1;fill-rule:evenodd;stroke:#000000;stroke-width:0.35;stroke-miterlimit:4;stroke-dasharray:none"
         d="m -8.5,3.2 h 17 v 3 h -17 v -3"
         id="Sketch003_w0001-4"
         inkscape:connector-curvature="0" /><title
         id="title842-1">b'Sketch003'</title></g><g
       transform="matrix(0,-1,-1,0,239.45154,262.62786)"
       id="Sketch002-0"><path
         style="fill:none;fill-opacity:1;fill-rule:evenodd;stroke:#000000;stroke-width:0.35;stroke-miterlimit:4;stroke-dasharray:none"
         d="m -8.5,0 v 3 h 17 V 0 h 4 v 8 l -25,4 V 0 h 4"
         id="Sketch002_w0000-48"
         inkscape:connector-curvature="0" /><title
         id="title870-7">b'Sketch002'</title></g><g
       transform="matrix(0,1,1,0,216.20529,262.66003)"
       id="Sketch002-7-9"><path
         style="fill:none;fill-opacity:1;fill-rule:evenodd;stroke:#000000;stroke-width:0.35;stroke-miterlimit:4;stroke-dasharray:none"
         d="m -8.5,0 v 3 h 17 V 0 h 4 v 8 l -25,4 V 0 h 4"
         id="Sketch002_w0000-4-5"
         inkscape:connector-curvature="0" /><title
         id="title870-0-4">b'Sketch002'</title></g><g
       transform="translate(117.37018,52.565609)"
       id="Sketch003-3-9"><path
         style="fill:none;fill-opacity:1;fill-rule:evenodd;stroke:#000000;stroke-width:0.35;stroke-miterlimit:4;stroke-dasharray:none"
         d="m -12.5,0 v 12 l 25,-4 V 0 h -25"
         id="Sketch003_w0000-7-8"
         inkscape:connector-curvature="0" /><path
         style="fill:none;fill-opacity:1;fill-rule:evenodd;stroke:#000000;stroke-width:0.35;stroke-miterlimit:4;stroke-dasharray:none"
         d="m -8.5,3.2 h 17 v 3 h -17 v -3"
         id="Sketch003_w0001-7-9"
         inkscape:connector-curvature="0" /><title
         id="title842-6-4">b'Sketch003'</title></g><g
       transform="matrix(1,0,0,-1,117.55113,50.514309)"
       id="Sketch003-2"><path
         style="fill:none;fill-opacity:1;fill-rule:evenodd;stroke:#000000;stroke-width:0.35;stroke-miterlimit:4;stroke-dasharray:none"
         d="m -12.5,0 v 12 l 25,-4 V 0 h -25"
         id="Sketch003_w0000-6"
         inkscape:connector-curvature="0" /><path
         style="fill:none;fill-opacity:1;fill-rule:evenodd;stroke:#000000;stroke-width:0.35;stroke-miterlimit:4;stroke-dasharray:none"
         d="m -8.5,3.2 h 17 v 3 h -17 v -3"
         id="Sketch003_w0001-8"
         inkscape:connector-curvature="0" /><title
         id="title842-2">b'Sketch003'</title></g><g
       transform="matrix(0,-1,-1,0,213.55623,262.6172)"
       id="Sketch002-4"><path
         style="fill:none;fill-opacity:1;fill-rule:evenodd;stroke:#000000;stroke-width:0.35;stroke-miterlimit:4;stroke-dasharray:none"
         d="m -8.5,0 v 3 h 17 V 0 h 4 v 8 l -25,4 V 0 h 4"
         id="Sketch002_w0000-2"
         inkscape:connector-curvature="0" /><title
         id="title870-4">b'Sketch002'</title></g><g
       transform="matrix(0,1,1,0,190.12911,262.64937)"
       id="Sketch002-7-6"><path
         style="fill:none;fill-opacity:1;fill-rule:evenodd;stroke:#000000;stroke-width:0.35;stroke-miterlimit:4;stroke-dasharray:none"
         d="m -8.5,0 v 3 h 17 V 0 h 4 v 8 l -25,4 V 0 h 4"
         id="Sketch002_w0000-4-7"
         inkscape:connector-curvature="0" /><title
         id="title870-0-0">b'Sketch002'</title></g><g
       transform="matrix(-1,0,0,1,117.48796,28.30951)"
       id="Sketch003-3-0"><path
         style="fill:none;fill-opacity:1;fill-rule:evenodd;stroke:#000000;stroke-width:0.35;stroke-miterlimit:4;stroke-dasharray:none"
         d="m -12.5,0 v 12 l 25,-4 V 0 h -25"
         id="Sketch003_w0000-7-7"
         inkscape:connector-curvature="0" /><path
         style="fill:none;fill-opacity:1;fill-rule:evenodd;stroke:#000000;stroke-width:0.35;stroke-miterlimit:4;stroke-dasharray:none"
         d="m -8.5,3.2 h 17 v 3 h -17 v -3"
         id="Sketch003_w0001-7-7"
         inkscape:connector-curvature="0" /><title
         id="title842-6-0">b'Sketch003'</title></g><g
       transform="translate(229.59214,27.82186)"
       id="Sketch005"><path
         style="fill:none;fill-rule:evenodd;stroke:#000000;stroke-width:0.35;stroke-miterlimit:4;stroke-dasharray:none"
         d="M -6.3245553,14 H -37 V -4 a 15,15 0 0 1 15,-15 H 22 A 15,15 0 0 1 37,-4 V 14 H 6.3245553 A 7,7 0 0 1 -6.32456,14"
         id="Sketch005_w0000"
         inkscape:connector-curvature="0" /><circle
         id="circle919"
         style="fill:none;stroke:#000000;stroke-width:0.35;stroke-miterlimit:4;stroke-dasharray:none"
         r="1.5"
         cy="11"
         cx="5.5584164e-22" /><title
         id="title921">b'Sketch005'</title></g><g
       transform="matrix(0,1,1,0,19.206429,154.83913)"
       id="Sketch004"><circle
         id="circle956"
         style="fill:none;stroke:#000000;stroke-width:0.35;stroke-miterlimit:4;stroke-dasharray:none"
         r="7.5"
         cy="0"
         cx="-27" /><circle
         id="circle958"
         style="fill:none;stroke:#000000;stroke-width:0.35;stroke-miterlimit:4;stroke-dasharray:none"
         r="7.5"
         cy="0"
         cx="-9" /><circle
         id="circle960"
         style="fill:none;stroke:#000000;stroke-width:0.35;stroke-miterlimit:4;stroke-dasharray:none"
         r="7.5"
         cy="0"
         cx="9" /><circle
         id="circle962"
         style="fill:none;stroke:#000000;stroke-width:0.35;stroke-miterlimit:4;stroke-dasharray:none"
         r="7.5"
         cy="0"
         cx="27" /><path
         style="fill:none;fill-rule:evenodd;stroke:#000000;stroke-width:0.35;stroke-miterlimit:4;stroke-dasharray:none"
         d="M -37,14 V 1 a 15,15 0 0 1 15,-15 h 1.5 v 5 h 5 v -5 h 31 v 5 h 5 v -5 H 22 A 15,15 0 0 1 37,1 v 13 h -74"
         id="Sketch004_w0004"
         inkscape:connector-curvature="0" /><title
         id="title965">b'Sketch004'</title></g><g
       transform="rotate(-90,103.58797,51.386706)"
       id="Sketch-37"><circle
         id="circle1005"
         style="fill:none;stroke:#000000;stroke-width:0.35;stroke-miterlimit:4;stroke-dasharray:none"
         r="7.5"
         cy="0"
         cx="9" /><circle
         id="circle1007"
         style="fill:none;stroke:#000000;stroke-width:0.35;stroke-miterlimit:4;stroke-dasharray:none"
         r="7.5"
         cy="0"
         cx="27" /><circle
         id="circle1009"
         style="fill:none;stroke:#000000;stroke-width:0.35;stroke-miterlimit:4;stroke-dasharray:none"
         r="7.5"
         cy="0"
         cx="-9" /><circle
         id="circle1011"
         style="fill:none;stroke:#000000;stroke-width:0.35;stroke-miterlimit:4;stroke-dasharray:none"
         r="7.5"
         cy="0"
         cx="-27" /><path
         style="fill:none;fill-rule:evenodd;stroke:#000000;stroke-width:0.35;stroke-miterlimit:4;stroke-dasharray:none"
         d="M 6.3245553,14 A 7,7 0 0 1 -6.32456,14 H -37 v -28 h 16.5 v 5 h 5 v -5 h 31 v 5 h 5 v -5 H 37 V 14 H 6.3245553"
         id="Sketch_w0004"
         inkscape:connector-curvature="0" /><circle
         id="circle1014"
         style="fill:none;stroke:#000000;stroke-width:0.35;stroke-miterlimit:4;stroke-dasharray:none"
         r="2"
         cy="11"
         cx="-3.3881338e-21" /><title
         id="title1016">b'Sketch'</title></g><g
       transform="matrix(0,-0.99999998,-0.99999998,0,262.71475,155.83982)"
       id="Sketch002-3"><path
         style="fill:none;fill-rule:evenodd;stroke:#000000;stroke-width:0.35;stroke-miterlimit:4;stroke-dasharray:none"
         d="m 35.211148,-23.860281 h 30 l -20,115 h -10 v -5 h 5 v -5 h -5 V -8.8602806 h 5 v -5.0000004 h 10 v -5 h -15 v -5"
         id="Sketch002_w0000-7"
         inkscape:connector-curvature="0" /><title
         id="title1048">b'Sketch002'</title></g><g
       transform="matrix(0,1,1,0,136.23389,47.764259)"
       id="Sketch002-0-4"><path
         style="fill:none;fill-rule:evenodd;stroke:#000000;stroke-width:0.35;stroke-miterlimit:4;stroke-dasharray:none"
         d="m 35.211148,-23.860281 h 30 l -20,115 h -10 v -5 h 5 v -5 h -5 V -8.8602806 h 5 v -5.0000004 h 10 v -5 h -15 v -5"
         id="Sketch002_w0000-0"
         inkscape:connector-curvature="0" /><title
         id="title1048-8">b'Sketch002'</title></g><g
       transform="translate(359.25877,-6.8039307)"
       id="Sketch003-1"><path
         style="fill:none;fill-rule:evenodd;stroke:#000000;stroke-width:0.35;stroke-miterlimit:4;stroke-dasharray:none"
         d="m -167.42753,84.024616 v -13 a 15,15 0 0 1 15,-15 h 1.5 v 10 h 5 v -10 h 31 v 10 h 5 v -10 h 1.5 a 15,15 0 0 1 15,15 v 13 h -9.5 v 7 a 8,8 0 0 1 -8,8 v -15 h -5 v 15 a 8,8 0 0 1 -8,-8 v -7 h -43.5"
         id="Sketch003_w0000-4"
         inkscape:connector-curvature="0" /><title
         id="title921-2">b'Sketch003'</title></g></g></svg>
