999
"DXF R12 Output" (www.mydxf.blogspot.com)
 0 
SECTION
 2 
HEADER
 9 
$ACADVER
 1 
AC1009
 9 
$EXTMIN
 10 
 0 
 20 
 0 
 9 
$EXTMAX
 10 
 8.5 
 20 
 11 
 0 
ENDSEC
 0 
SECTION
 2 
ENTITIES
0
LINE
8
Frein bois
10
104.793645
20
222.962001
11
104.705829
21
222.375556
0
LINE
8
Frein bois
10
104.705829
20
222.375556
11
104.456584
21
221.850861
0
LINE
8
Frein bois
10
104.456584
20
221.850861
11
104.067211
21
221.419796
0
LINE
8
Frein bois
10
104.067211
20
221.419796
11
103.559012
21
221.114242
0
LINE
8
Frein bois
10
103.559012
20
221.114242
11
102.983602
21
220.970950
0
LINE
8
Frein bois
10
102.983602
20
220.970950
11
102.403464
21
221.000430
0
LINE
8
Frein bois
10
102.403464
20
221.000430
11
101.856206
21
221.195203
0
LINE
8
Frein bois
10
101.856206
20
221.195203
11
101.379431
21
221.547787
0
LINE
8
Frein bois
10
101.379431
20
221.547787
11
101.026847
21
222.024562
0
LINE
8
Frein bois
10
101.026847
20
222.024562
11
100.832074
21
222.571820
0
LINE
8
Frein bois
10
100.832074
20
222.571820
11
100.802594
21
223.151958
0
LINE
8
Frein bois
10
100.802594
20
223.151958
11
100.945886
21
223.727368
0
LINE
8
Frein bois
10
100.945886
20
223.727368
11
101.251440
21
224.235567
0
LINE
8
Frein bois
10
101.251440
20
224.235567
11
101.682505
21
224.624940
0
LINE
8
Frein bois
10
101.682505
20
224.624940
11
102.207200
21
224.874185
0
LINE
8
Frein bois
10
102.207200
20
224.874185
11
102.793645
21
224.962001
0
LINE
8
Frein bois
10
102.793645
20
224.962001
11
103.559012
21
224.809760
0
LINE
8
Frein bois
10
103.559012
20
224.809760
11
104.207859
21
224.376215
0
LINE
8
Frein bois
10
104.207859
20
224.376215
11
104.641404
21
223.727368
0
LINE
8
Frein bois
10
104.641404
20
223.727368
11
104.793645
21
222.962001
0
LINE
8
Frein bois
10
104.793645
20
222.962001
11
104.793645
21
222.962001
0
LINE
8
Frein bois
10
98.970116
20
212.667882
11
100.807015
21
213.125087
0
LINE
8
Frein bois
10
100.807015
20
213.125087
11
102.490811
21
213.885340
0
LINE
8
Frein bois
10
102.490811
20
213.885340
11
103.993203
21
214.915626
0
LINE
8
Frein bois
10
103.993203
20
214.915626
11
105.285894
21
216.182930
0
LINE
8
Frein bois
10
105.285894
20
216.182930
11
106.340582
21
217.654235
0
LINE
8
Frein bois
10
106.340582
20
217.654235
11
107.128970
21
219.296525
0
LINE
8
Frein bois
10
107.128970
20
219.296525
11
107.622757
21
221.076786
0
LINE
8
Frein bois
10
107.622757
20
221.076786
11
107.793645
21
222.962000
0
LINE
8
Frein bois
10
107.793645
20
222.962000
11
107.692807
21
223.961217
0
LINE
8
Frein bois
10
107.692807
20
223.961217
11
107.398116
21
224.911062
0
LINE
8
Frein bois
10
107.398116
20
224.911062
11
106.921305
21
225.783816
0
LINE
8
Frein bois
10
106.921305
20
225.783816
11
106.274107
21
226.551760
0
LINE
8
Frein bois
10
106.274107
20
226.551760
11
105.486525
21
227.174911
0
LINE
8
Frein bois
10
105.486525
20
227.174911
11
104.599450
21
227.624517
0
LINE
8
Frein bois
10
104.599450
20
227.624517
11
103.640950
21
227.889707
0
LINE
8
Frein bois
10
103.640950
20
227.889707
11
102.639093
21
227.959610
0
LINE
8
Frein bois
10
102.639093
20
227.959610
11
47.696277
21
226.260495
0
LINE
8
Frein bois
10
47.696277
20
226.260495
11
46.490041
21
225.980444
0
LINE
8
Frein bois
10
46.490041
20
225.980444
11
45.515212
21
225.287149
0
LINE
8
Frein bois
10
45.515212
20
225.287149
11
44.867850
21
224.281230
0
LINE
8
Frein bois
10
44.867850
20
224.281230
11
44.644015
21
223.063309
0
LINE
8
Frein bois
10
44.644015
20
223.063309
11
44.905390
21
221.852889
0
LINE
8
Frein bois
10
44.905390
20
221.852889
11
45.583537
21
220.867462
0
LINE
8
Frein bois
10
45.583537
20
220.867462
11
46.579331
21
220.204631
0
LINE
8
Frein bois
10
46.579331
20
220.204631
11
47.793647
21
219.962000
0
LINE
8
Frein bois
10
47.793647
20
219.962000
11
67.793647
21
219.962000
0
LINE
8
Frein bois
10
67.793647
20
219.962000
11
68.773654
21
219.865039
0
LINE
8
Frein bois
10
68.773654
20
219.865039
11
69.707064
21
219.581398
0
LINE
8
Frein bois
10
69.707064
20
219.581398
11
70.567650
21
219.121941
0
LINE
8
Frein bois
10
70.567650
20
219.121941
11
71.329181
21
218.497534
0
LINE
8
Frein bois
10
71.329181
20
218.497534
11
71.953588
21
217.736003
0
LINE
8
Frein bois
10
71.953588
20
217.736003
11
72.413045
21
216.875417
0
LINE
8
Frein bois
10
72.413045
20
216.875417
11
72.696686
21
215.942007
0
LINE
8
Frein bois
10
72.696686
20
215.942007
11
72.793647
21
214.962000
0
LINE
8
Frein bois
10
72.793647
20
214.962000
11
72.793647
21
204.962000
0
LINE
8
Frein bois
10
72.793647
20
204.962000
11
72.945888
21
204.196633
0
LINE
8
Frein bois
10
72.945888
20
204.196633
11
73.379434
21
203.547786
0
LINE
8
Frein bois
10
73.379434
20
203.547786
11
74.028280
21
203.114241
0
LINE
8
Frein bois
10
74.028280
20
203.114241
11
74.793647
21
202.962000
0
LINE
8
Frein bois
10
74.793647
20
202.962000
11
81.817470
21
202.962000
0
LINE
8
Frein bois
10
81.817470
20
202.962000
11
82.678120
21
203.156643
0
LINE
8
Frein bois
10
82.678120
20
203.156643
11
83.371247
21
203.702700
0
LINE
8
Frein bois
10
83.371247
20
203.702700
11
84.911697
21
205.433060
0
LINE
8
Frein bois
10
84.911697
20
205.433060
11
86.594459
21
207.003780
0
LINE
8
Frein bois
10
86.594459
20
207.003780
11
88.406863
21
208.407578
0
LINE
8
Frein bois
10
88.406863
20
208.407578
11
90.336242
21
209.637173
0
LINE
8
Frein bois
10
90.336242
20
209.637173
11
92.369925
21
210.685284
0
LINE
8
Frein bois
10
92.369925
20
210.685284
11
94.495244
21
211.544629
0
LINE
8
Frein bois
10
94.495244
20
211.544629
11
96.699531
21
212.207929
0
LINE
8
Frein bois
10
96.699531
20
212.207929
11
98.970117
21
212.667900
0
LINE
8
Frein bois
10
8.012400
20
210.944000
11
8.100216
21
211.530445
0
LINE
8
Frein bois
10
8.100216
20
211.530445
11
8.349461
21
212.055140
0
LINE
8
Frein bois
10
8.349461
20
212.055140
11
8.738834
21
212.486205
0
LINE
8
Frein bois
10
8.738834
20
212.486205
11
9.247033
21
212.791759
0
LINE
8
Frein bois
10
9.247033
20
212.791759
11
9.822443
21
212.935051
0
LINE
8
Frein bois
10
9.822443
20
212.935051
11
10.402581
21
212.905571
0
LINE
8
Frein bois
10
10.402581
20
212.905571
11
10.949839
21
212.710798
0
LINE
8
Frein bois
10
10.949839
20
212.710798
11
11.426614
21
212.358214
0
LINE
8
Frein bois
10
11.426614
20
212.358214
11
11.779198
21
211.881439
0
LINE
8
Frein bois
10
11.779198
20
211.881439
11
11.973971
21
211.334181
0
LINE
8
Frein bois
10
11.973971
20
211.334181
11
12.003451
21
210.754043
0
LINE
8
Frein bois
10
12.003451
20
210.754043
11
11.860159
21
210.178633
0
LINE
8
Frein bois
10
11.860159
20
210.178633
11
11.554605
21
209.670434
0
LINE
8
Frein bois
10
11.554605
20
209.670434
11
11.123540
21
209.281061
0
LINE
8
Frein bois
10
11.123540
20
209.281061
11
10.598845
21
209.031816
0
LINE
8
Frein bois
10
10.598845
20
209.031816
11
10.012400
21
208.944000
0
LINE
8
Frein bois
10
10.012400
20
208.944000
11
9.247033
21
209.096241
0
LINE
8
Frein bois
10
9.247033
20
209.096241
11
8.598186
21
209.529786
0
LINE
8
Frein bois
10
8.598186
20
209.529786
11
8.164641
21
210.178633
0
LINE
8
Frein bois
10
8.164641
20
210.178633
11
8.012400
21
210.944000
0
LINE
8
Frein bois
10
8.012400
20
210.944000
11
8.012400
21
210.944000
0
LINE
8
Frein bois
10
13.835929
20
221.238118
11
11.999030
21
220.780913
0
LINE
8
Frein bois
10
11.999030
20
220.780913
11
10.315234
21
220.020660
0
LINE
8
Frein bois
10
10.315234
20
220.020660
11
8.812842
21
218.990374
0
LINE
8
Frein bois
10
8.812842
20
218.990374
11
7.520152
21
217.723070
0
LINE
8
Frein bois
10
7.520152
20
217.723070
11
6.465463
21
216.251765
0
LINE
8
Frein bois
10
6.465463
20
216.251765
11
5.677075
21
214.609475
0
LINE
8
Frein bois
10
5.677075
20
214.609475
11
5.183288
21
212.829214
0
LINE
8
Frein bois
10
5.183288
20
212.829214
11
5.012400
21
210.944000
0
LINE
8
Frein bois
10
5.012400
20
210.944000
11
5.113238
21
209.944783
0
LINE
8
Frein bois
10
5.113238
20
209.944783
11
5.407929
21
208.994938
0
LINE
8
Frein bois
10
5.407929
20
208.994938
11
5.884740
21
208.122184
0
LINE
8
Frein bois
10
5.884740
20
208.122184
11
6.531938
21
207.354240
0
LINE
8
Frein bois
10
6.531938
20
207.354240
11
7.319520
21
206.731089
0
LINE
8
Frein bois
10
7.319520
20
206.731089
11
8.206595
21
206.281483
0
LINE
8
Frein bois
10
8.206595
20
206.281483
11
9.165095
21
206.016293
0
LINE
8
Frein bois
10
9.165095
20
206.016293
11
10.166952
21
205.946390
0
LINE
8
Frein bois
10
10.166952
20
205.946390
11
65.109768
21
207.645505
0
LINE
8
Frein bois
10
65.109768
20
207.645505
11
66.316002
21
207.925558
0
LINE
8
Frein bois
10
66.316002
20
207.925558
11
67.290829
21
208.618853
0
LINE
8
Frein bois
10
67.290829
20
208.618853
11
67.938189
21
209.624771
0
LINE
8
Frein bois
10
67.938189
20
209.624771
11
68.162024
21
210.842690
0
LINE
8
Frein bois
10
68.162024
20
210.842690
11
67.900650
21
212.053108
0
LINE
8
Frein bois
10
67.900650
20
212.053108
11
67.222505
21
213.038535
0
LINE
8
Frein bois
10
67.222505
20
213.038535
11
66.226714
21
213.701367
0
LINE
8
Frein bois
10
66.226714
20
213.701367
11
65.012400
21
213.944000
0
LINE
8
Frein bois
10
65.012400
20
213.944000
11
45.012400
21
213.944000
0
LINE
8
Frein bois
10
45.012400
20
213.944000
11
44.032393
21
214.040961
0
LINE
8
Frein bois
10
44.032393
20
214.040961
11
43.098983
21
214.324602
0
LINE
8
Frein bois
10
43.098983
20
214.324602
11
42.238397
21
214.784059
0
LINE
8
Frein bois
10
42.238397
20
214.784059
11
41.476866
21
215.408466
0
LINE
8
Frein bois
10
41.476866
20
215.408466
11
40.852459
21
216.169997
0
LINE
8
Frein bois
10
40.852459
20
216.169997
11
40.393002
21
217.030583
0
LINE
8
Frein bois
10
40.393002
20
217.030583
11
40.109361
21
217.963993
0
LINE
8
Frein bois
10
40.109361
20
217.963993
11
40.012400
21
218.944000
0
LINE
8
Frein bois
10
40.012400
20
218.944000
11
40.012400
21
228.944000
0
LINE
8
Frein bois
10
40.012400
20
228.944000
11
39.860159
21
229.709367
0
LINE
8
Frein bois
10
39.860159
20
229.709367
11
39.426614
21
230.358214
0
LINE
8
Frein bois
10
39.426614
20
230.358214
11
38.777767
21
230.791759
0
LINE
8
Frein bois
10
38.777767
20
230.791759
11
38.012400
21
230.944000
0
LINE
8
Frein bois
10
38.012400
20
230.944000
11
30.988577
21
230.944000
0
LINE
8
Frein bois
10
30.988577
20
230.944000
11
30.127927
21
230.749357
0
LINE
8
Frein bois
10
30.127927
20
230.749357
11
29.434800
21
230.203300
0
LINE
8
Frein bois
10
29.434800
20
230.203300
11
27.894350
21
228.472940
0
LINE
8
Frein bois
10
27.894350
20
228.472940
11
26.211588
21
226.902220
0
LINE
8
Frein bois
10
26.211588
20
226.902220
11
24.399184
21
225.498422
0
LINE
8
Frein bois
10
24.399184
20
225.498422
11
22.469806
21
224.268827
0
LINE
8
Frein bois
10
22.469806
20
224.268827
11
20.436122
21
223.220716
0
LINE
8
Frein bois
10
20.436122
20
223.220716
11
18.310803
21
222.361371
0
LINE
8
Frein bois
10
18.310803
20
222.361371
11
16.106516
21
221.698071
0
LINE
8
Frein bois
10
16.106516
20
221.698071
11
13.835930
21
221.238100
0
LINE
8
platine radio V2
10
16.675480
20
65.730000
11
58.175480
21
65.730000
0
LINE
8
platine radio V2
10
58.175480
20
65.730000
11
58.175480
21
106.730000
0
LINE
8
platine radio V2
10
58.175480
20
106.730000
11
16.675480
21
106.730000
0
LINE
8
platine radio V2
10
16.675480
20
106.730000
11
16.675480
21
65.730000
0
LINE
8
platine radio V2
10
16.675480
20
46.230000
11
58.175480
21
46.230000
0
LINE
8
platine radio V2
10
58.175480
20
46.230000
11
58.175480
21
25.787251
0
LINE
8
platine radio V2
10
58.175480
20
25.787251
11
16.675480
21
25.787251
0
LINE
8
platine radio V2
10
16.675480
20
25.787251
11
16.675480
21
46.230000
0
LINE
8
platine radio V2
10
168.841210
20
108.584715
11
165.487140
21
88.418996
0
LINE
8
platine radio V2
10
165.487140
20
88.418996
11
206.424750
21
81.610043
0
LINE
8
platine radio V2
10
206.424750
20
81.610043
11
209.778820
21
101.775762
0
LINE
8
platine radio V2
10
209.778820
20
101.775762
11
168.841210
21
108.584715
0
LINE
8
platine radio V2
10
128.945700
20
40.230000
11
149.945700
21
40.230000
0
LINE
8
platine radio V2
10
149.945700
20
40.230000
11
149.945700
21
92.230000
0
LINE
8
platine radio V2
10
149.945700
20
92.230000
11
128.945700
21
92.230000
0
LINE
8
platine radio V2
10
128.945700
20
92.230000
11
128.945700
21
40.230000
0
LINE
8
platine radio V2
10
183.675480
20
72.178476
11
183.675480
21
42.178476
0
LINE
8
platine radio V2
10
183.675480
20
42.178476
11
276.675480
21
42.178476
0
LINE
8
platine radio V2
10
276.675480
20
42.178476
11
276.675480
21
72.178476
0
LINE
8
platine radio V2
10
276.675480
20
72.178476
11
183.675480
21
72.178476
0
LINE
8
platine radio V2
10
82.215805
20
106.730000
11
107.215810
21
106.730000
0
LINE
8
platine radio V2
10
107.215810
20
106.730000
11
107.215810
21
96.730000
0
LINE
8
platine radio V2
10
107.215810
20
96.730000
11
82.215805
21
96.730000
0
LINE
8
platine radio V2
10
82.215805
20
96.730000
11
82.215805
21
106.730000
0
LINE
8
platine radio V2
10
82.215805
20
35.730000
11
107.215810
21
35.730000
0
LINE
8
platine radio V2
10
107.215810
20
35.730000
11
107.215810
21
25.730000
0
LINE
8
platine radio V2
10
107.215810
20
25.730000
11
82.215805
21
25.730000
0
LINE
8
platine radio V2
10
82.215805
20
25.730000
11
82.215805
21
35.730000
0
LINE
8
platine radio V2
10
286.675480
20
36.730000
11
286.675480
21
95.730000
0
LINE
8
platine radio V2
10
286.675480
20
95.730000
11
263.133814
21
100.547708
0
LINE
8
platine radio V2
10
263.133814
20
100.547708
11
248.342150
21
103.521667
0
LINE
8
platine radio V2
10
248.342150
20
103.521667
11
236.883814
21
105.422708
0
LINE
8
platine radio V2
10
236.883814
20
105.422708
11
226.675480
21
106.980000
0
LINE
8
platine radio V2
10
226.675480
20
106.980000
11
216.675480
21
108.740417
0
LINE
8
platine radio V2
10
216.675480
20
108.740417
11
206.675480
21
110.563333
0
LINE
8
platine radio V2
10
206.675480
20
110.563333
11
196.675480
21
112.209167
0
LINE
8
platine radio V2
10
196.675480
20
112.209167
11
186.675480
21
113.730000
0
LINE
8
platine radio V2
10
186.675480
20
113.730000
11
176.258814
21
115.240417
0
LINE
8
platine radio V2
10
176.258814
20
115.240417
11
163.342150
21
116.813333
0
LINE
8
platine radio V2
10
163.342150
20
116.813333
11
146.258814
21
118.459167
0
LINE
8
platine radio V2
10
146.258814
20
118.459167
11
126.675480
21
119.980000
0
LINE
8
platine radio V2
10
126.675480
20
119.980000
11
106.258814
21
121.188333
0
LINE
8
platine radio V2
10
106.258814
20
121.188333
11
83.342147
21
122.146667
0
LINE
8
platine radio V2
10
83.342147
20
122.146667
11
53.758813
21
122.969583
0
LINE
8
platine radio V2
10
53.758813
20
122.969583
11
6.675480
21
123.730000
0
LINE
8
platine radio V2
10
6.675480
20
123.730000
11
6.675480
21
8.730000
0
LINE
8
platine radio V2
10
6.675480
20
8.730000
11
53.758813
21
9.490417
0
LINE
8
platine radio V2
10
53.758813
20
9.490417
11
83.342147
21
10.313333
0
LINE
8
platine radio V2
10
83.342147
20
10.313333
11
106.258814
21
11.271667
0
LINE
8
platine radio V2
10
106.258814
20
11.271667
11
126.675480
21
12.480000
0
LINE
8
platine radio V2
10
126.675480
20
12.480000
11
146.258814
21
14.000833
0
LINE
8
platine radio V2
10
146.258814
20
14.000833
11
163.342150
21
15.646667
0
LINE
8
platine radio V2
10
163.342150
20
15.646667
11
176.258814
21
17.219583
0
LINE
8
platine radio V2
10
176.258814
20
17.219583
11
186.675480
21
18.730000
0
LINE
8
platine radio V2
10
186.675480
20
18.730000
11
196.675480
21
20.250833
0
LINE
8
platine radio V2
10
196.675480
20
20.250833
11
206.675480
21
21.896667
0
LINE
8
platine radio V2
10
206.675480
20
21.896667
11
216.675480
21
23.719583
0
LINE
8
platine radio V2
10
216.675480
20
23.719583
11
226.675480
21
25.480000
0
LINE
8
platine radio V2
10
226.675480
20
25.480000
11
236.883814
21
27.037292
0
LINE
8
platine radio V2
10
236.883814
20
27.037292
11
248.342150
21
28.938333
0
LINE
8
platine radio V2
10
248.342150
20
28.938333
11
263.133814
21
31.912292
0
LINE
8
platine radio V2
10
263.133814
20
31.912292
11
286.675480
21
36.730000
0
LINE
8
platine radio V2
10
163.729130
20
66.230000
11
173.729130
21
66.230000
0
LINE
8
platine radio V2
10
173.729130
20
66.230000
11
173.729130
21
51.230000
0
LINE
8
platine radio V2
10
173.729130
20
51.230000
11
163.729130
21
51.230000
0
LINE
8
platine radio V2
10
163.729130
20
51.230000
11
163.729130
21
66.230000
0
LINE
8
Support d'aile
10
71.741710
20
299.000000
11
141.741710
21
294.000000
0
LINE
8
Support d'aile
10
141.741710
20
294.000000
11
141.741710
21
254.000000
0
LINE
8
Support d'aile
10
141.741710
20
254.000000
11
71.741710
21
249.000000
0
LINE
8
Support d'aile
10
71.741710
20
249.000000
11
71.741710
21
299.000000
0
LINE
8
Support d'aile
10
6.741710
20
234.000000
11
30.283377
21
234.161458
0
LINE
8
Support d'aile
10
30.283377
20
234.161458
11
45.075043
21
234.541667
0
LINE
8
Support d'aile
10
45.075043
20
234.541667
11
56.533377
21
235.015625
0
LINE
8
Support d'aile
10
56.533377
20
235.015625
11
66.741710
21
235.583333
0
LINE
8
Support d'aile
10
66.741710
20
235.583333
11
86.741710
21
236.916667
0
LINE
8
Support d'aile
10
86.741710
20
236.916667
11
106.741710
21
238.166667
0
LINE
8
Support d'aile
10
106.741710
20
238.166667
11
126.741710
21
239.916667
0
LINE
8
Support d'aile
10
126.741710
20
239.916667
11
148.408380
21
241.770190
0
LINE
8
Support d'aile
10
148.408380
20
241.770190
11
163.200044
21
243.141702
0
LINE
8
Support d'aile
10
163.200044
20
243.141702
11
186.741710
21
245.000000
0
LINE
8
Support d'aile
10
186.741710
20
245.000000
11
186.741710
21
303.000000
0
LINE
8
Support d'aile
10
186.741710
20
303.000000
11
163.200044
21
304.954202
0
LINE
8
Support d'aile
10
163.200044
20
304.954202
11
148.408380
21
306.270190
0
LINE
8
Support d'aile
10
148.408380
20
306.270190
11
126.741710
21
308.083333
0
LINE
8
Support d'aile
10
126.741710
20
308.083333
11
106.741710
21
309.833333
0
LINE
8
Support d'aile
10
106.741710
20
309.833333
11
86.741710
21
311.083333
0
LINE
8
Support d'aile
10
86.741710
20
311.083333
11
66.741710
21
312.416667
0
LINE
8
Support d'aile
10
66.741710
20
312.416667
11
56.533377
21
312.984375
0
LINE
8
Support d'aile
10
56.533377
20
312.984375
11
45.075043
21
313.458333
0
LINE
8
Support d'aile
10
45.075043
20
313.458333
11
30.283377
21
313.838542
0
LINE
8
Support d'aile
10
30.283377
20
313.838542
11
6.741710
21
314.000000
0
LINE
8
Support d'aile
10
6.741710
20
314.000000
11
6.741710
21
234.000000
0
LINE
8
Support d'aile
10
222.840000
20
130.406000
11
152.840000
21
135.406000
0
LINE
8
Support d'aile
10
152.840000
20
135.406000
11
152.840000
21
175.406000
0
LINE
8
Support d'aile
10
152.840000
20
175.406000
11
222.840000
21
180.406000
0
LINE
8
Support d'aile
10
222.840000
20
180.406000
11
222.840000
21
130.406000
0
LINE
8
Support d'aile
10
287.840000
20
195.406000
11
264.298333
21
195.244542
0
LINE
8
Support d'aile
10
264.298333
20
195.244542
11
249.506667
21
194.864333
0
LINE
8
Support d'aile
10
249.506667
20
194.864333
11
238.048333
21
194.390375
0
LINE
8
Support d'aile
10
238.048333
20
194.390375
11
227.840000
21
193.822667
0
LINE
8
Support d'aile
10
227.840000
20
193.822667
11
207.840000
21
192.489333
0
LINE
8
Support d'aile
10
207.840000
20
192.489333
11
187.840000
21
191.239333
0
LINE
8
Support d'aile
10
187.840000
20
191.239333
11
167.840000
21
189.489333
0
LINE
8
Support d'aile
10
167.840000
20
189.489333
11
146.173330
21
187.635810
0
LINE
8
Support d'aile
10
146.173330
20
187.635810
11
131.381666
21
186.264298
0
LINE
8
Support d'aile
10
131.381666
20
186.264298
11
107.840000
21
184.406000
0
LINE
8
Support d'aile
10
107.840000
20
184.406000
11
107.840000
21
126.406000
0
LINE
8
Support d'aile
10
107.840000
20
126.406000
11
131.381666
21
124.451798
0
LINE
8
Support d'aile
10
131.381666
20
124.451798
11
146.173330
21
123.135810
0
LINE
8
Support d'aile
10
146.173330
20
123.135810
11
167.840000
21
121.322667
0
LINE
8
Support d'aile
10
167.840000
20
121.322667
11
187.840000
21
119.572667
0
LINE
8
Support d'aile
10
187.840000
20
119.572667
11
207.840000
21
118.322667
0
LINE
8
Support d'aile
10
207.840000
20
118.322667
11
227.840000
21
116.989333
0
LINE
8
Support d'aile
10
227.840000
20
116.989333
11
238.048333
21
116.421625
0
LINE
8
Support d'aile
10
238.048333
20
116.421625
11
249.506667
21
115.947667
0
LINE
8
Support d'aile
10
249.506667
20
115.947667
11
264.298333
21
115.567458
0
LINE
8
Support d'aile
10
264.298333
20
115.567458
11
287.840000
21
115.406000
0
LINE
8
Support d'aile
10
287.840000
20
115.406000
11
287.840000
21
195.406000
0
LINE
8
Layer 1
10
75.582200
20
265.409000
11
75.582200
21
253.409000
0
LINE
8
Layer 1
10
75.582200
20
253.409000
11
100.582200
21
257.409000
0
LINE
8
Layer 1
10
100.582200
20
257.409000
11
100.582200
21
265.409000
0
LINE
8
Layer 1
10
100.582200
20
265.409000
11
75.582200
21
265.409000
0
LINE
8
Layer 1
10
79.582200
20
262.209000
11
96.582200
21
262.209000
0
LINE
8
Layer 1
10
96.582200
20
262.209000
11
96.582200
21
259.209000
0
LINE
8
Layer 1
10
96.582200
20
259.209000
11
79.582200
21
259.209000
0
LINE
8
Layer 1
10
79.582200
20
259.209000
11
79.582200
21
262.209000
0
LINE
8
Layer 1
10
28.724800
20
30.146000
11
28.724800
21
33.146000
0
LINE
8
Layer 1
10
28.724800
20
33.146000
11
45.724800
21
33.146000
0
LINE
8
Layer 1
10
45.724800
20
33.146000
11
45.724800
21
30.146000
0
LINE
8
Layer 1
10
45.724800
20
30.146000
11
49.724800
21
30.146000
0
LINE
8
Layer 1
10
49.724800
20
30.146000
11
49.724800
21
38.146000
0
LINE
8
Layer 1
10
49.724800
20
38.146000
11
24.724800
21
42.146000
0
LINE
8
Layer 1
10
24.724800
20
42.146000
11
24.724800
21
30.146000
0
LINE
8
Layer 1
10
24.724800
20
30.146000
11
28.724800
21
30.146000
0
LINE
8
Layer 1
10
116.653000
20
193.753000
11
133.653000
21
193.753000
0
LINE
8
Layer 1
10
133.653000
20
193.753000
11
133.653000
21
196.753000
0
LINE
8
Layer 1
10
133.653000
20
196.753000
11
116.653000
21
196.753000
0
LINE
8
Layer 1
10
116.653000
20
196.753000
11
116.653000
21
193.753000
0
LINE
8
Layer 1
10
112.653000
20
190.553000
11
112.653000
21
203.553000
0
LINE
8
Layer 1
10
112.653000
20
203.553000
11
137.653000
21
207.553000
0
LINE
8
Layer 1
10
137.653000
20
207.553000
11
137.653000
21
190.553000
0
LINE
8
Layer 1
10
137.653000
20
190.553000
11
112.653000
21
190.553000
0
LINE
8
Layer 1
10
213.718140
20
163.549760
11
213.718140
21
146.549760
0
LINE
8
Layer 1
10
213.718140
20
146.549760
11
216.718140
21
146.549760
0
LINE
8
Layer 1
10
216.718140
20
146.549760
11
216.718140
21
142.549760
0
LINE
8
Layer 1
10
216.718140
20
142.549760
11
203.718140
21
142.549760
0
LINE
8
Layer 1
10
203.718140
20
142.549760
11
199.718140
21
167.549760
0
LINE
8
Layer 1
10
199.718140
20
167.549760
11
216.718140
21
167.549760
0
LINE
8
Layer 1
10
216.718140
20
167.549760
11
216.718140
21
163.549760
0
LINE
8
Layer 1
10
216.718140
20
163.549760
11
213.718140
21
163.549760
0
LINE
8
Layer 1
10
184.687000
20
146.352000
11
184.687000
21
163.352000
0
LINE
8
Layer 1
10
184.687000
20
163.352000
11
181.687000
21
163.352000
0
LINE
8
Layer 1
10
181.687000
20
163.352000
11
181.687000
21
167.352000
0
LINE
8
Layer 1
10
181.687000
20
167.352000
11
194.687000
21
167.352000
0
LINE
8
Layer 1
10
194.687000
20
167.352000
11
198.687000
21
142.352000
0
LINE
8
Layer 1
10
198.687000
20
142.352000
11
181.687000
21
142.352000
0
LINE
8
Layer 1
10
181.687000
20
142.352000
11
181.687000
21
146.352000
0
LINE
8
Layer 1
10
181.687000
20
146.352000
11
184.687000
21
146.352000
0
LINE
8
Layer 1
10
97.714500
20
196.182000
11
80.714500
21
196.182000
0
LINE
8
Layer 1
10
80.714500
20
196.182000
11
80.714500
21
193.182000
0
LINE
8
Layer 1
10
80.714500
20
193.182000
11
97.714500
21
193.182000
0
LINE
8
Layer 1
10
97.714500
20
193.182000
11
97.714500
21
196.182000
0
LINE
8
Layer 1
10
101.714500
20
199.382000
11
101.714500
21
186.382000
0
LINE
8
Layer 1
10
101.714500
20
186.382000
11
76.714500
21
182.382000
0
LINE
8
Layer 1
10
76.714500
20
182.382000
11
76.714500
21
199.382000
0
LINE
8
Layer 1
10
76.714500
20
199.382000
11
101.714500
21
199.382000
0
LINE
8
Layer 1
10
241.621000
20
65.779000
11
244.621000
21
65.779000
0
LINE
8
Layer 1
10
244.621000
20
65.779000
11
244.621000
21
48.779000
0
LINE
8
Layer 1
10
244.621000
20
48.779000
11
241.621000
21
48.779000
0
LINE
8
Layer 1
10
241.621000
20
48.779000
11
241.621000
21
44.779000
0
LINE
8
Layer 1
10
241.621000
20
44.779000
11
249.621000
21
44.779000
0
LINE
8
Layer 1
10
249.621000
20
44.779000
11
253.621000
21
69.779000
0
LINE
8
Layer 1
10
253.621000
20
69.779000
11
241.621000
21
69.779000
0
LINE
8
Layer 1
10
241.621000
20
69.779000
11
241.621000
21
65.779000
0
LINE
8
Layer 1
10
100.616000
20
279.750000
11
100.616000
21
267.750000
0
LINE
8
Layer 1
10
100.616000
20
267.750000
11
75.616000
21
271.750000
0
LINE
8
Layer 1
10
75.616000
20
271.750000
11
75.616000
21
279.750000
0
LINE
8
Layer 1
10
75.616000
20
279.750000
11
100.616000
21
279.750000
0
LINE
8
Layer 1
10
96.616000
20
276.550000
11
79.616000
21
276.550000
0
LINE
8
Layer 1
10
79.616000
20
276.550000
11
79.616000
21
273.550000
0
LINE
8
Layer 1
10
79.616000
20
273.550000
11
96.616000
21
273.550000
0
LINE
8
Layer 1
10
96.616000
20
273.550000
11
96.616000
21
276.550000
0
LINE
8
Layer 1
10
163.327000
20
205.572000
11
146.327000
21
205.572000
0
LINE
8
Layer 1
10
146.327000
20
205.572000
11
146.327000
21
202.572000
0
LINE
8
Layer 1
10
146.327000
20
202.572000
11
163.327000
21
202.572000
0
LINE
8
Layer 1
10
163.327000
20
202.572000
11
163.327000
21
205.572000
0
LINE
8
Layer 1
10
167.327000
20
208.772000
11
167.327000
21
195.772000
0
LINE
8
Layer 1
10
167.327000
20
195.772000
11
142.327000
21
191.772000
0
LINE
8
Layer 1
10
142.327000
20
191.772000
11
142.327000
21
208.772000
0
LINE
8
Layer 1
10
142.327000
20
208.772000
11
167.327000
21
208.772000
0
LINE
8
Layer 1
10
174.307000
20
163.313000
11
174.307000
21
146.313000
0
LINE
8
Layer 1
10
174.307000
20
146.313000
11
177.307000
21
146.313000
0
LINE
8
Layer 1
10
177.307000
20
146.313000
11
177.307000
21
142.313000
0
LINE
8
Layer 1
10
177.307000
20
142.313000
11
164.307000
21
142.313000
0
LINE
8
Layer 1
10
164.307000
20
142.313000
11
160.307000
21
167.313000
0
LINE
8
Layer 1
10
160.307000
20
167.313000
11
177.307000
21
167.313000
0
LINE
8
Layer 1
10
177.307000
20
167.313000
11
177.307000
21
163.313000
0
LINE
8
Layer 1
10
177.307000
20
163.313000
11
174.307000
21
163.313000
0
LINE
8
Layer 1
10
28.758500
20
100.065000
11
45.758500
21
100.065000
0
LINE
8
Layer 1
10
45.758500
20
100.065000
11
45.758500
21
103.065000
0
LINE
8
Layer 1
10
45.758500
20
103.065000
11
49.758500
21
103.065000
0
LINE
8
Layer 1
10
49.758500
20
103.065000
11
49.758500
21
90.065000
0
LINE
8
Layer 1
10
49.758500
20
90.065000
11
24.758500
21
86.065000
0
LINE
8
Layer 1
10
24.758500
20
86.065000
11
24.758500
21
103.065000
0
LINE
8
Layer 1
10
24.758500
20
103.065000
11
28.758500
21
103.065000
0
LINE
8
Layer 1
10
28.758500
20
103.065000
11
28.758500
21
100.065000
0
LINE
8
Layer 1
10
98.629800
20
157.435000
11
81.629800
21
157.435000
0
LINE
8
Layer 1
10
81.629800
20
157.435000
11
81.629800
21
154.435000
0
LINE
8
Layer 1
10
81.629800
20
154.435000
11
98.629800
21
154.435000
0
LINE
8
Layer 1
10
98.629800
20
154.435000
11
98.629800
21
157.435000
0
LINE
8
Layer 1
10
102.629800
20
160.635000
11
102.629800
21
147.635000
0
LINE
8
Layer 1
10
102.629800
20
147.635000
11
77.629800
21
143.635000
0
LINE
8
Layer 1
10
77.629800
20
143.635000
11
77.629800
21
160.635000
0
LINE
8
Layer 1
10
77.629800
20
160.635000
11
102.629800
21
160.635000
0
LINE
8
Layer 1
10
81.292000
20
167.672000
11
98.292000
21
167.672000
0
LINE
8
Layer 1
10
98.292000
20
167.672000
11
98.292000
21
170.672000
0
LINE
8
Layer 1
10
98.292000
20
170.672000
11
81.292000
21
170.672000
0
LINE
8
Layer 1
10
81.292000
20
170.672000
11
81.292000
21
167.672000
0
LINE
8
Layer 1
10
77.292000
20
164.472000
11
77.292000
21
177.472000
0
LINE
8
Layer 1
10
77.292000
20
177.472000
11
102.292000
21
181.472000
0
LINE
8
Layer 1
10
102.292000
20
181.472000
11
102.292000
21
164.472000
0
LINE
8
Layer 1
10
102.292000
20
164.472000
11
77.292000
21
164.472000
0
LINE
8
Layer 1
10
45.618467
20
72.200333
11
28.618467
21
72.200333
0
LINE
8
Layer 1
10
28.618467
20
72.200333
11
28.618467
21
69.200333
0
LINE
8
Layer 1
10
28.618467
20
69.200333
11
24.618468
21
69.200333
0
LINE
8
Layer 1
10
24.618468
20
69.200333
11
24.618468
21
82.200334
0
LINE
8
Layer 1
10
24.618468
20
82.200334
11
49.618468
21
86.200334
0
LINE
8
Layer 1
10
49.618468
20
86.200334
11
49.618468
21
69.200333
0
LINE
8
Layer 1
10
49.618468
20
69.200333
11
45.618467
21
69.200333
0
LINE
8
Layer 1
10
45.618467
20
69.200333
11
45.618467
21
72.200333
0
LINE
8
Layer 1
10
266.337970
20
48.816971
11
266.337970
21
65.816970
0
LINE
8
Layer 1
10
266.337970
20
65.816970
11
269.337970
21
65.816970
0
LINE
8
Layer 1
10
269.337970
20
65.816970
11
269.337970
21
69.816970
0
LINE
8
Layer 1
10
269.337970
20
69.816970
11
256.337970
21
69.816970
0
LINE
8
Layer 1
10
256.337970
20
69.816970
11
252.337970
21
44.816971
0
LINE
8
Layer 1
10
252.337970
20
44.816971
11
269.337970
21
44.816971
0
LINE
8
Layer 1
10
269.337970
20
44.816971
11
269.337970
21
48.816971
0
LINE
8
Layer 1
10
269.337970
20
48.816971
11
266.337970
21
48.816971
0
LINE
8
Layer 1
10
81.622333
20
130.615333
11
98.622333
21
130.615333
0
LINE
8
Layer 1
10
98.622333
20
130.615333
11
98.622333
21
133.615334
0
LINE
8
Layer 1
10
98.622333
20
133.615334
11
81.622333
21
133.615334
0
LINE
8
Layer 1
10
81.622333
20
133.615334
11
81.622333
21
130.615333
0
LINE
8
Layer 1
10
77.622333
20
127.415333
11
77.622333
21
140.415334
0
LINE
8
Layer 1
10
77.622333
20
140.415334
11
102.622333
21
144.415334
0
LINE
8
Layer 1
10
102.622333
20
144.415334
11
102.622333
21
127.415333
0
LINE
8
Layer 1
10
102.622333
20
127.415333
11
77.622333
21
127.415333
0
LINE
8
Layer 1
10
75.582600
20
282.299000
11
75.582600
21
294.299000
0
LINE
8
Layer 1
10
75.582600
20
294.299000
11
100.582600
21
290.299000
0
LINE
8
Layer 1
10
100.582600
20
290.299000
11
100.582600
21
282.299000
0
LINE
8
Layer 1
10
100.582600
20
282.299000
11
75.582600
21
282.299000
0
LINE
8
Layer 1
10
79.582600
20
285.499000
11
96.582600
21
285.499000
0
LINE
8
Layer 1
10
96.582600
20
285.499000
11
96.582600
21
288.499000
0
LINE
8
Layer 1
10
96.582600
20
288.499000
11
79.582600
21
288.499000
0
LINE
8
Layer 1
10
79.582600
20
288.499000
11
79.582600
21
285.499000
0
LINE
8
Layer 1
10
239.452000
20
48.872000
11
236.452000
21
48.872000
0
LINE
8
Layer 1
10
236.452000
20
48.872000
11
236.452000
21
65.872000
0
LINE
8
Layer 1
10
236.452000
20
65.872000
11
239.452000
21
65.872000
0
LINE
8
Layer 1
10
239.452000
20
65.872000
11
239.452000
21
69.872000
0
LINE
8
Layer 1
10
239.452000
20
69.872000
11
231.452000
21
69.872000
0
LINE
8
Layer 1
10
231.452000
20
69.872000
11
227.452000
21
44.872000
0
LINE
8
Layer 1
10
227.452000
20
44.872000
11
239.452000
21
44.872000
0
LINE
8
Layer 1
10
239.452000
20
44.872000
11
239.452000
21
48.872000
0
LINE
8
Layer 1
10
216.205000
20
65.840000
11
219.205000
21
65.840000
0
LINE
8
Layer 1
10
219.205000
20
65.840000
11
219.205000
21
48.840000
0
LINE
8
Layer 1
10
219.205000
20
48.840000
11
216.205000
21
48.840000
0
LINE
8
Layer 1
10
216.205000
20
48.840000
11
216.205000
21
44.840000
0
LINE
8
Layer 1
10
216.205000
20
44.840000
11
224.205000
21
44.840000
0
LINE
8
Layer 1
10
224.205000
20
44.840000
11
228.205000
21
69.840000
0
LINE
8
Layer 1
10
228.205000
20
69.840000
11
216.205000
21
69.840000
0
LINE
8
Layer 1
10
216.205000
20
69.840000
11
216.205000
21
65.840000
0
LINE
8
Layer 1
10
104.870000
20
267.434000
11
104.870000
21
255.434000
0
LINE
8
Layer 1
10
104.870000
20
255.434000
11
129.870000
21
259.434000
0
LINE
8
Layer 1
10
129.870000
20
259.434000
11
129.870000
21
267.434000
0
LINE
8
Layer 1
10
129.870000
20
267.434000
11
104.870000
21
267.434000
0
LINE
8
Layer 1
10
108.870000
20
264.234000
11
125.870000
21
264.234000
0
LINE
8
Layer 1
10
125.870000
20
264.234000
11
125.870000
21
261.234000
0
LINE
8
Layer 1
10
125.870000
20
261.234000
11
108.870000
21
261.234000
0
LINE
8
Layer 1
10
108.870000
20
261.234000
11
108.870000
21
264.234000
0
LINE
8
Layer 1
10
105.051000
20
269.486000
11
105.051000
21
281.486000
0
LINE
8
Layer 1
10
105.051000
20
281.486000
11
130.051000
21
277.486000
0
LINE
8
Layer 1
10
130.051000
20
277.486000
11
130.051000
21
269.486000
0
LINE
8
Layer 1
10
130.051000
20
269.486000
11
105.051000
21
269.486000
0
LINE
8
Layer 1
10
109.051000
20
272.686000
11
126.051000
21
272.686000
0
LINE
8
Layer 1
10
126.051000
20
272.686000
11
126.051000
21
275.686000
0
LINE
8
Layer 1
10
126.051000
20
275.686000
11
109.051000
21
275.686000
0
LINE
8
Layer 1
10
109.051000
20
275.686000
11
109.051000
21
272.686000
0
LINE
8
Layer 1
10
213.556000
20
48.883000
11
210.556000
21
48.883000
0
LINE
8
Layer 1
10
210.556000
20
48.883000
11
210.556000
21
65.883000
0
LINE
8
Layer 1
10
210.556000
20
65.883000
11
213.556000
21
65.883000
0
LINE
8
Layer 1
10
213.556000
20
65.883000
11
213.556000
21
69.883000
0
LINE
8
Layer 1
10
213.556000
20
69.883000
11
205.556000
21
69.883000
0
LINE
8
Layer 1
10
205.556000
20
69.883000
11
201.556000
21
44.883000
0
LINE
8
Layer 1
10
201.556000
20
44.883000
11
213.556000
21
44.883000
0
LINE
8
Layer 1
10
213.556000
20
44.883000
11
213.556000
21
48.883000
0
LINE
8
Layer 1
10
190.129000
20
65.851000
11
193.129000
21
65.851000
0
LINE
8
Layer 1
10
193.129000
20
65.851000
11
193.129000
21
48.851000
0
LINE
8
Layer 1
10
193.129000
20
48.851000
11
190.129000
21
48.851000
0
LINE
8
Layer 1
10
190.129000
20
48.851000
11
190.129000
21
44.851000
0
LINE
8
Layer 1
10
190.129000
20
44.851000
11
198.129000
21
44.851000
0
LINE
8
Layer 1
10
198.129000
20
44.851000
11
202.129000
21
69.851000
0
LINE
8
Layer 1
10
202.129000
20
69.851000
11
190.129000
21
69.851000
0
LINE
8
Layer 1
10
190.129000
20
69.851000
11
190.129000
21
65.851000
0
LINE
8
Layer 1
10
129.988000
20
291.690000
11
129.988000
21
279.690000
0
LINE
8
Layer 1
10
129.988000
20
279.690000
11
104.988000
21
283.690000
0
LINE
8
Layer 1
10
104.988000
20
283.690000
11
104.988000
21
291.690000
0
LINE
8
Layer 1
10
104.988000
20
291.690000
11
129.988000
21
291.690000
0
LINE
8
Layer 1
10
125.988000
20
288.490000
11
108.988000
21
288.490000
0
LINE
8
Layer 1
10
108.988000
20
288.490000
11
108.988000
21
285.490000
0
LINE
8
Layer 1
10
108.988000
20
285.490000
11
125.988000
21
285.490000
0
LINE
8
Layer 1
10
125.988000
20
285.490000
11
125.988000
21
288.490000
0
LINE
8
Layer 1
10
223.267445
20
278.178000
11
192.592000
21
278.178000
0
LINE
8
Layer 1
10
192.592000
20
278.178000
11
192.592000
21
296.178000
0
LINE
8
Layer 1
10
192.592000
20
296.178000
11
192.882884
21
299.118020
0
LINE
8
Layer 1
10
192.882884
20
299.118020
11
193.733807
21
301.918251
0
LINE
8
Layer 1
10
193.733807
20
301.918251
11
195.112176
21
304.500008
0
LINE
8
Layer 1
10
195.112176
20
304.500008
11
196.985398
21
306.784602
0
LINE
8
Layer 1
10
196.985398
20
306.784602
11
199.269992
21
308.657824
0
LINE
8
Layer 1
10
199.269992
20
308.657824
11
201.851749
21
310.036193
0
LINE
8
Layer 1
10
201.851749
20
310.036193
11
204.651980
21
310.887116
0
LINE
8
Layer 1
10
204.651980
20
310.887116
11
207.592000
21
311.178000
0
LINE
8
Layer 1
10
207.592000
20
311.178000
11
251.592000
21
311.178000
0
LINE
8
Layer 1
10
251.592000
20
311.178000
11
254.532020
21
310.887116
0
LINE
8
Layer 1
10
254.532020
20
310.887116
11
257.332251
21
310.036193
0
LINE
8
Layer 1
10
257.332251
20
310.036193
11
259.914008
21
308.657824
0
LINE
8
Layer 1
10
259.914008
20
308.657824
11
262.198602
21
306.784602
0
LINE
8
Layer 1
10
262.198602
20
306.784602
11
264.071824
21
304.500008
0
LINE
8
Layer 1
10
264.071824
20
304.500008
11
265.450193
21
301.918251
0
LINE
8
Layer 1
10
265.450193
20
301.918251
11
266.301116
21
299.118020
0
LINE
8
Layer 1
10
266.301116
20
299.118020
11
266.592000
21
296.178000
0
LINE
8
Layer 1
10
266.592000
20
296.178000
11
266.592000
21
278.178000
0
LINE
8
Layer 1
10
266.592000
20
278.178000
11
235.916555
21
278.178000
0
LINE
8
Layer 1
10
235.916555
20
278.178000
11
234.819710
21
276.522408
0
LINE
8
Layer 1
10
234.819710
20
276.522408
11
233.333657
21
275.261917
0
LINE
8
Layer 1
10
233.333657
20
275.261917
11
231.557914
21
274.459466
0
LINE
8
Layer 1
10
231.557914
20
274.459466
11
229.591998
21
274.177995
0
LINE
8
Layer 1
10
229.591998
20
274.177995
11
227.626081
21
274.459466
0
LINE
8
Layer 1
10
227.626081
20
274.459466
11
225.850338
21
275.261917
0
LINE
8
Layer 1
10
225.850338
20
275.261917
11
224.364285
21
276.522408
0
LINE
8
Layer 1
10
224.364285
20
276.522408
11
223.267440
21
278.178000
0
LINE
8
Layer 1
10
229.592000
20
282.678000
11
228.758645
21
282.425204
0
LINE
8
Layer 1
10
228.758645
20
282.425204
11
228.206181
21
281.752025
0
LINE
8
Layer 1
10
228.206181
20
281.752025
11
228.120822
21
280.885365
0
LINE
8
Layer 1
10
228.120822
20
280.885365
11
228.531340
21
280.117340
0
LINE
8
Layer 1
10
228.531340
20
280.117340
11
229.299365
21
279.706822
0
LINE
8
Layer 1
10
229.299365
20
279.706822
11
230.166025
21
279.792181
0
LINE
8
Layer 1
10
230.166025
20
279.792181
11
230.839204
21
280.344645
0
LINE
8
Layer 1
10
230.839204
20
280.344645
11
231.092000
21
281.178000
0
LINE
8
Layer 1
10
231.092000
20
281.178000
11
230.977819
21
281.752025
0
LINE
8
Layer 1
10
230.977819
20
281.752025
11
230.652660
21
282.238660
0
LINE
8
Layer 1
10
230.652660
20
282.238660
11
230.166025
21
282.563819
0
LINE
8
Layer 1
10
230.166025
20
282.563819
11
229.592000
21
282.678000
0
LINE
8
Layer 1
10
229.592000
20
282.678000
11
229.592000
21
282.678000
0
LINE
8
Layer 1
10
11.706400
20
192.161000
11
11.790391
21
193.282058
0
LINE
8
Layer 1
10
11.790391
20
193.282058
11
12.035708
21
194.360170
0
LINE
8
Layer 1
10
12.035708
20
194.360170
11
12.432365
21
195.380390
0
LINE
8
Layer 1
10
12.432365
20
195.380390
11
12.970378
21
196.327777
0
LINE
8
Layer 1
10
12.970378
20
196.327777
11
13.639760
21
197.187384
0
LINE
8
Layer 1
10
13.639760
20
197.187384
11
14.430527
21
197.944270
0
LINE
8
Layer 1
10
14.430527
20
197.944270
11
15.332694
21
198.583488
0
LINE
8
Layer 1
10
15.332694
20
198.583488
11
16.336274
21
199.090096
0
LINE
8
Layer 1
10
16.336274
20
199.090096
11
17.404139
21
199.441509
0
LINE
8
Layer 1
10
17.404139
20
199.441509
11
18.494063
21
199.627441
0
LINE
8
Layer 1
10
18.494063
20
199.627441
11
19.588418
21
199.651399
0
LINE
8
Layer 1
10
19.588418
20
199.651399
11
20.669577
21
199.516890
0
LINE
8
Layer 1
10
20.669577
20
199.516890
11
21.719913
21
199.227419
0
LINE
8
Layer 1
10
21.719913
20
199.227419
11
22.721797
21
198.786493
0
LINE
8
Layer 1
10
22.721797
20
198.786493
11
23.657602
21
198.197618
0
LINE
8
Layer 1
10
23.657602
20
198.197618
11
24.509701
21
197.464301
0
LINE
8
Layer 1
10
24.509701
20
197.464301
11
25.243018
21
196.612202
0
LINE
8
Layer 1
10
25.243018
20
196.612202
11
25.831893
21
195.676397
0
LINE
8
Layer 1
10
25.831893
20
195.676397
11
26.272819
21
194.674513
0
LINE
8
Layer 1
10
26.272819
20
194.674513
11
26.562290
21
193.624177
0
LINE
8
Layer 1
10
26.562290
20
193.624177
11
26.696799
21
192.543018
0
LINE
8
Layer 1
10
26.696799
20
192.543018
11
26.672841
21
191.448663
0
LINE
8
Layer 1
10
26.672841
20
191.448663
11
26.486909
21
190.358739
0
LINE
8
Layer 1
10
26.486909
20
190.358739
11
26.135496
21
189.290874
0
LINE
8
Layer 1
10
26.135496
20
189.290874
11
25.628888
21
188.287294
0
LINE
8
Layer 1
10
25.628888
20
188.287294
11
24.989670
21
187.385127
0
LINE
8
Layer 1
10
24.989670
20
187.385127
11
24.232784
21
186.594360
0
LINE
8
Layer 1
10
24.232784
20
186.594360
11
23.373177
21
185.924978
0
LINE
8
Layer 1
10
23.373177
20
185.924978
11
22.425790
21
185.386965
0
LINE
8
Layer 1
10
22.425790
20
185.386965
11
21.405570
21
184.990308
0
LINE
8
Layer 1
10
21.405570
20
184.990308
11
20.327458
21
184.744991
0
LINE
8
Layer 1
10
20.327458
20
184.744991
11
19.206400
21
184.661000
0
LINE
8
Layer 1
10
19.206400
20
184.661000
11
17.736390
21
184.806442
0
LINE
8
Layer 1
10
17.736390
20
184.806442
11
16.336274
21
185.231904
0
LINE
8
Layer 1
10
16.336274
20
185.231904
11
15.045396
21
185.921088
0
LINE
8
Layer 1
10
15.045396
20
185.921088
11
13.903099
21
186.857699
0
LINE
8
Layer 1
10
13.903099
20
186.857699
11
12.966488
21
187.999996
0
LINE
8
Layer 1
10
12.966488
20
187.999996
11
12.277304
21
189.290874
0
LINE
8
Layer 1
10
12.277304
20
189.290874
11
11.851842
21
190.690990
0
LINE
8
Layer 1
10
11.851842
20
190.690990
11
11.706400
21
192.161000
0
LINE
8
Layer 1
10
11.706400
20
192.161000
11
11.706400
21
192.161000
0
LINE
8
Layer 1
10
11.706400
20
174.161000
11
11.790391
21
175.282058
0
LINE
8
Layer 1
10
11.790391
20
175.282058
11
12.035708
21
176.360170
0
LINE
8
Layer 1
10
12.035708
20
176.360170
11
12.432365
21
177.380390
0
LINE
8
Layer 1
10
12.432365
20
177.380390
11
12.970378
21
178.327777
0
LINE
8
Layer 1
10
12.970378
20
178.327777
11
13.639760
21
179.187384
0
LINE
8
Layer 1
10
13.639760
20
179.187384
11
14.430527
21
179.944270
0
LINE
8
Layer 1
10
14.430527
20
179.944270
11
15.332694
21
180.583488
0
LINE
8
Layer 1
10
15.332694
20
180.583488
11
16.336274
21
181.090096
0
LINE
8
Layer 1
10
16.336274
20
181.090096
11
17.404139
21
181.441509
0
LINE
8
Layer 1
10
17.404139
20
181.441509
11
18.494063
21
181.627441
0
LINE
8
Layer 1
10
18.494063
20
181.627441
11
19.588418
21
181.651399
0
LINE
8
Layer 1
10
19.588418
20
181.651399
11
20.669577
21
181.516890
0
LINE
8
Layer 1
10
20.669577
20
181.516890
11
21.719913
21
181.227419
0
LINE
8
Layer 1
10
21.719913
20
181.227419
11
22.721797
21
180.786493
0
LINE
8
Layer 1
10
22.721797
20
180.786493
11
23.657602
21
180.197618
0
LINE
8
Layer 1
10
23.657602
20
180.197618
11
24.509701
21
179.464301
0
LINE
8
Layer 1
10
24.509701
20
179.464301
11
25.243018
21
178.612202
0
LINE
8
Layer 1
10
25.243018
20
178.612202
11
25.831893
21
177.676397
0
LINE
8
Layer 1
10
25.831893
20
177.676397
11
26.272819
21
176.674513
0
LINE
8
Layer 1
10
26.272819
20
176.674513
11
26.562290
21
175.624177
0
LINE
8
Layer 1
10
26.562290
20
175.624177
11
26.696799
21
174.543018
0
LINE
8
Layer 1
10
26.696799
20
174.543018
11
26.672841
21
173.448663
0
LINE
8
Layer 1
10
26.672841
20
173.448663
11
26.486909
21
172.358739
0
LINE
8
Layer 1
10
26.486909
20
172.358739
11
26.135496
21
171.290874
0
LINE
8
Layer 1
10
26.135496
20
171.290874
11
25.628888
21
170.287294
0
LINE
8
Layer 1
10
25.628888
20
170.287294
11
24.989670
21
169.385127
0
LINE
8
Layer 1
10
24.989670
20
169.385127
11
24.232784
21
168.594360
0
LINE
8
Layer 1
10
24.232784
20
168.594360
11
23.373177
21
167.924978
0
LINE
8
Layer 1
10
23.373177
20
167.924978
11
22.425790
21
167.386965
0
LINE
8
Layer 1
10
22.425790
20
167.386965
11
21.405570
21
166.990308
0
LINE
8
Layer 1
10
21.405570
20
166.990308
11
20.327458
21
166.744991
0
LINE
8
Layer 1
10
20.327458
20
166.744991
11
19.206400
21
166.661000
0
LINE
8
Layer 1
10
19.206400
20
166.661000
11
17.736390
21
166.806442
0
LINE
8
Layer 1
10
17.736390
20
166.806442
11
16.336274
21
167.231904
0
LINE
8
Layer 1
10
16.336274
20
167.231904
11
15.045396
21
167.921088
0
LINE
8
Layer 1
10
15.045396
20
167.921088
11
13.903099
21
168.857699
0
LINE
8
Layer 1
10
13.903099
20
168.857699
11
12.966488
21
169.999996
0
LINE
8
Layer 1
10
12.966488
20
169.999996
11
12.277304
21
171.290874
0
LINE
8
Layer 1
10
12.277304
20
171.290874
11
11.851842
21
172.690990
0
LINE
8
Layer 1
10
11.851842
20
172.690990
11
11.706400
21
174.161000
0
LINE
8
Layer 1
10
11.706400
20
174.161000
11
11.706400
21
174.161000
0
LINE
8
Layer 1
10
11.706400
20
156.161000
11
11.790391
21
157.282058
0
LINE
8
Layer 1
10
11.790391
20
157.282058
11
12.035708
21
158.360170
0
LINE
8
Layer 1
10
12.035708
20
158.360170
11
12.432365
21
159.380390
0
LINE
8
Layer 1
10
12.432365
20
159.380390
11
12.970378
21
160.327777
0
LINE
8
Layer 1
10
12.970378
20
160.327777
11
13.639760
21
161.187384
0
LINE
8
Layer 1
10
13.639760
20
161.187384
11
14.430527
21
161.944270
0
LINE
8
Layer 1
10
14.430527
20
161.944270
11
15.332694
21
162.583488
0
LINE
8
Layer 1
10
15.332694
20
162.583488
11
16.336274
21
163.090096
0
LINE
8
Layer 1
10
16.336274
20
163.090096
11
17.404139
21
163.441509
0
LINE
8
Layer 1
10
17.404139
20
163.441509
11
18.494063
21
163.627441
0
LINE
8
Layer 1
10
18.494063
20
163.627441
11
19.588418
21
163.651399
0
LINE
8
Layer 1
10
19.588418
20
163.651399
11
20.669577
21
163.516890
0
LINE
8
Layer 1
10
20.669577
20
163.516890
11
21.719913
21
163.227419
0
LINE
8
Layer 1
10
21.719913
20
163.227419
11
22.721797
21
162.786493
0
LINE
8
Layer 1
10
22.721797
20
162.786493
11
23.657602
21
162.197618
0
LINE
8
Layer 1
10
23.657602
20
162.197618
11
24.509701
21
161.464301
0
LINE
8
Layer 1
10
24.509701
20
161.464301
11
25.243018
21
160.612202
0
LINE
8
Layer 1
10
25.243018
20
160.612202
11
25.831893
21
159.676397
0
LINE
8
Layer 1
10
25.831893
20
159.676397
11
26.272819
21
158.674513
0
LINE
8
Layer 1
10
26.272819
20
158.674513
11
26.562290
21
157.624177
0
LINE
8
Layer 1
10
26.562290
20
157.624177
11
26.696799
21
156.543018
0
LINE
8
Layer 1
10
26.696799
20
156.543018
11
26.672841
21
155.448663
0
LINE
8
Layer 1
10
26.672841
20
155.448663
11
26.486909
21
154.358739
0
LINE
8
Layer 1
10
26.486909
20
154.358739
11
26.135496
21
153.290874
0
LINE
8
Layer 1
10
26.135496
20
153.290874
11
25.628888
21
152.287294
0
LINE
8
Layer 1
10
25.628888
20
152.287294
11
24.989670
21
151.385127
0
LINE
8
Layer 1
10
24.989670
20
151.385127
11
24.232784
21
150.594360
0
LINE
8
Layer 1
10
24.232784
20
150.594360
11
23.373177
21
149.924978
0
LINE
8
Layer 1
10
23.373177
20
149.924978
11
22.425790
21
149.386965
0
LINE
8
Layer 1
10
22.425790
20
149.386965
11
21.405570
21
148.990308
0
LINE
8
Layer 1
10
21.405570
20
148.990308
11
20.327458
21
148.744991
0
LINE
8
Layer 1
10
20.327458
20
148.744991
11
19.206400
21
148.661000
0
LINE
8
Layer 1
10
19.206400
20
148.661000
11
17.736390
21
148.806442
0
LINE
8
Layer 1
10
17.736390
20
148.806442
11
16.336274
21
149.231904
0
LINE
8
Layer 1
10
16.336274
20
149.231904
11
15.045396
21
149.921088
0
LINE
8
Layer 1
10
15.045396
20
149.921088
11
13.903099
21
150.857699
0
LINE
8
Layer 1
10
13.903099
20
150.857699
11
12.966488
21
151.999996
0
LINE
8
Layer 1
10
12.966488
20
151.999996
11
12.277304
21
153.290874
0
LINE
8
Layer 1
10
12.277304
20
153.290874
11
11.851842
21
154.690990
0
LINE
8
Layer 1
10
11.851842
20
154.690990
11
11.706400
21
156.161000
0
LINE
8
Layer 1
10
11.706400
20
156.161000
11
11.706400
21
156.161000
0
LINE
8
Layer 1
10
11.706400
20
138.161000
11
11.790391
21
139.282058
0
LINE
8
Layer 1
10
11.790391
20
139.282058
11
12.035708
21
140.360170
0
LINE
8
Layer 1
10
12.035708
20
140.360170
11
12.432365
21
141.380390
0
LINE
8
Layer 1
10
12.432365
20
141.380390
11
12.970378
21
142.327777
0
LINE
8
Layer 1
10
12.970378
20
142.327777
11
13.639760
21
143.187384
0
LINE
8
Layer 1
10
13.639760
20
143.187384
11
14.430527
21
143.944270
0
LINE
8
Layer 1
10
14.430527
20
143.944270
11
15.332694
21
144.583488
0
LINE
8
Layer 1
10
15.332694
20
144.583488
11
16.336274
21
145.090096
0
LINE
8
Layer 1
10
16.336274
20
145.090096
11
17.404139
21
145.441509
0
LINE
8
Layer 1
10
17.404139
20
145.441509
11
18.494063
21
145.627441
0
LINE
8
Layer 1
10
18.494063
20
145.627441
11
19.588418
21
145.651399
0
LINE
8
Layer 1
10
19.588418
20
145.651399
11
20.669577
21
145.516890
0
LINE
8
Layer 1
10
20.669577
20
145.516890
11
21.719913
21
145.227419
0
LINE
8
Layer 1
10
21.719913
20
145.227419
11
22.721797
21
144.786493
0
LINE
8
Layer 1
10
22.721797
20
144.786493
11
23.657602
21
144.197618
0
LINE
8
Layer 1
10
23.657602
20
144.197618
11
24.509701
21
143.464301
0
LINE
8
Layer 1
10
24.509701
20
143.464301
11
25.243018
21
142.612202
0
LINE
8
Layer 1
10
25.243018
20
142.612202
11
25.831893
21
141.676397
0
LINE
8
Layer 1
10
25.831893
20
141.676397
11
26.272819
21
140.674513
0
LINE
8
Layer 1
10
26.272819
20
140.674513
11
26.562290
21
139.624177
0
LINE
8
Layer 1
10
26.562290
20
139.624177
11
26.696799
21
138.543018
0
LINE
8
Layer 1
10
26.696799
20
138.543018
11
26.672841
21
137.448663
0
LINE
8
Layer 1
10
26.672841
20
137.448663
11
26.486909
21
136.358739
0
LINE
8
Layer 1
10
26.486909
20
136.358739
11
26.135496
21
135.290874
0
LINE
8
Layer 1
10
26.135496
20
135.290874
11
25.628888
21
134.287294
0
LINE
8
Layer 1
10
25.628888
20
134.287294
11
24.989670
21
133.385127
0
LINE
8
Layer 1
10
24.989670
20
133.385127
11
24.232784
21
132.594360
0
LINE
8
Layer 1
10
24.232784
20
132.594360
11
23.373177
21
131.924978
0
LINE
8
Layer 1
10
23.373177
20
131.924978
11
22.425790
21
131.386965
0
LINE
8
Layer 1
10
22.425790
20
131.386965
11
21.405570
21
130.990308
0
LINE
8
Layer 1
10
21.405570
20
130.990308
11
20.327458
21
130.744991
0
LINE
8
Layer 1
10
20.327458
20
130.744991
11
19.206400
21
130.661000
0
LINE
8
Layer 1
10
19.206400
20
130.661000
11
17.736390
21
130.806442
0
LINE
8
Layer 1
10
17.736390
20
130.806442
11
16.336274
21
131.231904
0
LINE
8
Layer 1
10
16.336274
20
131.231904
11
15.045396
21
131.921088
0
LINE
8
Layer 1
10
15.045396
20
131.921088
11
13.903099
21
132.857699
0
LINE
8
Layer 1
10
13.903099
20
132.857699
11
12.966488
21
133.999996
0
LINE
8
Layer 1
10
12.966488
20
133.999996
11
12.277304
21
135.290874
0
LINE
8
Layer 1
10
12.277304
20
135.290874
11
11.851842
21
136.690990
0
LINE
8
Layer 1
10
11.851842
20
136.690990
11
11.706400
21
138.161000
0
LINE
8
Layer 1
10
11.706400
20
138.161000
11
11.706400
21
138.161000
0
LINE
8
Layer 1
10
33.206400
20
202.161000
11
20.206400
21
202.161000
0
LINE
8
Layer 1
10
20.206400
20
202.161000
11
17.266380
21
201.870116
0
LINE
8
Layer 1
10
17.266380
20
201.870116
11
14.466149
21
201.019193
0
LINE
8
Layer 1
10
14.466149
20
201.019193
11
11.884392
21
199.640824
0
LINE
8
Layer 1
10
11.884392
20
199.640824
11
9.599798
21
197.767602
0
LINE
8
Layer 1
10
9.599798
20
197.767602
11
7.726576
21
195.483008
0
LINE
8
Layer 1
10
7.726576
20
195.483008
11
6.348207
21
192.901251
0
LINE
8
Layer 1
10
6.348207
20
192.901251
11
5.497284
21
190.101020
0
LINE
8
Layer 1
10
5.497284
20
190.101020
11
5.206400
21
187.161000
0
LINE
8
Layer 1
10
5.206400
20
187.161000
11
5.206400
21
185.661000
0
LINE
8
Layer 1
10
5.206400
20
185.661000
11
10.206400
21
185.661000
0
LINE
8
Layer 1
10
10.206400
20
185.661000
11
10.206400
21
180.661000
0
LINE
8
Layer 1
10
10.206400
20
180.661000
11
5.206400
21
180.661000
0
LINE
8
Layer 1
10
5.206400
20
180.661000
11
5.206400
21
149.661000
0
LINE
8
Layer 1
10
5.206400
20
149.661000
11
10.206400
21
149.661000
0
LINE
8
Layer 1
10
10.206400
20
149.661000
11
10.206400
21
144.661000
0
LINE
8
Layer 1
10
10.206400
20
144.661000
11
5.206400
21
144.661000
0
LINE
8
Layer 1
10
5.206400
20
144.661000
11
5.206400
21
143.161000
0
LINE
8
Layer 1
10
5.206400
20
143.161000
11
5.497284
21
140.220980
0
LINE
8
Layer 1
10
5.497284
20
140.220980
11
6.348207
21
137.420749
0
LINE
8
Layer 1
10
6.348207
20
137.420749
11
7.726576
21
134.838992
0
LINE
8
Layer 1
10
7.726576
20
134.838992
11
9.599798
21
132.554398
0
LINE
8
Layer 1
10
9.599798
20
132.554398
11
11.884392
21
130.681176
0
LINE
8
Layer 1
10
11.884392
20
130.681176
11
14.466149
21
129.302807
0
LINE
8
Layer 1
10
14.466149
20
129.302807
11
17.266380
21
128.451884
0
LINE
8
Layer 1
10
17.266380
20
128.451884
11
20.206400
21
128.161000
0
LINE
8
Layer 1
10
20.206400
20
128.161000
11
33.206400
21
128.161000
0
LINE
8
Layer 1
10
33.206400
20
128.161000
11
33.206400
21
202.161000
0
LINE
8
Layer 1
10
44.701300
20
174.025000
11
44.785291
21
172.903942
0
LINE
8
Layer 1
10
44.785291
20
172.903942
11
45.030608
21
171.825830
0
LINE
8
Layer 1
10
45.030608
20
171.825830
11
45.427265
21
170.805610
0
LINE
8
Layer 1
10
45.427265
20
170.805610
11
45.965278
21
169.858223
0
LINE
8
Layer 1
10
45.965278
20
169.858223
11
46.634660
21
168.998616
0
LINE
8
Layer 1
10
46.634660
20
168.998616
11
47.425427
21
168.241730
0
LINE
8
Layer 1
10
47.425427
20
168.241730
11
48.327594
21
167.602512
0
LINE
8
Layer 1
10
48.327594
20
167.602512
11
49.331174
21
167.095904
0
LINE
8
Layer 1
10
49.331174
20
167.095904
11
50.399039
21
166.744491
0
LINE
8
Layer 1
10
50.399039
20
166.744491
11
51.488963
21
166.558559
0
LINE
8
Layer 1
10
51.488963
20
166.558559
11
52.583318
21
166.534601
0
LINE
8
Layer 1
10
52.583318
20
166.534601
11
53.664477
21
166.669110
0
LINE
8
Layer 1
10
53.664477
20
166.669110
11
54.714813
21
166.958581
0
LINE
8
Layer 1
10
54.714813
20
166.958581
11
55.716697
21
167.399507
0
LINE
8
Layer 1
10
55.716697
20
167.399507
11
56.652502
21
167.988382
0
LINE
8
Layer 1
10
56.652502
20
167.988382
11
57.504601
21
168.721699
0
LINE
8
Layer 1
10
57.504601
20
168.721699
11
58.237918
21
169.573798
0
LINE
8
Layer 1
10
58.237918
20
169.573798
11
58.826793
21
170.509603
0
LINE
8
Layer 1
10
58.826793
20
170.509603
11
59.267719
21
171.511487
0
LINE
8
Layer 1
10
59.267719
20
171.511487
11
59.557190
21
172.561823
0
LINE
8
Layer 1
10
59.557190
20
172.561823
11
59.691699
21
173.642982
0
LINE
8
Layer 1
10
59.691699
20
173.642982
11
59.667741
21
174.737337
0
LINE
8
Layer 1
10
59.667741
20
174.737337
11
59.481809
21
175.827261
0
LINE
8
Layer 1
10
59.481809
20
175.827261
11
59.130396
21
176.895126
0
LINE
8
Layer 1
10
59.130396
20
176.895126
11
58.623788
21
177.898706
0
LINE
8
Layer 1
10
58.623788
20
177.898706
11
57.984570
21
178.800873
0
LINE
8
Layer 1
10
57.984570
20
178.800873
11
57.227684
21
179.591640
0
LINE
8
Layer 1
10
57.227684
20
179.591640
11
56.368077
21
180.261022
0
LINE
8
Layer 1
10
56.368077
20
180.261022
11
55.420690
21
180.799035
0
LINE
8
Layer 1
10
55.420690
20
180.799035
11
54.400470
21
181.195692
0
LINE
8
Layer 1
10
54.400470
20
181.195692
11
53.322358
21
181.441009
0
LINE
8
Layer 1
10
53.322358
20
181.441009
11
52.201300
21
181.525000
0
LINE
8
Layer 1
10
52.201300
20
181.525000
11
50.731290
21
181.379558
0
LINE
8
Layer 1
10
50.731290
20
181.379558
11
49.331174
21
180.954096
0
LINE
8
Layer 1
10
49.331174
20
180.954096
11
48.040296
21
180.264912
0
LINE
8
Layer 1
10
48.040296
20
180.264912
11
46.897999
21
179.328301
0
LINE
8
Layer 1
10
46.897999
20
179.328301
11
45.961388
21
178.186004
0
LINE
8
Layer 1
10
45.961388
20
178.186004
11
45.272204
21
176.895126
0
LINE
8
Layer 1
10
45.272204
20
176.895126
11
44.846742
21
175.495010
0
LINE
8
Layer 1
10
44.846742
20
175.495010
11
44.701300
21
174.025000
0
LINE
8
Layer 1
10
44.701300
20
174.025000
11
44.701300
21
174.025000
0
LINE
8
Layer 1
10
44.701300
20
192.025000
11
44.785291
21
190.903942
0
LINE
8
Layer 1
10
44.785291
20
190.903942
11
45.030608
21
189.825830
0
LINE
8
Layer 1
10
45.030608
20
189.825830
11
45.427265
21
188.805610
0
LINE
8
Layer 1
10
45.427265
20
188.805610
11
45.965278
21
187.858223
0
LINE
8
Layer 1
10
45.965278
20
187.858223
11
46.634660
21
186.998616
0
LINE
8
Layer 1
10
46.634660
20
186.998616
11
47.425427
21
186.241730
0
LINE
8
Layer 1
10
47.425427
20
186.241730
11
48.327594
21
185.602512
0
LINE
8
Layer 1
10
48.327594
20
185.602512
11
49.331174
21
185.095904
0
LINE
8
Layer 1
10
49.331174
20
185.095904
11
50.399039
21
184.744491
0
LINE
8
Layer 1
10
50.399039
20
184.744491
11
51.488963
21
184.558559
0
LINE
8
Layer 1
10
51.488963
20
184.558559
11
52.583318
21
184.534601
0
LINE
8
Layer 1
10
52.583318
20
184.534601
11
53.664477
21
184.669110
0
LINE
8
Layer 1
10
53.664477
20
184.669110
11
54.714813
21
184.958581
0
LINE
8
Layer 1
10
54.714813
20
184.958581
11
55.716697
21
185.399507
0
LINE
8
Layer 1
10
55.716697
20
185.399507
11
56.652502
21
185.988382
0
LINE
8
Layer 1
10
56.652502
20
185.988382
11
57.504601
21
186.721699
0
LINE
8
Layer 1
10
57.504601
20
186.721699
11
58.237918
21
187.573798
0
LINE
8
Layer 1
10
58.237918
20
187.573798
11
58.826793
21
188.509603
0
LINE
8
Layer 1
10
58.826793
20
188.509603
11
59.267719
21
189.511487
0
LINE
8
Layer 1
10
59.267719
20
189.511487
11
59.557190
21
190.561823
0
LINE
8
Layer 1
10
59.557190
20
190.561823
11
59.691699
21
191.642982
0
LINE
8
Layer 1
10
59.691699
20
191.642982
11
59.667741
21
192.737337
0
LINE
8
Layer 1
10
59.667741
20
192.737337
11
59.481809
21
193.827261
0
LINE
8
Layer 1
10
59.481809
20
193.827261
11
59.130396
21
194.895126
0
LINE
8
Layer 1
10
59.130396
20
194.895126
11
58.623788
21
195.898706
0
LINE
8
Layer 1
10
58.623788
20
195.898706
11
57.984570
21
196.800873
0
LINE
8
Layer 1
10
57.984570
20
196.800873
11
57.227684
21
197.591640
0
LINE
8
Layer 1
10
57.227684
20
197.591640
11
56.368077
21
198.261022
0
LINE
8
Layer 1
10
56.368077
20
198.261022
11
55.420690
21
198.799035
0
LINE
8
Layer 1
10
55.420690
20
198.799035
11
54.400470
21
199.195692
0
LINE
8
Layer 1
10
54.400470
20
199.195692
11
53.322358
21
199.441009
0
LINE
8
Layer 1
10
53.322358
20
199.441009
11
52.201300
21
199.525000
0
LINE
8
Layer 1
10
52.201300
20
199.525000
11
50.731290
21
199.379558
0
LINE
8
Layer 1
10
50.731290
20
199.379558
11
49.331174
21
198.954096
0
LINE
8
Layer 1
10
49.331174
20
198.954096
11
48.040296
21
198.264912
0
LINE
8
Layer 1
10
48.040296
20
198.264912
11
46.897999
21
197.328301
0
LINE
8
Layer 1
10
46.897999
20
197.328301
11
45.961388
21
196.186004
0
LINE
8
Layer 1
10
45.961388
20
196.186004
11
45.272204
21
194.895126
0
LINE
8
Layer 1
10
45.272204
20
194.895126
11
44.846742
21
193.495010
0
LINE
8
Layer 1
10
44.846742
20
193.495010
11
44.701300
21
192.025000
0
LINE
8
Layer 1
10
44.701300
20
192.025000
11
44.701300
21
192.025000
0
LINE
8
Layer 1
10
44.701300
20
156.025000
11
44.785291
21
154.903942
0
LINE
8
Layer 1
10
44.785291
20
154.903942
11
45.030608
21
153.825830
0
LINE
8
Layer 1
10
45.030608
20
153.825830
11
45.427265
21
152.805610
0
LINE
8
Layer 1
10
45.427265
20
152.805610
11
45.965278
21
151.858223
0
LINE
8
Layer 1
10
45.965278
20
151.858223
11
46.634660
21
150.998616
0
LINE
8
Layer 1
10
46.634660
20
150.998616
11
47.425427
21
150.241730
0
LINE
8
Layer 1
10
47.425427
20
150.241730
11
48.327594
21
149.602512
0
LINE
8
Layer 1
10
48.327594
20
149.602512
11
49.331174
21
149.095904
0
LINE
8
Layer 1
10
49.331174
20
149.095904
11
50.399039
21
148.744491
0
LINE
8
Layer 1
10
50.399039
20
148.744491
11
51.488963
21
148.558559
0
LINE
8
Layer 1
10
51.488963
20
148.558559
11
52.583318
21
148.534601
0
LINE
8
Layer 1
10
52.583318
20
148.534601
11
53.664477
21
148.669110
0
LINE
8
Layer 1
10
53.664477
20
148.669110
11
54.714813
21
148.958581
0
LINE
8
Layer 1
10
54.714813
20
148.958581
11
55.716697
21
149.399507
0
LINE
8
Layer 1
10
55.716697
20
149.399507
11
56.652502
21
149.988382
0
LINE
8
Layer 1
10
56.652502
20
149.988382
11
57.504601
21
150.721699
0
LINE
8
Layer 1
10
57.504601
20
150.721699
11
58.237918
21
151.573798
0
LINE
8
Layer 1
10
58.237918
20
151.573798
11
58.826793
21
152.509603
0
LINE
8
Layer 1
10
58.826793
20
152.509603
11
59.267719
21
153.511487
0
LINE
8
Layer 1
10
59.267719
20
153.511487
11
59.557190
21
154.561823
0
LINE
8
Layer 1
10
59.557190
20
154.561823
11
59.691699
21
155.642982
0
LINE
8
Layer 1
10
59.691699
20
155.642982
11
59.667741
21
156.737337
0
LINE
8
Layer 1
10
59.667741
20
156.737337
11
59.481809
21
157.827261
0
LINE
8
Layer 1
10
59.481809
20
157.827261
11
59.130396
21
158.895126
0
LINE
8
Layer 1
10
59.130396
20
158.895126
11
58.623788
21
159.898706
0
LINE
8
Layer 1
10
58.623788
20
159.898706
11
57.984570
21
160.800873
0
LINE
8
Layer 1
10
57.984570
20
160.800873
11
57.227684
21
161.591640
0
LINE
8
Layer 1
10
57.227684
20
161.591640
11
56.368077
21
162.261022
0
LINE
8
Layer 1
10
56.368077
20
162.261022
11
55.420690
21
162.799035
0
LINE
8
Layer 1
10
55.420690
20
162.799035
11
54.400470
21
163.195692
0
LINE
8
Layer 1
10
54.400470
20
163.195692
11
53.322358
21
163.441009
0
LINE
8
Layer 1
10
53.322358
20
163.441009
11
52.201300
21
163.525000
0
LINE
8
Layer 1
10
52.201300
20
163.525000
11
50.731290
21
163.379558
0
LINE
8
Layer 1
10
50.731290
20
163.379558
11
49.331174
21
162.954096
0
LINE
8
Layer 1
10
49.331174
20
162.954096
11
48.040296
21
162.264912
0
LINE
8
Layer 1
10
48.040296
20
162.264912
11
46.897999
21
161.328301
0
LINE
8
Layer 1
10
46.897999
20
161.328301
11
45.961388
21
160.186004
0
LINE
8
Layer 1
10
45.961388
20
160.186004
11
45.272204
21
158.895126
0
LINE
8
Layer 1
10
45.272204
20
158.895126
11
44.846742
21
157.495010
0
LINE
8
Layer 1
10
44.846742
20
157.495010
11
44.701300
21
156.025000
0
LINE
8
Layer 1
10
44.701300
20
156.025000
11
44.701300
21
156.025000
0
LINE
8
Layer 1
10
44.701300
20
138.025000
11
44.785291
21
136.903942
0
LINE
8
Layer 1
10
44.785291
20
136.903942
11
45.030608
21
135.825830
0
LINE
8
Layer 1
10
45.030608
20
135.825830
11
45.427265
21
134.805610
0
LINE
8
Layer 1
10
45.427265
20
134.805610
11
45.965278
21
133.858223
0
LINE
8
Layer 1
10
45.965278
20
133.858223
11
46.634660
21
132.998616
0
LINE
8
Layer 1
10
46.634660
20
132.998616
11
47.425427
21
132.241730
0
LINE
8
Layer 1
10
47.425427
20
132.241730
11
48.327594
21
131.602512
0
LINE
8
Layer 1
10
48.327594
20
131.602512
11
49.331174
21
131.095904
0
LINE
8
Layer 1
10
49.331174
20
131.095904
11
50.399039
21
130.744491
0
LINE
8
Layer 1
10
50.399039
20
130.744491
11
51.488963
21
130.558559
0
LINE
8
Layer 1
10
51.488963
20
130.558559
11
52.583318
21
130.534601
0
LINE
8
Layer 1
10
52.583318
20
130.534601
11
53.664477
21
130.669110
0
LINE
8
Layer 1
10
53.664477
20
130.669110
11
54.714813
21
130.958581
0
LINE
8
Layer 1
10
54.714813
20
130.958581
11
55.716697
21
131.399507
0
LINE
8
Layer 1
10
55.716697
20
131.399507
11
56.652502
21
131.988382
0
LINE
8
Layer 1
10
56.652502
20
131.988382
11
57.504601
21
132.721699
0
LINE
8
Layer 1
10
57.504601
20
132.721699
11
58.237918
21
133.573798
0
LINE
8
Layer 1
10
58.237918
20
133.573798
11
58.826793
21
134.509603
0
LINE
8
Layer 1
10
58.826793
20
134.509603
11
59.267719
21
135.511487
0
LINE
8
Layer 1
10
59.267719
20
135.511487
11
59.557190
21
136.561823
0
LINE
8
Layer 1
10
59.557190
20
136.561823
11
59.691699
21
137.642982
0
LINE
8
Layer 1
10
59.691699
20
137.642982
11
59.667741
21
138.737337
0
LINE
8
Layer 1
10
59.667741
20
138.737337
11
59.481809
21
139.827261
0
LINE
8
Layer 1
10
59.481809
20
139.827261
11
59.130396
21
140.895126
0
LINE
8
Layer 1
10
59.130396
20
140.895126
11
58.623788
21
141.898706
0
LINE
8
Layer 1
10
58.623788
20
141.898706
11
57.984570
21
142.800873
0
LINE
8
Layer 1
10
57.984570
20
142.800873
11
57.227684
21
143.591640
0
LINE
8
Layer 1
10
57.227684
20
143.591640
11
56.368077
21
144.261022
0
LINE
8
Layer 1
10
56.368077
20
144.261022
11
55.420690
21
144.799035
0
LINE
8
Layer 1
10
55.420690
20
144.799035
11
54.400470
21
145.195692
0
LINE
8
Layer 1
10
54.400470
20
145.195692
11
53.322358
21
145.441009
0
LINE
8
Layer 1
10
53.322358
20
145.441009
11
52.201300
21
145.525000
0
LINE
8
Layer 1
10
52.201300
20
145.525000
11
50.731290
21
145.379558
0
LINE
8
Layer 1
10
50.731290
20
145.379558
11
49.331174
21
144.954096
0
LINE
8
Layer 1
10
49.331174
20
144.954096
11
48.040296
21
144.264912
0
LINE
8
Layer 1
10
48.040296
20
144.264912
11
46.897999
21
143.328301
0
LINE
8
Layer 1
10
46.897999
20
143.328301
11
45.961388
21
142.186004
0
LINE
8
Layer 1
10
45.961388
20
142.186004
11
45.272204
21
140.895126
0
LINE
8
Layer 1
10
45.272204
20
140.895126
11
44.846742
21
139.495010
0
LINE
8
Layer 1
10
44.846742
20
139.495010
11
44.701300
21
138.025000
0
LINE
8
Layer 1
10
44.701300
20
138.025000
11
44.701300
21
138.025000
0
LINE
8
Layer 1
10
66.201300
20
171.349555
11
67.856892
21
170.252710
0
LINE
8
Layer 1
10
67.856892
20
170.252710
11
69.117383
21
168.766657
0
LINE
8
Layer 1
10
69.117383
20
168.766657
11
69.919834
21
166.990914
0
LINE
8
Layer 1
10
69.919834
20
166.990914
11
70.201305
21
165.024998
0
LINE
8
Layer 1
10
70.201305
20
165.024998
11
69.919834
21
163.059081
0
LINE
8
Layer 1
10
69.919834
20
163.059081
11
69.117383
21
161.283338
0
LINE
8
Layer 1
10
69.117383
20
161.283338
11
67.856892
21
159.797285
0
LINE
8
Layer 1
10
67.856892
20
159.797285
11
66.201300
21
158.700440
0
LINE
8
Layer 1
10
66.201300
20
158.700440
11
66.201300
21
128.025000
0
LINE
8
Layer 1
10
66.201300
20
128.025000
11
38.201300
21
128.025000
0
LINE
8
Layer 1
10
38.201300
20
128.025000
11
38.201300
21
144.525000
0
LINE
8
Layer 1
10
38.201300
20
144.525000
11
43.201300
21
144.525000
0
LINE
8
Layer 1
10
43.201300
20
144.525000
11
43.201300
21
149.525000
0
LINE
8
Layer 1
10
43.201300
20
149.525000
11
38.201300
21
149.525000
0
LINE
8
Layer 1
10
38.201300
20
149.525000
11
38.201300
21
180.525000
0
LINE
8
Layer 1
10
38.201300
20
180.525000
11
43.201300
21
180.525000
0
LINE
8
Layer 1
10
43.201300
20
180.525000
11
43.201300
21
185.525000
0
LINE
8
Layer 1
10
43.201300
20
185.525000
11
38.201300
21
185.525000
0
LINE
8
Layer 1
10
38.201300
20
185.525000
11
38.201300
21
202.025000
0
LINE
8
Layer 1
10
38.201300
20
202.025000
11
66.201300
21
202.025000
0
LINE
8
Layer 1
10
66.201300
20
202.025000
11
66.201300
21
171.349555
0
LINE
8
Layer 1
10
61.201300
20
165.025000
11
61.289116
21
164.438555
0
LINE
8
Layer 1
10
61.289116
20
164.438555
11
61.538361
21
163.913860
0
LINE
8
Layer 1
10
61.538361
20
163.913860
11
61.927734
21
163.482795
0
LINE
8
Layer 1
10
61.927734
20
163.482795
11
62.435933
21
163.177241
0
LINE
8
Layer 1
10
62.435933
20
163.177241
11
63.011343
21
163.033949
0
LINE
8
Layer 1
10
63.011343
20
163.033949
11
63.591481
21
163.063429
0
LINE
8
Layer 1
10
63.591481
20
163.063429
11
64.138739
21
163.258202
0
LINE
8
Layer 1
10
64.138739
20
163.258202
11
64.615514
21
163.610786
0
LINE
8
Layer 1
10
64.615514
20
163.610786
11
64.968098
21
164.087561
0
LINE
8
Layer 1
10
64.968098
20
164.087561
11
65.162871
21
164.634819
0
LINE
8
Layer 1
10
65.162871
20
164.634819
11
65.192351
21
165.214957
0
LINE
8
Layer 1
10
65.192351
20
165.214957
11
65.049059
21
165.790367
0
LINE
8
Layer 1
10
65.049059
20
165.790367
11
64.743505
21
166.298566
0
LINE
8
Layer 1
10
64.743505
20
166.298566
11
64.312440
21
166.687939
0
LINE
8
Layer 1
10
64.312440
20
166.687939
11
63.787745
21
166.937184
0
LINE
8
Layer 1
10
63.787745
20
166.937184
11
63.201300
21
167.025000
0
LINE
8
Layer 1
10
63.201300
20
167.025000
11
62.435933
21
166.872759
0
LINE
8
Layer 1
10
62.435933
20
166.872759
11
61.787086
21
166.439214
0
LINE
8
Layer 1
10
61.787086
20
166.439214
11
61.353541
21
165.790367
0
LINE
8
Layer 1
10
61.353541
20
165.790367
11
61.201300
21
165.025000
0
LINE
8
Layer 1
10
61.201300
20
165.025000
11
61.201300
21
165.025000
0
LINE
8
Layer 1
10
286.575281
20
199.371148
11
286.575281
21
229.371148
0
LINE
8
Layer 1
10
286.575281
20
229.371148
11
171.575281
21
209.371148
0
LINE
8
Layer 1
10
171.575281
20
209.371148
11
171.575281
21
199.371148
0
LINE
8
Layer 1
10
171.575281
20
199.371148
11
176.575281
21
199.371148
0
LINE
8
Layer 1
10
176.575281
20
199.371148
11
176.575281
21
204.371148
0
LINE
8
Layer 1
10
176.575281
20
204.371148
11
181.575281
21
204.371148
0
LINE
8
Layer 1
10
181.575281
20
204.371148
11
181.575281
21
199.371148
0
LINE
8
Layer 1
10
181.575281
20
199.371148
11
271.575281
21
199.371148
0
LINE
8
Layer 1
10
271.575281
20
199.371148
11
271.575281
21
204.371148
0
LINE
8
Layer 1
10
271.575281
20
204.371148
11
276.575281
21
204.371148
0
LINE
8
Layer 1
10
276.575281
20
204.371148
11
276.575281
21
214.371148
0
LINE
8
Layer 1
10
276.575281
20
214.371148
11
281.575281
21
214.371148
0
LINE
8
Layer 1
10
281.575281
20
214.371148
11
281.575281
21
199.371148
0
LINE
8
Layer 1
10
281.575281
20
199.371148
11
286.575281
21
199.371148
0
LINE
8
Layer 1
10
112.373719
20
237.024852
11
112.373719
21
207.024852
0
LINE
8
Layer 1
10
112.373719
20
207.024852
11
227.373719
21
227.024852
0
LINE
8
Layer 1
10
227.373719
20
227.024852
11
227.373719
21
237.024852
0
LINE
8
Layer 1
10
227.373719
20
237.024852
11
222.373719
21
237.024852
0
LINE
8
Layer 1
10
222.373719
20
237.024852
11
222.373719
21
232.024852
0
LINE
8
Layer 1
10
222.373719
20
232.024852
11
217.373719
21
232.024852
0
LINE
8
Layer 1
10
217.373719
20
232.024852
11
217.373719
21
237.024852
0
LINE
8
Layer 1
10
217.373719
20
237.024852
11
127.373719
21
237.024852
0
LINE
8
Layer 1
10
127.373719
20
237.024852
11
127.373719
21
232.024852
0
LINE
8
Layer 1
10
127.373719
20
232.024852
11
122.373719
21
232.024852
0
LINE
8
Layer 1
10
122.373719
20
232.024852
11
122.373719
21
222.024852
0
LINE
8
Layer 1
10
122.373719
20
222.024852
11
117.373719
21
222.024852
0
LINE
8
Layer 1
10
117.373719
20
222.024852
11
117.373719
21
237.024852
0
LINE
8
Layer 1
10
117.373719
20
237.024852
11
112.373719
21
237.024852
0
LINE
8
Layer 1
10
191.831470
20
242.779384
11
191.831470
21
255.779384
0
LINE
8
Layer 1
10
191.831470
20
255.779384
11
191.908913
21
257.313047
0
LINE
8
Layer 1
10
191.908913
20
257.313047
11
192.136217
21
258.802407
0
LINE
8
Layer 1
10
192.136217
20
258.802407
11
193.010244
21
261.618061
0
LINE
8
Layer 1
10
193.010244
20
261.618061
11
194.393234
21
264.166027
0
LINE
8
Layer 1
10
194.393234
20
264.166027
11
196.224868
21
266.385986
0
LINE
8
Layer 1
10
196.224868
20
266.385986
11
198.444827
21
268.217620
0
LINE
8
Layer 1
10
198.444827
20
268.217620
11
200.992793
21
269.600610
0
LINE
8
Layer 1
10
200.992793
20
269.600610
11
203.808447
21
270.474637
0
LINE
8
Layer 1
10
203.808447
20
270.474637
11
205.297807
21
270.701941
0
LINE
8
Layer 1
10
205.297807
20
270.701941
11
206.831470
21
270.779384
0
LINE
8
Layer 1
10
206.831470
20
270.779384
11
208.331470
21
270.779384
0
LINE
8
Layer 1
10
208.331470
20
270.779384
11
208.331470
21
260.779384
0
LINE
8
Layer 1
10
208.331470
20
260.779384
11
213.331470
21
260.779384
0
LINE
8
Layer 1
10
213.331470
20
260.779384
11
213.331470
21
270.779384
0
LINE
8
Layer 1
10
213.331470
20
270.779384
11
244.331470
21
270.779384
0
LINE
8
Layer 1
10
244.331470
20
270.779384
11
244.331470
21
260.779384
0
LINE
8
Layer 1
10
244.331470
20
260.779384
11
249.331470
21
260.779384
0
LINE
8
Layer 1
10
249.331470
20
260.779384
11
249.331470
21
270.779384
0
LINE
8
Layer 1
10
249.331470
20
270.779384
11
250.831470
21
270.779384
0
LINE
8
Layer 1
10
250.831470
20
270.779384
11
253.771490
21
270.488500
0
LINE
8
Layer 1
10
253.771490
20
270.488500
11
256.571721
21
269.637577
0
LINE
8
Layer 1
10
256.571721
20
269.637577
11
259.153478
21
268.259208
0
LINE
8
Layer 1
10
259.153478
20
268.259208
11
261.438072
21
266.385986
0
LINE
8
Layer 1
10
261.438072
20
266.385986
11
263.311294
21
264.101392
0
LINE
8
Layer 1
10
263.311294
20
264.101392
11
264.689663
21
261.519635
0
LINE
8
Layer 1
10
264.689663
20
261.519635
11
265.540586
21
258.719404
0
LINE
8
Layer 1
10
265.540586
20
258.719404
11
265.831470
21
255.779384
0
LINE
8
Layer 1
10
265.831470
20
255.779384
11
265.831470
21
242.779384
0
LINE
8
Layer 1
10
265.831470
20
242.779384
11
256.331470
21
242.779384
0
LINE
8
Layer 1
10
256.331470
20
242.779384
11
256.331470
21
235.779384
0
LINE
8
Layer 1
10
256.331470
20
235.779384
11
256.176332
21
234.211373
0
LINE
8
Layer 1
10
256.176332
20
234.211373
11
255.722506
21
232.717917
0
LINE
8
Layer 1
10
255.722506
20
232.717917
11
254.987376
21
231.340980
0
LINE
8
Layer 1
10
254.987376
20
231.340980
11
253.988324
21
230.122530
0
LINE
8
Layer 1
10
253.988324
20
230.122530
11
252.769874
21
229.123478
0
LINE
8
Layer 1
10
252.769874
20
229.123478
11
251.392937
21
228.388348
0
LINE
8
Layer 1
10
251.392937
20
228.388348
11
249.899481
21
227.934522
0
LINE
8
Layer 1
10
249.899481
20
227.934522
11
248.331470
21
227.779384
0
LINE
8
Layer 1
10
248.331470
20
227.779384
11
248.331470
21
242.779384
0
LINE
8
Layer 1
10
248.331470
20
242.779384
11
243.331470
21
242.779384
0
LINE
8
Layer 1
10
243.331470
20
242.779384
11
243.331470
21
227.779384
0
LINE
8
Layer 1
10
243.331470
20
227.779384
11
241.763459
21
227.934522
0
LINE
8
Layer 1
10
241.763459
20
227.934522
11
240.270003
21
228.388348
0
LINE
8
Layer 1
10
240.270003
20
228.388348
11
238.893066
21
229.123478
0
LINE
8
Layer 1
10
238.893066
20
229.123478
11
237.674616
21
230.122530
0
LINE
8
Layer 1
10
237.674616
20
230.122530
11
236.675564
21
231.340980
0
LINE
8
Layer 1
10
236.675564
20
231.340980
11
235.940434
21
232.717917
0
LINE
8
Layer 1
10
235.940434
20
232.717917
11
235.486608
21
234.211373
0
LINE
8
Layer 1
10
235.486608
20
234.211373
11
235.331470
21
235.779384
0
LINE
8
Layer 1
10
235.331470
20
235.779384
11
235.331470
21
242.779384
0
LINE
8
Layer 1
10
235.331470
20
242.779384
11
191.831470
21
242.779384
 0 
ENDSEC
 0 
EOF