<?xml version="1.0" encoding="UTF-8" standalone="no"?>
<!-- Created with Inkscape (http://www.inkscape.org/) -->

<svg
   xmlns:dc="http://purl.org/dc/elements/1.1/"
   xmlns:cc="http://creativecommons.org/ns#"
   xmlns:rdf="http://www.w3.org/1999/02/22-rdf-syntax-ns#"
   xmlns:svg="http://www.w3.org/2000/svg"
   xmlns="http://www.w3.org/2000/svg"
   xmlns:sodipodi="http://sodipodi.sourceforge.net/DTD/sodipodi-0.dtd"
   xmlns:inkscape="http://www.inkscape.org/namespaces/inkscape"
   width="210mm"
   height="297mm"
   viewBox="0 0 210 297"
   version="1.1"
   id="svg8"
   inkscape:version="0.92.2 (5c3e80d, 2017-08-06)"
   sodipodi:docname="Calpinage Fixation d'aile.svg">
  <defs
     id="defs2" />
  <sodipodi:namedview
     id="base"
     pagecolor="#ffffff"
     bordercolor="#666666"
     borderopacity="1.0"
     inkscape:pageopacity="0.0"
     inkscape:pageshadow="2"
     inkscape:zoom="1.1074219"
     inkscape:cx="225.49736"
     inkscape:cy="168.63209"
     inkscape:document-units="mm"
     inkscape:current-layer="layer1"
     showgrid="false"
     inkscape:window-width="1920"
     inkscape:window-height="1017"
     inkscape:window-x="-8"
     inkscape:window-y="-8"
     inkscape:window-maximized="1" />
  <metadata
     id="metadata5">
    <rdf:RDF>
      <cc:Work
         rdf:about="">
        <dc:format>image/svg+xml</dc:format>
        <dc:type
           rdf:resource="http://purl.org/dc/dcmitype/StillImage" />
        <dc:title></dc:title>
      </cc:Work>
    </rdf:RDF>
  </metadata>
  <g
     inkscape:label="Calque 1"
     inkscape:groupmode="layer"
     id="layer1">
    <g
       transform="matrix(1,0,0,-1,105.63541,290.31026)"
       id="Sketch003">
      <path
         style="fill:none;fill-opacity:1;fill-rule:evenodd;stroke:#000000;stroke-width:0.34999999;stroke-miterlimit:4;stroke-dasharray:none"
         d="m -12.5,0 v 12 l 25,-4 V 0 h -25"
         id="Sketch003_w0000"
         inkscape:connector-curvature="0" />
      <path
         style="fill:none;fill-opacity:1;fill-rule:evenodd;stroke:#000000;stroke-width:0.34999999;stroke-miterlimit:4;stroke-dasharray:none"
         d="m -8.5,3.2 h 17 v 3 h -17 v -3"
         id="Sketch003_w0001"
         inkscape:connector-curvature="0" />
      <title
         id="title842">b'Sketch003'</title>
    </g>
    <g
       transform="matrix(1,0,0,-1,77.238093,290.42243)"
       id="Sketch002">
      <path
         style="fill:none;fill-opacity:1;fill-rule:evenodd;stroke:#000000;stroke-width:0.34999999;stroke-miterlimit:4;stroke-dasharray:none"
         d="m -8.5,0 v 3 h 17 V 0 h 4 v 8 l -25,4 V 0 h 4"
         id="Sketch002_w0000"
         inkscape:connector-curvature="0" />
      <title
         id="title870">b'Sketch002'</title>
    </g>
    <g
       transform="matrix(0.99999999,0,0,-0.99999999,48.500407,290.70219)"
       id="Sketch001">
      <path
         style="fill:none;fill-opacity:1;fill-rule:evenodd;stroke:#000000;stroke-width:0.34999999;stroke-miterlimit:4;stroke-dasharray:none"
         d="m -8.5,3.2 h 17 v 3 h -17 v -3"
         id="Sketch001_w0000"
         inkscape:connector-curvature="0" />
      <path
         style="fill:none;fill-opacity:1;fill-rule:evenodd;stroke:#000000;stroke-width:0.34999999;stroke-miterlimit:4;stroke-dasharray:none"
         d="m -12.5,0 v 13 l 25,4 V 0 h -25"
         id="Sketch001_w0001"
         inkscape:connector-curvature="0" />
      <title
         id="title899">b'Sketch001'</title>
    </g>
    <g
       transform="matrix(0.99999999,0,0,-0.99999999,18.396707,290.9411)"
       id="Sketch">
      <path
         style="fill:none;fill-opacity:1;fill-rule:evenodd;stroke:#000000;stroke-width:0.34999999;stroke-miterlimit:4;stroke-dasharray:none"
         d="m 8.5,3 h -17 V 0 h -4 v 13 l 25,4 V 0 h -4 v 3"
         id="Sketch_w0000"
         inkscape:connector-curvature="0" />
      <title
         id="title927">b'Sketch'</title>
    </g>
    <g
       transform="matrix(-0.99999998,0,0,0.99999998,18.198782,255.91001)"
       id="Sketch-2">
      <path
         style="fill:none;fill-opacity:1;fill-rule:evenodd;stroke:#000000;stroke-width:0.34999999;stroke-miterlimit:4;stroke-dasharray:none"
         d="m 8.5,3 h -17 V 0 h -4 v 13 l 25,4 V 0 h -4 v 3"
         id="Sketch_w0000-4"
         inkscape:connector-curvature="0" />
      <title
         id="title927-3">b'Sketch'</title>
    </g>
    <g
       transform="matrix(-0.99999998,0,0,0.99999998,48.500412,255.51416)"
       id="Sketch001-5">
      <path
         style="fill:none;fill-opacity:1;fill-rule:evenodd;stroke:#000000;stroke-width:0.34999999;stroke-miterlimit:4;stroke-dasharray:none"
         d="m -8.5,3.2 h 17 v 3 h -17 v -3"
         id="Sketch001_w0000-4"
         inkscape:connector-curvature="0" />
      <path
         style="fill:none;fill-opacity:1;fill-rule:evenodd;stroke:#000000;stroke-width:0.34999999;stroke-miterlimit:4;stroke-dasharray:none"
         d="m -12.5,0 v 13 l 25,4 V 0 h -25"
         id="Sketch001_w0001-9"
         inkscape:connector-curvature="0" />
      <title
         id="title899-4">b'Sketch001'</title>
    </g>
    <g
       transform="matrix(-1,0,0,1,77.205922,266.99531)"
       id="Sketch002-7">
      <path
         style="fill:none;fill-opacity:1;fill-rule:evenodd;stroke:#000000;stroke-width:0.34999999;stroke-miterlimit:4;stroke-dasharray:none"
         d="m -8.5,0 v 3 h 17 V 0 h 4 v 8 l -25,4 V 0 h 4"
         id="Sketch002_w0000-4"
         inkscape:connector-curvature="0" />
      <title
         id="title870-0">b'Sketch002'</title>
    </g>
    <g
       transform="matrix(-1,0,0,1,105.6692,266.8754)"
       id="Sketch003-3">
      <path
         style="fill:none;fill-opacity:1;fill-rule:evenodd;stroke:#000000;stroke-width:0.34999999;stroke-miterlimit:4;stroke-dasharray:none"
         d="m -12.5,0 v 12 l 25,-4 V 0 h -25"
         id="Sketch003_w0000-7"
         inkscape:connector-curvature="0" />
      <path
         style="fill:none;fill-opacity:1;fill-rule:evenodd;stroke:#000000;stroke-width:0.34999999;stroke-miterlimit:4;stroke-dasharray:none"
         d="m -8.5,3.2 h 17 v 3 h -17 v -3"
         id="Sketch003_w0001-7"
         inkscape:connector-curvature="0" />
      <title
         id="title842-6">b'Sketch003'</title>
    </g>
    <g
       transform="matrix(0.99999998,0,0,-0.99999998,48.263193,251.29072)"
       id="Sketch001-7">
      <path
         style="fill:none;fill-opacity:1;fill-rule:evenodd;stroke:#000000;stroke-width:0.34999999;stroke-miterlimit:4;stroke-dasharray:none"
         d="m -8.5,3.2 h 17 v 3 h -17 v -3"
         id="Sketch001_w0000-1"
         inkscape:connector-curvature="0" />
      <path
         style="fill:none;fill-opacity:1;fill-rule:evenodd;stroke:#000000;stroke-width:0.34999999;stroke-miterlimit:4;stroke-dasharray:none"
         d="m -12.5,0 v 13 l 25,4 V 0 h -25"
         id="Sketch001_w0001-0"
         inkscape:connector-curvature="0" />
      <title
         id="title899-0">b'Sketch001'</title>
    </g>
    <g
       transform="matrix(0.99999998,0,0,-0.99999998,18.159495,251.52963)"
       id="Sketch-6">
      <path
         style="fill:none;fill-opacity:1;fill-rule:evenodd;stroke:#000000;stroke-width:0.34999999;stroke-miterlimit:4;stroke-dasharray:none"
         d="m 8.5,3 h -17 V 0 h -4 v 13 l 25,4 V 0 h -4 v 3"
         id="Sketch_w0000-1"
         inkscape:connector-curvature="0" />
      <title
         id="title927-7">b'Sketch'</title>
    </g>
    <g
       transform="matrix(-0.99999998,0,0,0.99999998,17.96157,216.49855)"
       id="Sketch-2-9">
      <path
         style="fill:none;fill-opacity:1;fill-rule:evenodd;stroke:#000000;stroke-width:0.34999999;stroke-miterlimit:4;stroke-dasharray:none"
         d="m 8.5,3 h -17 V 0 h -4 v 13 l 25,4 V 0 h -4 v 3"
         id="Sketch_w0000-4-0"
         inkscape:connector-curvature="0" />
      <title
         id="title927-3-9">b'Sketch'</title>
    </g>
    <g
       transform="matrix(-0.99999998,0,0,0.99999998,48.263198,216.1027)"
       id="Sketch001-5-6">
      <path
         style="fill:none;fill-opacity:1;fill-rule:evenodd;stroke:#000000;stroke-width:0.34999999;stroke-miterlimit:4;stroke-dasharray:none"
         d="m -8.5,3.2 h 17 v 3 h -17 v -3"
         id="Sketch001_w0000-4-9"
         inkscape:connector-curvature="0" />
      <path
         style="fill:none;fill-opacity:1;fill-rule:evenodd;stroke:#000000;stroke-width:0.34999999;stroke-miterlimit:4;stroke-dasharray:none"
         d="m -12.5,0 v 13 l 25,4 V 0 h -25"
         id="Sketch001_w0001-9-4"
         inkscape:connector-curvature="0" />
      <title
         id="title899-4-1">b'Sketch001'</title>
    </g>
    <g
       transform="matrix(0.99999998,0,0,-0.99999998,47.925312,212.2654)"
       id="Sketch001-0">
      <path
         style="fill:none;fill-opacity:1;fill-rule:evenodd;stroke:#000000;stroke-width:0.34999999;stroke-miterlimit:4;stroke-dasharray:none"
         d="m -8.5,3.2 h 17 v 3 h -17 v -3"
         id="Sketch001_w0000-48"
         inkscape:connector-curvature="0" />
      <path
         style="fill:none;fill-opacity:1;fill-rule:evenodd;stroke:#000000;stroke-width:0.34999999;stroke-miterlimit:4;stroke-dasharray:none"
         d="m -12.5,0 v 13 l 25,4 V 0 h -25"
         id="Sketch001_w0001-06"
         inkscape:connector-curvature="0" />
      <title
         id="title899-2">b'Sketch001'</title>
    </g>
    <g
       transform="matrix(0.99999998,0,0,-0.99999998,17.821614,212.50432)"
       id="Sketch-3">
      <path
         style="fill:none;fill-opacity:1;fill-rule:evenodd;stroke:#000000;stroke-width:0.34999999;stroke-miterlimit:4;stroke-dasharray:none"
         d="m 8.5,3 h -17 V 0 h -4 v 13 l 25,4 V 0 h -4 v 3"
         id="Sketch_w0000-3"
         inkscape:connector-curvature="0" />
      <title
         id="title927-79">b'Sketch'</title>
    </g>
    <g
       transform="matrix(-0.99999998,0,0,0.99999998,77.25977,190.98849)"
       id="Sketch-2-0">
      <path
         style="fill:none;fill-opacity:1;fill-rule:evenodd;stroke:#000000;stroke-width:0.34999999;stroke-miterlimit:4;stroke-dasharray:none"
         d="m 8.5,3 h -17 V 0 h -4 v 13 l 25,4 V 0 h -4 v 3"
         id="Sketch_w0000-4-04"
         inkscape:connector-curvature="0" />
      <title
         id="title927-3-3">b'Sketch'</title>
    </g>
    <g
       transform="matrix(-0.99999998,0,0,0.99999998,105.80753,191.15743)"
       id="Sketch001-5-5">
      <path
         style="fill:none;fill-opacity:1;fill-rule:evenodd;stroke:#000000;stroke-width:0.34999999;stroke-miterlimit:4;stroke-dasharray:none"
         d="m -8.5,3.2 h 17 v 3 h -17 v -3"
         id="Sketch001_w0000-4-0"
         inkscape:connector-curvature="0" />
      <path
         style="fill:none;fill-opacity:1;fill-rule:evenodd;stroke:#000000;stroke-width:0.34999999;stroke-miterlimit:4;stroke-dasharray:none"
         d="m -12.5,0 v 13 l 25,4 V 0 h -25"
         id="Sketch001_w0001-9-7"
         inkscape:connector-curvature="0" />
      <title
         id="title899-4-3">b'Sketch001'</title>
    </g>
    <g
       transform="matrix(1,0,0,-1,105.76373,263.04734)"
       id="Sketch003-7">
      <path
         style="fill:none;fill-opacity:1;fill-rule:evenodd;stroke:#000000;stroke-width:0.34999999;stroke-miterlimit:4;stroke-dasharray:none"
         d="m -12.5,0 v 12 l 25,-4 V 0 h -25"
         id="Sketch003_w0000-2"
         inkscape:connector-curvature="0" />
      <path
         style="fill:none;fill-opacity:1;fill-rule:evenodd;stroke:#000000;stroke-width:0.34999999;stroke-miterlimit:4;stroke-dasharray:none"
         d="m -8.5,3.2 h 17 v 3 h -17 v -3"
         id="Sketch003_w0001-4"
         inkscape:connector-curvature="0" />
      <title
         id="title842-1">b'Sketch003'</title>
    </g>
    <g
       transform="matrix(1,0,0,-1,77.366412,263.15952)"
       id="Sketch002-0">
      <path
         style="fill:none;fill-opacity:1;fill-rule:evenodd;stroke:#000000;stroke-width:0.34999999;stroke-miterlimit:4;stroke-dasharray:none"
         d="m -8.5,0 v 3 h 17 V 0 h 4 v 8 l -25,4 V 0 h 4"
         id="Sketch002_w0000-48"
         inkscape:connector-curvature="0" />
      <title
         id="title870-7">b'Sketch002'</title>
    </g>
    <g
       transform="matrix(-1,0,0,1,77.334241,239.73239)"
       id="Sketch002-7-9">
      <path
         style="fill:none;fill-opacity:1;fill-rule:evenodd;stroke:#000000;stroke-width:0.34999999;stroke-miterlimit:4;stroke-dasharray:none"
         d="m -8.5,0 v 3 h 17 V 0 h 4 v 8 l -25,4 V 0 h 4"
         id="Sketch002_w0000-4-5"
         inkscape:connector-curvature="0" />
      <title
         id="title870-0-4">b'Sketch002'</title>
    </g>
    <g
       transform="matrix(-1,0,0,1,105.79752,239.61248)"
       id="Sketch003-3-9">
      <path
         style="fill:none;fill-opacity:1;fill-rule:evenodd;stroke:#000000;stroke-width:0.34999999;stroke-miterlimit:4;stroke-dasharray:none"
         d="m -12.5,0 v 12 l 25,-4 V 0 h -25"
         id="Sketch003_w0000-7-8"
         inkscape:connector-curvature="0" />
      <path
         style="fill:none;fill-opacity:1;fill-rule:evenodd;stroke:#000000;stroke-width:0.34999999;stroke-miterlimit:4;stroke-dasharray:none"
         d="m -8.5,3.2 h 17 v 3 h -17 v -3"
         id="Sketch003_w0001-7-9"
         inkscape:connector-curvature="0" />
      <title
         id="title842-6-4">b'Sketch003'</title>
    </g>
    <g
       transform="matrix(1,0,0,-1,105.59478,235.00318)"
       id="Sketch003-2">
      <path
         style="fill:none;fill-opacity:1;fill-rule:evenodd;stroke:#000000;stroke-width:0.34999999;stroke-miterlimit:4;stroke-dasharray:none"
         d="m -12.5,0 v 12 l 25,-4 V 0 h -25"
         id="Sketch003_w0000-6"
         inkscape:connector-curvature="0" />
      <path
         style="fill:none;fill-opacity:1;fill-rule:evenodd;stroke:#000000;stroke-width:0.34999999;stroke-miterlimit:4;stroke-dasharray:none"
         d="m -8.5,3.2 h 17 v 3 h -17 v -3"
         id="Sketch003_w0001-8"
         inkscape:connector-curvature="0" />
      <title
         id="title842-2">b'Sketch003'</title>
    </g>
    <g
       transform="matrix(1,0,0,-1,77.197472,235.11536)"
       id="Sketch002-4">
      <path
         style="fill:none;fill-opacity:1;fill-rule:evenodd;stroke:#000000;stroke-width:0.34999999;stroke-miterlimit:4;stroke-dasharray:none"
         d="m -8.5,0 v 3 h 17 V 0 h 4 v 8 l -25,4 V 0 h 4"
         id="Sketch002_w0000-2"
         inkscape:connector-curvature="0" />
      <title
         id="title870-4">b'Sketch002'</title>
    </g>
    <g
       transform="matrix(-1,0,0,1,77.165301,211.68823)"
       id="Sketch002-7-6">
      <path
         style="fill:none;fill-opacity:1;fill-rule:evenodd;stroke:#000000;stroke-width:0.34999999;stroke-miterlimit:4;stroke-dasharray:none"
         d="m -8.5,0 v 3 h 17 V 0 h 4 v 8 l -25,4 V 0 h 4"
         id="Sketch002_w0000-4-7"
         inkscape:connector-curvature="0" />
      <title
         id="title870-0-0">b'Sketch002'</title>
    </g>
    <g
       transform="matrix(-1,0,0,1,105.62857,211.56832)"
       id="Sketch003-3-0">
      <path
         style="fill:none;fill-opacity:1;fill-rule:evenodd;stroke:#000000;stroke-width:0.34999999;stroke-miterlimit:4;stroke-dasharray:none"
         d="m -12.5,0 v 12 l 25,-4 V 0 h -25"
         id="Sketch003_w0000-7-7"
         inkscape:connector-curvature="0" />
      <path
         style="fill:none;fill-opacity:1;fill-rule:evenodd;stroke:#000000;stroke-width:0.34999999;stroke-miterlimit:4;stroke-dasharray:none"
         d="m -8.5,3.2 h 17 v 3 h -17 v -3"
         id="Sketch003_w0001-7-7"
         inkscape:connector-curvature="0" />
      <title
         id="title842-6-0">b'Sketch003'</title>
    </g>
  </g>
</svg>
