  0
SECTION
  2
HEADER
  9
$ACADVER
  1
AC1014
  9
$HANDSEED
  5
FFFF
  9
$INSUNITS
 70
     4
  9
$MEASUREMENT
 70
     1
  0
ENDSEC
  0
SECTION
  2
TABLES
  0
TABLE
  2
VPORT
  5
8
330
0
100
AcDbSymbolTable
 70
     4
  0
VPORT
  5
2E
330
8
100
AcDbSymbolTableRecord
100
AcDbViewportTableRecord
  2
*ACTIVE
 70
     0
 10
0.0
 20
0.0
 11
1.0
 21
1.0
 12
210.0
 22
148.5
 13
0.0
 23
0.0
 14
10.0
 24
10.0
 15
10.0
 25
10.0
 16
0.0
 26
0.0
 36
1.0
 17
0.0
 27
0.0
 37
0.0
 40
341.0
 41
1.24
 42
50.0
 43
0.0
 44
0.0
 50
0.0
 51
0.0
 71
     0
 72
   100
 73
     1
 74
     3
 75
     0
 76
     0
 77
     0
 78
     0
  0
ENDTAB
  0
TABLE
  2
LTYPE
  5
5
330
0
100
AcDbSymbolTable
 70
     1
  0
LTYPE
  5
14
330
5
100
AcDbSymbolTableRecord
100
AcDbLinetypeTableRecord
  2
BYBLOCK
 70
     0
  3

 72
    65
 73
     0
 40
0.0
  0
LTYPE
  5
15
330
5
100
AcDbSymbolTableRecord
100
AcDbLinetypeTableRecord
  2
BYLAYER
 70
     0
  3

 72
    65
 73
     0
 40
0.0
  0
LTYPE
  5
16
330
5
100
AcDbSymbolTableRecord
100
AcDbLinetypeTableRecord
  2
CONTINUOUS
 70
     0
  3
Solid line
 72
    65
 73
     0
 40
0.0
  0
ENDTAB
  0
TABLE
  2
LAYER
  5
2
100
AcDbSymbolTable
 70
2
  0
LAYER
  5
50
100
AcDbSymbolTableRecord
100
AcDbLayerTableRecord
  2
0
 70
0
  6
CONTINUOUS
  0
LAYER
  5
51
100
AcDbSymbolTableRecord
100
AcDbLayerTableRecord
  2
Calque_1
 70
0
  6
CONTINUOUS
  0
ENDTAB
  0
TABLE
  2
STYLE
  5
3
330
0
100
AcDbSymbolTable
 70
     1
  0
STYLE
  5
11
330
3
100
AcDbSymbolTableRecord
100
AcDbTextStyleTableRecord
  2
STANDARD
 70
     0
 40
0.0
 41
1.0
 50
0.0
 71
     0
 42
2.5
  3
txt
  4

  0
ENDTAB
  0
TABLE
  2
VIEW
  5
6
330
0
100
AcDbSymbolTable
 70
     0
  0
ENDTAB
  0
TABLE
  2
UCS
  5
7
330
0
100
AcDbSymbolTable
 70
     0
  0
ENDTAB
  0
TABLE
  2
APPID
  5
9
330
0
100
AcDbSymbolTable
 70
     2
  0
APPID
  5
12
330
9
100
AcDbSymbolTableRecord
100
AcDbRegAppTableRecord
  2
ACAD
 70
     0
  0
ENDTAB
  0
TABLE
  2
DIMSTYLE
  5
A
330
0
100
AcDbSymbolTable
 70
     1
  0
DIMSTYLE
105
27
330
A
100
AcDbSymbolTableRecord
100
AcDbDimStyleTableRecord
  2
ISO-25
 70
     0
  3

  4

  5

  6

  7

 40
1.0
 41
2.5
 42
0.625
 43
3.75
 44
1.25
 45
0.0
 46
0.0
 47
0.0
 48
0.0
140
2.5
141
2.5
142
0.0
143
0.03937007874016
144
1.0
145
0.0
146
1.0
147
0.625
 71
     0
 72
     0
 73
     0
 74
     0
 75
     0
 76
     0
 77
     1
 78
     8
170
     0
171
     3
172
     1
173
     0
174
     0
175
     0
176
     0
177
     0
178
     0
270
     2
271
     2
272
     2
273
     2
274
     3
340
11
275
     0
280
     0
281
     0
282
     0
283
     0
284
     8
285
     0
286
     0
287
     3
288
     0
  0
ENDTAB
  0
TABLE
  2
BLOCK_RECORD
  5
1
330
0
100
AcDbSymbolTable
 70
     1
  0
BLOCK_RECORD
  5
1F
330
1
100
AcDbSymbolTableRecord
100
AcDbBlockTableRecord
  2
*MODEL_SPACE
  0
BLOCK_RECORD
  5
1B
330
1
100
AcDbSymbolTableRecord
100
AcDbBlockTableRecord
  2
*PAPER_SPACE
  0
ENDTAB
  0
ENDSEC
  0
SECTION
  2
BLOCKS
  0
BLOCK
  5
20
330
1F
100
AcDbEntity
  8
0
100
AcDbBlockBegin
  2
*MODEL_SPACE
 70
     0
 10
0.0
 20
0.0
 30
0.0
  3
*MODEL_SPACE
  1

  0
ENDBLK
  5
21
330
1F
100
AcDbEntity
  8
0
100
AcDbBlockEnd
  0
BLOCK
  5
1C
330
1B
100
AcDbEntity
 67
     1
  8
0
100
AcDbBlockBegin
  2
*PAPER_SPACE
  1

  0
ENDBLK
  5
1D
330
1B
100
AcDbEntity
 67
     1
  8
0
100
AcDbBlockEnd
  0
ENDSEC
  0
SECTION
  2
ENTITIES
  0
SPLINE
  5
100
100
AcDbEntity
  8
Calque_1
 62
7
100
AcDbSpline
 70
8
 71
3
 72
8
 73
4
 74
0
 40
0
 40
0
 40
0
 40
0
 40
1
 40
1
 40
1
 40
1
 10
4.963500
 20
23.887000
 30
0.0
 10
4.963500
 20
19.908753
 30
0.0
 10
6.543853
 20
16.093444
 30
0.0
 10
9.356898
 20
13.280398
 30
0.0
  0
SPLINE
  5
101
100
AcDbEntity
  8
Calque_1
 62
7
100
AcDbSpline
 70
8
 71
3
 72
8
 73
4
 74
0
 40
0
 40
0
 40
0
 40
0
 40
1
 40
1
 40
1
 40
1
 10
9.356898
 20
13.280398
 30
0.0
 10
12.169944
 20
10.467353
 30
0.0
 10
15.985253
 20
8.887000
 30
0.0
 10
19.963500
 20
8.887000
 30
0.0
  0
LWPOLYLINE
  5
102
100
AcDbEntity
  8
Calque_1
 62
7
100
AcDbPolyline
 90
2
 70
0
 10
4.963500
 20
36.887000
 30
0.0
 10
4.963500
 20
23.887000
 30
0.0
  0
SPLINE
  5
103
100
AcDbEntity
  8
Calque_1
 62
7
100
AcDbSpline
 70
8
 71
3
 72
8
 73
4
 74
0
 40
0
 40
0
 40
0
 40
0
 40
1
 40
1
 40
1
 40
1
 10
63.963500
 20
8.887000
 30
0.0
 10
67.941747
 20
8.887000
 30
0.0
 10
71.757056
 20
10.467353
 30
0.0
 10
74.570102
 20
13.280398
 30
0.0
  0
SPLINE
  5
104
100
AcDbEntity
  8
Calque_1
 62
7
100
AcDbSpline
 70
8
 71
3
 72
8
 73
4
 74
0
 40
0
 40
0
 40
0
 40
0
 40
1
 40
1
 40
1
 40
1
 10
74.570102
 20
13.280398
 30
0.0
 10
77.383147
 20
16.093444
 30
0.0
 10
78.963500
 20
19.908753
 30
0.0
 10
78.963500
 20
23.887000
 30
0.0
  0
LWPOLYLINE
  5
105
100
AcDbEntity
  8
Calque_1
 62
7
100
AcDbPolyline
 90
10
 70
0
 10
19.963500
 20
8.887000
 30
0.0
 10
24.963500
 20
8.887000
 30
0.0
 10
24.963500
 20
18.887000
 30
0.0
 10
29.963500
 20
18.887000
 30
0.0
 10
29.963500
 20
8.887000
 30
0.0
 10
53.963500
 20
8.887000
 30
0.0
 10
53.963500
 20
18.887000
 30
0.0
 10
58.963500
 20
18.887000
 30
0.0
 10
58.963500
 20
8.887000
 30
0.0
 10
63.963500
 20
8.887000
 30
0.0
  0
SPLINE
  5
106
100
AcDbEntity
  8
Calque_1
 62
7
100
AcDbSpline
 70
8
 71
3
 72
8
 73
4
 74
0
 40
0
 40
0
 40
0
 40
0
 40
1
 40
1
 40
1
 40
1
 10
69.463500
 20
43.887000
 30
0.0
 10
69.463500
 20
46.008732
 30
0.0
 10
68.620645
 20
48.043563
 30
0.0
 10
67.120354
 20
49.543854
 30
0.0
  0
SPLINE
  5
107
100
AcDbEntity
  8
Calque_1
 62
7
100
AcDbSpline
 70
8
 71
3
 72
8
 73
4
 74
0
 40
0
 40
0
 40
0
 40
0
 40
1
 40
1
 40
1
 40
1
 10
67.120354
 20
49.543854
 30
0.0
 10
65.620063
 20
51.044145
 30
0.0
 10
63.585232
 20
51.887000
 30
0.0
 10
61.463500
 20
51.887000
 30
0.0
  0
LWPOLYLINE
  5
108
100
AcDbEntity
  8
Calque_1
 62
7
100
AcDbPolyline
 90
4
 70
0
 10
78.963500
 20
23.887000
 30
0.0
 10
78.963500
 20
36.887000
 30
0.0
 10
69.463500
 20
36.887000
 30
0.0
 10
69.463500
 20
43.887000
 30
0.0
  0
SPLINE
  5
109
100
AcDbEntity
  8
Calque_1
 62
7
100
AcDbSpline
 70
8
 71
3
 72
8
 73
4
 74
0
 40
0
 40
0
 40
0
 40
0
 40
1
 40
1
 40
1
 40
1
 10
56.463500
 20
51.887000
 30
0.0
 10
54.341768
 20
51.887000
 30
0.0
 10
52.306937
 20
51.044145
 30
0.0
 10
50.806646
 20
49.543854
 30
0.0
  0
SPLINE
  5
10a
100
AcDbEntity
  8
Calque_1
 62
7
100
AcDbSpline
 70
8
 71
3
 72
8
 73
4
 74
0
 40
0
 40
0
 40
0
 40
0
 40
1
 40
1
 40
1
 40
1
 10
50.806646
 20
49.543854
 30
0.0
 10
49.306355
 20
48.043563
 30
0.0
 10
48.463500
 20
46.008732
 30
0.0
 10
48.463500
 20
43.887000
 30
0.0
  0
LWPOLYLINE
  5
10b
100
AcDbEntity
  8
Calque_1
 62
7
100
AcDbPolyline
 90
4
 70
0
 10
61.463500
 20
51.887000
 30
0.0
 10
61.463500
 20
36.887000
 30
0.0
 10
56.463500
 20
36.887000
 30
0.0
 10
56.463500
 20
51.887000
 30
0.0
  0
LWPOLYLINE
  5
10c
100
AcDbEntity
  8
Calque_1
 62
7
100
AcDbPolyline
 90
3
 70
0
 10
48.463500
 20
43.887000
 30
0.0
 10
48.463500
 20
36.887000
 30
0.0
 10
4.963500
 20
36.887000
 30
0.0
  0
SPLINE
  5
10d
100
AcDbEntity
  8
Calque_1
 62
7
100
AcDbSpline
 70
8
 71
3
 72
8
 73
4
 74
0
 40
0
 40
0
 40
0
 40
0
 40
1
 40
1
 40
1
 40
1
 10
4.963500
 20
74.798000
 30
0.0
 10
4.963500
 20
70.819753
 30
0.0
 10
6.543853
 20
67.004444
 30
0.0
 10
9.356898
 20
64.191398
 30
0.0
  0
SPLINE
  5
10e
100
AcDbEntity
  8
Calque_1
 62
7
100
AcDbSpline
 70
8
 71
3
 72
8
 73
4
 74
0
 40
0
 40
0
 40
0
 40
0
 40
1
 40
1
 40
1
 40
1
 10
9.356898
 20
64.191398
 30
0.0
 10
12.169944
 20
61.378353
 30
0.0
 10
15.985253
 20
59.798000
 30
0.0
 10
19.963500
 20
59.798000
 30
0.0
  0
LWPOLYLINE
  5
10f
100
AcDbEntity
  8
Calque_1
 62
7
100
AcDbPolyline
 90
2
 70
0
 10
4.963500
 20
87.798000
 30
0.0
 10
4.963500
 20
74.798000
 30
0.0
  0
SPLINE
  5
110
100
AcDbEntity
  8
Calque_1
 62
7
100
AcDbSpline
 70
8
 71
3
 72
8
 73
4
 74
0
 40
0
 40
0
 40
0
 40
0
 40
1
 40
1
 40
1
 40
1
 10
63.963500
 20
59.798000
 30
0.0
 10
67.941747
 20
59.798000
 30
0.0
 10
71.757056
 20
61.378353
 30
0.0
 10
74.570102
 20
64.191398
 30
0.0
  0
SPLINE
  5
111
100
AcDbEntity
  8
Calque_1
 62
7
100
AcDbSpline
 70
8
 71
3
 72
8
 73
4
 74
0
 40
0
 40
0
 40
0
 40
0
 40
1
 40
1
 40
1
 40
1
 10
74.570102
 20
64.191398
 30
0.0
 10
77.383147
 20
67.004444
 30
0.0
 10
78.963500
 20
70.819753
 30
0.0
 10
78.963500
 20
74.798000
 30
0.0
  0
LWPOLYLINE
  5
112
100
AcDbEntity
  8
Calque_1
 62
7
100
AcDbPolyline
 90
10
 70
0
 10
19.963500
 20
59.798000
 30
0.0
 10
24.963500
 20
59.798000
 30
0.0
 10
24.963500
 20
64.798000
 30
0.0
 10
29.963500
 20
64.798000
 30
0.0
 10
29.963500
 20
59.798000
 30
0.0
 10
53.963500
 20
59.798000
 30
0.0
 10
53.963500
 20
64.798000
 30
0.0
 10
58.963500
 20
64.798000
 30
0.0
 10
58.963500
 20
59.798000
 30
0.0
 10
63.963500
 20
59.798000
 30
0.0
  0
SPLINE
  5
113
100
AcDbEntity
  8
Calque_1
 62
7
100
AcDbSpline
 70
8
 71
3
 72
8
 73
4
 74
0
 40
0
 40
0
 40
0
 40
0
 40
1
 40
1
 40
1
 40
1
 10
16.963500
 20
66.298000
 30
0.0
 10
12.918878
 20
66.298000
 30
0.0
 10
9.272515
 20
68.734422
 30
0.0
 10
7.724705
 20
72.471166
 30
0.0
  0
SPLINE
  5
114
100
AcDbEntity
  8
Calque_1
 62
7
100
AcDbSpline
 70
8
 71
3
 72
8
 73
4
 74
0
 40
0
 40
0
 40
0
 40
0
 40
1
 40
1
 40
1
 40
1
 10
7.724705
 20
72.471166
 30
0.0
 10
6.176895
 20
76.207910
 30
0.0
 10
7.032452
 20
80.509088
 30
0.0
 10
9.892432
 20
83.369068
 30
0.0
  0
SPLINE
  5
115
100
AcDbEntity
  8
Calque_1
 62
7
100
AcDbSpline
 70
8
 71
3
 72
8
 73
4
 74
0
 40
0
 40
0
 40
0
 40
0
 40
1
 40
1
 40
1
 40
1
 10
9.892432
 20
83.369068
 30
0.0
 10
12.752412
 20
86.229048
 30
0.0
 10
17.053590
 20
87.084605
 30
0.0
 10
20.790334
 20
85.536795
 30
0.0
  0
SPLINE
  5
116
100
AcDbEntity
  8
Calque_1
 62
7
100
AcDbSpline
 70
8
 71
3
 72
8
 73
4
 74
0
 40
0
 40
0
 40
0
 40
0
 40
1
 40
1
 40
1
 40
1
 10
20.790334
 20
85.536795
 30
0.0
 10
24.527078
 20
83.988985
 30
0.0
 10
26.963500
 20
80.342622
 30
0.0
 10
26.963500
 20
76.298000
 30
0.0
  0
SPLINE
  5
117
100
AcDbEntity
  8
Calque_1
 62
7
100
AcDbSpline
 70
8
 71
3
 72
8
 73
4
 74
0
 40
0
 40
0
 40
0
 40
0
 40
1
 40
1
 40
1
 40
1
 10
26.963500
 20
76.298000
 30
0.0
 10
26.963500
 20
73.645835
 30
0.0
 10
25.909932
 20
71.102296
 30
0.0
 10
24.034568
 20
69.226932
 30
0.0
  0
SPLINE
  5
118
100
AcDbEntity
  8
Calque_1
 62
7
100
AcDbSpline
 70
8
 71
3
 72
8
 73
4
 74
0
 40
0
 40
0
 40
0
 40
0
 40
1
 40
1
 40
1
 40
1
 10
24.034568
 20
69.226932
 30
0.0
 10
22.159204
 20
67.351568
 30
0.0
 10
19.615665
 20
66.298000
 30
0.0
 10
16.963500
 20
66.298000
 30
0.0
  0
LWPOLYLINE
  5
119
100
AcDbEntity
  8
Calque_1
 62
7
100
AcDbPolyline
 90
3
 70
0
 10
78.963500
 20
74.798000
 30
0.0
 10
78.963500
 20
87.798000
 30
0.0
 10
4.963500
 20
87.798000
 30
0.0
  0
SPLINE
  5
11a
100
AcDbEntity
  8
Calque_1
 62
7
100
AcDbSpline
 70
8
 71
3
 72
8
 73
4
 74
0
 40
0
 40
0
 40
0
 40
0
 40
1
 40
1
 40
1
 40
1
 10
66.963500
 20
66.298000
 30
0.0
 10
62.918878
 20
66.298000
 30
0.0
 10
59.272515
 20
68.734422
 30
0.0
 10
57.724705
 20
72.471166
 30
0.0
  0
SPLINE
  5
11b
100
AcDbEntity
  8
Calque_1
 62
7
100
AcDbSpline
 70
8
 71
3
 72
8
 73
4
 74
0
 40
0
 40
0
 40
0
 40
0
 40
1
 40
1
 40
1
 40
1
 10
57.724705
 20
72.471166
 30
0.0
 10
56.176895
 20
76.207910
 30
0.0
 10
57.032452
 20
80.509088
 30
0.0
 10
59.892432
 20
83.369068
 30
0.0
  0
SPLINE
  5
11c
100
AcDbEntity
  8
Calque_1
 62
7
100
AcDbSpline
 70
8
 71
3
 72
8
 73
4
 74
0
 40
0
 40
0
 40
0
 40
0
 40
1
 40
1
 40
1
 40
1
 10
59.892432
 20
83.369068
 30
0.0
 10
62.752412
 20
86.229048
 30
0.0
 10
67.053590
 20
87.084605
 30
0.0
 10
70.790334
 20
85.536795
 30
0.0
  0
SPLINE
  5
11d
100
AcDbEntity
  8
Calque_1
 62
7
100
AcDbSpline
 70
8
 71
3
 72
8
 73
4
 74
0
 40
0
 40
0
 40
0
 40
0
 40
1
 40
1
 40
1
 40
1
 10
70.790334
 20
85.536795
 30
0.0
 10
74.527078
 20
83.988985
 30
0.0
 10
76.963500
 20
80.342622
 30
0.0
 10
76.963500
 20
76.298000
 30
0.0
  0
SPLINE
  5
11e
100
AcDbEntity
  8
Calque_1
 62
7
100
AcDbSpline
 70
8
 71
3
 72
8
 73
4
 74
0
 40
0
 40
0
 40
0
 40
0
 40
1
 40
1
 40
1
 40
1
 10
76.963500
 20
76.298000
 30
0.0
 10
76.963500
 20
73.645835
 30
0.0
 10
75.909932
 20
71.102296
 30
0.0
 10
74.034568
 20
69.226932
 30
0.0
  0
SPLINE
  5
11f
100
AcDbEntity
  8
Calque_1
 62
7
100
AcDbSpline
 70
8
 71
3
 72
8
 73
4
 74
0
 40
0
 40
0
 40
0
 40
0
 40
1
 40
1
 40
1
 40
1
 10
74.034568
 20
69.226932
 30
0.0
 10
72.159204
 20
67.351568
 30
0.0
 10
69.615665
 20
66.298000
 30
0.0
 10
66.963500
 20
66.298000
 30
0.0
  0
LWPOLYLINE
  5
120
100
AcDbEntity
  8
Calque_1
 62
7
100
AcDbPolyline
 90
1
 70
1
 10
16.963500
 20
66.298000
 30
0.0
  0
SPLINE
  5
121
100
AcDbEntity
  8
Calque_1
 62
7
100
AcDbSpline
 70
8
 71
3
 72
8
 73
4
 74
0
 40
0
 40
0
 40
0
 40
0
 40
1
 40
1
 40
1
 40
1
 10
41.963500
 20
61.298000
 30
0.0
 10
37.918878
 20
61.298000
 30
0.0
 10
34.272515
 20
63.734422
 30
0.0
 10
32.724705
 20
67.471166
 30
0.0
  0
SPLINE
  5
122
100
AcDbEntity
  8
Calque_1
 62
7
100
AcDbSpline
 70
8
 71
3
 72
8
 73
4
 74
0
 40
0
 40
0
 40
0
 40
0
 40
1
 40
1
 40
1
 40
1
 10
32.724705
 20
67.471166
 30
0.0
 10
31.176895
 20
71.207910
 30
0.0
 10
32.032452
 20
75.509088
 30
0.0
 10
34.892432
 20
78.369068
 30
0.0
  0
SPLINE
  5
123
100
AcDbEntity
  8
Calque_1
 62
7
100
AcDbSpline
 70
8
 71
3
 72
8
 73
4
 74
0
 40
0
 40
0
 40
0
 40
0
 40
1
 40
1
 40
1
 40
1
 10
34.892432
 20
78.369068
 30
0.0
 10
37.752412
 20
81.229048
 30
0.0
 10
42.053590
 20
82.084605
 30
0.0
 10
45.790334
 20
80.536795
 30
0.0
  0
SPLINE
  5
124
100
AcDbEntity
  8
Calque_1
 62
7
100
AcDbSpline
 70
8
 71
3
 72
8
 73
4
 74
0
 40
0
 40
0
 40
0
 40
0
 40
1
 40
1
 40
1
 40
1
 10
45.790334
 20
80.536795
 30
0.0
 10
49.527078
 20
78.988985
 30
0.0
 10
51.963500
 20
75.342622
 30
0.0
 10
51.963500
 20
71.298000
 30
0.0
  0
SPLINE
  5
125
100
AcDbEntity
  8
Calque_1
 62
7
100
AcDbSpline
 70
8
 71
3
 72
8
 73
4
 74
0
 40
0
 40
0
 40
0
 40
0
 40
1
 40
1
 40
1
 40
1
 10
51.963500
 20
71.298000
 30
0.0
 10
51.963500
 20
68.645835
 30
0.0
 10
50.909932
 20
66.102296
 30
0.0
 10
49.034568
 20
64.226932
 30
0.0
  0
SPLINE
  5
126
100
AcDbEntity
  8
Calque_1
 62
7
100
AcDbSpline
 70
8
 71
3
 72
8
 73
4
 74
0
 40
0
 40
0
 40
0
 40
0
 40
1
 40
1
 40
1
 40
1
 10
49.034568
 20
64.226932
 30
0.0
 10
47.159204
 20
62.351568
 30
0.0
 10
44.615665
 20
61.298000
 30
0.0
 10
41.963500
 20
61.298000
 30
0.0
  0
LWPOLYLINE
  5
127
100
AcDbEntity
  8
Calque_1
 62
7
100
AcDbPolyline
 90
1
 70
1
 10
66.963500
 20
66.298000
 30
0.0
  0
SPLINE
  5
128
100
AcDbEntity
  8
Calque_1
 62
7
100
AcDbSpline
 70
8
 71
3
 72
8
 73
4
 74
0
 40
0
 40
0
 40
0
 40
0
 40
1
 40
1
 40
1
 40
1
 10
113.846817
 20
43.787212
 30
0.0
 10
116.288798
 20
44.947869
 30
0.0
 10
117.844007
 20
47.411105
 30
0.0
 10
117.841905
 20
50.114879
 30
0.0
  0
SPLINE
  5
129
100
AcDbEntity
  8
Calque_1
 62
7
100
AcDbSpline
 70
8
 71
3
 72
8
 73
4
 74
0
 40
0
 40
0
 40
0
 40
0
 40
1
 40
1
 40
1
 40
1
 10
117.841905
 20
50.114879
 30
0.0
 10
117.839803
 20
52.818653
 30
0.0
 10
116.280766
 20
55.279468
 30
0.0
 10
113.836983
 20
56.436327
 30
0.0
  0
LWPOLYLINE
  5
12a
100
AcDbEntity
  8
Calque_1
 62
7
100
AcDbPolyline
 90
1
 70
1
 10
41.963500
 20
61.298000
 30
0.0
  0
SPLINE
  5
12b
100
AcDbEntity
  8
Calque_1
 62
7
100
AcDbSpline
 70
8
 71
3
 72
8
 73
4
 74
0
 40
0
 40
0
 40
0
 40
0
 40
1
 40
1
 40
1
 40
1
 10
108.841900
 20
50.107880
 30
0.0
 10
108.841271
 20
50.916805
 30
0.0
 10
109.327989
 20
51.646456
 30
0.0
 10
110.075097
 20
51.956599
 30
0.0
  0
SPLINE
  5
12c
100
AcDbEntity
  8
Calque_1
 62
7
100
AcDbSpline
 70
8
 71
3
 72
8
 73
4
 74
0
 40
0
 40
0
 40
0
 40
0
 40
1
 40
1
 40
1
 40
1
 10
110.075097
 20
51.956599
 30
0.0
 10
110.822205
 20
52.266742
 30
0.0
 10
111.682573
 20
52.096299
 30
0.0
 10
112.255014
 20
51.524748
 30
0.0
  0
SPLINE
  5
12d
100
AcDbEntity
  8
Calque_1
 62
7
100
AcDbSpline
 70
8
 71
3
 72
8
 73
4
 74
0
 40
0
 40
0
 40
0
 40
0
 40
1
 40
1
 40
1
 40
1
 10
112.255014
 20
51.524748
 30
0.0
 10
112.827455
 20
50.953197
 30
0.0
 10
112.999235
 20
50.093094
 30
0.0
 10
112.690254
 20
49.345504
 30
0.0
  0
SPLINE
  5
12e
100
AcDbEntity
  8
Calque_1
 62
7
100
AcDbSpline
 70
8
 71
3
 72
8
 73
4
 74
0
 40
0
 40
0
 40
0
 40
0
 40
1
 40
1
 40
1
 40
1
 10
112.690254
 20
49.345504
 30
0.0
 10
112.381273
 20
48.597915
 30
0.0
 10
111.652379
 20
48.110064
 30
0.0
 10
110.843455
 20
48.109435
 30
0.0
  0
SPLINE
  5
12f
100
AcDbEntity
  8
Calque_1
 62
7
100
AcDbSpline
 70
8
 71
3
 72
8
 73
4
 74
0
 40
0
 40
0
 40
0
 40
0
 40
1
 40
1
 40
1
 40
1
 10
110.843455
 20
48.109435
 30
0.0
 10
110.313022
 20
48.109023
 30
0.0
 10
109.804150
 20
48.319341
 30
0.0
 10
109.428786
 20
48.694122
 30
0.0
  0
SPLINE
  5
130
100
AcDbEntity
  8
Calque_1
 62
7
100
AcDbSpline
 70
8
 71
3
 72
8
 73
4
 74
0
 40
0
 40
0
 40
0
 40
0
 40
1
 40
1
 40
1
 40
1
 10
109.428786
 20
48.694122
 30
0.0
 10
109.053422
 20
49.068903
 30
0.0
 10
108.842312
 20
49.577447
 30
0.0
 10
108.841900
 20
50.107880
 30
0.0
  0
LWPOLYLINE
  5
131
100
AcDbEntity
  8
Calque_1
 62
7
100
AcDbPolyline
 90
14
 70
0
 10
113.836983
 20
56.436327
 30
0.0
 10
113.813136
 20
87.111767
 30
0.0
 10
85.813136
 20
87.090000
 30
0.0
 10
85.828684
 20
67.090000
 30
0.0
 10
90.828684
 20
67.093887
 30
0.0
 10
90.832571
 20
62.093887
 30
0.0
 10
85.832571
 20
62.090000
 30
0.0
 10
85.851229
 20
38.090000
 30
0.0
 10
90.851229
 20
38.093887
 30
0.0
 10
90.855116
 20
33.093887
 30
0.0
 10
85.855116
 20
33.090000
 30
0.0
 10
85.870664
 20
13.090000
 30
0.0
 10
113.870664
 20
13.111767
 30
0.0
 10
113.846817
 20
43.787212
 30
0.0
  0
SPLINE
  5
132
100
AcDbEntity
  8
Calque_1
 62
7
100
AcDbSpline
 70
8
 71
3
 72
8
 73
4
 74
0
 40
0
 40
0
 40
0
 40
0
 40
1
 40
1
 40
1
 40
1
 10
92.322465
 20
75.095053
 30
0.0
 10
92.319321
 20
79.139676
 30
0.0
 10
94.752908
 20
82.787932
 30
0.0
 10
98.488449
 20
84.338647
 30
0.0
  0
SPLINE
  5
133
100
AcDbEntity
  8
Calque_1
 62
7
100
AcDbSpline
 70
8
 71
3
 72
8
 73
4
 74
0
 40
0
 40
0
 40
0
 40
0
 40
1
 40
1
 40
1
 40
1
 10
98.488449
 20
84.338647
 30
0.0
 10
102.223989
 20
85.889362
 30
0.0
 10
106.525833
 20
85.037148
 30
0.0
 10
109.388036
 20
82.179392
 30
0.0
  0
SPLINE
  5
134
100
AcDbEntity
  8
Calque_1
 62
7
100
AcDbSpline
 70
8
 71
3
 72
8
 73
4
 74
0
 40
0
 40
0
 40
0
 40
0
 40
1
 40
1
 40
1
 40
1
 10
109.388036
 20
82.179392
 30
0.0
 10
112.250239
 20
79.321635
 30
0.0
 10
113.109140
 20
75.021122
 30
0.0
 10
111.564235
 20
71.283175
 30
0.0
  0
SPLINE
  5
135
100
AcDbEntity
  8
Calque_1
 62
7
100
AcDbSpline
 70
8
 71
3
 72
8
 73
4
 74
0
 40
0
 40
0
 40
0
 40
0
 40
1
 40
1
 40
1
 40
1
 10
111.564235
 20
71.283175
 30
0.0
 10
110.019330
 20
67.545228
 30
0.0
 10
106.374862
 20
65.105971
 30
0.0
 10
102.330239
 20
65.102827
 30
0.0
  0
SPLINE
  5
136
100
AcDbEntity
  8
Calque_1
 62
7
100
AcDbSpline
 70
8
 71
3
 72
8
 73
4
 74
0
 40
0
 40
0
 40
0
 40
0
 40
1
 40
1
 40
1
 40
1
 10
102.330239
 20
65.102827
 30
0.0
 10
99.678074
 20
65.100765
 30
0.0
 10
97.133716
 20
66.152356
 30
0.0
 10
95.256894
 20
68.026262
 30
0.0
  0
SPLINE
  5
137
100
AcDbEntity
  8
Calque_1
 62
7
100
AcDbSpline
 70
8
 71
3
 72
8
 73
4
 74
0
 40
0
 40
0
 40
0
 40
0
 40
1
 40
1
 40
1
 40
1
 10
95.256894
 20
68.026262
 30
0.0
 10
93.380073
 20
69.900168
 30
0.0
 10
92.324527
 20
72.442888
 30
0.0
 10
92.322465
 20
75.095053
 30
0.0
  0
LWPOLYLINE
  5
138
100
AcDbEntity
  8
Calque_1
 62
7
100
AcDbPolyline
 90
1
 70
1
 10
108.841900
 20
50.107880
 30
0.0
  0
SPLINE
  5
139
100
AcDbEntity
  8
Calque_1
 62
7
100
AcDbSpline
 70
8
 71
3
 72
8
 73
4
 74
0
 40
0
 40
0
 40
0
 40
0
 40
1
 40
1
 40
1
 40
1
 10
92.361335
 20
25.095053
 30
0.0
 10
92.358191
 20
29.139676
 30
0.0
 10
94.791778
 20
32.787932
 30
0.0
 10
98.527318
 20
34.338647
 30
0.0
  0
SPLINE
  5
13a
100
AcDbEntity
  8
Calque_1
 62
7
100
AcDbSpline
 70
8
 71
3
 72
8
 73
4
 74
0
 40
0
 40
0
 40
0
 40
0
 40
1
 40
1
 40
1
 40
1
 10
98.527318
 20
34.338647
 30
0.0
 10
102.262859
 20
35.889362
 30
0.0
 10
106.564702
 20
35.037148
 30
0.0
 10
109.426906
 20
32.179392
 30
0.0
  0
SPLINE
  5
13b
100
AcDbEntity
  8
Calque_1
 62
7
100
AcDbSpline
 70
8
 71
3
 72
8
 73
4
 74
0
 40
0
 40
0
 40
0
 40
0
 40
1
 40
1
 40
1
 40
1
 10
109.426906
 20
32.179392
 30
0.0
 10
112.289109
 20
29.321635
 30
0.0
 10
113.148010
 20
25.021122
 30
0.0
 10
111.603105
 20
21.283175
 30
0.0
  0
SPLINE
  5
13c
100
AcDbEntity
  8
Calque_1
 62
7
100
AcDbSpline
 70
8
 71
3
 72
8
 73
4
 74
0
 40
0
 40
0
 40
0
 40
0
 40
1
 40
1
 40
1
 40
1
 10
111.603105
 20
21.283175
 30
0.0
 10
110.058200
 20
17.545228
 30
0.0
 10
106.413731
 20
15.105971
 30
0.0
 10
102.369109
 20
15.102827
 30
0.0
  0
SPLINE
  5
13d
100
AcDbEntity
  8
Calque_1
 62
7
100
AcDbSpline
 70
8
 71
3
 72
8
 73
4
 74
0
 40
0
 40
0
 40
0
 40
0
 40
1
 40
1
 40
1
 40
1
 10
102.369109
 20
15.102827
 30
0.0
 10
99.716944
 20
15.100765
 30
0.0
 10
97.172586
 20
16.152356
 30
0.0
 10
95.295764
 20
18.026262
 30
0.0
  0
SPLINE
  5
13e
100
AcDbEntity
  8
Calque_1
 62
7
100
AcDbSpline
 70
8
 71
3
 72
8
 73
4
 74
0
 40
0
 40
0
 40
0
 40
0
 40
1
 40
1
 40
1
 40
1
 10
95.295764
 20
18.026262
 30
0.0
 10
93.418942
 20
19.900168
 30
0.0
 10
92.363397
 20
22.442888
 30
0.0
 10
92.361335
 20
25.095053
 30
0.0
  0
LWPOLYLINE
  5
13f
100
AcDbEntity
  8
Calque_1
 62
7
100
AcDbPolyline
 90
1
 70
1
 10
92.322465
 20
75.095053
 30
0.0
  0
SPLINE
  5
140
100
AcDbEntity
  8
Calque_1
 62
7
100
AcDbSpline
 70
8
 71
3
 72
8
 73
4
 74
0
 40
0
 40
0
 40
0
 40
0
 40
1
 40
1
 40
1
 40
1
 10
87.341900
 20
50.091166
 30
0.0
 10
87.338756
 20
54.135789
 30
0.0
 10
89.772343
 20
57.784045
 30
0.0
 10
93.507883
 20
59.334760
 30
0.0
  0
SPLINE
  5
141
100
AcDbEntity
  8
Calque_1
 62
7
100
AcDbSpline
 70
8
 71
3
 72
8
 73
4
 74
0
 40
0
 40
0
 40
0
 40
0
 40
1
 40
1
 40
1
 40
1
 10
93.507883
 20
59.334760
 30
0.0
 10
97.243424
 20
60.885475
 30
0.0
 10
101.545267
 20
60.033262
 30
0.0
 10
104.407471
 20
57.175505
 30
0.0
  0
SPLINE
  5
142
100
AcDbEntity
  8
Calque_1
 62
7
100
AcDbSpline
 70
8
 71
3
 72
8
 73
4
 74
0
 40
0
 40
0
 40
0
 40
0
 40
1
 40
1
 40
1
 40
1
 10
104.407471
 20
57.175505
 30
0.0
 10
107.269674
 20
54.317748
 30
0.0
 10
108.128575
 20
50.017235
 30
0.0
 10
106.583670
 20
46.279288
 30
0.0
  0
SPLINE
  5
143
100
AcDbEntity
  8
Calque_1
 62
7
100
AcDbSpline
 70
8
 71
3
 72
8
 73
4
 74
0
 40
0
 40
0
 40
0
 40
0
 40
1
 40
1
 40
1
 40
1
 10
106.583670
 20
46.279288
 30
0.0
 10
105.038765
 20
42.541341
 30
0.0
 10
101.394296
 20
40.102084
 30
0.0
 10
97.349674
 20
40.098940
 30
0.0
  0
SPLINE
  5
144
100
AcDbEntity
  8
Calque_1
 62
7
100
AcDbSpline
 70
8
 71
3
 72
8
 73
4
 74
0
 40
0
 40
0
 40
0
 40
0
 40
1
 40
1
 40
1
 40
1
 10
97.349674
 20
40.098940
 30
0.0
 10
94.697509
 20
40.096878
 30
0.0
 10
92.153151
 20
41.148469
 30
0.0
 10
90.276329
 20
43.022375
 30
0.0
  0
SPLINE
  5
145
100
AcDbEntity
  8
Calque_1
 62
7
100
AcDbSpline
 70
8
 71
3
 72
8
 73
4
 74
0
 40
0
 40
0
 40
0
 40
0
 40
1
 40
1
 40
1
 40
1
 10
90.276329
 20
43.022375
 30
0.0
 10
88.399508
 20
44.896281
 30
0.0
 10
87.343962
 20
47.439001
 30
0.0
 10
87.341900
 20
50.091166
 30
0.0
  0
LWPOLYLINE
  5
146
100
AcDbEntity
  8
Calque_1
 62
7
100
AcDbPolyline
 90
1
 70
1
 10
92.361335
 20
25.095053
 30
0.0
  0
LWPOLYLINE
  5
147
100
AcDbEntity
  8
Calque_1
 62
7
100
AcDbPolyline
 90
1
 70
1
 10
87.341900
 20
50.091166
 30
0.0
  0
ENDSEC
  0
SECTION
  2
OBJECTS
  0
DICTIONARY
  5
C
330
0
100
AcDbDictionary
  3
ACAD_GROUP
350
D
  3
ACAD_MLINESTYLE
350
17
  0
DICTIONARY
  5
D
330
C
100
AcDbDictionary
  0
DICTIONARY
  5
1A
330
C
100
AcDbDictionary
  0
DICTIONARY
  5
17
330
C
100
AcDbDictionary
  3
STANDARD
350
18
  0
DICTIONARY
  5
19
330
C
100
AcDbDictionary
  0
ENDSEC
  0
EOF
