<?xml version="1.0" encoding="UTF-8" standalone="no"?>
<!-- Created with Inkscape (http://www.inkscape.org/) -->

<svg
   width="210mm"
   height="297mm"
   viewBox="0 0 210 297"
   version="1.1"
   id="svg1"
   xml:space="preserve"
   inkscape:version="1.3.2 (091e20e, 2023-11-25, custom)"
   sodipodi:docname="Calpinage V2.svg"
   xmlns:inkscape="http://www.inkscape.org/namespaces/inkscape"
   xmlns:sodipodi="http://sodipodi.sourceforge.net/DTD/sodipodi-0.dtd"
   xmlns="http://www.w3.org/2000/svg"
   xmlns:svg="http://www.w3.org/2000/svg"><sodipodi:namedview
     id="namedview1"
     pagecolor="#505050"
     bordercolor="#eeeeee"
     borderopacity="1"
     inkscape:showpageshadow="0"
     inkscape:pageopacity="0"
     inkscape:pagecheckerboard="0"
     inkscape:deskcolor="#505050"
     inkscape:document-units="mm"
     inkscape:zoom="0.73139029"
     inkscape:cx="58.10851"
     inkscape:cy="825.14084"
     inkscape:window-width="1920"
     inkscape:window-height="1017"
     inkscape:window-x="-8"
     inkscape:window-y="-8"
     inkscape:window-maximized="1"
     inkscape:current-layer="layer1" /><defs
     id="defs1" /><g
     inkscape:label="Calque 1"
     inkscape:groupmode="layer"
     id="layer1"><g
       id="Sketch014"
       transform="matrix(1,0,0,-1,41.963455,288.11267)"><path
         id="Sketch014_w0000"
         d="M -37,28 V 15 A 15,15 0 0 1 -22,0 h 5 v 10 h 5 V 0 h 24 v 10 h 5 V 0 h 5 a 15,15 0 0 1 15,15 v 13 h -9.5 v 7 a 8,8 0 0 1 -8,8 V 28 h -5 v 15 a 8,8 0 0 1 -8,-8 V 28 H -37"
         stroke="#000000"
         stroke-width="0.7 px"
         style="fill:none;fill-opacity:1;fill-rule:evenodd;stroke-width:0.7;stroke-linecap:square;stroke-miterlimit:4;stroke-dasharray:none" /><title
         id="title1">b'Sketch014'</title></g><g
       id="Sketch012"
       transform="matrix(1,0,0,-1,41.963461,237.20219)"><path
         id="Sketch012_w0000"
         d="M -37,28 V 15 A 15,15 0 0 1 -22,0 h 5 v 5 h 5 V 0 h 24 v 5 h 5 V 0 h 5 a 15,15 0 0 1 15,15 v 13 h -74"
         stroke="#000000"
         stroke-width="0.7 px"
         style="fill:none;fill-opacity:1;fill-rule:evenodd;stroke-width:0.7;stroke-linecap:square;stroke-miterlimit:4;stroke-dasharray:none" /><circle
         cx="-25"
         cy="16.5"
         r="10"
         stroke="#000000"
         stroke-width="0.7 px"
         style="fill:none;stroke-width:0.7;stroke-linecap:square;stroke-miterlimit:4;stroke-dasharray:none"
         id="circle1" /><circle
         cx="25"
         cy="16.5"
         r="10"
         stroke="#000000"
         stroke-width="0.7 px"
         style="fill:none;stroke-width:0.7;stroke-linecap:square;stroke-miterlimit:4;stroke-dasharray:none"
         id="circle2" /><circle
         cx="0"
         cy="11.5"
         r="10"
         stroke="#000000"
         stroke-width="0.7 px"
         style="fill:none;stroke-width:0.7;stroke-linecap:square;stroke-miterlimit:4;stroke-dasharray:none"
         id="circle3" /><title
         id="title3">b'Sketch012'</title></g><g
       id="Sketch009"
       transform="matrix(7.7739587e-4,0.9999997,0.9999997,-7.7739587e-4,85.841929,246.90968)"><path
         id="Sketch009_w0000"
         d="M 6.3245553,28 A 7,7 0 0 1 -6.32456,28 H -37 V 0 h 20 v 5 h 5 V 0 h 24 v 5 h 5 V 0 H 37 V 28 H 6.3245553"
         stroke="#000000"
         stroke-width="0.7 px"
         style="fill:none;fill-opacity:1;fill-rule:evenodd;stroke-width:0.7;stroke-linecap:square;stroke-miterlimit:4;stroke-dasharray:none" /><circle
         cx="-6.2998432e-27"
         cy="25"
         r="2"
         stroke="#000000"
         stroke-width="0.7 px"
         style="fill:none;stroke-width:0.7;stroke-linecap:square;stroke-miterlimit:4;stroke-dasharray:none"
         id="circle1-1" /><circle
         cx="-25"
         cy="16.5"
         r="10"
         stroke="#000000"
         stroke-width="0.7 px"
         style="fill:none;stroke-width:0.7;stroke-linecap:square;stroke-miterlimit:4;stroke-dasharray:none"
         id="circle2-4" /><circle
         cx="25"
         cy="16.5"
         r="10"
         stroke="#000000"
         stroke-width="0.7 px"
         style="fill:none;stroke-width:0.7;stroke-linecap:square;stroke-miterlimit:4;stroke-dasharray:none"
         id="circle3-0" /><circle
         cx="0"
         cy="11.5"
         r="10"
         stroke="#000000"
         stroke-width="0.7 px"
         style="fill:none;stroke-width:0.7;stroke-linecap:square;stroke-miterlimit:4;stroke-dasharray:none"
         id="circle4" /><title
         id="title4">b'Sketch009'</title></g></g></svg>
