<?xml version="1.0"?>
<!DOCTYPE svg PUBLIC "-//W3C//DTD SVG 1.1//EN" "http://www.w3.org/Graphics/SVG/1.1/DTD/svg11.dtd">
<svg width="75.48mm" height="44.48000000003785mm" viewBox="0 0 75.48 44.48000000003785" xmlns="http://www.w3.org/2000/svg" version="1.1">
<g id="Sketch014" transform="translate(37.740000,43.740000) scale(1,-1)">
<path id="Sketch014_w0000"  d="M -37.0 28.000000000030337 L -37.0 15.000000000030342 A 15 15 0 0 1 -22 3.03402e-11L -17.0 3.033988526597473e-11 L -17.0 10.000000000106018 L -12.0 10.000000000106018 L -12.0 0.0 L 12.0 -1.5536359114529084e-26 L 11.999999999999998 10.000000000037838 L 17.0 10.000000000037838 L 17.0 3.7838177036064735e-11 L 21.999999999999993 3.7838177036064735e-11 A 15 15 0 0 1 37 15L 37.0 28.000000000037836 L 27.5 28.000000000037836 L 27.5 35.00000000003784 A 8 8 0 0 1 19.5 43L 19.5 28.000000000037844 L 14.5 28.000000000030347 L 14.5 43.00000000003035 A 8 8 0 0 1 6.5 35L 6.499999999999995 28.000000000030337 L -37.0 28.000000000030337 " stroke="#000000" stroke-width="0.7 px" style="stroke-width:0.7;stroke-miterlimit:4;stroke-dasharray:none;stroke-linecap:square;fill:none;fill-opacity:1;fill-rule: evenodd"/>
<title>b'Sketch014'</title>
</g>
</svg>