<?xml version="1.0"?>
<!DOCTYPE svg PUBLIC "-//W3C//DTD SVG 1.1//EN" "http://www.w3.org/Graphics/SVG/1.1/DTD/svg11.dtd">
<svg width="75.48mm" height="29.479999999999997mm" viewBox="0 0 75.48 29.479999999999997" xmlns="http://www.w3.org/2000/svg" version="1.1">
<g id="Sketch012" transform="translate(37.740000,28.740000) scale(1,-1)">
<path id="Sketch012_w0000"  d="M -37.0 27.999999999920295 L -37.0 14.999999999967768 A 15 15 0 0 1 -22 -3.22338e-11L -17.0 -3.2233771207756945e-11 L -17.0 4.999999999967766 L -12.0 4.999999999967766 L -12.0 -1.7763568394002505e-15 L 12.0 -1.6189794496842247e-15 L 12.0 4.999999999992532 L 17.0 4.999999999992532 L 17.0 -7.970335502704984e-11 L 21.999999999999996 -7.970335502704984e-11 A 15 15 0 0 1 37 15L 37.0 27.999999999920295 L -37.0 27.999999999920295 " stroke="#000000" stroke-width="0.7 px" style="stroke-width:0.7;stroke-miterlimit:4;stroke-dasharray:none;stroke-linecap:square;fill:none;fill-opacity:1;fill-rule: evenodd"/>
<circle cx="-25.0" cy="16.499999999920295" r="10.0" stroke="#000000" stroke-width="0.7 px" style="stroke-width:0.7;stroke-miterlimit:4;stroke-dasharray:none;stroke-linecap:square;fill:none"/>
<circle cx="25.0" cy="16.499999999920295" r="10.0" stroke="#000000" stroke-width="0.7 px" style="stroke-width:0.7;stroke-miterlimit:4;stroke-dasharray:none;stroke-linecap:square;fill:none"/>
<circle cx="0.0" cy="11.499999999920298" r="10.0" stroke="#000000" stroke-width="0.7 px" style="stroke-width:0.7;stroke-miterlimit:4;stroke-dasharray:none;stroke-linecap:square;fill:none"/>
<title>b'Sketch012'</title>
</g>
</svg>