  0
SECTION
  2
HEADER
  9
$ACADVER
  1
AC1014
  9
$HANDSEED
  5
FFFF
  9
$MEASUREMENT
 70
     1
  0
ENDSEC
  0
SECTION
  2
TABLES
  0
TABLE
  2
VPORT
  5
8
330
0
100
AcDbSymbolTable
 70
     4
  0
VPORT
  5
2E
330
8
100
AcDbSymbolTableRecord
100
AcDbViewportTableRecord
  2
*ACTIVE
 70
     0
 10
0.0
 20
0.0
 11
1.0
 21
1.0
 12
210.0
 22
148.5
 13
0.0
 23
0.0
 14
10.0
 24
10.0
 15
10.0
 25
10.0
 16
0.0
 26
0.0
 36
1.0
 17
0.0
 27
0.0
 37
0.0
 40
341.0
 41
1.24
 42
50.0
 43
0.0
 44
0.0
 50
0.0
 51
0.0
 71
     0
 72
   100
 73
     1
 74
     3
 75
     0
 76
     0
 77
     0
 78
     0
  0
ENDTAB
  0
TABLE
  2
LTYPE
  5
5
330
0
100
AcDbSymbolTable
 70
     1
  0
LTYPE
  5
14
330
5
100
AcDbSymbolTableRecord
100
AcDbLinetypeTableRecord
  2
BYBLOCK
 70
     0
  3

 72
    65
 73
     0
 40
0.0
  0
LTYPE
  5
15
330
5
100
AcDbSymbolTableRecord
100
AcDbLinetypeTableRecord
  2
BYLAYER
 70
     0
  3

 72
    65
 73
     0
 40
0.0
  0
LTYPE
  5
16
330
5
100
AcDbSymbolTableRecord
100
AcDbLinetypeTableRecord
  2
CONTINUOUS
 70
     0
  3
Solid line
 72
    65
 73
     0
 40
0.0
  0
ENDTAB
  0
TABLE
  2
LAYER
  5
2
100
AcDbSymbolTable
 70
2
  0
LAYER
  5
50
100
AcDbSymbolTableRecord
100
AcDbLayerTableRecord
  2
0
 70
0
  6
CONTINUOUS
  0
LAYER
  5
51
100
AcDbSymbolTableRecord
100
AcDbLayerTableRecord
  2
Calque_1
 70
0
  6
CONTINUOUS
  0
ENDTAB
  0
TABLE
  2
STYLE
  5
3
330
0
100
AcDbSymbolTable
 70
     1
  0
STYLE
  5
11
330
3
100
AcDbSymbolTableRecord
100
AcDbTextStyleTableRecord
  2
STANDARD
 70
     0
 40
0.0
 41
1.0
 50
0.0
 71
     0
 42
2.5
  3
txt
  4

  0
ENDTAB
  0
TABLE
  2
VIEW
  5
6
330
0
100
AcDbSymbolTable
 70
     0
  0
ENDTAB
  0
TABLE
  2
UCS
  5
7
330
0
100
AcDbSymbolTable
 70
     0
  0
ENDTAB
  0
TABLE
  2
APPID
  5
9
330
0
100
AcDbSymbolTable
 70
     2
  0
APPID
  5
12
330
9
100
AcDbSymbolTableRecord
100
AcDbRegAppTableRecord
  2
ACAD
 70
     0
  0
ENDTAB
  0
TABLE
  2
DIMSTYLE
  5
A
330
0
100
AcDbSymbolTable
 70
     1
  0
DIMSTYLE
105
27
330
A
100
AcDbSymbolTableRecord
100
AcDbDimStyleTableRecord
  2
ISO-25
 70
     0
  3

  4

  5

  6

  7

 40
1.0
 41
2.5
 42
0.625
 43
3.75
 44
1.25
 45
0.0
 46
0.0
 47
0.0
 48
0.0
140
2.5
141
2.5
142
0.0
143
0.03937007874016
144
1.0
145
0.0
146
1.0
147
0.625
 71
     0
 72
     0
 73
     0
 74
     0
 75
     0
 76
     0
 77
     1
 78
     8
170
     0
171
     3
172
     1
173
     0
174
     0
175
     0
176
     0
177
     0
178
     0
270
     2
271
     2
272
     2
273
     2
274
     3
340
11
275
     0
280
     0
281
     0
282
     0
283
     0
284
     8
285
     0
286
     0
287
     3
288
     0
  0
ENDTAB
  0
TABLE
  2
BLOCK_RECORD
  5
1
330
0
100
AcDbSymbolTable
 70
     1
  0
BLOCK_RECORD
  5
1F
330
1
100
AcDbSymbolTableRecord
100
AcDbBlockTableRecord
  2
*MODEL_SPACE
  0
BLOCK_RECORD
  5
1B
330
1
100
AcDbSymbolTableRecord
100
AcDbBlockTableRecord
  2
*PAPER_SPACE
  0
ENDTAB
  0
ENDSEC
  0
SECTION
  2
BLOCKS
  0
BLOCK
  5
20
330
1F
100
AcDbEntity
  8
0
100
AcDbBlockBegin
  2
*MODEL_SPACE
 70
     0
 10
0.0
 20
0.0
 30
0.0
  3
*MODEL_SPACE
  1

  0
ENDBLK
  5
21
330
1F
100
AcDbEntity
  8
0
100
AcDbBlockEnd
  0
BLOCK
  5
1C
330
1B
100
AcDbEntity
 67
     1
  8
0
100
AcDbBlockBegin
  2
*PAPER_SPACE
  1

  0
ENDBLK
  5
1D
330
1B
100
AcDbEntity
 67
     1
  8
0
100
AcDbBlockEnd
  0
ENDSEC
  0
SECTION
  2
ENTITIES
  0
SPLINE
  5
100
100
AcDbEntity
  8
Calque_1
 62
7
100
AcDbSpline
 70
8
 71
3
 72
8
 73
4
 74
0
 40
0
 40
0
 40
0
 40
0
 40
1
 40
1
 40
1
 40
1
 10
43.475239
 20
11.932500
 30
0.0
 10
43.475239
 20
12.647031
 30
0.0
 10
43.094041
 20
13.307285
 30
0.0
 10
42.475239
 20
13.664551
 30
0.0
  0
SPLINE
  5
101
100
AcDbEntity
  8
Calque_1
 62
7
100
AcDbSpline
 70
8
 71
3
 72
8
 73
4
 74
0
 40
0
 40
0
 40
0
 40
0
 40
1
 40
1
 40
1
 40
1
 10
42.475239
 20
13.664551
 30
0.0
 10
41.856437
 20
14.021816
 30
0.0
 10
41.094041
 20
14.021816
 30
0.0
 10
40.475239
 20
13.664551
 30
0.0
  0
SPLINE
  5
102
100
AcDbEntity
  8
Calque_1
 62
7
100
AcDbSpline
 70
8
 71
3
 72
8
 73
4
 74
0
 40
0
 40
0
 40
0
 40
0
 40
1
 40
1
 40
1
 40
1
 10
40.475239
 20
13.664551
 30
0.0
 10
39.856437
 20
13.307285
 30
0.0
 10
39.475239
 20
12.647031
 30
0.0
 10
39.475239
 20
11.932500
 30
0.0
  0
SPLINE
  5
103
100
AcDbEntity
  8
Calque_1
 62
7
100
AcDbSpline
 70
8
 71
3
 72
8
 73
4
 74
0
 40
0
 40
0
 40
0
 40
0
 40
1
 40
1
 40
1
 40
1
 10
39.475239
 20
11.932500
 30
0.0
 10
39.475239
 20
11.217969
 30
0.0
 10
39.856437
 20
10.557715
 30
0.0
 10
40.475239
 20
10.200449
 30
0.0
  0
SPLINE
  5
104
100
AcDbEntity
  8
Calque_1
 62
7
100
AcDbSpline
 70
8
 71
3
 72
8
 73
4
 74
0
 40
0
 40
0
 40
0
 40
0
 40
1
 40
1
 40
1
 40
1
 10
40.475239
 20
10.200449
 30
0.0
 10
41.094041
 20
9.843184
 30
0.0
 10
41.856437
 20
9.843184
 30
0.0
 10
42.475239
 20
10.200449
 30
0.0
  0
SPLINE
  5
105
100
AcDbEntity
  8
Calque_1
 62
7
100
AcDbSpline
 70
8
 71
3
 72
8
 73
4
 74
0
 40
0
 40
0
 40
0
 40
0
 40
1
 40
1
 40
1
 40
1
 10
42.475239
 20
10.200449
 30
0.0
 10
43.094041
 20
10.557715
 30
0.0
 10
43.475239
 20
11.217969
 30
0.0
 10
43.475239
 20
11.932500
 30
0.0
  0
LINE
  5
106
100
AcDbEntity
  8
Calque_1
 62
7
100
AcDbLine
 10
43.475239
 20
11.932500
 30
0.0
 11
43.475239
 21
11.932500
 31
0.0
  0
SPLINE
  5
107
100
AcDbEntity
  8
Calque_1
 62
7
100
AcDbSpline
 70
8
 71
3
 72
8
 73
4
 74
0
 40
0
 40
0
 40
0
 40
0
 40
1
 40
1
 40
1
 40
1
 10
41.975239
 20
76.932500
 30
0.0
 10
41.975239
 20
77.111133
 30
0.0
 10
41.879940
 20
77.276196
 30
0.0
 10
41.725239
 20
77.365513
 30
0.0
  0
SPLINE
  5
108
100
AcDbEntity
  8
Calque_1
 62
7
100
AcDbSpline
 70
8
 71
3
 72
8
 73
4
 74
0
 40
0
 40
0
 40
0
 40
0
 40
1
 40
1
 40
1
 40
1
 10
41.725239
 20
77.365513
 30
0.0
 10
41.570538
 20
77.454829
 30
0.0
 10
41.379940
 20
77.454829
 30
0.0
 10
41.225239
 20
77.365513
 30
0.0
  0
SPLINE
  5
109
100
AcDbEntity
  8
Calque_1
 62
7
100
AcDbSpline
 70
8
 71
3
 72
8
 73
4
 74
0
 40
0
 40
0
 40
0
 40
0
 40
1
 40
1
 40
1
 40
1
 10
41.225239
 20
77.365513
 30
0.0
 10
41.070538
 20
77.276196
 30
0.0
 10
40.975239
 20
77.111133
 30
0.0
 10
40.975239
 20
76.932500
 30
0.0
  0
SPLINE
  5
10a
100
AcDbEntity
  8
Calque_1
 62
7
100
AcDbSpline
 70
8
 71
3
 72
8
 73
4
 74
0
 40
0
 40
0
 40
0
 40
0
 40
1
 40
1
 40
1
 40
1
 10
40.975239
 20
76.932500
 30
0.0
 10
40.975239
 20
76.753867
 30
0.0
 10
41.070538
 20
76.588804
 30
0.0
 10
41.225239
 20
76.499487
 30
0.0
  0
SPLINE
  5
10b
100
AcDbEntity
  8
Calque_1
 62
7
100
AcDbSpline
 70
8
 71
3
 72
8
 73
4
 74
0
 40
0
 40
0
 40
0
 40
0
 40
1
 40
1
 40
1
 40
1
 10
41.225239
 20
76.499487
 30
0.0
 10
41.379940
 20
76.410171
 30
0.0
 10
41.570538
 20
76.410171
 30
0.0
 10
41.725239
 20
76.499487
 30
0.0
  0
SPLINE
  5
10c
100
AcDbEntity
  8
Calque_1
 62
7
100
AcDbSpline
 70
8
 71
3
 72
8
 73
4
 74
0
 40
0
 40
0
 40
0
 40
0
 40
1
 40
1
 40
1
 40
1
 10
41.725239
 20
76.499487
 30
0.0
 10
41.879940
 20
76.588804
 30
0.0
 10
41.975239
 20
76.753867
 30
0.0
 10
41.975239
 20
76.932500
 30
0.0
  0
LINE
  5
10d
100
AcDbEntity
  8
Calque_1
 62
7
100
AcDbLine
 10
41.975239
 20
76.932500
 30
0.0
 11
41.975239
 21
76.932500
 31
0.0
  0
SPLINE
  5
10e
100
AcDbEntity
  8
Calque_1
 62
7
100
AcDbSpline
 70
8
 71
3
 72
8
 73
4
 74
0
 40
0
 40
0
 40
0
 40
0
 40
1
 40
1
 40
1
 40
1
 10
31.181119
 20
15.756030
 30
0.0
 10
30.232109
 20
21.888060
 30
0.0
 10
27.036606
 20
27.448040
 30
0.0
 10
22.215937
 20
31.354900
 30
0.0
  0
SPLINE
  5
10f
100
AcDbEntity
  8
Calque_1
 62
7
100
AcDbSpline
 70
8
 71
3
 72
8
 73
4
 74
0
 40
0
 40
0
 40
0
 40
0
 40
1
 40
1
 40
1
 40
1
 10
22.215937
 20
31.354900
 30
0.0
 10
21.747384
 20
31.734656
 30
0.0
 10
21.475224
 20
32.305577
 30
0.0
 10
21.475237
 20
32.908700
 30
0.0
  0
LINE
  5
110
100
AcDbEntity
  8
Calque_1
 62
7
100
AcDbLine
 10
21.475237
 20
32.908700
 30
0.0
 11
21.475237
 21
39.932500
 31
0.0
  0
SPLINE
  5
111
100
AcDbEntity
  8
Calque_1
 62
7
100
AcDbSpline
 70
8
 71
3
 72
8
 73
4
 74
0
 40
0
 40
0
 40
0
 40
0
 40
1
 40
1
 40
1
 40
1
 10
21.475237
 20
39.932500
 30
0.0
 10
21.475237
 20
40.462933
 30
0.0
 10
21.685951
 20
40.971641
 30
0.0
 10
22.061023
 20
41.346714
 30
0.0
  0
SPLINE
  5
112
100
AcDbEntity
  8
Calque_1
 62
7
100
AcDbSpline
 70
8
 71
3
 72
8
 73
4
 74
0
 40
0
 40
0
 40
0
 40
0
 40
1
 40
1
 40
1
 40
1
 10
22.061023
 20
41.346714
 30
0.0
 10
22.436096
 20
41.721786
 30
0.0
 10
22.944804
 20
41.932500
 30
0.0
 10
23.475237
 20
41.932500
 30
0.0
  0
LINE
  5
113
100
AcDbEntity
  8
Calque_1
 62
7
100
AcDbLine
 10
23.475237
 20
41.932500
 30
0.0
 11
33.475237
 21
41.932500
 31
0.0
  0
SPLINE
  5
114
100
AcDbEntity
  8
Calque_1
 62
7
100
AcDbSpline
 70
8
 71
3
 72
8
 73
4
 74
0
 40
0
 40
0
 40
0
 40
0
 40
1
 40
1
 40
1
 40
1
 10
33.475237
 20
41.932500
 30
0.0
 10
34.801319
 20
41.932500
 30
0.0
 10
36.073089
 20
42.459284
 30
0.0
 10
37.010771
 20
43.396966
 30
0.0
  0
SPLINE
  5
115
100
AcDbEntity
  8
Calque_1
 62
7
100
AcDbSpline
 70
8
 71
3
 72
8
 73
4
 74
0
 40
0
 40
0
 40
0
 40
0
 40
1
 40
1
 40
1
 40
1
 10
37.010771
 20
43.396966
 30
0.0
 10
37.948453
 20
44.334648
 30
0.0
 10
38.475237
 20
45.606418
 30
0.0
 10
38.475237
 20
46.932500
 30
0.0
  0
SPLINE
  5
116
100
AcDbEntity
  8
Calque_1
 62
7
100
AcDbSpline
 70
8
 71
3
 72
8
 73
4
 74
0
 40
0
 40
0
 40
0
 40
0
 40
1
 40
1
 40
1
 40
1
 10
38.475237
 20
46.932500
 30
0.0
 10
38.475237
 20
46.932500
 30
0.0
 10
38.475237
 20
76.932500
 30
0.0
 10
38.475237
 20
76.932500
 30
0.0
  0
SPLINE
  5
117
100
AcDbEntity
  8
Calque_1
 62
7
100
AcDbSpline
 70
8
 71
3
 72
8
 73
4
 74
0
 40
0
 40
0
 40
0
 40
0
 40
1
 40
1
 40
1
 40
1
 10
38.475237
 20
76.932500
 30
0.0
 10
38.475233
 20
78.571360
 30
0.0
 10
39.790415
 20
79.906938
 30
0.0
 10
41.429082
 20
79.932152
 30
0.0
  0
SPLINE
  5
118
100
AcDbEntity
  8
Calque_1
 62
7
100
AcDbSpline
 70
8
 71
3
 72
8
 73
4
 74
0
 40
0
 40
0
 40
0
 40
0
 40
1
 40
1
 40
1
 40
1
 10
41.429082
 20
79.932152
 30
0.0
 10
43.067748
 20
79.957366
 30
0.0
 10
44.423399
 20
78.662884
 30
0.0
 10
44.473817
 20
77.024800
 30
0.0
  0
LINE
  5
119
100
AcDbEntity
  8
Calque_1
 62
7
100
AcDbLine
 10
44.473817
 20
77.024800
 30
0.0
 11
46.472870
 21
12.086350
 31
0.0
  0
SPLINE
  5
11a
100
AcDbEntity
  8
Calque_1
 62
7
100
AcDbSpline
 70
8
 71
3
 72
8
 73
4
 74
0
 40
0
 40
0
 40
0
 40
0
 40
1
 40
1
 40
1
 40
1
 10
46.472870
 20
12.086350
 30
0.0
 10
46.514495
 20
10.734227
 30
0.0
 10
46.006470
 20
9.422938
 30
0.0
 10
45.064753
 20
8.451785
 30
0.0
  0
SPLINE
  5
11b
100
AcDbEntity
  8
Calque_1
 62
7
100
AcDbSpline
 70
8
 71
3
 72
8
 73
4
 74
0
 40
0
 40
0
 40
0
 40
0
 40
1
 40
1
 40
1
 40
1
 10
45.064753
 20
8.451785
 30
0.0
 10
44.123037
 20
7.480632
 30
0.0
 10
42.828001
 20
6.932500
 30
0.0
 10
41.475237
 20
6.932500
 30
0.0
  0
SPLINE
  5
11c
100
AcDbEntity
  8
Calque_1
 62
7
100
AcDbSpline
 70
8
 71
3
 72
8
 73
4
 74
0
 40
0
 40
0
 40
0
 40
0
 40
1
 40
1
 40
1
 40
1
 10
41.475237
 20
6.932500
 30
0.0
 10
36.337414
 20
6.932523
 30
0.0
 10
31.966935
 20
10.678654
 30
0.0
 10
31.181137
 20
15.756030
 30
0.0
  0
SPLINE
  5
11d
100
AcDbEntity
  8
Calque_1
 62
7
100
AcDbSpline
 70
8
 71
3
 72
8
 73
4
 74
0
 40
0
 40
0
 40
0
 40
0
 40
1
 40
1
 40
1
 40
1
 10
11.475398
 20
80.583210
 30
0.0
 10
11.475398
 20
79.868679
 30
0.0
 10
11.856596
 20
79.208425
 30
0.0
 10
12.475398
 20
78.851159
 30
0.0
  0
SPLINE
  5
11e
100
AcDbEntity
  8
Calque_1
 62
7
100
AcDbSpline
 70
8
 71
3
 72
8
 73
4
 74
0
 40
0
 40
0
 40
0
 40
0
 40
1
 40
1
 40
1
 40
1
 10
12.475398
 20
78.851159
 30
0.0
 10
13.094200
 20
78.493894
 30
0.0
 10
13.856596
 20
78.493894
 30
0.0
 10
14.475398
 20
78.851159
 30
0.0
  0
SPLINE
  5
11f
100
AcDbEntity
  8
Calque_1
 62
7
100
AcDbSpline
 70
8
 71
3
 72
8
 73
4
 74
0
 40
0
 40
0
 40
0
 40
0
 40
1
 40
1
 40
1
 40
1
 10
14.475398
 20
78.851159
 30
0.0
 10
15.094200
 20
79.208425
 30
0.0
 10
15.475398
 20
79.868679
 30
0.0
 10
15.475398
 20
80.583210
 30
0.0
  0
SPLINE
  5
120
100
AcDbEntity
  8
Calque_1
 62
7
100
AcDbSpline
 70
8
 71
3
 72
8
 73
4
 74
0
 40
0
 40
0
 40
0
 40
0
 40
1
 40
1
 40
1
 40
1
 10
15.475398
 20
80.583210
 30
0.0
 10
15.475398
 20
81.297741
 30
0.0
 10
15.094200
 20
81.957995
 30
0.0
 10
14.475398
 20
82.315261
 30
0.0
  0
SPLINE
  5
121
100
AcDbEntity
  8
Calque_1
 62
7
100
AcDbSpline
 70
8
 71
3
 72
8
 73
4
 74
0
 40
0
 40
0
 40
0
 40
0
 40
1
 40
1
 40
1
 40
1
 10
14.475398
 20
82.315261
 30
0.0
 10
13.856596
 20
82.672526
 30
0.0
 10
13.094200
 20
82.672526
 30
0.0
 10
12.475398
 20
82.315261
 30
0.0
  0
SPLINE
  5
122
100
AcDbEntity
  8
Calque_1
 62
7
100
AcDbSpline
 70
8
 71
3
 72
8
 73
4
 74
0
 40
0
 40
0
 40
0
 40
0
 40
1
 40
1
 40
1
 40
1
 10
12.475398
 20
82.315261
 30
0.0
 10
11.856596
 20
81.957995
 30
0.0
 10
11.475398
 20
81.297741
 30
0.0
 10
11.475398
 20
80.583210
 30
0.0
  0
LINE
  5
123
100
AcDbEntity
  8
Calque_1
 62
7
100
AcDbLine
 10
11.475398
 20
80.583210
 30
0.0
 11
11.475398
 21
80.583210
 31
0.0
  0
SPLINE
  5
124
100
AcDbEntity
  8
Calque_1
 62
7
100
AcDbSpline
 70
8
 71
3
 72
8
 73
4
 74
0
 40
0
 40
0
 40
0
 40
0
 40
1
 40
1
 40
1
 40
1
 10
12.975398
 20
15.583190
 30
0.0
 10
12.975398
 20
15.404557
 30
0.0
 10
13.070697
 20
15.239494
 30
0.0
 10
13.225398
 20
15.150177
 30
0.0
  0
SPLINE
  5
125
100
AcDbEntity
  8
Calque_1
 62
7
100
AcDbSpline
 70
8
 71
3
 72
8
 73
4
 74
0
 40
0
 40
0
 40
0
 40
0
 40
1
 40
1
 40
1
 40
1
 10
13.225398
 20
15.150177
 30
0.0
 10
13.380099
 20
15.060861
 30
0.0
 10
13.570697
 20
15.060861
 30
0.0
 10
13.725398
 20
15.150177
 30
0.0
  0
SPLINE
  5
126
100
AcDbEntity
  8
Calque_1
 62
7
100
AcDbSpline
 70
8
 71
3
 72
8
 73
4
 74
0
 40
0
 40
0
 40
0
 40
0
 40
1
 40
1
 40
1
 40
1
 10
13.725398
 20
15.150177
 30
0.0
 10
13.880099
 20
15.239494
 30
0.0
 10
13.975398
 20
15.404557
 30
0.0
 10
13.975398
 20
15.583190
 30
0.0
  0
SPLINE
  5
127
100
AcDbEntity
  8
Calque_1
 62
7
100
AcDbSpline
 70
8
 71
3
 72
8
 73
4
 74
0
 40
0
 40
0
 40
0
 40
0
 40
1
 40
1
 40
1
 40
1
 10
13.975398
 20
15.583190
 30
0.0
 10
13.975398
 20
15.761823
 30
0.0
 10
13.880099
 20
15.926886
 30
0.0
 10
13.725398
 20
16.016203
 30
0.0
  0
SPLINE
  5
128
100
AcDbEntity
  8
Calque_1
 62
7
100
AcDbSpline
 70
8
 71
3
 72
8
 73
4
 74
0
 40
0
 40
0
 40
0
 40
0
 40
1
 40
1
 40
1
 40
1
 10
13.725398
 20
16.016203
 30
0.0
 10
13.570697
 20
16.105519
 30
0.0
 10
13.380099
 20
16.105519
 30
0.0
 10
13.225398
 20
16.016203
 30
0.0
  0
SPLINE
  5
129
100
AcDbEntity
  8
Calque_1
 62
7
100
AcDbSpline
 70
8
 71
3
 72
8
 73
4
 74
0
 40
0
 40
0
 40
0
 40
0
 40
1
 40
1
 40
1
 40
1
 10
13.225398
 20
16.016203
 30
0.0
 10
13.070697
 20
15.926886
 30
0.0
 10
12.975398
 20
15.761823
 30
0.0
 10
12.975398
 20
15.583190
 30
0.0
  0
LINE
  5
12a
100
AcDbEntity
  8
Calque_1
 62
7
100
AcDbLine
 10
12.975398
 20
15.583190
 30
0.0
 11
12.975398
 21
15.583190
 31
0.0
  0
SPLINE
  5
12b
100
AcDbEntity
  8
Calque_1
 62
7
100
AcDbSpline
 70
8
 71
3
 72
8
 73
4
 74
0
 40
0
 40
0
 40
0
 40
0
 40
1
 40
1
 40
1
 40
1
 10
23.769516
 20
76.759670
 30
0.0
 10
24.718526
 20
70.627640
 30
0.0
 10
27.914029
 20
65.067660
 30
0.0
 10
32.734698
 20
61.160800
 30
0.0
  0
SPLINE
  5
12c
100
AcDbEntity
  8
Calque_1
 62
7
100
AcDbSpline
 70
8
 71
3
 72
8
 73
4
 74
0
 40
0
 40
0
 40
0
 40
0
 40
1
 40
1
 40
1
 40
1
 10
32.734698
 20
61.160800
 30
0.0
 10
33.203251
 20
60.781044
 30
0.0
 10
33.475411
 20
60.210123
 30
0.0
 10
33.475398
 20
59.607000
 30
0.0
  0
LINE
  5
12d
100
AcDbEntity
  8
Calque_1
 62
7
100
AcDbLine
 10
33.475398
 20
59.607000
 30
0.0
 11
33.475398
 21
52.583200
 31
0.0
  0
SPLINE
  5
12e
100
AcDbEntity
  8
Calque_1
 62
7
100
AcDbSpline
 70
8
 71
3
 72
8
 73
4
 74
0
 40
0
 40
0
 40
0
 40
0
 40
1
 40
1
 40
1
 40
1
 10
33.475398
 20
52.583200
 30
0.0
 10
33.475398
 20
52.052767
 30
0.0
 10
33.264684
 20
51.544059
 30
0.0
 10
32.889612
 20
51.168986
 30
0.0
  0
SPLINE
  5
12f
100
AcDbEntity
  8
Calque_1
 62
7
100
AcDbSpline
 70
8
 71
3
 72
8
 73
4
 74
0
 40
0
 40
0
 40
0
 40
0
 40
1
 40
1
 40
1
 40
1
 10
32.889612
 20
51.168986
 30
0.0
 10
32.514539
 20
50.793914
 30
0.0
 10
32.005831
 20
50.583200
 30
0.0
 10
31.475398
 20
50.583200
 30
0.0
  0
SPLINE
  5
130
100
AcDbEntity
  8
Calque_1
 62
7
100
AcDbSpline
 70
8
 71
3
 72
8
 73
4
 74
0
 40
0
 40
0
 40
0
 40
0
 40
1
 40
1
 40
1
 40
1
 10
31.475398
 20
50.583200
 30
0.0
 10
31.475398
 20
50.583200
 30
0.0
 10
21.475398
 20
50.583200
 30
0.0
 10
21.475398
 20
50.583200
 30
0.0
  0
SPLINE
  5
131
100
AcDbEntity
  8
Calque_1
 62
7
100
AcDbSpline
 70
8
 71
3
 72
8
 73
4
 74
0
 40
0
 40
0
 40
0
 40
0
 40
1
 40
1
 40
1
 40
1
 10
21.475398
 20
50.583200
 30
0.0
 10
20.149316
 20
50.583200
 30
0.0
 10
18.877546
 20
50.056416
 30
0.0
 10
17.939864
 20
49.118734
 30
0.0
  0
SPLINE
  5
132
100
AcDbEntity
  8
Calque_1
 62
7
100
AcDbSpline
 70
8
 71
3
 72
8
 73
4
 74
0
 40
0
 40
0
 40
0
 40
0
 40
1
 40
1
 40
1
 40
1
 10
17.939864
 20
49.118734
 30
0.0
 10
17.002182
 20
48.181052
 30
0.0
 10
16.475398
 20
46.909282
 30
0.0
 10
16.475398
 20
45.583200
 30
0.0
  0
SPLINE
  5
133
100
AcDbEntity
  8
Calque_1
 62
7
100
AcDbSpline
 70
8
 71
3
 72
8
 73
4
 74
0
 40
0
 40
0
 40
0
 40
0
 40
1
 40
1
 40
1
 40
1
 10
16.475398
 20
45.583200
 30
0.0
 10
16.475398
 20
45.583200
 30
0.0
 10
16.475398
 20
15.583200
 30
0.0
 10
16.475398
 20
15.583200
 30
0.0
  0
SPLINE
  5
134
100
AcDbEntity
  8
Calque_1
 62
7
100
AcDbSpline
 70
8
 71
3
 72
8
 73
4
 74
0
 40
0
 40
0
 40
0
 40
0
 40
1
 40
1
 40
1
 40
1
 10
16.475398
 20
15.583200
 30
0.0
 10
16.475402
 20
13.944340
 30
0.0
 10
15.160220
 20
12.608762
 30
0.0
 10
13.521553
 20
12.583548
 30
0.0
  0
SPLINE
  5
135
100
AcDbEntity
  8
Calque_1
 62
7
100
AcDbSpline
 70
8
 71
3
 72
8
 73
4
 74
0
 40
0
 40
0
 40
0
 40
0
 40
1
 40
1
 40
1
 40
1
 10
13.521553
 20
12.583548
 30
0.0
 10
11.882887
 20
12.558334
 30
0.0
 10
10.527236
 20
13.852816
 30
0.0
 10
10.476818
 20
15.490900
 30
0.0
  0
SPLINE
  5
136
100
AcDbEntity
  8
Calque_1
 62
7
100
AcDbSpline
 70
8
 71
3
 72
8
 73
4
 74
0
 40
0
 40
0
 40
0
 40
0
 40
1
 40
1
 40
1
 40
1
 10
10.476818
 20
15.490900
 30
0.0
 10
10.476818
 20
15.490900
 30
0.0
 10
8.477765
 20
80.429350
 30
0.0
 10
8.477765
 20
80.429350
 30
0.0
  0
SPLINE
  5
137
100
AcDbEntity
  8
Calque_1
 62
7
100
AcDbSpline
 70
8
 71
3
 72
8
 73
4
 74
0
 40
0
 40
0
 40
0
 40
0
 40
1
 40
1
 40
1
 40
1
 10
8.477765
 20
80.429350
 30
0.0
 10
8.436141
 20
81.781473
 30
0.0
 10
8.944165
 20
83.092762
 30
0.0
 10
9.885882
 20
84.063915
 30
0.0
  0
SPLINE
  5
138
100
AcDbEntity
  8
Calque_1
 62
7
100
AcDbSpline
 70
8
 71
3
 72
8
 73
4
 74
0
 40
0
 40
0
 40
0
 40
0
 40
1
 40
1
 40
1
 40
1
 10
9.885882
 20
84.063915
 30
0.0
 10
10.827599
 20
85.035068
 30
0.0
 10
12.122635
 20
85.583200
 30
0.0
 10
13.475398
 20
85.583200
 30
0.0
  0
SPLINE
  5
139
100
AcDbEntity
  8
Calque_1
 62
7
100
AcDbSpline
 70
8
 71
3
 72
8
 73
4
 74
0
 40
0
 40
0
 40
0
 40
0
 40
1
 40
1
 40
1
 40
1
 10
13.475398
 20
85.583200
 30
0.0
 10
18.613221
 20
85.583177
 30
0.0
 10
22.983700
 20
81.837046
 30
0.0
 10
23.769498
 20
76.759670
 30
0.0
  0
ENDSEC
  0
SECTION
  2
OBJECTS
  0
DICTIONARY
  5
C
330
0
100
AcDbDictionary
  3
ACAD_GROUP
350
D
  3
ACAD_MLINESTYLE
350
17
  0
DICTIONARY
  5
D
330
C
100
AcDbDictionary
  0
DICTIONARY
  5
1A
330
C
100
AcDbDictionary
  0
DICTIONARY
  5
17
330
C
100
AcDbDictionary
  3
STANDARD
350
18
  0
DICTIONARY
  5
19
330
C
100
AcDbDictionary
  0
ENDSEC
  0
EOF
