  0
SECTION
  2
HEADER
  9
$ACADVER
  1
AC1014
  9
$HANDSEED
  5
FFFF
  9
$MEASUREMENT
 70
     1
  0
ENDSEC
  0
SECTION
  2
TABLES
  0
TABLE
  2
VPORT
  5
8
330
0
100
AcDbSymbolTable
 70
     4
  0
VPORT
  5
2E
330
8
100
AcDbSymbolTableRecord
100
AcDbViewportTableRecord
  2
*ACTIVE
 70
     0
 10
0.0
 20
0.0
 11
1.0
 21
1.0
 12
210.0
 22
148.5
 13
0.0
 23
0.0
 14
10.0
 24
10.0
 15
10.0
 25
10.0
 16
0.0
 26
0.0
 36
1.0
 17
0.0
 27
0.0
 37
0.0
 40
341.0
 41
1.24
 42
50.0
 43
0.0
 44
0.0
 50
0.0
 51
0.0
 71
     0
 72
   100
 73
     1
 74
     3
 75
     0
 76
     0
 77
     0
 78
     0
  0
ENDTAB
  0
TABLE
  2
LTYPE
  5
5
330
0
100
AcDbSymbolTable
 70
     1
  0
LTYPE
  5
14
330
5
100
AcDbSymbolTableRecord
100
AcDbLinetypeTableRecord
  2
BYBLOCK
 70
     0
  3

 72
    65
 73
     0
 40
0.0
  0
LTYPE
  5
15
330
5
100
AcDbSymbolTableRecord
100
AcDbLinetypeTableRecord
  2
BYLAYER
 70
     0
  3

 72
    65
 73
     0
 40
0.0
  0
LTYPE
  5
16
330
5
100
AcDbSymbolTableRecord
100
AcDbLinetypeTableRecord
  2
CONTINUOUS
 70
     0
  3
Solid line
 72
    65
 73
     0
 40
0.0
  0
ENDTAB
  0
TABLE
  2
LAYER
  5
2
100
AcDbSymbolTable
 70
2
  0
LAYER
  5
50
100
AcDbSymbolTableRecord
100
AcDbLayerTableRecord
  2
0
 70
0
  6
CONTINUOUS
  0
LAYER
  5
51
100
AcDbSymbolTableRecord
100
AcDbLayerTableRecord
  2
Calque_1
 70
0
  6
CONTINUOUS
  0
ENDTAB
  0
TABLE
  2
STYLE
  5
3
330
0
100
AcDbSymbolTable
 70
     1
  0
STYLE
  5
11
330
3
100
AcDbSymbolTableRecord
100
AcDbTextStyleTableRecord
  2
STANDARD
 70
     0
 40
0.0
 41
1.0
 50
0.0
 71
     0
 42
2.5
  3
txt
  4

  0
ENDTAB
  0
TABLE
  2
VIEW
  5
6
330
0
100
AcDbSymbolTable
 70
     0
  0
ENDTAB
  0
TABLE
  2
UCS
  5
7
330
0
100
AcDbSymbolTable
 70
     0
  0
ENDTAB
  0
TABLE
  2
APPID
  5
9
330
0
100
AcDbSymbolTable
 70
     2
  0
APPID
  5
12
330
9
100
AcDbSymbolTableRecord
100
AcDbRegAppTableRecord
  2
ACAD
 70
     0
  0
ENDTAB
  0
TABLE
  2
DIMSTYLE
  5
A
330
0
100
AcDbSymbolTable
 70
     1
  0
DIMSTYLE
105
27
330
A
100
AcDbSymbolTableRecord
100
AcDbDimStyleTableRecord
  2
ISO-25
 70
     0
  3

  4

  5

  6

  7

 40
1.0
 41
2.5
 42
0.625
 43
3.75
 44
1.25
 45
0.0
 46
0.0
 47
0.0
 48
0.0
140
2.5
141
2.5
142
0.0
143
0.03937007874016
144
1.0
145
0.0
146
1.0
147
0.625
 71
     0
 72
     0
 73
     0
 74
     0
 75
     0
 76
     0
 77
     1
 78
     8
170
     0
171
     3
172
     1
173
     0
174
     0
175
     0
176
     0
177
     0
178
     0
270
     2
271
     2
272
     2
273
     2
274
     3
340
11
275
     0
280
     0
281
     0
282
     0
283
     0
284
     8
285
     0
286
     0
287
     3
288
     0
  0
ENDTAB
  0
TABLE
  2
BLOCK_RECORD
  5
1
330
0
100
AcDbSymbolTable
 70
     1
  0
BLOCK_RECORD
  5
1F
330
1
100
AcDbSymbolTableRecord
100
AcDbBlockTableRecord
  2
*MODEL_SPACE
  0
BLOCK_RECORD
  5
1B
330
1
100
AcDbSymbolTableRecord
100
AcDbBlockTableRecord
  2
*PAPER_SPACE
  0
ENDTAB
  0
ENDSEC
  0
SECTION
  2
BLOCKS
  0
BLOCK
  5
20
330
1F
100
AcDbEntity
  8
0
100
AcDbBlockBegin
  2
*MODEL_SPACE
 70
     0
 10
0.0
 20
0.0
 30
0.0
  3
*MODEL_SPACE
  1

  0
ENDBLK
  5
21
330
1F
100
AcDbEntity
  8
0
100
AcDbBlockEnd
  0
BLOCK
  5
1C
330
1B
100
AcDbEntity
 67
     1
  8
0
100
AcDbBlockBegin
  2
*PAPER_SPACE
  1

  0
ENDBLK
  5
1D
330
1B
100
AcDbEntity
 67
     1
  8
0
100
AcDbBlockEnd
  0
ENDSEC
  0
SECTION
  2
ENTITIES
  0
LINE
  5
100
100
AcDbEntity
  8
Calque_1
 62
7
100
AcDbLine
 10
21.113099
 20
70.250000
 30
0.0
 11
26.113099
 21
140.250000
 31
0.0
  0
LINE
  5
101
100
AcDbEntity
  8
Calque_1
 62
7
100
AcDbLine
 10
26.113099
 20
140.250000
 30
0.0
 11
66.113099
 21
140.250000
 31
0.0
  0
LINE
  5
102
100
AcDbEntity
  8
Calque_1
 62
7
100
AcDbLine
 10
66.113099
 20
140.250000
 30
0.0
 11
71.113099
 21
70.250000
 31
0.0
  0
LINE
  5
103
100
AcDbEntity
  8
Calque_1
 62
7
100
AcDbLine
 10
71.113099
 20
70.250000
 30
0.0
 11
21.113099
 21
70.250000
 31
0.0
  0
SPLINE
  5
104
100
AcDbEntity
  8
Calque_1
 62
7
100
AcDbSpline
 70
8
 71
3
 72
8
 73
4
 74
0
 40
0
 40
0
 40
0
 40
0
 40
1
 40
1
 40
1
 40
1
 10
86.113099
 20
5.250000
 30
0.0
 10
86.113099
 20
25.250000
 30
0.0
 10
85.863099
 20
35.250000
 30
0.0
 10
85.571432
 20
43.583333
 30
0.0
  0
SPLINE
  5
105
100
AcDbEntity
  8
Calque_1
 62
7
100
AcDbSpline
 70
8
 71
3
 72
8
 73
4
 74
0
 40
0
 40
0
 40
0
 40
0
 40
1
 40
1
 40
1
 40
1
 10
85.571432
 20
43.583333
 30
0.0
 10
85.279766
 20
51.916667
 30
0.0
 10
84.946432
 20
58.583333
 30
0.0
 10
84.529766
 20
65.250000
 30
0.0
  0
SPLINE
  5
106
100
AcDbEntity
  8
Calque_1
 62
7
100
AcDbSpline
 70
8
 71
3
 72
8
 73
4
 74
0
 40
0
 40
0
 40
0
 40
0
 40
1
 40
1
 40
1
 40
1
 10
84.529766
 20
65.250000
 30
0.0
 10
84.113099
 20
71.916667
 30
0.0
 10
83.613099
 20
78.583333
 30
0.0
 10
83.196432
 20
85.250000
 30
0.0
  0
SPLINE
  5
107
100
AcDbEntity
  8
Calque_1
 62
7
100
AcDbSpline
 70
8
 71
3
 72
8
 73
4
 74
0
 40
0
 40
0
 40
0
 40
0
 40
1
 40
1
 40
1
 40
1
 10
83.196432
 20
85.250000
 30
0.0
 10
82.779766
 20
91.916667
 30
0.0
 10
82.446432
 20
98.583333
 30
0.0
 10
81.946432
 20
105.250000
 30
0.0
  0
SPLINE
  5
108
100
AcDbEntity
  8
Calque_1
 62
7
100
AcDbSpline
 70
8
 71
3
 72
8
 73
4
 74
0
 40
0
 40
0
 40
0
 40
0
 40
1
 40
1
 40
1
 40
1
 10
81.946432
 20
105.250000
 30
0.0
 10
81.446432
 20
111.916670
 30
0.0
 10
80.779766
 20
118.583330
 30
0.0
 10
80.196432
 20
125.250000
 30
0.0
  0
SPLINE
  5
109
100
AcDbEntity
  8
Calque_1
 62
7
100
AcDbSpline
 70
8
 71
3
 72
8
 73
4
 74
0
 40
0
 40
0
 40
0
 40
0
 40
1
 40
1
 40
1
 40
1
 10
80.196432
 20
125.250000
 30
0.0
 10
79.613099
 20
131.916670
 30
0.0
 10
79.113099
 20
138.583330
 30
0.0
 10
78.342909
 20
146.916670
 30
0.0
  0
SPLINE
  5
10a
100
AcDbEntity
  8
Calque_1
 62
7
100
AcDbSpline
 70
8
 71
3
 72
8
 73
4
 74
0
 40
0
 40
0
 40
0
 40
0
 40
1
 40
1
 40
1
 40
1
 10
78.342909
 20
146.916670
 30
0.0
 10
77.572718
 20
155.250000
 30
0.0
 10
76.532338
 20
165.250000
 30
0.0
 10
75.113099
 20
185.250000
 30
0.0
  0
LINE
  5
10b
100
AcDbEntity
  8
Calque_1
 62
7
100
AcDbLine
 10
75.113099
 20
185.250000
 30
0.0
 11
17.113099
 21
185.250000
 31
0.0
  0
SPLINE
  5
10c
100
AcDbEntity
  8
Calque_1
 62
7
100
AcDbSpline
 70
8
 71
3
 72
8
 73
4
 74
0
 40
0
 40
0
 40
0
 40
0
 40
1
 40
1
 40
1
 40
1
 10
17.113099
 20
185.250000
 30
0.0
 10
15.532338
 20
165.250000
 30
0.0
 10
14.572718
 20
155.250000
 30
0.0
 10
13.842909
 20
146.916670
 30
0.0
  0
SPLINE
  5
10d
100
AcDbEntity
  8
Calque_1
 62
7
100
AcDbSpline
 70
8
 71
3
 72
8
 73
4
 74
0
 40
0
 40
0
 40
0
 40
0
 40
1
 40
1
 40
1
 40
1
 10
13.842909
 20
146.916670
 30
0.0
 10
13.113099
 20
138.583330
 30
0.0
 10
12.613099
 20
131.916670
 30
0.0
 10
12.029766
 20
125.250000
 30
0.0
  0
SPLINE
  5
10e
100
AcDbEntity
  8
Calque_1
 62
7
100
AcDbSpline
 70
8
 71
3
 72
8
 73
4
 74
0
 40
0
 40
0
 40
0
 40
0
 40
1
 40
1
 40
1
 40
1
 10
12.029766
 20
125.250000
 30
0.0
 10
11.446432
 20
118.583330
 30
0.0
 10
10.779766
 20
111.916670
 30
0.0
 10
10.279766
 20
105.250000
 30
0.0
  0
SPLINE
  5
10f
100
AcDbEntity
  8
Calque_1
 62
7
100
AcDbSpline
 70
8
 71
3
 72
8
 73
4
 74
0
 40
0
 40
0
 40
0
 40
0
 40
1
 40
1
 40
1
 40
1
 10
10.279766
 20
105.250000
 30
0.0
 10
9.779766
 20
98.583333
 30
0.0
 10
9.446432
 20
91.916667
 30
0.0
 10
9.029766
 20
85.250000
 30
0.0
  0
SPLINE
  5
110
100
AcDbEntity
  8
Calque_1
 62
7
100
AcDbSpline
 70
8
 71
3
 72
8
 73
4
 74
0
 40
0
 40
0
 40
0
 40
0
 40
1
 40
1
 40
1
 40
1
 10
9.029766
 20
85.250000
 30
0.0
 10
8.613099
 20
78.583333
 30
0.0
 10
8.113099
 20
71.916667
 30
0.0
 10
7.696432
 20
65.250000
 30
0.0
  0
SPLINE
  5
111
100
AcDbEntity
  8
Calque_1
 62
7
100
AcDbSpline
 70
8
 71
3
 72
8
 73
4
 74
0
 40
0
 40
0
 40
0
 40
0
 40
1
 40
1
 40
1
 40
1
 10
7.696432
 20
65.250000
 30
0.0
 10
7.279766
 20
58.583333
 30
0.0
 10
6.946432
 20
51.916667
 30
0.0
 10
6.654766
 20
43.583333
 30
0.0
  0
SPLINE
  5
112
100
AcDbEntity
  8
Calque_1
 62
7
100
AcDbSpline
 70
8
 71
3
 72
8
 73
4
 74
0
 40
0
 40
0
 40
0
 40
0
 40
1
 40
1
 40
1
 40
1
 10
6.654766
 20
43.583333
 30
0.0
 10
6.363099
 20
35.250000
 30
0.0
 10
6.113099
 20
25.250000
 30
0.0
 10
6.113099
 20
5.250000
 30
0.0
  0
LINE
  5
113
100
AcDbEntity
  8
Calque_1
 62
7
100
AcDbLine
 10
6.113099
 20
5.250000
 30
0.0
 11
86.113099
 21
5.250000
 31
0.0
  0
LINE
  5
114
100
AcDbEntity
  8
Calque_1
 62
7
100
AcDbLine
 10
152.000000
 20
120.627980
 30
0.0
 11
147.000000
 21
50.627980
 31
0.0
  0
LINE
  5
115
100
AcDbEntity
  8
Calque_1
 62
7
100
AcDbLine
 10
147.000000
 20
50.627980
 30
0.0
 11
107.000000
 21
50.627980
 31
0.0
  0
LINE
  5
116
100
AcDbEntity
  8
Calque_1
 62
7
100
AcDbLine
 10
107.000000
 20
50.627980
 30
0.0
 11
102.000000
 21
120.627980
 31
0.0
  0
LINE
  5
117
100
AcDbEntity
  8
Calque_1
 62
7
100
AcDbLine
 10
102.000000
 20
120.627980
 30
0.0
 11
152.000000
 21
120.627980
 31
0.0
  0
SPLINE
  5
118
100
AcDbEntity
  8
Calque_1
 62
7
100
AcDbSpline
 70
8
 71
3
 72
8
 73
4
 74
0
 40
0
 40
0
 40
0
 40
0
 40
1
 40
1
 40
1
 40
1
 10
87.000000
 20
185.627980
 30
0.0
 10
87.000000
 20
165.627980
 30
0.0
 10
87.250000
 20
155.627980
 30
0.0
 10
87.541667
 20
147.294647
 30
0.0
  0
SPLINE
  5
119
100
AcDbEntity
  8
Calque_1
 62
7
100
AcDbSpline
 70
8
 71
3
 72
8
 73
4
 74
0
 40
0
 40
0
 40
0
 40
0
 40
1
 40
1
 40
1
 40
1
 10
87.541667
 20
147.294647
 30
0.0
 10
87.833333
 20
138.961313
 30
0.0
 10
88.166667
 20
132.294647
 30
0.0
 10
88.583333
 20
125.627980
 30
0.0
  0
SPLINE
  5
11a
100
AcDbEntity
  8
Calque_1
 62
7
100
AcDbSpline
 70
8
 71
3
 72
8
 73
4
 74
0
 40
0
 40
0
 40
0
 40
0
 40
1
 40
1
 40
1
 40
1
 10
88.583333
 20
125.627980
 30
0.0
 10
89.000000
 20
118.961313
 30
0.0
 10
89.500000
 20
112.294647
 30
0.0
 10
89.916667
 20
105.627980
 30
0.0
  0
SPLINE
  5
11b
100
AcDbEntity
  8
Calque_1
 62
7
100
AcDbSpline
 70
8
 71
3
 72
8
 73
4
 74
0
 40
0
 40
0
 40
0
 40
0
 40
1
 40
1
 40
1
 40
1
 10
89.916667
 20
105.627980
 30
0.0
 10
90.333333
 20
98.961313
 30
0.0
 10
90.666667
 20
92.294647
 30
0.0
 10
91.166667
 20
85.627980
 30
0.0
  0
SPLINE
  5
11c
100
AcDbEntity
  8
Calque_1
 62
7
100
AcDbSpline
 70
8
 71
3
 72
8
 73
4
 74
0
 40
0
 40
0
 40
0
 40
0
 40
1
 40
1
 40
1
 40
1
 10
91.166667
 20
85.627980
 30
0.0
 10
91.666667
 20
78.961310
 30
0.0
 10
92.333333
 20
72.294650
 30
0.0
 10
92.916667
 20
65.627980
 30
0.0
  0
SPLINE
  5
11d
100
AcDbEntity
  8
Calque_1
 62
7
100
AcDbSpline
 70
8
 71
3
 72
8
 73
4
 74
0
 40
0
 40
0
 40
0
 40
0
 40
1
 40
1
 40
1
 40
1
 10
92.916667
 20
65.627980
 30
0.0
 10
93.500000
 20
58.961310
 30
0.0
 10
94.000000
 20
52.294650
 30
0.0
 10
94.770190
 20
43.961310
 30
0.0
  0
SPLINE
  5
11e
100
AcDbEntity
  8
Calque_1
 62
7
100
AcDbSpline
 70
8
 71
3
 72
8
 73
4
 74
0
 40
0
 40
0
 40
0
 40
0
 40
1
 40
1
 40
1
 40
1
 10
94.770190
 20
43.961310
 30
0.0
 10
95.540381
 20
35.627980
 30
0.0
 10
96.580761
 20
25.627980
 30
0.0
 10
98.000000
 20
5.627980
 30
0.0
  0
LINE
  5
11f
100
AcDbEntity
  8
Calque_1
 62
7
100
AcDbLine
 10
98.000000
 20
5.627980
 30
0.0
 11
156.000000
 21
5.627980
 31
0.0
  0
SPLINE
  5
120
100
AcDbEntity
  8
Calque_1
 62
7
100
AcDbSpline
 70
8
 71
3
 72
8
 73
4
 74
0
 40
0
 40
0
 40
0
 40
0
 40
1
 40
1
 40
1
 40
1
 10
156.000000
 20
5.627980
 30
0.0
 10
157.580761
 20
25.627980
 30
0.0
 10
158.540381
 20
35.627980
 30
0.0
 10
159.270190
 20
43.961310
 30
0.0
  0
SPLINE
  5
121
100
AcDbEntity
  8
Calque_1
 62
7
100
AcDbSpline
 70
8
 71
3
 72
8
 73
4
 74
0
 40
0
 40
0
 40
0
 40
0
 40
1
 40
1
 40
1
 40
1
 10
159.270190
 20
43.961310
 30
0.0
 10
160.000000
 20
52.294650
 30
0.0
 10
160.500000
 20
58.961310
 30
0.0
 10
161.083333
 20
65.627980
 30
0.0
  0
SPLINE
  5
122
100
AcDbEntity
  8
Calque_1
 62
7
100
AcDbSpline
 70
8
 71
3
 72
8
 73
4
 74
0
 40
0
 40
0
 40
0
 40
0
 40
1
 40
1
 40
1
 40
1
 10
161.083333
 20
65.627980
 30
0.0
 10
161.666667
 20
72.294650
 30
0.0
 10
162.333333
 20
78.961310
 30
0.0
 10
162.833333
 20
85.627980
 30
0.0
  0
SPLINE
  5
123
100
AcDbEntity
  8
Calque_1
 62
7
100
AcDbSpline
 70
8
 71
3
 72
8
 73
4
 74
0
 40
0
 40
0
 40
0
 40
0
 40
1
 40
1
 40
1
 40
1
 10
162.833333
 20
85.627980
 30
0.0
 10
163.333333
 20
92.294647
 30
0.0
 10
163.666667
 20
98.961313
 30
0.0
 10
164.083333
 20
105.627980
 30
0.0
  0
SPLINE
  5
124
100
AcDbEntity
  8
Calque_1
 62
7
100
AcDbSpline
 70
8
 71
3
 72
8
 73
4
 74
0
 40
0
 40
0
 40
0
 40
0
 40
1
 40
1
 40
1
 40
1
 10
164.083333
 20
105.627980
 30
0.0
 10
164.500000
 20
112.294647
 30
0.0
 10
165.000000
 20
118.961313
 30
0.0
 10
165.416667
 20
125.627980
 30
0.0
  0
SPLINE
  5
125
100
AcDbEntity
  8
Calque_1
 62
7
100
AcDbSpline
 70
8
 71
3
 72
8
 73
4
 74
0
 40
0
 40
0
 40
0
 40
0
 40
1
 40
1
 40
1
 40
1
 10
165.416667
 20
125.627980
 30
0.0
 10
165.833333
 20
132.294647
 30
0.0
 10
166.166667
 20
138.961313
 30
0.0
 10
166.458333
 20
147.294647
 30
0.0
  0
SPLINE
  5
126
100
AcDbEntity
  8
Calque_1
 62
7
100
AcDbSpline
 70
8
 71
3
 72
8
 73
4
 74
0
 40
0
 40
0
 40
0
 40
0
 40
1
 40
1
 40
1
 40
1
 10
166.458333
 20
147.294647
 30
0.0
 10
166.750000
 20
155.627980
 30
0.0
 10
167.000000
 20
165.627980
 30
0.0
 10
167.000000
 20
185.627980
 30
0.0
  0
LINE
  5
127
100
AcDbEntity
  8
Calque_1
 62
7
100
AcDbLine
 10
167.000000
 20
185.627980
 30
0.0
 11
87.000000
 21
185.627980
 31
0.0
  0
ENDSEC
  0
SECTION
  2
OBJECTS
  0
DICTIONARY
  5
C
330
0
100
AcDbDictionary
  3
ACAD_GROUP
350
D
  3
ACAD_MLINESTYLE
350
17
  0
DICTIONARY
  5
D
330
C
100
AcDbDictionary
  0
DICTIONARY
  5
1A
330
C
100
AcDbDictionary
  0
DICTIONARY
  5
17
330
C
100
AcDbDictionary
  3
STANDARD
350
18
  0
DICTIONARY
  5
19
330
C
100
AcDbDictionary
  0
ENDSEC
  0
EOF
