<?xml version="1.0"?>
<!DOCTYPE svg PUBLIC "-//W3C//DTD SVG 1.1//EN" "http://www.w3.org/Graphics/SVG/1.1/DTD/svg11.dtd">
<svg width="183.60000000000005mm" height="83.6mm" viewBox="0 0 183.60000000000005 83.6" xmlns="http://www.w3.org/2000/svg" version="1.1">
<g id="Sketch" transform="translate(1.800000,41.800000) scale(1,-1)">
<path id="Sketch_w0000"  d="M 65.0 25.0 L 135.0 20.0 L 135.0 -20.0 L 65.0 -25.0 L 65.0 25.0 " stroke="#000000" stroke-width="0.35 px" style="stroke-width:0.35;stroke-miterlimit:4;stroke-dasharray:none;fill:none;fill-rule: evenodd "/>
<path id="Sketch_w0001"  d="M 0.0 -40.0 C 20.0 -40.0 30.0 -39.75 38.333333333333336 -39.45833333333333 C 46.66666666666667 -39.166666666666664 53.333333333333336 -38.83333333333333 60.0 -38.416666666666664 C 66.66666666666667 -38.0 73.33333333333334 -37.5 80.0 -37.08333333333333 C 86.66666666666667 -36.666666666666664 93.33333333333333 -36.33333333333333 99.99999999999999 -35.83333333333333 C 106.66666666666666 -35.333333333333336 113.33333333333334 -34.66666666666667 120.00000000000001 -34.083333333333336 C 126.66666666666669 -33.5 133.33333333333337 -33.0 141.66666666666669 -32.22980970388563 C 150.0 -31.459619407771257 160.0 -30.41923881554251 180.00000000000003 -29.0 L 180.00000000000003 29.0 C 160.0 30.58076118445749 150.0 31.540380592228743 141.66666666666669 32.27019029611437 C 133.33333333333334 33.0 126.66666666666667 33.5 120.0 34.083333333333336 C 113.33333333333333 34.66666666666667 106.66666666666667 35.333333333333336 100.0 35.833333333333336 C 93.33333333333333 36.333333333333336 86.66666666666666 36.66666666666667 79.99999999999999 37.08333333333334 C 73.33333333333331 37.5 66.66666666666666 38.0 60.0 38.416666666666664 C 53.333333333333336 38.83333333333333 46.66666666666667 39.166666666666664 38.333333333333336 39.45833333333333 C 30.0 39.75 20.0 40.0 0.0 40.0 L 0.0 -40.0 " stroke="#000000" stroke-width="0.35 px" style="stroke-width:0.35;stroke-miterlimit:4;stroke-dasharray:none;fill:none;fill-rule: evenodd "/>
<title>b'Sketch'</title>
</g>
</svg>