  0
SECTION
  2
HEADER
  9
$ACADVER
  1
AC1014
  9
$HANDSEED
  5
FFFF
  9
$MEASUREMENT
 70
     1
  0
ENDSEC
  0
SECTION
  2
TABLES
  0
TABLE
  2
VPORT
  5
8
330
0
100
AcDbSymbolTable
 70
     4
  0
VPORT
  5
2E
330
8
100
AcDbSymbolTableRecord
100
AcDbViewportTableRecord
  2
*ACTIVE
 70
     0
 10
0.0
 20
0.0
 11
1.0
 21
1.0
 12
210.0
 22
148.5
 13
0.0
 23
0.0
 14
10.0
 24
10.0
 15
10.0
 25
10.0
 16
0.0
 26
0.0
 36
1.0
 17
0.0
 27
0.0
 37
0.0
 40
341.0
 41
1.24
 42
50.0
 43
0.0
 44
0.0
 50
0.0
 51
0.0
 71
     0
 72
   100
 73
     1
 74
     3
 75
     0
 76
     0
 77
     0
 78
     0
  0
ENDTAB
  0
TABLE
  2
LTYPE
  5
5
330
0
100
AcDbSymbolTable
 70
     1
  0
LTYPE
  5
14
330
5
100
AcDbSymbolTableRecord
100
AcDbLinetypeTableRecord
  2
BYBLOCK
 70
     0
  3

 72
    65
 73
     0
 40
0.0
  0
LTYPE
  5
15
330
5
100
AcDbSymbolTableRecord
100
AcDbLinetypeTableRecord
  2
BYLAYER
 70
     0
  3

 72
    65
 73
     0
 40
0.0
  0
LTYPE
  5
16
330
5
100
AcDbSymbolTableRecord
100
AcDbLinetypeTableRecord
  2
CONTINUOUS
 70
     0
  3
Solid line
 72
    65
 73
     0
 40
0.0
  0
ENDTAB
  0
TABLE
  2
LAYER
  5
2
100
AcDbSymbolTable
 70
2
  0
LAYER
  5
50
100
AcDbSymbolTableRecord
100
AcDbLayerTableRecord
  2
0
 70
0
  6
CONTINUOUS
  0
LAYER
  5
51
100
AcDbSymbolTableRecord
100
AcDbLayerTableRecord
  2
Calque_1
 70
0
  6
CONTINUOUS
  0
ENDTAB
  0
TABLE
  2
STYLE
  5
3
330
0
100
AcDbSymbolTable
 70
     1
  0
STYLE
  5
11
330
3
100
AcDbSymbolTableRecord
100
AcDbTextStyleTableRecord
  2
STANDARD
 70
     0
 40
0.0
 41
1.0
 50
0.0
 71
     0
 42
2.5
  3
txt
  4

  0
ENDTAB
  0
TABLE
  2
VIEW
  5
6
330
0
100
AcDbSymbolTable
 70
     0
  0
ENDTAB
  0
TABLE
  2
UCS
  5
7
330
0
100
AcDbSymbolTable
 70
     0
  0
ENDTAB
  0
TABLE
  2
APPID
  5
9
330
0
100
AcDbSymbolTable
 70
     2
  0
APPID
  5
12
330
9
100
AcDbSymbolTableRecord
100
AcDbRegAppTableRecord
  2
ACAD
 70
     0
  0
ENDTAB
  0
TABLE
  2
DIMSTYLE
  5
A
330
0
100
AcDbSymbolTable
 70
     1
  0
DIMSTYLE
105
27
330
A
100
AcDbSymbolTableRecord
100
AcDbDimStyleTableRecord
  2
ISO-25
 70
     0
  3

  4

  5

  6

  7

 40
1.0
 41
2.5
 42
0.625
 43
3.75
 44
1.25
 45
0.0
 46
0.0
 47
0.0
 48
0.0
140
2.5
141
2.5
142
0.0
143
0.03937007874016
144
1.0
145
0.0
146
1.0
147
0.625
 71
     0
 72
     0
 73
     0
 74
     0
 75
     0
 76
     0
 77
     1
 78
     8
170
     0
171
     3
172
     1
173
     0
174
     0
175
     0
176
     0
177
     0
178
     0
270
     2
271
     2
272
     2
273
     2
274
     3
340
11
275
     0
280
     0
281
     0
282
     0
283
     0
284
     8
285
     0
286
     0
287
     3
288
     0
  0
ENDTAB
  0
TABLE
  2
BLOCK_RECORD
  5
1
330
0
100
AcDbSymbolTable
 70
     1
  0
BLOCK_RECORD
  5
1F
330
1
100
AcDbSymbolTableRecord
100
AcDbBlockTableRecord
  2
*MODEL_SPACE
  0
BLOCK_RECORD
  5
1B
330
1
100
AcDbSymbolTableRecord
100
AcDbBlockTableRecord
  2
*PAPER_SPACE
  0
ENDTAB
  0
ENDSEC
  0
SECTION
  2
BLOCKS
  0
BLOCK
  5
20
330
1F
100
AcDbEntity
  8
0
100
AcDbBlockBegin
  2
*MODEL_SPACE
 70
     0
 10
0.0
 20
0.0
 30
0.0
  3
*MODEL_SPACE
  1

  0
ENDBLK
  5
21
330
1F
100
AcDbEntity
  8
0
100
AcDbBlockEnd
  0
BLOCK
  5
1C
330
1B
100
AcDbEntity
 67
     1
  8
0
100
AcDbBlockBegin
  2
*PAPER_SPACE
  1

  0
ENDBLK
  5
1D
330
1B
100
AcDbEntity
 67
     1
  8
0
100
AcDbBlockEnd
  0
ENDSEC
  0
SECTION
  2
ENTITIES
  0
LINE
  5
100
100
AcDbEntity
  8
Calque_1
 62
7
100
AcDbLine
 10
93.135410
 20
6.689740
 30
0.0
 11
93.135410
 21
18.689740
 31
0.0
  0
LINE
  5
101
100
AcDbEntity
  8
Calque_1
 62
7
100
AcDbLine
 10
93.135410
 20
18.689740
 30
0.0
 11
118.135410
 21
14.689740
 31
0.0
  0
LINE
  5
102
100
AcDbEntity
  8
Calque_1
 62
7
100
AcDbLine
 10
118.135410
 20
14.689740
 30
0.0
 11
118.135410
 21
6.689740
 31
0.0
  0
LINE
  5
103
100
AcDbEntity
  8
Calque_1
 62
7
100
AcDbLine
 10
118.135410
 20
6.689740
 30
0.0
 11
93.135410
 21
6.689740
 31
0.0
  0
LINE
  5
104
100
AcDbEntity
  8
Calque_1
 62
7
100
AcDbLine
 10
97.135410
 20
9.889740
 30
0.0
 11
114.135410
 21
9.889740
 31
0.0
  0
LINE
  5
105
100
AcDbEntity
  8
Calque_1
 62
7
100
AcDbLine
 10
114.135410
 20
9.889740
 30
0.0
 11
114.135410
 21
12.889740
 31
0.0
  0
LINE
  5
106
100
AcDbEntity
  8
Calque_1
 62
7
100
AcDbLine
 10
114.135410
 20
12.889740
 30
0.0
 11
97.135410
 21
12.889740
 31
0.0
  0
LINE
  5
107
100
AcDbEntity
  8
Calque_1
 62
7
100
AcDbLine
 10
97.135410
 20
12.889740
 30
0.0
 11
97.135410
 21
9.889740
 31
0.0
  0
LINE
  5
108
100
AcDbEntity
  8
Calque_1
 62
7
100
AcDbLine
 10
68.738093
 20
6.577570
 30
0.0
 11
68.738093
 21
9.577570
 31
0.0
  0
LINE
  5
109
100
AcDbEntity
  8
Calque_1
 62
7
100
AcDbLine
 10
68.738093
 20
9.577570
 30
0.0
 11
85.738093
 21
9.577570
 31
0.0
  0
LINE
  5
10a
100
AcDbEntity
  8
Calque_1
 62
7
100
AcDbLine
 10
85.738093
 20
9.577570
 30
0.0
 11
85.738093
 21
6.577570
 31
0.0
  0
LINE
  5
10b
100
AcDbEntity
  8
Calque_1
 62
7
100
AcDbLine
 10
85.738093
 20
6.577570
 30
0.0
 11
89.738093
 21
6.577570
 31
0.0
  0
LINE
  5
10c
100
AcDbEntity
  8
Calque_1
 62
7
100
AcDbLine
 10
89.738093
 20
6.577570
 30
0.0
 11
89.738093
 21
14.577570
 31
0.0
  0
LINE
  5
10d
100
AcDbEntity
  8
Calque_1
 62
7
100
AcDbLine
 10
89.738093
 20
14.577570
 30
0.0
 11
64.738093
 21
18.577570
 31
0.0
  0
LINE
  5
10e
100
AcDbEntity
  8
Calque_1
 62
7
100
AcDbLine
 10
64.738093
 20
18.577570
 30
0.0
 11
64.738093
 21
6.577570
 31
0.0
  0
LINE
  5
10f
100
AcDbEntity
  8
Calque_1
 62
7
100
AcDbLine
 10
64.738093
 20
6.577570
 30
0.0
 11
68.738093
 21
6.577570
 31
0.0
  0
LINE
  5
110
100
AcDbEntity
  8
Calque_1
 62
7
100
AcDbLine
 10
40.000407
 20
9.497810
 30
0.0
 11
57.000407
 21
9.497810
 31
0.0
  0
LINE
  5
111
100
AcDbEntity
  8
Calque_1
 62
7
100
AcDbLine
 10
57.000407
 20
9.497810
 30
0.0
 11
57.000407
 21
12.497810
 31
0.0
  0
LINE
  5
112
100
AcDbEntity
  8
Calque_1
 62
7
100
AcDbLine
 10
57.000407
 20
12.497810
 30
0.0
 11
40.000407
 21
12.497810
 31
0.0
  0
LINE
  5
113
100
AcDbEntity
  8
Calque_1
 62
7
100
AcDbLine
 10
40.000407
 20
12.497810
 30
0.0
 11
40.000407
 21
9.497810
 31
0.0
  0
LINE
  5
114
100
AcDbEntity
  8
Calque_1
 62
7
100
AcDbLine
 10
36.000407
 20
6.297810
 30
0.0
 11
36.000407
 21
19.297810
 31
0.0
  0
LINE
  5
115
100
AcDbEntity
  8
Calque_1
 62
7
100
AcDbLine
 10
36.000407
 20
19.297810
 30
0.0
 11
61.000407
 21
23.297810
 31
0.0
  0
LINE
  5
116
100
AcDbEntity
  8
Calque_1
 62
7
100
AcDbLine
 10
61.000407
 20
23.297810
 30
0.0
 11
61.000407
 21
6.297810
 31
0.0
  0
LINE
  5
117
100
AcDbEntity
  8
Calque_1
 62
7
100
AcDbLine
 10
61.000407
 20
6.297810
 30
0.0
 11
36.000407
 21
6.297810
 31
0.0
  0
LINE
  5
118
100
AcDbEntity
  8
Calque_1
 62
7
100
AcDbLine
 10
26.896707
 20
9.058900
 30
0.0
 11
9.896707
 21
9.058900
 31
0.0
  0
LINE
  5
119
100
AcDbEntity
  8
Calque_1
 62
7
100
AcDbLine
 10
9.896707
 20
9.058900
 30
0.0
 11
9.896707
 21
6.058900
 31
0.0
  0
LINE
  5
11a
100
AcDbEntity
  8
Calque_1
 62
7
100
AcDbLine
 10
9.896707
 20
6.058900
 30
0.0
 11
5.896707
 21
6.058900
 31
0.0
  0
LINE
  5
11b
100
AcDbEntity
  8
Calque_1
 62
7
100
AcDbLine
 10
5.896707
 20
6.058900
 30
0.0
 11
5.896707
 21
19.058900
 31
0.0
  0
LINE
  5
11c
100
AcDbEntity
  8
Calque_1
 62
7
100
AcDbLine
 10
5.896707
 20
19.058900
 30
0.0
 11
30.896707
 21
23.058900
 31
0.0
  0
LINE
  5
11d
100
AcDbEntity
  8
Calque_1
 62
7
100
AcDbLine
 10
30.896707
 20
23.058900
 30
0.0
 11
30.896707
 21
6.058900
 31
0.0
  0
LINE
  5
11e
100
AcDbEntity
  8
Calque_1
 62
7
100
AcDbLine
 10
30.896707
 20
6.058900
 30
0.0
 11
26.896707
 21
6.058900
 31
0.0
  0
LINE
  5
11f
100
AcDbEntity
  8
Calque_1
 62
7
100
AcDbLine
 10
26.896707
 20
6.058900
 30
0.0
 11
26.896707
 21
9.058900
 31
0.0
  0
LINE
  5
120
100
AcDbEntity
  8
Calque_1
 62
7
100
AcDbLine
 10
9.698782
 20
38.089990
 30
0.0
 11
26.698782
 21
38.089990
 31
0.0
  0
LINE
  5
121
100
AcDbEntity
  8
Calque_1
 62
7
100
AcDbLine
 10
26.698782
 20
38.089990
 30
0.0
 11
26.698782
 21
41.089990
 31
0.0
  0
LINE
  5
122
100
AcDbEntity
  8
Calque_1
 62
7
100
AcDbLine
 10
26.698782
 20
41.089990
 30
0.0
 11
30.698782
 21
41.089990
 31
0.0
  0
LINE
  5
123
100
AcDbEntity
  8
Calque_1
 62
7
100
AcDbLine
 10
30.698782
 20
41.089990
 30
0.0
 11
30.698782
 21
28.089990
 31
0.0
  0
LINE
  5
124
100
AcDbEntity
  8
Calque_1
 62
7
100
AcDbLine
 10
30.698782
 20
28.089990
 30
0.0
 11
5.698782
 21
24.089990
 31
0.0
  0
LINE
  5
125
100
AcDbEntity
  8
Calque_1
 62
7
100
AcDbLine
 10
5.698782
 20
24.089990
 30
0.0
 11
5.698782
 21
41.089990
 31
0.0
  0
LINE
  5
126
100
AcDbEntity
  8
Calque_1
 62
7
100
AcDbLine
 10
5.698782
 20
41.089990
 30
0.0
 11
9.698782
 21
41.089990
 31
0.0
  0
LINE
  5
127
100
AcDbEntity
  8
Calque_1
 62
7
100
AcDbLine
 10
9.698782
 20
41.089990
 30
0.0
 11
9.698782
 21
38.089990
 31
0.0
  0
LINE
  5
128
100
AcDbEntity
  8
Calque_1
 62
7
100
AcDbLine
 10
57.000412
 20
38.285840
 30
0.0
 11
40.000412
 21
38.285840
 31
0.0
  0
LINE
  5
129
100
AcDbEntity
  8
Calque_1
 62
7
100
AcDbLine
 10
40.000412
 20
38.285840
 30
0.0
 11
40.000412
 21
35.285840
 31
0.0
  0
LINE
  5
12a
100
AcDbEntity
  8
Calque_1
 62
7
100
AcDbLine
 10
40.000412
 20
35.285840
 30
0.0
 11
57.000412
 21
35.285840
 31
0.0
  0
LINE
  5
12b
100
AcDbEntity
  8
Calque_1
 62
7
100
AcDbLine
 10
57.000412
 20
35.285840
 30
0.0
 11
57.000412
 21
38.285840
 31
0.0
  0
LINE
  5
12c
100
AcDbEntity
  8
Calque_1
 62
7
100
AcDbLine
 10
61.000412
 20
41.485840
 30
0.0
 11
61.000412
 21
28.485840
 31
0.0
  0
LINE
  5
12d
100
AcDbEntity
  8
Calque_1
 62
7
100
AcDbLine
 10
61.000412
 20
28.485840
 30
0.0
 11
36.000412
 21
24.485840
 31
0.0
  0
LINE
  5
12e
100
AcDbEntity
  8
Calque_1
 62
7
100
AcDbLine
 10
36.000412
 20
24.485840
 30
0.0
 11
36.000412
 21
41.485840
 31
0.0
  0
LINE
  5
12f
100
AcDbEntity
  8
Calque_1
 62
7
100
AcDbLine
 10
36.000412
 20
41.485840
 30
0.0
 11
61.000412
 21
41.485840
 31
0.0
  0
LINE
  5
130
100
AcDbEntity
  8
Calque_1
 62
7
100
AcDbLine
 10
85.705922
 20
30.004690
 30
0.0
 11
85.705922
 21
27.004690
 31
0.0
  0
LINE
  5
131
100
AcDbEntity
  8
Calque_1
 62
7
100
AcDbLine
 10
85.705922
 20
27.004690
 30
0.0
 11
68.705922
 21
27.004690
 31
0.0
  0
LINE
  5
132
100
AcDbEntity
  8
Calque_1
 62
7
100
AcDbLine
 10
68.705922
 20
27.004690
 30
0.0
 11
68.705922
 21
30.004690
 31
0.0
  0
LINE
  5
133
100
AcDbEntity
  8
Calque_1
 62
7
100
AcDbLine
 10
68.705922
 20
30.004690
 30
0.0
 11
64.705922
 21
30.004690
 31
0.0
  0
LINE
  5
134
100
AcDbEntity
  8
Calque_1
 62
7
100
AcDbLine
 10
64.705922
 20
30.004690
 30
0.0
 11
64.705922
 21
22.004690
 31
0.0
  0
LINE
  5
135
100
AcDbEntity
  8
Calque_1
 62
7
100
AcDbLine
 10
64.705922
 20
22.004690
 30
0.0
 11
89.705922
 21
18.004690
 31
0.0
  0
LINE
  5
136
100
AcDbEntity
  8
Calque_1
 62
7
100
AcDbLine
 10
89.705922
 20
18.004690
 30
0.0
 11
89.705922
 21
30.004690
 31
0.0
  0
LINE
  5
137
100
AcDbEntity
  8
Calque_1
 62
7
100
AcDbLine
 10
89.705922
 20
30.004690
 30
0.0
 11
85.705922
 21
30.004690
 31
0.0
  0
LINE
  5
138
100
AcDbEntity
  8
Calque_1
 62
7
100
AcDbLine
 10
118.169200
 20
30.124600
 30
0.0
 11
118.169200
 21
18.124600
 31
0.0
  0
LINE
  5
139
100
AcDbEntity
  8
Calque_1
 62
7
100
AcDbLine
 10
118.169200
 20
18.124600
 30
0.0
 11
93.169200
 21
22.124600
 31
0.0
  0
LINE
  5
13a
100
AcDbEntity
  8
Calque_1
 62
7
100
AcDbLine
 10
93.169200
 20
22.124600
 30
0.0
 11
93.169200
 21
30.124600
 31
0.0
  0
LINE
  5
13b
100
AcDbEntity
  8
Calque_1
 62
7
100
AcDbLine
 10
93.169200
 20
30.124600
 30
0.0
 11
118.169200
 21
30.124600
 31
0.0
  0
LINE
  5
13c
100
AcDbEntity
  8
Calque_1
 62
7
100
AcDbLine
 10
114.169200
 20
26.924600
 30
0.0
 11
97.169200
 21
26.924600
 31
0.0
  0
LINE
  5
13d
100
AcDbEntity
  8
Calque_1
 62
7
100
AcDbLine
 10
97.169200
 20
26.924600
 30
0.0
 11
97.169200
 21
23.924600
 31
0.0
  0
LINE
  5
13e
100
AcDbEntity
  8
Calque_1
 62
7
100
AcDbLine
 10
97.169200
 20
23.924600
 30
0.0
 11
114.169200
 21
23.924600
 31
0.0
  0
LINE
  5
13f
100
AcDbEntity
  8
Calque_1
 62
7
100
AcDbLine
 10
114.169200
 20
23.924600
 30
0.0
 11
114.169200
 21
26.924600
 31
0.0
  0
LINE
  5
140
100
AcDbEntity
  8
Calque_1
 62
7
100
AcDbLine
 10
39.763193
 20
48.909280
 30
0.0
 11
56.763193
 21
48.909280
 31
0.0
  0
LINE
  5
141
100
AcDbEntity
  8
Calque_1
 62
7
100
AcDbLine
 10
56.763193
 20
48.909280
 30
0.0
 11
56.763193
 21
51.909280
 31
0.0
  0
LINE
  5
142
100
AcDbEntity
  8
Calque_1
 62
7
100
AcDbLine
 10
56.763193
 20
51.909280
 30
0.0
 11
39.763193
 21
51.909280
 31
0.0
  0
LINE
  5
143
100
AcDbEntity
  8
Calque_1
 62
7
100
AcDbLine
 10
39.763193
 20
51.909280
 30
0.0
 11
39.763193
 21
48.909280
 31
0.0
  0
LINE
  5
144
100
AcDbEntity
  8
Calque_1
 62
7
100
AcDbLine
 10
35.763193
 20
45.709280
 30
0.0
 11
35.763193
 21
58.709280
 31
0.0
  0
LINE
  5
145
100
AcDbEntity
  8
Calque_1
 62
7
100
AcDbLine
 10
35.763193
 20
58.709280
 30
0.0
 11
60.763193
 21
62.709280
 31
0.0
  0
LINE
  5
146
100
AcDbEntity
  8
Calque_1
 62
7
100
AcDbLine
 10
60.763193
 20
62.709280
 30
0.0
 11
60.763193
 21
45.709280
 31
0.0
  0
LINE
  5
147
100
AcDbEntity
  8
Calque_1
 62
7
100
AcDbLine
 10
60.763193
 20
45.709280
 30
0.0
 11
35.763193
 21
45.709280
 31
0.0
  0
LINE
  5
148
100
AcDbEntity
  8
Calque_1
 62
7
100
AcDbLine
 10
26.659495
 20
48.470370
 30
0.0
 11
9.659495
 21
48.470370
 31
0.0
  0
LINE
  5
149
100
AcDbEntity
  8
Calque_1
 62
7
100
AcDbLine
 10
9.659495
 20
48.470370
 30
0.0
 11
9.659495
 21
45.470370
 31
0.0
  0
LINE
  5
14a
100
AcDbEntity
  8
Calque_1
 62
7
100
AcDbLine
 10
9.659495
 20
45.470370
 30
0.0
 11
5.659495
 21
45.470370
 31
0.0
  0
LINE
  5
14b
100
AcDbEntity
  8
Calque_1
 62
7
100
AcDbLine
 10
5.659495
 20
45.470370
 30
0.0
 11
5.659495
 21
58.470370
 31
0.0
  0
LINE
  5
14c
100
AcDbEntity
  8
Calque_1
 62
7
100
AcDbLine
 10
5.659495
 20
58.470370
 30
0.0
 11
30.659495
 21
62.470370
 31
0.0
  0
LINE
  5
14d
100
AcDbEntity
  8
Calque_1
 62
7
100
AcDbLine
 10
30.659495
 20
62.470370
 30
0.0
 11
30.659495
 21
45.470370
 31
0.0
  0
LINE
  5
14e
100
AcDbEntity
  8
Calque_1
 62
7
100
AcDbLine
 10
30.659495
 20
45.470370
 30
0.0
 11
26.659495
 21
45.470370
 31
0.0
  0
LINE
  5
14f
100
AcDbEntity
  8
Calque_1
 62
7
100
AcDbLine
 10
26.659495
 20
45.470370
 30
0.0
 11
26.659495
 21
48.470370
 31
0.0
  0
LINE
  5
150
100
AcDbEntity
  8
Calque_1
 62
7
100
AcDbLine
 10
9.461570
 20
77.501450
 30
0.0
 11
26.461570
 21
77.501450
 31
0.0
  0
LINE
  5
151
100
AcDbEntity
  8
Calque_1
 62
7
100
AcDbLine
 10
26.461570
 20
77.501450
 30
0.0
 11
26.461570
 21
80.501450
 31
0.0
  0
LINE
  5
152
100
AcDbEntity
  8
Calque_1
 62
7
100
AcDbLine
 10
26.461570
 20
80.501450
 30
0.0
 11
30.461570
 21
80.501450
 31
0.0
  0
LINE
  5
153
100
AcDbEntity
  8
Calque_1
 62
7
100
AcDbLine
 10
30.461570
 20
80.501450
 30
0.0
 11
30.461570
 21
67.501450
 31
0.0
  0
LINE
  5
154
100
AcDbEntity
  8
Calque_1
 62
7
100
AcDbLine
 10
30.461570
 20
67.501450
 30
0.0
 11
5.461570
 21
63.501450
 31
0.0
  0
LINE
  5
155
100
AcDbEntity
  8
Calque_1
 62
7
100
AcDbLine
 10
5.461570
 20
63.501450
 30
0.0
 11
5.461570
 21
80.501450
 31
0.0
  0
LINE
  5
156
100
AcDbEntity
  8
Calque_1
 62
7
100
AcDbLine
 10
5.461570
 20
80.501450
 30
0.0
 11
9.461570
 21
80.501450
 31
0.0
  0
LINE
  5
157
100
AcDbEntity
  8
Calque_1
 62
7
100
AcDbLine
 10
9.461570
 20
80.501450
 30
0.0
 11
9.461570
 21
77.501450
 31
0.0
  0
LINE
  5
158
100
AcDbEntity
  8
Calque_1
 62
7
100
AcDbLine
 10
56.763198
 20
77.697300
 30
0.0
 11
39.763198
 21
77.697300
 31
0.0
  0
LINE
  5
159
100
AcDbEntity
  8
Calque_1
 62
7
100
AcDbLine
 10
39.763198
 20
77.697300
 30
0.0
 11
39.763198
 21
74.697300
 31
0.0
  0
LINE
  5
15a
100
AcDbEntity
  8
Calque_1
 62
7
100
AcDbLine
 10
39.763198
 20
74.697300
 30
0.0
 11
56.763198
 21
74.697300
 31
0.0
  0
LINE
  5
15b
100
AcDbEntity
  8
Calque_1
 62
7
100
AcDbLine
 10
56.763198
 20
74.697300
 30
0.0
 11
56.763198
 21
77.697300
 31
0.0
  0
LINE
  5
15c
100
AcDbEntity
  8
Calque_1
 62
7
100
AcDbLine
 10
60.763198
 20
80.897300
 30
0.0
 11
60.763198
 21
67.897300
 31
0.0
  0
LINE
  5
15d
100
AcDbEntity
  8
Calque_1
 62
7
100
AcDbLine
 10
60.763198
 20
67.897300
 30
0.0
 11
35.763198
 21
63.897300
 31
0.0
  0
LINE
  5
15e
100
AcDbEntity
  8
Calque_1
 62
7
100
AcDbLine
 10
35.763198
 20
63.897300
 30
0.0
 11
35.763198
 21
80.897300
 31
0.0
  0
LINE
  5
15f
100
AcDbEntity
  8
Calque_1
 62
7
100
AcDbLine
 10
35.763198
 20
80.897300
 30
0.0
 11
60.763198
 21
80.897300
 31
0.0
  0
LINE
  5
160
100
AcDbEntity
  8
Calque_1
 62
7
100
AcDbLine
 10
39.425312
 20
87.934600
 30
0.0
 11
56.425312
 21
87.934600
 31
0.0
  0
LINE
  5
161
100
AcDbEntity
  8
Calque_1
 62
7
100
AcDbLine
 10
56.425312
 20
87.934600
 30
0.0
 11
56.425312
 21
90.934600
 31
0.0
  0
LINE
  5
162
100
AcDbEntity
  8
Calque_1
 62
7
100
AcDbLine
 10
56.425312
 20
90.934600
 30
0.0
 11
39.425312
 21
90.934600
 31
0.0
  0
LINE
  5
163
100
AcDbEntity
  8
Calque_1
 62
7
100
AcDbLine
 10
39.425312
 20
90.934600
 30
0.0
 11
39.425312
 21
87.934600
 31
0.0
  0
LINE
  5
164
100
AcDbEntity
  8
Calque_1
 62
7
100
AcDbLine
 10
35.425312
 20
84.734600
 30
0.0
 11
35.425312
 21
97.734600
 31
0.0
  0
LINE
  5
165
100
AcDbEntity
  8
Calque_1
 62
7
100
AcDbLine
 10
35.425312
 20
97.734600
 30
0.0
 11
60.425312
 21
101.734600
 31
0.0
  0
LINE
  5
166
100
AcDbEntity
  8
Calque_1
 62
7
100
AcDbLine
 10
60.425312
 20
101.734600
 30
0.0
 11
60.425312
 21
84.734600
 31
0.0
  0
LINE
  5
167
100
AcDbEntity
  8
Calque_1
 62
7
100
AcDbLine
 10
60.425312
 20
84.734600
 30
0.0
 11
35.425312
 21
84.734600
 31
0.0
  0
LINE
  5
168
100
AcDbEntity
  8
Calque_1
 62
7
100
AcDbLine
 10
26.321614
 20
87.495680
 30
0.0
 11
9.321614
 21
87.495680
 31
0.0
  0
LINE
  5
169
100
AcDbEntity
  8
Calque_1
 62
7
100
AcDbLine
 10
9.321614
 20
87.495680
 30
0.0
 11
9.321614
 21
84.495680
 31
0.0
  0
LINE
  5
16a
100
AcDbEntity
  8
Calque_1
 62
7
100
AcDbLine
 10
9.321614
 20
84.495680
 30
0.0
 11
5.321614
 21
84.495680
 31
0.0
  0
LINE
  5
16b
100
AcDbEntity
  8
Calque_1
 62
7
100
AcDbLine
 10
5.321614
 20
84.495680
 30
0.0
 11
5.321614
 21
97.495680
 31
0.0
  0
LINE
  5
16c
100
AcDbEntity
  8
Calque_1
 62
7
100
AcDbLine
 10
5.321614
 20
97.495680
 30
0.0
 11
30.321614
 21
101.495680
 31
0.0
  0
LINE
  5
16d
100
AcDbEntity
  8
Calque_1
 62
7
100
AcDbLine
 10
30.321614
 20
101.495680
 30
0.0
 11
30.321614
 21
84.495680
 31
0.0
  0
LINE
  5
16e
100
AcDbEntity
  8
Calque_1
 62
7
100
AcDbLine
 10
30.321614
 20
84.495680
 30
0.0
 11
26.321614
 21
84.495680
 31
0.0
  0
LINE
  5
16f
100
AcDbEntity
  8
Calque_1
 62
7
100
AcDbLine
 10
26.321614
 20
84.495680
 30
0.0
 11
26.321614
 21
87.495680
 31
0.0
  0
LINE
  5
170
100
AcDbEntity
  8
Calque_1
 62
7
100
AcDbLine
 10
68.759770
 20
103.011510
 30
0.0
 11
85.759770
 21
103.011510
 31
0.0
  0
LINE
  5
171
100
AcDbEntity
  8
Calque_1
 62
7
100
AcDbLine
 10
85.759770
 20
103.011510
 30
0.0
 11
85.759770
 21
106.011510
 31
0.0
  0
LINE
  5
172
100
AcDbEntity
  8
Calque_1
 62
7
100
AcDbLine
 10
85.759770
 20
106.011510
 30
0.0
 11
89.759770
 21
106.011510
 31
0.0
  0
LINE
  5
173
100
AcDbEntity
  8
Calque_1
 62
7
100
AcDbLine
 10
89.759770
 20
106.011510
 30
0.0
 11
89.759770
 21
93.011510
 31
0.0
  0
LINE
  5
174
100
AcDbEntity
  8
Calque_1
 62
7
100
AcDbLine
 10
89.759770
 20
93.011510
 30
0.0
 11
64.759770
 21
89.011510
 31
0.0
  0
LINE
  5
175
100
AcDbEntity
  8
Calque_1
 62
7
100
AcDbLine
 10
64.759770
 20
89.011510
 30
0.0
 11
64.759770
 21
106.011510
 31
0.0
  0
LINE
  5
176
100
AcDbEntity
  8
Calque_1
 62
7
100
AcDbLine
 10
64.759770
 20
106.011510
 30
0.0
 11
68.759770
 21
106.011510
 31
0.0
  0
LINE
  5
177
100
AcDbEntity
  8
Calque_1
 62
7
100
AcDbLine
 10
68.759770
 20
106.011510
 30
0.0
 11
68.759770
 21
103.011510
 31
0.0
  0
LINE
  5
178
100
AcDbEntity
  8
Calque_1
 62
7
100
AcDbLine
 10
114.307530
 20
102.642570
 30
0.0
 11
97.307530
 21
102.642570
 31
0.0
  0
LINE
  5
179
100
AcDbEntity
  8
Calque_1
 62
7
100
AcDbLine
 10
97.307530
 20
102.642570
 30
0.0
 11
97.307530
 21
99.642570
 31
0.0
  0
LINE
  5
17a
100
AcDbEntity
  8
Calque_1
 62
7
100
AcDbLine
 10
97.307530
 20
99.642570
 30
0.0
 11
114.307530
 21
99.642570
 31
0.0
  0
LINE
  5
17b
100
AcDbEntity
  8
Calque_1
 62
7
100
AcDbLine
 10
114.307530
 20
99.642570
 30
0.0
 11
114.307530
 21
102.642570
 31
0.0
  0
LINE
  5
17c
100
AcDbEntity
  8
Calque_1
 62
7
100
AcDbLine
 10
118.307530
 20
105.842570
 30
0.0
 11
118.307530
 21
92.842570
 31
0.0
  0
LINE
  5
17d
100
AcDbEntity
  8
Calque_1
 62
7
100
AcDbLine
 10
118.307530
 20
92.842570
 30
0.0
 11
93.307530
 21
88.842570
 31
0.0
  0
LINE
  5
17e
100
AcDbEntity
  8
Calque_1
 62
7
100
AcDbLine
 10
93.307530
 20
88.842570
 30
0.0
 11
93.307530
 21
105.842570
 31
0.0
  0
LINE
  5
17f
100
AcDbEntity
  8
Calque_1
 62
7
100
AcDbLine
 10
93.307530
 20
105.842570
 30
0.0
 11
118.307530
 21
105.842570
 31
0.0
  0
LINE
  5
180
100
AcDbEntity
  8
Calque_1
 62
7
100
AcDbLine
 10
93.263730
 20
33.952660
 30
0.0
 11
93.263730
 21
45.952660
 31
0.0
  0
LINE
  5
181
100
AcDbEntity
  8
Calque_1
 62
7
100
AcDbLine
 10
93.263730
 20
45.952660
 30
0.0
 11
118.263730
 21
41.952660
 31
0.0
  0
LINE
  5
182
100
AcDbEntity
  8
Calque_1
 62
7
100
AcDbLine
 10
118.263730
 20
41.952660
 30
0.0
 11
118.263730
 21
33.952660
 31
0.0
  0
LINE
  5
183
100
AcDbEntity
  8
Calque_1
 62
7
100
AcDbLine
 10
118.263730
 20
33.952660
 30
0.0
 11
93.263730
 21
33.952660
 31
0.0
  0
LINE
  5
184
100
AcDbEntity
  8
Calque_1
 62
7
100
AcDbLine
 10
97.263730
 20
37.152660
 30
0.0
 11
114.263730
 21
37.152660
 31
0.0
  0
LINE
  5
185
100
AcDbEntity
  8
Calque_1
 62
7
100
AcDbLine
 10
114.263730
 20
37.152660
 30
0.0
 11
114.263730
 21
40.152660
 31
0.0
  0
LINE
  5
186
100
AcDbEntity
  8
Calque_1
 62
7
100
AcDbLine
 10
114.263730
 20
40.152660
 30
0.0
 11
97.263730
 21
40.152660
 31
0.0
  0
LINE
  5
187
100
AcDbEntity
  8
Calque_1
 62
7
100
AcDbLine
 10
97.263730
 20
40.152660
 30
0.0
 11
97.263730
 21
37.152660
 31
0.0
  0
LINE
  5
188
100
AcDbEntity
  8
Calque_1
 62
7
100
AcDbLine
 10
68.866412
 20
33.840480
 30
0.0
 11
68.866412
 21
36.840480
 31
0.0
  0
LINE
  5
189
100
AcDbEntity
  8
Calque_1
 62
7
100
AcDbLine
 10
68.866412
 20
36.840480
 30
0.0
 11
85.866412
 21
36.840480
 31
0.0
  0
LINE
  5
18a
100
AcDbEntity
  8
Calque_1
 62
7
100
AcDbLine
 10
85.866412
 20
36.840480
 30
0.0
 11
85.866412
 21
33.840480
 31
0.0
  0
LINE
  5
18b
100
AcDbEntity
  8
Calque_1
 62
7
100
AcDbLine
 10
85.866412
 20
33.840480
 30
0.0
 11
89.866412
 21
33.840480
 31
0.0
  0
LINE
  5
18c
100
AcDbEntity
  8
Calque_1
 62
7
100
AcDbLine
 10
89.866412
 20
33.840480
 30
0.0
 11
89.866412
 21
41.840480
 31
0.0
  0
LINE
  5
18d
100
AcDbEntity
  8
Calque_1
 62
7
100
AcDbLine
 10
89.866412
 20
41.840480
 30
0.0
 11
64.866412
 21
45.840480
 31
0.0
  0
LINE
  5
18e
100
AcDbEntity
  8
Calque_1
 62
7
100
AcDbLine
 10
64.866412
 20
45.840480
 30
0.0
 11
64.866412
 21
33.840480
 31
0.0
  0
LINE
  5
18f
100
AcDbEntity
  8
Calque_1
 62
7
100
AcDbLine
 10
64.866412
 20
33.840480
 30
0.0
 11
68.866412
 21
33.840480
 31
0.0
  0
LINE
  5
190
100
AcDbEntity
  8
Calque_1
 62
7
100
AcDbLine
 10
85.834241
 20
57.267610
 30
0.0
 11
85.834241
 21
54.267610
 31
0.0
  0
LINE
  5
191
100
AcDbEntity
  8
Calque_1
 62
7
100
AcDbLine
 10
85.834241
 20
54.267610
 30
0.0
 11
68.834241
 21
54.267610
 31
0.0
  0
LINE
  5
192
100
AcDbEntity
  8
Calque_1
 62
7
100
AcDbLine
 10
68.834241
 20
54.267610
 30
0.0
 11
68.834241
 21
57.267610
 31
0.0
  0
LINE
  5
193
100
AcDbEntity
  8
Calque_1
 62
7
100
AcDbLine
 10
68.834241
 20
57.267610
 30
0.0
 11
64.834241
 21
57.267610
 31
0.0
  0
LINE
  5
194
100
AcDbEntity
  8
Calque_1
 62
7
100
AcDbLine
 10
64.834241
 20
57.267610
 30
0.0
 11
64.834241
 21
49.267610
 31
0.0
  0
LINE
  5
195
100
AcDbEntity
  8
Calque_1
 62
7
100
AcDbLine
 10
64.834241
 20
49.267610
 30
0.0
 11
89.834241
 21
45.267610
 31
0.0
  0
LINE
  5
196
100
AcDbEntity
  8
Calque_1
 62
7
100
AcDbLine
 10
89.834241
 20
45.267610
 30
0.0
 11
89.834241
 21
57.267610
 31
0.0
  0
LINE
  5
197
100
AcDbEntity
  8
Calque_1
 62
7
100
AcDbLine
 10
89.834241
 20
57.267610
 30
0.0
 11
85.834241
 21
57.267610
 31
0.0
  0
LINE
  5
198
100
AcDbEntity
  8
Calque_1
 62
7
100
AcDbLine
 10
118.297520
 20
57.387520
 30
0.0
 11
118.297520
 21
45.387520
 31
0.0
  0
LINE
  5
199
100
AcDbEntity
  8
Calque_1
 62
7
100
AcDbLine
 10
118.297520
 20
45.387520
 30
0.0
 11
93.297520
 21
49.387520
 31
0.0
  0
LINE
  5
19a
100
AcDbEntity
  8
Calque_1
 62
7
100
AcDbLine
 10
93.297520
 20
49.387520
 30
0.0
 11
93.297520
 21
57.387520
 31
0.0
  0
LINE
  5
19b
100
AcDbEntity
  8
Calque_1
 62
7
100
AcDbLine
 10
93.297520
 20
57.387520
 30
0.0
 11
118.297520
 21
57.387520
 31
0.0
  0
LINE
  5
19c
100
AcDbEntity
  8
Calque_1
 62
7
100
AcDbLine
 10
114.297520
 20
54.187520
 30
0.0
 11
97.297520
 21
54.187520
 31
0.0
  0
LINE
  5
19d
100
AcDbEntity
  8
Calque_1
 62
7
100
AcDbLine
 10
97.297520
 20
54.187520
 30
0.0
 11
97.297520
 21
51.187520
 31
0.0
  0
LINE
  5
19e
100
AcDbEntity
  8
Calque_1
 62
7
100
AcDbLine
 10
97.297520
 20
51.187520
 30
0.0
 11
114.297520
 21
51.187520
 31
0.0
  0
LINE
  5
19f
100
AcDbEntity
  8
Calque_1
 62
7
100
AcDbLine
 10
114.297520
 20
51.187520
 30
0.0
 11
114.297520
 21
54.187520
 31
0.0
  0
LINE
  5
1a0
100
AcDbEntity
  8
Calque_1
 62
7
100
AcDbLine
 10
93.094780
 20
61.996820
 30
0.0
 11
93.094780
 21
73.996820
 31
0.0
  0
LINE
  5
1a1
100
AcDbEntity
  8
Calque_1
 62
7
100
AcDbLine
 10
93.094780
 20
73.996820
 30
0.0
 11
118.094780
 21
69.996820
 31
0.0
  0
LINE
  5
1a2
100
AcDbEntity
  8
Calque_1
 62
7
100
AcDbLine
 10
118.094780
 20
69.996820
 30
0.0
 11
118.094780
 21
61.996820
 31
0.0
  0
LINE
  5
1a3
100
AcDbEntity
  8
Calque_1
 62
7
100
AcDbLine
 10
118.094780
 20
61.996820
 30
0.0
 11
93.094780
 21
61.996820
 31
0.0
  0
LINE
  5
1a4
100
AcDbEntity
  8
Calque_1
 62
7
100
AcDbLine
 10
97.094780
 20
65.196820
 30
0.0
 11
114.094780
 21
65.196820
 31
0.0
  0
LINE
  5
1a5
100
AcDbEntity
  8
Calque_1
 62
7
100
AcDbLine
 10
114.094780
 20
65.196820
 30
0.0
 11
114.094780
 21
68.196820
 31
0.0
  0
LINE
  5
1a6
100
AcDbEntity
  8
Calque_1
 62
7
100
AcDbLine
 10
114.094780
 20
68.196820
 30
0.0
 11
97.094780
 21
68.196820
 31
0.0
  0
LINE
  5
1a7
100
AcDbEntity
  8
Calque_1
 62
7
100
AcDbLine
 10
97.094780
 20
68.196820
 30
0.0
 11
97.094780
 21
65.196820
 31
0.0
  0
LINE
  5
1a8
100
AcDbEntity
  8
Calque_1
 62
7
100
AcDbLine
 10
68.697472
 20
61.884640
 30
0.0
 11
68.697472
 21
64.884640
 31
0.0
  0
LINE
  5
1a9
100
AcDbEntity
  8
Calque_1
 62
7
100
AcDbLine
 10
68.697472
 20
64.884640
 30
0.0
 11
85.697472
 21
64.884640
 31
0.0
  0
LINE
  5
1aa
100
AcDbEntity
  8
Calque_1
 62
7
100
AcDbLine
 10
85.697472
 20
64.884640
 30
0.0
 11
85.697472
 21
61.884640
 31
0.0
  0
LINE
  5
1ab
100
AcDbEntity
  8
Calque_1
 62
7
100
AcDbLine
 10
85.697472
 20
61.884640
 30
0.0
 11
89.697472
 21
61.884640
 31
0.0
  0
LINE
  5
1ac
100
AcDbEntity
  8
Calque_1
 62
7
100
AcDbLine
 10
89.697472
 20
61.884640
 30
0.0
 11
89.697472
 21
69.884640
 31
0.0
  0
LINE
  5
1ad
100
AcDbEntity
  8
Calque_1
 62
7
100
AcDbLine
 10
89.697472
 20
69.884640
 30
0.0
 11
64.697472
 21
73.884640
 31
0.0
  0
LINE
  5
1ae
100
AcDbEntity
  8
Calque_1
 62
7
100
AcDbLine
 10
64.697472
 20
73.884640
 30
0.0
 11
64.697472
 21
61.884640
 31
0.0
  0
LINE
  5
1af
100
AcDbEntity
  8
Calque_1
 62
7
100
AcDbLine
 10
64.697472
 20
61.884640
 30
0.0
 11
68.697472
 21
61.884640
 31
0.0
  0
LINE
  5
1b0
100
AcDbEntity
  8
Calque_1
 62
7
100
AcDbLine
 10
85.665301
 20
85.311770
 30
0.0
 11
85.665301
 21
82.311770
 31
0.0
  0
LINE
  5
1b1
100
AcDbEntity
  8
Calque_1
 62
7
100
AcDbLine
 10
85.665301
 20
82.311770
 30
0.0
 11
68.665301
 21
82.311770
 31
0.0
  0
LINE
  5
1b2
100
AcDbEntity
  8
Calque_1
 62
7
100
AcDbLine
 10
68.665301
 20
82.311770
 30
0.0
 11
68.665301
 21
85.311770
 31
0.0
  0
LINE
  5
1b3
100
AcDbEntity
  8
Calque_1
 62
7
100
AcDbLine
 10
68.665301
 20
85.311770
 30
0.0
 11
64.665301
 21
85.311770
 31
0.0
  0
LINE
  5
1b4
100
AcDbEntity
  8
Calque_1
 62
7
100
AcDbLine
 10
64.665301
 20
85.311770
 30
0.0
 11
64.665301
 21
77.311770
 31
0.0
  0
LINE
  5
1b5
100
AcDbEntity
  8
Calque_1
 62
7
100
AcDbLine
 10
64.665301
 20
77.311770
 30
0.0
 11
89.665301
 21
73.311770
 31
0.0
  0
LINE
  5
1b6
100
AcDbEntity
  8
Calque_1
 62
7
100
AcDbLine
 10
89.665301
 20
73.311770
 30
0.0
 11
89.665301
 21
85.311770
 31
0.0
  0
LINE
  5
1b7
100
AcDbEntity
  8
Calque_1
 62
7
100
AcDbLine
 10
89.665301
 20
85.311770
 30
0.0
 11
85.665301
 21
85.311770
 31
0.0
  0
LINE
  5
1b8
100
AcDbEntity
  8
Calque_1
 62
7
100
AcDbLine
 10
118.128570
 20
85.431680
 30
0.0
 11
118.128570
 21
73.431680
 31
0.0
  0
LINE
  5
1b9
100
AcDbEntity
  8
Calque_1
 62
7
100
AcDbLine
 10
118.128570
 20
73.431680
 30
0.0
 11
93.128570
 21
77.431680
 31
0.0
  0
LINE
  5
1ba
100
AcDbEntity
  8
Calque_1
 62
7
100
AcDbLine
 10
93.128570
 20
77.431680
 30
0.0
 11
93.128570
 21
85.431680
 31
0.0
  0
LINE
  5
1bb
100
AcDbEntity
  8
Calque_1
 62
7
100
AcDbLine
 10
93.128570
 20
85.431680
 30
0.0
 11
118.128570
 21
85.431680
 31
0.0
  0
LINE
  5
1bc
100
AcDbEntity
  8
Calque_1
 62
7
100
AcDbLine
 10
114.128570
 20
82.231680
 30
0.0
 11
97.128570
 21
82.231680
 31
0.0
  0
LINE
  5
1bd
100
AcDbEntity
  8
Calque_1
 62
7
100
AcDbLine
 10
97.128570
 20
82.231680
 30
0.0
 11
97.128570
 21
79.231680
 31
0.0
  0
LINE
  5
1be
100
AcDbEntity
  8
Calque_1
 62
7
100
AcDbLine
 10
97.128570
 20
79.231680
 30
0.0
 11
114.128570
 21
79.231680
 31
0.0
  0
LINE
  5
1bf
100
AcDbEntity
  8
Calque_1
 62
7
100
AcDbLine
 10
114.128570
 20
79.231680
 30
0.0
 11
114.128570
 21
82.231680
 31
0.0
  0
ENDSEC
  0
SECTION
  2
OBJECTS
  0
DICTIONARY
  5
C
330
0
100
AcDbDictionary
  3
ACAD_GROUP
350
D
  3
ACAD_MLINESTYLE
350
17
  0
DICTIONARY
  5
D
330
C
100
AcDbDictionary
  0
DICTIONARY
  5
1A
330
C
100
AcDbDictionary
  0
DICTIONARY
  5
17
330
C
100
AcDbDictionary
  3
STANDARD
350
18
  0
DICTIONARY
  5
19
330
C
100
AcDbDictionary
  0
ENDSEC
  0
EOF
