<?xml version="1.0"?>
<!DOCTYPE svg PUBLIC "-//W3C//DTD SVG 1.1//EN" "http://www.w3.org/Graphics/SVG/1.1/DTD/svg11.dtd">
<svg width="285.6mm" height="120.6mm" viewBox="0 0 285.6 120.6" xmlns="http://www.w3.org/2000/svg" version="1.1">
<g id="Sketch002" transform="translate(2.800000,60.300000) scale(1,-1)">
<path id="Sketch002_w0000"  d="M 10.0 -0.5 L 51.5 -0.5 L 51.5 40.5 L 10.0 40.5 L 10.0 -0.5 " stroke="#000000" stroke-width="0.35 px" style="stroke-width:0.35;stroke-miterlimit:4;stroke-dasharray:none;fill:none;fill-opacity:1;fill-rule: evenodd"/>
<path id="Sketch002_w0001"  d="M 10.0 -20.0 L 51.5 -20.0 L 51.5 -40.442748737894 L 10.0 -40.442748737894 L 10.0 -20.0 " stroke="#000000" stroke-width="0.35 px" style="stroke-width:0.35;stroke-miterlimit:4;stroke-dasharray:none;fill:none;fill-opacity:1;fill-rule: evenodd"/>
<path id="Sketch002_w0002"  d="M 162.165726234689 42.354714989466 L 158.811661000001 22.188996 L 199.74927407703 15.380043396598 L 203.103339311718 35.545762386064 L 162.165726234689 42.354714989466 " stroke="#000000" stroke-width="0.35 px" style="stroke-width:0.35;stroke-miterlimit:4;stroke-dasharray:none;fill:none;fill-opacity:1;fill-rule: evenodd"/>
<path id="Sketch002_w0003"  d="M 122.270225 -26.0 L 143.270225 -26.0 L 143.270225 26.0 L 122.270225 26.0 L 122.270225 -26.0 " stroke="#000000" stroke-width="0.35 px" style="stroke-width:0.35;stroke-miterlimit:4;stroke-dasharray:none;fill:none;fill-opacity:1;fill-rule: evenodd"/>
<path id="Sketch002_w0004"  d="M 177.0 5.948476232230814 L 177.0 -24.051523767769186 L 270.0 -24.051523767769186 L 270.0 5.948476232230814 L 177.0 5.948476232230814 " stroke="#000000" stroke-width="0.35 px" style="stroke-width:0.35;stroke-miterlimit:4;stroke-dasharray:none;fill:none;fill-opacity:1;fill-rule: evenodd"/>
<path id="Sketch002_w0005"  d="M 75.540325359778 40.5 L 100.540325359778 40.5 L 100.540325359778 30.5 L 75.540325359778 30.5 L 75.540325359778 40.5 " stroke="#000000" stroke-width="0.35 px" style="stroke-width:0.35;stroke-miterlimit:4;stroke-dasharray:none;fill:none;fill-opacity:1;fill-rule: evenodd"/>
<path id="Sketch002_w0006"  d="M 75.540325359778 -30.5 L 100.540325359778 -30.5 L 100.540325359778 -40.5 L 75.540325359778 -40.5 L 75.540325359778 -30.5 " stroke="#000000" stroke-width="0.35 px" style="stroke-width:0.35;stroke-miterlimit:4;stroke-dasharray:none;fill:none;fill-opacity:1;fill-rule: evenodd"/>
<path id="Sketch002_w0007"  d="M 280.0 -29.5 L 280.0 29.5 C 260.0 33.5 250.0 35.75 241.66666666666669 37.29166666666667 C 233.33333333333334 38.833333333333336 226.66666666666669 39.66666666666667 220.0 40.75 C 213.33333333333331 41.833333333333336 206.66666666666666 43.16666666666667 200.0 44.333333333333336 C 193.33333333333331 45.5 186.66666666666666 46.5 180.0 47.5 C 173.33333333333334 48.5 166.66666666666669 49.5 156.66666666666669 50.583333333333336 C 146.66666666666666 51.66666666666667 133.33333333333331 52.833333333333336 120.0 53.75 C 106.66666666666667 54.66666666666667 93.33333333333334 55.333333333333336 76.66666666666667 55.91666666666667 C 60.0 56.5 40.0 57.0 0.0 57.5 L 0.0 -57.5 C 40.0 -57.0 60.0 -56.5 76.66666666666667 -55.916666666666664 C 93.33333333333334 -55.33333333333333 106.66666666666667 -54.666666666666664 120.0 -53.75 C 133.33333333333334 -52.833333333333336 146.66666666666669 -51.66666666666667 156.66666666666669 -50.583333333333336 C 166.66666666666666 -49.5 173.33333333333331 -48.5 180.0 -47.5 C 186.66666666666669 -46.5 193.33333333333334 -45.5 200.0 -44.33333333333333 C 206.66666666666666 -43.166666666666664 213.33333333333331 -41.83333333333333 220.0 -40.75 C 226.66666666666669 -39.66666666666667 233.33333333333334 -38.833333333333336 241.66666666666669 -37.29166666666667 C 250.0 -35.75 260.0 -33.5 280.0 -29.5 " stroke="#000000" stroke-width="0.35 px" style="stroke-width:0.35;stroke-miterlimit:4;stroke-dasharray:none;fill:none;fill-opacity:1;fill-rule: evenodd"/>
<path id="Sketch002_w0008"  d="M 157.0536528155425 0.0 L 167.0536528155425 0.0 L 167.0536528155425 -15.0 L 157.0536528155425 -15.0 L 157.0536528155425 0.0 " stroke="#000000" stroke-width="0.35 px" style="stroke-width:0.35;stroke-miterlimit:4;stroke-dasharray:none;fill:none;fill-opacity:1;fill-rule: evenodd"/>
<title>b'Sketch002'</title>
</g>
</svg>