<?xml version="1.0"?>
<!DOCTYPE svg PUBLIC "-//W3C//DTD SVG 1.1//EN" "http://www.w3.org/Graphics/SVG/1.1/DTD/svg11.dtd">
<svg width="285.6mm" height="120.6mm" viewBox="0 0 285.6 120.6" xmlns="http://www.w3.org/2000/svg" version="1.1">
<g id="Sketch002" transform="translate(2.800000,60.300000) scale(1,-1)">
<path id="Sketch002_w0000"  d="M 10.0 -0.5 L 51.5 -0.5 L 51.5 40.5 L 10.0 40.5 L 10.0 -0.5 " stroke="#000000" stroke-width="0.35 px" style="stroke-width:0.35;stroke-miterlimit:4;stroke-dasharray:none;fill:none;fill-rule: evenodd "/>
<path id="Sketch002_w0001"  d="M 10.0 -20.0 L 51.5 -20.0 L 51.5 -40.4427487379 L 10.0 -40.4427487379 L 10.0 -20.0 " stroke="#000000" stroke-width="0.35 px" style="stroke-width:0.35;stroke-miterlimit:4;stroke-dasharray:none;fill:none;fill-rule: evenodd "/>
<path id="Sketch002_w0002"  d="M 162.165726235 42.3547149895 L 158.811661 22.188996 L 199.749274077 15.3800433966 L 203.103339312 35.5457623861 L 162.165726235 42.3547149895 " stroke="#000000" stroke-width="0.35 px" style="stroke-width:0.35;stroke-miterlimit:4;stroke-dasharray:none;fill:none;fill-rule: evenodd "/>
<path id="Sketch002_w0003"  d="M 122.270225 -26.0 L 143.270225 -26.0 L 143.270225 26.0 L 122.270225 26.0 L 122.270225 -26.0 " stroke="#000000" stroke-width="0.35 px" style="stroke-width:0.35;stroke-miterlimit:4;stroke-dasharray:none;fill:none;fill-rule: evenodd "/>
<path id="Sketch002_w0004"  d="M 178.0 5.94847487197 L 178.0 -24.051525128 L 270.0 -24.051525128 L 270.0 5.94847487197 L 178.0 5.94847487197 " stroke="#000000" stroke-width="0.35 px" style="stroke-width:0.35;stroke-miterlimit:4;stroke-dasharray:none;fill:none;fill-rule: evenodd "/>
<path id="Sketch002_w0005"  d="M 75.5403253598 40.5 L 100.54032536 40.5 L 100.54032536 30.5 L 75.5403253598 30.5 L 75.5403253598 40.5 " stroke="#000000" stroke-width="0.35 px" style="stroke-width:0.35;stroke-miterlimit:4;stroke-dasharray:none;fill:none;fill-rule: evenodd "/>
<path id="Sketch002_w0006"  d="M 75.5403253598 -30.5 L 100.54032536 -30.5 L 100.54032536 -40.5 L 75.5403253598 -40.5 L 75.5403253598 -30.5 " stroke="#000000" stroke-width="0.35 px" style="stroke-width:0.35;stroke-miterlimit:4;stroke-dasharray:none;fill:none;fill-rule: evenodd "/>
<path id="Sketch002_w0007"  d="M 280.0 -29.5 L 280.0 29.5 C 260.0 33.5 250.0 35.75 241.666666667 37.2916666667 C 233.333333333 38.8333333333 226.666666667 39.6666666667 220.0 40.75 C 213.333333333 41.8333333333 206.666666667 43.1666666667 200.0 44.3333333333 C 193.333333333 45.5 186.666666667 46.5 180.0 47.5 C 173.333333333 48.5 166.666666667 49.5 156.666666667 50.5833333333 C 146.666666667 51.6666666667 133.333333333 52.8333333333 120.0 53.75 C 106.666666667 54.6666666667 93.3333333333 55.3333333333 76.6666666667 55.9166666667 C 60.0 56.5 40.0 57.0 0.0 57.5 L 0.0 -57.5 C 40.0 -57.0 60.0 -56.5 76.6666666667 -55.9166666667 C 93.3333333333 -55.3333333333 106.666666667 -54.6666666667 120.0 -53.75 C 133.333333333 -52.8333333333 146.666666667 -51.6666666667 156.666666667 -50.5833333333 C 166.666666667 -49.5 173.333333333 -48.5 180.0 -47.5 C 186.666666667 -46.5 193.333333333 -45.5 200.0 -44.3333333333 C 206.666666667 -43.1666666667 213.333333333 -41.8333333333 220.0 -40.75 C 226.666666667 -39.6666666667 233.333333333 -38.8333333333 241.666666667 -37.2916666667 C 250.0 -35.75 260.0 -33.5 280.0 -29.5 " stroke="#000000" stroke-width="0.35 px" style="stroke-width:0.35;stroke-miterlimit:4;stroke-dasharray:none;fill:none;fill-rule: evenodd "/>
<title>Sketch002</title>
</g>
</svg>