<?xml version="1.0" encoding="UTF-8" standalone="no"?>
<!-- Created with Inkscape (http://www.inkscape.org/) -->

<svg
   xmlns:dc="http://purl.org/dc/elements/1.1/"
   xmlns:cc="http://creativecommons.org/ns#"
   xmlns:rdf="http://www.w3.org/1999/02/22-rdf-syntax-ns#"
   xmlns:svg="http://www.w3.org/2000/svg"
   xmlns="http://www.w3.org/2000/svg"
   xmlns:sodipodi="http://sodipodi.sourceforge.net/DTD/sodipodi-0.dtd"
   xmlns:inkscape="http://www.inkscape.org/namespaces/inkscape"
   width="210mm"
   height="297mm"
   viewBox="0 0 210 297"
   version="1.1"
   id="svg8"
   inkscape:version="0.92.2 (5c3e80d, 2017-08-06)"
   sodipodi:docname="FreinCommande.svg">
  <defs
     id="defs2" />
  <sodipodi:namedview
     id="base"
     pagecolor="#ffffff"
     bordercolor="#666666"
     borderopacity="1.0"
     inkscape:pageopacity="0.0"
     inkscape:pageshadow="2"
     inkscape:zoom="0.98994949"
     inkscape:cx="9.4345761"
     inkscape:cy="348.55798"
     inkscape:document-units="mm"
     inkscape:current-layer="layer1"
     showgrid="false"
     inkscape:window-width="1920"
     inkscape:window-height="1017"
     inkscape:window-x="-8"
     inkscape:window-y="-8"
     inkscape:window-maximized="1" />
  <metadata
     id="metadata5">
    <rdf:RDF>
      <cc:Work
         rdf:about="">
        <dc:format>image/svg+xml</dc:format>
        <dc:type
           rdf:resource="http://purl.org/dc/dcmitype/StillImage" />
        <dc:title></dc:title>
      </cc:Work>
    </rdf:RDF>
  </metadata>
  <g
     inkscape:label="Calque 1"
     inkscape:groupmode="layer"
     id="layer1">
    <circle
       cx="41.475239"
       cy="-285.0675"
       r="2"
       style="fill:none;stroke:#000000;stroke-width:0.34999999;stroke-miterlimit:4;stroke-dasharray:none"
       id="circle831"
       transform="scale(1,-1)" />
    <circle
       cx="41.475239"
       cy="-220.0675"
       r="0.5"
       style="fill:none;stroke:#000000;stroke-width:0.34999999;stroke-miterlimit:4;stroke-dasharray:none"
       id="circle833"
       transform="scale(1,-1)" />
    <path
       inkscape:connector-curvature="0"
       id="Sketch_w0002"
       d="m 31.181119,281.24397 a 25,25 0 0 0 -8.965182,-15.59887 2,2 0 0 1 -0.7407,-1.5538 v -7.0238 a 2,2 0 0 1 2,-2 h 10 a 5,5 0 0 0 5,-5 v -30 a 3,3 0 0 1 5.99858,-0.0923 l 1.999053,64.93845 a 5,5 0 0 1 -4.997633,5.15385 10.4167,10.4167 0 0 1 -10.2941,-8.82353"
       style="fill:none;fill-rule:evenodd;stroke:#000000;stroke-width:0.34999999;stroke-miterlimit:4;stroke-dasharray:none" />
    <circle
       cx="-13.475398"
       cy="216.41679"
       r="2"
       style="fill:none;stroke:#000000;stroke-width:0.34999999;stroke-miterlimit:4;stroke-dasharray:none"
       id="circle831-6"
       transform="scale(-1,1)" />
    <circle
       cx="-13.475398"
       cy="281.41681"
       r="0.5"
       style="fill:none;stroke:#000000;stroke-width:0.34999999;stroke-miterlimit:4;stroke-dasharray:none"
       id="circle833-7"
       transform="scale(-1,1)" />
    <path
       inkscape:connector-curvature="0"
       id="Sketch_w0002-1"
       d="m 23.769516,220.24033 a 25,25 0 0 0 8.965182,15.59887 2,2 0 0 1 0.7407,1.5538 v 7.0238 a 2,2 0 0 1 -2,2 h -10 a 5,5 0 0 0 -5,5 v 30 a 3,3 0 0 1 -5.99858,0.0923 L 8.4777654,216.57065 a 5,5 0 0 1 4.9976326,-5.15385 10.4167,10.4167 0 0 1 10.2941,8.82353"
       style="fill:none;fill-rule:evenodd;stroke:#000000;stroke-width:0.34999999;stroke-miterlimit:4;stroke-dasharray:none" />
  </g>
</svg>
