<?xml version="1.0"?>
<!DOCTYPE svg PUBLIC "-//W3C//DTD SVG 1.1//EN" "http://www.w3.org/Graphics/SVG/1.1/DTD/svg11.dtd">
<svg width="25.497563014mm" height="63.5828780493mm" viewBox="0 0 25.497563014 63.5828780493" xmlns="http://www.w3.org/2000/svg" version="1.1">
<g id="Sketch001" transform="translate(20.249976,58.332902) scale(1,-1)">
<circle cx="0.0" cy="0.0" r="2.0" stroke="#000000" stroke-width="0.35 px" style="stroke-width:0.35;stroke-miterlimit:4;stroke-dasharray:none;fill:none"/>
<path id="Sketch001_w0001"  d="M -10.2941176471 3.82352941176 A 10.4167 10.4167 0 0 1 -1.91351e-015 -5A 5 5 0 0 1 4.99761 0.154552L 3.29849480275 55.0973677414 A 3.15 3.15 0 0 1 -3 55L -3.0 35.0 A 5 5 0 0 0 -8 30L -18.0 30.0 A 2 2 0 0 1 -20 28L -20.0 20.9761769634 A 2 2 0 0 1 -19.2593 19.4224A 25 25 0 0 0 -10.2941 3.82353" stroke="#000000" stroke-width="0.35 px" style="stroke-width:0.35;stroke-miterlimit:4;stroke-dasharray:none;fill:none;fill-rule: evenodd "/>
<title>Sketch001</title>
</g>
</svg>