  0
SECTION
  2
HEADER
  9
$ACADVER
  1
AC1014
  9
$HANDSEED
  5
FFFF
  9
$MEASUREMENT
 70
     1
  0
ENDSEC
  0
SECTION
  2
TABLES
  0
TABLE
  2
VPORT
  5
8
330
0
100
AcDbSymbolTable
 70
     4
  0
VPORT
  5
2E
330
8
100
AcDbSymbolTableRecord
100
AcDbViewportTableRecord
  2
*ACTIVE
 70
     0
 10
0.0
 20
0.0
 11
1.0
 21
1.0
 12
210.0
 22
148.5
 13
0.0
 23
0.0
 14
10.0
 24
10.0
 15
10.0
 25
10.0
 16
0.0
 26
0.0
 36
1.0
 17
0.0
 27
0.0
 37
0.0
 40
341.0
 41
1.24
 42
50.0
 43
0.0
 44
0.0
 50
0.0
 51
0.0
 71
     0
 72
   100
 73
     1
 74
     3
 75
     0
 76
     0
 77
     0
 78
     0
  0
ENDTAB
  0
TABLE
  2
LTYPE
  5
5
330
0
100
AcDbSymbolTable
 70
     1
  0
LTYPE
  5
14
330
5
100
AcDbSymbolTableRecord
100
AcDbLinetypeTableRecord
  2
BYBLOCK
 70
     0
  3

 72
    65
 73
     0
 40
0.0
  0
LTYPE
  5
15
330
5
100
AcDbSymbolTableRecord
100
AcDbLinetypeTableRecord
  2
BYLAYER
 70
     0
  3

 72
    65
 73
     0
 40
0.0
  0
LTYPE
  5
16
330
5
100
AcDbSymbolTableRecord
100
AcDbLinetypeTableRecord
  2
CONTINUOUS
 70
     0
  3
Solid line
 72
    65
 73
     0
 40
0.0
  0
ENDTAB
  0
TABLE
  2
LAYER
  5
2
100
AcDbSymbolTable
 70
2
  0
LAYER
  5
50
100
AcDbSymbolTableRecord
100
AcDbLayerTableRecord
  2
0
 70
0
  6
CONTINUOUS
  0
LAYER
  5
51
100
AcDbSymbolTableRecord
100
AcDbLayerTableRecord
  2
Calque_1
 70
0
  6
CONTINUOUS
  0
ENDTAB
  0
TABLE
  2
STYLE
  5
3
330
0
100
AcDbSymbolTable
 70
     1
  0
STYLE
  5
11
330
3
100
AcDbSymbolTableRecord
100
AcDbTextStyleTableRecord
  2
STANDARD
 70
     0
 40
0.0
 41
1.0
 50
0.0
 71
     0
 42
2.5
  3
txt
  4

  0
ENDTAB
  0
TABLE
  2
VIEW
  5
6
330
0
100
AcDbSymbolTable
 70
     0
  0
ENDTAB
  0
TABLE
  2
UCS
  5
7
330
0
100
AcDbSymbolTable
 70
     0
  0
ENDTAB
  0
TABLE
  2
APPID
  5
9
330
0
100
AcDbSymbolTable
 70
     2
  0
APPID
  5
12
330
9
100
AcDbSymbolTableRecord
100
AcDbRegAppTableRecord
  2
ACAD
 70
     0
  0
ENDTAB
  0
TABLE
  2
DIMSTYLE
  5
A
330
0
100
AcDbSymbolTable
 70
     1
  0
DIMSTYLE
105
27
330
A
100
AcDbSymbolTableRecord
100
AcDbDimStyleTableRecord
  2
ISO-25
 70
     0
  3

  4

  5

  6

  7

 40
1.0
 41
2.5
 42
0.625
 43
3.75
 44
1.25
 45
0.0
 46
0.0
 47
0.0
 48
0.0
140
2.5
141
2.5
142
0.0
143
0.03937007874016
144
1.0
145
0.0
146
1.0
147
0.625
 71
     0
 72
     0
 73
     0
 74
     0
 75
     0
 76
     0
 77
     1
 78
     8
170
     0
171
     3
172
     1
173
     0
174
     0
175
     0
176
     0
177
     0
178
     0
270
     2
271
     2
272
     2
273
     2
274
     3
340
11
275
     0
280
     0
281
     0
282
     0
283
     0
284
     8
285
     0
286
     0
287
     3
288
     0
  0
ENDTAB
  0
TABLE
  2
BLOCK_RECORD
  5
1
330
0
100
AcDbSymbolTable
 70
     1
  0
BLOCK_RECORD
  5
1F
330
1
100
AcDbSymbolTableRecord
100
AcDbBlockTableRecord
  2
*MODEL_SPACE
  0
BLOCK_RECORD
  5
1B
330
1
100
AcDbSymbolTableRecord
100
AcDbBlockTableRecord
  2
*PAPER_SPACE
  0
ENDTAB
  0
ENDSEC
  0
SECTION
  2
BLOCKS
  0
BLOCK
  5
20
330
1F
100
AcDbEntity
  8
0
100
AcDbBlockBegin
  2
*MODEL_SPACE
 70
     0
 10
0.0
 20
0.0
 30
0.0
  3
*MODEL_SPACE
  1

  0
ENDBLK
  5
21
330
1F
100
AcDbEntity
  8
0
100
AcDbBlockEnd
  0
BLOCK
  5
1C
330
1B
100
AcDbEntity
 67
     1
  8
0
100
AcDbBlockBegin
  2
*PAPER_SPACE
  1

  0
ENDBLK
  5
1D
330
1B
100
AcDbEntity
 67
     1
  8
0
100
AcDbBlockEnd
  0
ENDSEC
  0
SECTION
  2
ENTITIES
  0
SPLINE
  5
100
100
AcDbEntity
  8
Calque_1
 62
7
100
AcDbSpline
 70
8
 71
3
 72
8
 73
4
 74
0
 40
0
 40
0
 40
0
 40
0
 40
1
 40
1
 40
1
 40
1
 10
40.770512
 20
9.907260
 30
0.0
 10
40.770512
 20
10.621791
 30
0.0
 10
40.389314
 20
11.282045
 30
0.0
 10
39.770512
 20
11.639311
 30
0.0
  0
SPLINE
  5
101
100
AcDbEntity
  8
Calque_1
 62
7
100
AcDbSpline
 70
8
 71
3
 72
8
 73
4
 74
0
 40
0
 40
0
 40
0
 40
0
 40
1
 40
1
 40
1
 40
1
 10
39.770512
 20
11.639311
 30
0.0
 10
39.151710
 20
11.996576
 30
0.0
 10
38.389314
 20
11.996576
 30
0.0
 10
37.770512
 20
11.639311
 30
0.0
  0
SPLINE
  5
102
100
AcDbEntity
  8
Calque_1
 62
7
100
AcDbSpline
 70
8
 71
3
 72
8
 73
4
 74
0
 40
0
 40
0
 40
0
 40
0
 40
1
 40
1
 40
1
 40
1
 10
37.770512
 20
11.639311
 30
0.0
 10
37.151710
 20
11.282045
 30
0.0
 10
36.770512
 20
10.621791
 30
0.0
 10
36.770512
 20
9.907260
 30
0.0
  0
SPLINE
  5
103
100
AcDbEntity
  8
Calque_1
 62
7
100
AcDbSpline
 70
8
 71
3
 72
8
 73
4
 74
0
 40
0
 40
0
 40
0
 40
0
 40
1
 40
1
 40
1
 40
1
 10
36.770512
 20
9.907260
 30
0.0
 10
36.770512
 20
9.192729
 30
0.0
 10
37.151710
 20
8.532475
 30
0.0
 10
37.770512
 20
8.175209
 30
0.0
  0
SPLINE
  5
104
100
AcDbEntity
  8
Calque_1
 62
7
100
AcDbSpline
 70
8
 71
3
 72
8
 73
4
 74
0
 40
0
 40
0
 40
0
 40
0
 40
1
 40
1
 40
1
 40
1
 10
37.770512
 20
8.175209
 30
0.0
 10
38.389314
 20
7.817944
 30
0.0
 10
39.151710
 20
7.817944
 30
0.0
 10
39.770512
 20
8.175209
 30
0.0
  0
SPLINE
  5
105
100
AcDbEntity
  8
Calque_1
 62
7
100
AcDbSpline
 70
8
 71
3
 72
8
 73
4
 74
0
 40
0
 40
0
 40
0
 40
0
 40
1
 40
1
 40
1
 40
1
 10
39.770512
 20
8.175209
 30
0.0
 10
40.389314
 20
8.532475
 30
0.0
 10
40.770512
 20
9.192729
 30
0.0
 10
40.770512
 20
9.907260
 30
0.0
  0
LINE
  5
106
100
AcDbEntity
  8
Calque_1
 62
7
100
AcDbLine
 10
40.770512
 20
9.907260
 30
0.0
 11
40.770512
 21
9.907260
 31
0.0
  0
SPLINE
  5
107
100
AcDbEntity
  8
Calque_1
 62
7
100
AcDbSpline
 70
8
 71
3
 72
8
 73
4
 74
0
 40
0
 40
0
 40
0
 40
0
 40
1
 40
1
 40
1
 40
1
 10
28.476395
 20
13.730800
 30
0.0
 10
29.262194
 20
8.653418
 30
0.0
 10
33.632683
 20
4.907284
 30
0.0
 10
38.770513
 20
4.907270
 30
0.0
  0
SPLINE
  5
108
100
AcDbEntity
  8
Calque_1
 62
7
100
AcDbSpline
 70
8
 71
3
 72
8
 73
4
 74
0
 40
0
 40
0
 40
0
 40
0
 40
1
 40
1
 40
1
 40
1
 10
38.770513
 20
4.907270
 30
0.0
 10
40.123398
 20
4.907270
 30
0.0
 10
41.418539
 20
5.455501
 30
0.0
 10
42.360272
 20
6.426807
 30
0.0
  0
SPLINE
  5
109
100
AcDbEntity
  8
Calque_1
 62
7
100
AcDbSpline
 70
8
 71
3
 72
8
 73
4
 74
0
 40
0
 40
0
 40
0
 40
0
 40
1
 40
1
 40
1
 40
1
 10
42.360272
 20
6.426807
 30
0.0
 10
43.302005
 20
7.398113
 30
0.0
 10
43.809941
 20
8.709582
 30
0.0
 10
43.768123
 20
10.061820
 30
0.0
  0
SPLINE
  5
10a
100
AcDbEntity
  8
Calque_1
 62
7
100
AcDbSpline
 70
8
 71
3
 72
8
 73
4
 74
0
 40
0
 40
0
 40
0
 40
0
 40
1
 40
1
 40
1
 40
1
 10
43.768123
 20
10.061820
 30
0.0
 10
43.768123
 20
10.061820
 30
0.0
 10
42.069008
 20
65.004640
 30
0.0
 10
42.069008
 20
65.004640
 30
0.0
  0
SPLINE
  5
10b
100
AcDbEntity
  8
Calque_1
 62
7
100
AcDbSpline
 70
8
 71
3
 72
8
 73
4
 74
0
 40
0
 40
0
 40
0
 40
0
 40
1
 40
1
 40
1
 40
1
 10
42.069008
 20
65.004640
 30
0.0
 10
42.015823
 20
66.724539
 30
0.0
 10
40.592322
 20
68.083508
 30
0.0
 10
38.871807
 20
68.056902
 30
0.0
  0
SPLINE
  5
10c
100
AcDbEntity
  8
Calque_1
 62
7
100
AcDbSpline
 70
8
 71
3
 72
8
 73
4
 74
0
 40
0
 40
0
 40
0
 40
0
 40
1
 40
1
 40
1
 40
1
 10
38.871807
 20
68.056902
 30
0.0
 10
37.151292
 20
68.030296
 30
0.0
 10
35.770492
 20
66.627961
 30
0.0
 10
35.770513
 20
64.907240
 30
0.0
  0
SPLINE
  5
10d
100
AcDbEntity
  8
Calque_1
 62
7
100
AcDbSpline
 70
8
 71
3
 72
8
 73
4
 74
0
 40
0
 40
0
 40
0
 40
0
 40
1
 40
1
 40
1
 40
1
 10
35.770513
 20
64.907240
 30
0.0
 10
35.770513
 20
64.907240
 30
0.0
 10
35.770513
 20
44.907240
 30
0.0
 10
35.770513
 20
44.907240
 30
0.0
  0
SPLINE
  5
10e
100
AcDbEntity
  8
Calque_1
 62
7
100
AcDbSpline
 70
8
 71
3
 72
8
 73
4
 74
0
 40
0
 40
0
 40
0
 40
0
 40
1
 40
1
 40
1
 40
1
 10
35.770513
 20
44.907240
 30
0.0
 10
35.770513
 20
43.581158
 30
0.0
 10
35.243729
 20
42.309388
 30
0.0
 10
34.306047
 20
41.371706
 30
0.0
  0
SPLINE
  5
10f
100
AcDbEntity
  8
Calque_1
 62
7
100
AcDbSpline
 70
8
 71
3
 72
8
 73
4
 74
0
 40
0
 40
0
 40
0
 40
0
 40
1
 40
1
 40
1
 40
1
 10
34.306047
 20
41.371706
 30
0.0
 10
33.368365
 20
40.434024
 30
0.0
 10
32.096595
 20
39.907240
 30
0.0
 10
30.770513
 20
39.907240
 30
0.0
  0
LINE
  5
110
100
AcDbEntity
  8
Calque_1
 62
7
100
AcDbLine
 10
30.770513
 20
39.907240
 30
0.0
 11
20.770513
 21
39.907240
 31
0.0
  0
SPLINE
  5
111
100
AcDbEntity
  8
Calque_1
 62
7
100
AcDbSpline
 70
8
 71
3
 72
8
 73
4
 74
0
 40
0
 40
0
 40
0
 40
0
 40
1
 40
1
 40
1
 40
1
 10
20.770513
 20
39.907240
 30
0.0
 10
20.240080
 20
39.907240
 30
0.0
 10
19.731372
 20
39.696526
 30
0.0
 10
19.356299
 20
39.321454
 30
0.0
  0
SPLINE
  5
112
100
AcDbEntity
  8
Calque_1
 62
7
100
AcDbSpline
 70
8
 71
3
 72
8
 73
4
 74
0
 40
0
 40
0
 40
0
 40
0
 40
1
 40
1
 40
1
 40
1
 10
19.356299
 20
39.321454
 30
0.0
 10
18.981227
 20
38.946381
 30
0.0
 10
18.770513
 20
38.437673
 30
0.0
 10
18.770513
 20
37.907240
 30
0.0
  0
SPLINE
  5
113
100
AcDbEntity
  8
Calque_1
 62
7
100
AcDbSpline
 70
8
 71
3
 72
8
 73
4
 74
0
 40
0
 40
0
 40
0
 40
0
 40
1
 40
1
 40
1
 40
1
 10
18.770513
 20
37.907240
 30
0.0
 10
18.770513
 20
37.907240
 30
0.0
 10
18.770513
 20
30.883420
 30
0.0
 10
18.770513
 20
30.883420
 30
0.0
  0
SPLINE
  5
114
100
AcDbEntity
  8
Calque_1
 62
7
100
AcDbSpline
 70
8
 71
3
 72
8
 73
4
 74
0
 40
0
 40
0
 40
0
 40
0
 40
1
 40
1
 40
1
 40
1
 10
18.770513
 20
30.883420
 30
0.0
 10
18.770506
 20
30.280304
 30
0.0
 10
19.042665
 20
29.709392
 30
0.0
 10
19.511213
 20
29.329640
 30
0.0
  0
SPLINE
  5
115
100
AcDbEntity
  8
Calque_1
 62
7
100
AcDbSpline
 70
8
 71
3
 72
8
 73
4
 74
0
 40
0
 40
0
 40
0
 40
0
 40
1
 40
1
 40
1
 40
1
 10
19.511213
 20
29.329640
 30
0.0
 10
24.331889
 20
25.422783
 30
0.0
 10
27.527398
 20
19.862802
 30
0.0
 10
28.476413
 20
13.730770
 30
0.0
  0
SPLINE
  5
116
100
AcDbEntity
  8
Calque_1
 62
7
100
AcDbSpline
 70
8
 71
3
 72
8
 73
4
 74
0
 40
0
 40
0
 40
0
 40
0
 40
1
 40
1
 40
1
 40
1
 10
8.807986
 20
76.554410
 30
0.0
 10
8.807986
 20
75.839879
 30
0.0
 10
9.189184
 20
75.179625
 30
0.0
 10
9.807986
 20
74.822359
 30
0.0
  0
SPLINE
  5
117
100
AcDbEntity
  8
Calque_1
 62
7
100
AcDbSpline
 70
8
 71
3
 72
8
 73
4
 74
0
 40
0
 40
0
 40
0
 40
0
 40
1
 40
1
 40
1
 40
1
 10
9.807986
 20
74.822359
 30
0.0
 10
10.426788
 20
74.465094
 30
0.0
 10
11.189184
 20
74.465094
 30
0.0
 10
11.807986
 20
74.822359
 30
0.0
  0
SPLINE
  5
118
100
AcDbEntity
  8
Calque_1
 62
7
100
AcDbSpline
 70
8
 71
3
 72
8
 73
4
 74
0
 40
0
 40
0
 40
0
 40
0
 40
1
 40
1
 40
1
 40
1
 10
11.807986
 20
74.822359
 30
0.0
 10
12.426788
 20
75.179625
 30
0.0
 10
12.807986
 20
75.839879
 30
0.0
 10
12.807986
 20
76.554410
 30
0.0
  0
SPLINE
  5
119
100
AcDbEntity
  8
Calque_1
 62
7
100
AcDbSpline
 70
8
 71
3
 72
8
 73
4
 74
0
 40
0
 40
0
 40
0
 40
0
 40
1
 40
1
 40
1
 40
1
 10
12.807986
 20
76.554410
 30
0.0
 10
12.807986
 20
77.268941
 30
0.0
 10
12.426788
 20
77.929195
 30
0.0
 10
11.807986
 20
78.286461
 30
0.0
  0
SPLINE
  5
11a
100
AcDbEntity
  8
Calque_1
 62
7
100
AcDbSpline
 70
8
 71
3
 72
8
 73
4
 74
0
 40
0
 40
0
 40
0
 40
0
 40
1
 40
1
 40
1
 40
1
 10
11.807986
 20
78.286461
 30
0.0
 10
11.189184
 20
78.643726
 30
0.0
 10
10.426788
 20
78.643726
 30
0.0
 10
9.807986
 20
78.286461
 30
0.0
  0
SPLINE
  5
11b
100
AcDbEntity
  8
Calque_1
 62
7
100
AcDbSpline
 70
8
 71
3
 72
8
 73
4
 74
0
 40
0
 40
0
 40
0
 40
0
 40
1
 40
1
 40
1
 40
1
 10
9.807986
 20
78.286461
 30
0.0
 10
9.189184
 20
77.929195
 30
0.0
 10
8.807986
 20
77.268941
 30
0.0
 10
8.807986
 20
76.554410
 30
0.0
  0
LINE
  5
11c
100
AcDbEntity
  8
Calque_1
 62
7
100
AcDbLine
 10
8.807986
 20
76.554410
 30
0.0
 11
8.807986
 21
76.554410
 31
0.0
  0
SPLINE
  5
11d
100
AcDbEntity
  8
Calque_1
 62
7
100
AcDbSpline
 70
8
 71
3
 72
8
 73
4
 74
0
 40
0
 40
0
 40
0
 40
0
 40
1
 40
1
 40
1
 40
1
 10
21.102104
 20
72.730890
 30
0.0
 10
20.316305
 20
77.808272
 30
0.0
 10
15.945816
 20
81.554406
 30
0.0
 10
10.807986
 20
81.554420
 30
0.0
  0
SPLINE
  5
11e
100
AcDbEntity
  8
Calque_1
 62
7
100
AcDbSpline
 70
8
 71
3
 72
8
 73
4
 74
0
 40
0
 40
0
 40
0
 40
0
 40
1
 40
1
 40
1
 40
1
 10
10.807986
 20
81.554420
 30
0.0
 10
9.455101
 20
81.554420
 30
0.0
 10
8.159960
 20
81.006189
 30
0.0
 10
7.218227
 20
80.034883
 30
0.0
  0
SPLINE
  5
11f
100
AcDbEntity
  8
Calque_1
 62
7
100
AcDbSpline
 70
8
 71
3
 72
8
 73
4
 74
0
 40
0
 40
0
 40
0
 40
0
 40
1
 40
1
 40
1
 40
1
 10
7.218227
 20
80.034883
 30
0.0
 10
6.276494
 20
79.063577
 30
0.0
 10
5.768558
 20
77.752108
 30
0.0
 10
5.810376
 20
76.399870
 30
0.0
  0
SPLINE
  5
120
100
AcDbEntity
  8
Calque_1
 62
7
100
AcDbSpline
 70
8
 71
3
 72
8
 73
4
 74
0
 40
0
 40
0
 40
0
 40
0
 40
1
 40
1
 40
1
 40
1
 10
5.810376
 20
76.399870
 30
0.0
 10
5.810376
 20
76.399870
 30
0.0
 10
7.509491
 20
21.457050
 30
0.0
 10
7.509491
 20
21.457050
 30
0.0
  0
SPLINE
  5
121
100
AcDbEntity
  8
Calque_1
 62
7
100
AcDbSpline
 70
8
 71
3
 72
8
 73
4
 74
0
 40
0
 40
0
 40
0
 40
0
 40
1
 40
1
 40
1
 40
1
 10
7.509491
 20
21.457050
 30
0.0
 10
7.562678
 20
19.737153
 30
0.0
 10
8.986178
 20
18.378185
 30
0.0
 10
10.706692
 20
18.404791
 30
0.0
  0
SPLINE
  5
122
100
AcDbEntity
  8
Calque_1
 62
7
100
AcDbSpline
 70
8
 71
3
 72
8
 73
4
 74
0
 40
0
 40
0
 40
0
 40
0
 40
1
 40
1
 40
1
 40
1
 10
10.706692
 20
18.404791
 30
0.0
 10
12.427206
 20
18.431397
 30
0.0
 10
13.808005
 20
19.833731
 30
0.0
 10
13.807986
 20
21.554450
 30
0.0
  0
SPLINE
  5
123
100
AcDbEntity
  8
Calque_1
 62
7
100
AcDbSpline
 70
8
 71
3
 72
8
 73
4
 74
0
 40
0
 40
0
 40
0
 40
0
 40
1
 40
1
 40
1
 40
1
 10
13.807986
 20
21.554450
 30
0.0
 10
13.807986
 20
21.554450
 30
0.0
 10
13.807986
 20
41.554450
 30
0.0
 10
13.807986
 20
41.554450
 30
0.0
  0
SPLINE
  5
124
100
AcDbEntity
  8
Calque_1
 62
7
100
AcDbSpline
 70
8
 71
3
 72
8
 73
4
 74
0
 40
0
 40
0
 40
0
 40
0
 40
1
 40
1
 40
1
 40
1
 10
13.807986
 20
41.554450
 30
0.0
 10
13.807986
 20
42.880532
 30
0.0
 10
14.334770
 20
44.152302
 30
0.0
 10
15.272452
 20
45.089984
 30
0.0
  0
SPLINE
  5
125
100
AcDbEntity
  8
Calque_1
 62
7
100
AcDbSpline
 70
8
 71
3
 72
8
 73
4
 74
0
 40
0
 40
0
 40
0
 40
0
 40
1
 40
1
 40
1
 40
1
 10
15.272452
 20
45.089984
 30
0.0
 10
16.210134
 20
46.027666
 30
0.0
 10
17.481904
 20
46.554450
 30
0.0
 10
18.807986
 20
46.554450
 30
0.0
  0
LINE
  5
126
100
AcDbEntity
  8
Calque_1
 62
7
100
AcDbLine
 10
18.807986
 20
46.554450
 30
0.0
 11
28.807986
 21
46.554450
 31
0.0
  0
SPLINE
  5
127
100
AcDbEntity
  8
Calque_1
 62
7
100
AcDbSpline
 70
8
 71
3
 72
8
 73
4
 74
0
 40
0
 40
0
 40
0
 40
0
 40
1
 40
1
 40
1
 40
1
 10
28.807986
 20
46.554450
 30
0.0
 10
29.338419
 20
46.554450
 30
0.0
 10
29.847127
 20
46.765164
 30
0.0
 10
30.222200
 20
47.140236
 30
0.0
  0
SPLINE
  5
128
100
AcDbEntity
  8
Calque_1
 62
7
100
AcDbSpline
 70
8
 71
3
 72
8
 73
4
 74
0
 40
0
 40
0
 40
0
 40
0
 40
1
 40
1
 40
1
 40
1
 10
30.222200
 20
47.140236
 30
0.0
 10
30.597272
 20
47.515309
 30
0.0
 10
30.807986
 20
48.024017
 30
0.0
 10
30.807986
 20
48.554450
 30
0.0
  0
SPLINE
  5
129
100
AcDbEntity
  8
Calque_1
 62
7
100
AcDbSpline
 70
8
 71
3
 72
8
 73
4
 74
0
 40
0
 40
0
 40
0
 40
0
 40
1
 40
1
 40
1
 40
1
 10
30.807986
 20
48.554450
 30
0.0
 10
30.807986
 20
48.554450
 30
0.0
 10
30.807986
 20
55.578270
 30
0.0
 10
30.807986
 20
55.578270
 30
0.0
  0
SPLINE
  5
12a
100
AcDbEntity
  8
Calque_1
 62
7
100
AcDbSpline
 70
8
 71
3
 72
8
 73
4
 74
0
 40
0
 40
0
 40
0
 40
0
 40
1
 40
1
 40
1
 40
1
 10
30.807986
 20
55.578270
 30
0.0
 10
30.807993
 20
56.181386
 30
0.0
 10
30.535834
 20
56.752298
 30
0.0
 10
30.067286
 20
57.132050
 30
0.0
  0
SPLINE
  5
12b
100
AcDbEntity
  8
Calque_1
 62
7
100
AcDbSpline
 70
8
 71
3
 72
8
 73
4
 74
0
 40
0
 40
0
 40
0
 40
0
 40
1
 40
1
 40
1
 40
1
 10
30.067286
 20
57.132050
 30
0.0
 10
25.246610
 20
61.038907
 30
0.0
 10
22.051101
 20
66.598888
 30
0.0
 10
21.102086
 20
72.730920
 30
0.0
  0
ENDSEC
  0
SECTION
  2
OBJECTS
  0
DICTIONARY
  5
C
330
0
100
AcDbDictionary
  3
ACAD_GROUP
350
D
  3
ACAD_MLINESTYLE
350
17
  0
DICTIONARY
  5
D
330
C
100
AcDbDictionary
  0
DICTIONARY
  5
1A
330
C
100
AcDbDictionary
  0
DICTIONARY
  5
17
330
C
100
AcDbDictionary
  3
STANDARD
350
18
  0
DICTIONARY
  5
19
330
C
100
AcDbDictionary
  0
ENDSEC
  0
EOF
