  0
SECTION
  2
HEADER
  9
$ACADVER
  1
AC1014
  9
$HANDSEED
  5
FFFF
  9
$MEASUREMENT
 70
     1
  0
ENDSEC
  0
SECTION
  2
TABLES
  0
TABLE
  2
VPORT
  5
8
330
0
100
AcDbSymbolTable
 70
     4
  0
VPORT
  5
2E
330
8
100
AcDbSymbolTableRecord
100
AcDbViewportTableRecord
  2
*ACTIVE
 70
     0
 10
0.0
 20
0.0
 11
1.0
 21
1.0
 12
210.0
 22
148.5
 13
0.0
 23
0.0
 14
10.0
 24
10.0
 15
10.0
 25
10.0
 16
0.0
 26
0.0
 36
1.0
 17
0.0
 27
0.0
 37
0.0
 40
341.0
 41
1.24
 42
50.0
 43
0.0
 44
0.0
 50
0.0
 51
0.0
 71
     0
 72
   100
 73
     1
 74
     3
 75
     0
 76
     0
 77
     0
 78
     0
  0
ENDTAB
  0
TABLE
  2
LTYPE
  5
5
330
0
100
AcDbSymbolTable
 70
     1
  0
LTYPE
  5
14
330
5
100
AcDbSymbolTableRecord
100
AcDbLinetypeTableRecord
  2
BYBLOCK
 70
     0
  3

 72
    65
 73
     0
 40
0.0
  0
LTYPE
  5
15
330
5
100
AcDbSymbolTableRecord
100
AcDbLinetypeTableRecord
  2
BYLAYER
 70
     0
  3

 72
    65
 73
     0
 40
0.0
  0
LTYPE
  5
16
330
5
100
AcDbSymbolTableRecord
100
AcDbLinetypeTableRecord
  2
CONTINUOUS
 70
     0
  3
Solid line
 72
    65
 73
     0
 40
0.0
  0
ENDTAB
  0
TABLE
  2
LAYER
  5
2
100
AcDbSymbolTable
 70
2
  0
LAYER
  5
50
100
AcDbSymbolTableRecord
100
AcDbLayerTableRecord
  2
0
 70
0
  6
CONTINUOUS
  0
LAYER
  5
51
100
AcDbSymbolTableRecord
100
AcDbLayerTableRecord
  2
Calque_1
 70
0
  6
CONTINUOUS
  0
ENDTAB
  0
TABLE
  2
STYLE
  5
3
330
0
100
AcDbSymbolTable
 70
     1
  0
STYLE
  5
11
330
3
100
AcDbSymbolTableRecord
100
AcDbTextStyleTableRecord
  2
STANDARD
 70
     0
 40
0.0
 41
1.0
 50
0.0
 71
     0
 42
2.5
  3
txt
  4

  0
ENDTAB
  0
TABLE
  2
VIEW
  5
6
330
0
100
AcDbSymbolTable
 70
     0
  0
ENDTAB
  0
TABLE
  2
UCS
  5
7
330
0
100
AcDbSymbolTable
 70
     0
  0
ENDTAB
  0
TABLE
  2
APPID
  5
9
330
0
100
AcDbSymbolTable
 70
     2
  0
APPID
  5
12
330
9
100
AcDbSymbolTableRecord
100
AcDbRegAppTableRecord
  2
ACAD
 70
     0
  0
ENDTAB
  0
TABLE
  2
DIMSTYLE
  5
A
330
0
100
AcDbSymbolTable
 70
     1
  0
DIMSTYLE
105
27
330
A
100
AcDbSymbolTableRecord
100
AcDbDimStyleTableRecord
  2
ISO-25
 70
     0
  3

  4

  5

  6

  7

 40
1.0
 41
2.5
 42
0.625
 43
3.75
 44
1.25
 45
0.0
 46
0.0
 47
0.0
 48
0.0
140
2.5
141
2.5
142
0.0
143
0.03937007874016
144
1.0
145
0.0
146
1.0
147
0.625
 71
     0
 72
     0
 73
     0
 74
     0
 75
     0
 76
     0
 77
     1
 78
     8
170
     0
171
     3
172
     1
173
     0
174
     0
175
     0
176
     0
177
     0
178
     0
270
     2
271
     2
272
     2
273
     2
274
     3
340
11
275
     0
280
     0
281
     0
282
     0
283
     0
284
     8
285
     0
286
     0
287
     3
288
     0
  0
ENDTAB
  0
TABLE
  2
BLOCK_RECORD
  5
1
330
0
100
AcDbSymbolTable
 70
     1
  0
BLOCK_RECORD
  5
1F
330
1
100
AcDbSymbolTableRecord
100
AcDbBlockTableRecord
  2
*MODEL_SPACE
  0
BLOCK_RECORD
  5
1B
330
1
100
AcDbSymbolTableRecord
100
AcDbBlockTableRecord
  2
*PAPER_SPACE
  0
ENDTAB
  0
ENDSEC
  0
SECTION
  2
BLOCKS
  0
BLOCK
  5
20
330
1F
100
AcDbEntity
  8
0
100
AcDbBlockBegin
  2
*MODEL_SPACE
 70
     0
 10
0.0
 20
0.0
 30
0.0
  3
*MODEL_SPACE
  1

  0
ENDBLK
  5
21
330
1F
100
AcDbEntity
  8
0
100
AcDbBlockEnd
  0
BLOCK
  5
1C
330
1B
100
AcDbEntity
 67
     1
  8
0
100
AcDbBlockBegin
  2
*PAPER_SPACE
  1

  0
ENDBLK
  5
1D
330
1B
100
AcDbEntity
 67
     1
  8
0
100
AcDbBlockEnd
  0
ENDSEC
  0
SECTION
  2
ENTITIES
  0
LINE
  5
100
100
AcDbEntity
  8
Calque_1
 62
7
100
AcDbLine
 10
33.427796
 20
36.390630
 30
0.0
 11
2.752351
 21
36.390630
 31
0.0
  0
SPLINE
  5
101
100
AcDbEntity
  8
Calque_1
 62
7
100
AcDbSpline
 70
8
 71
3
 72
8
 73
4
 74
0
 40
0
 40
0
 40
0
 40
0
 40
1
 40
1
 40
1
 40
1
 10
2.752351
 20
36.390630
 30
0.0
 10
2.752351
 20
36.390630
 30
0.0
 10
2.752351
 20
18.390630
 30
0.0
 10
2.752351
 20
18.390630
 30
0.0
  0
SPLINE
  5
102
100
AcDbEntity
  8
Calque_1
 62
7
100
AcDbSpline
 70
8
 71
3
 72
8
 73
4
 74
0
 40
0
 40
0
 40
0
 40
0
 40
1
 40
1
 40
1
 40
1
 10
2.752351
 20
18.390630
 30
0.0
 10
2.752351
 20
14.412383
 30
0.0
 10
4.332704
 20
10.597074
 30
0.0
 10
7.145749
 20
7.784028
 30
0.0
  0
SPLINE
  5
103
100
AcDbEntity
  8
Calque_1
 62
7
100
AcDbSpline
 70
8
 71
3
 72
8
 73
4
 74
0
 40
0
 40
0
 40
0
 40
0
 40
1
 40
1
 40
1
 40
1
 10
7.145749
 20
7.784028
 30
0.0
 10
9.958795
 20
4.970983
 30
0.0
 10
13.774104
 20
3.390630
 30
0.0
 10
17.752351
 20
3.390630
 30
0.0
  0
LINE
  5
104
100
AcDbEntity
  8
Calque_1
 62
7
100
AcDbLine
 10
17.752351
 20
3.390630
 30
0.0
 11
61.752351
 21
3.390630
 31
0.0
  0
SPLINE
  5
105
100
AcDbEntity
  8
Calque_1
 62
7
100
AcDbSpline
 70
8
 71
3
 72
8
 73
4
 74
0
 40
0
 40
0
 40
0
 40
0
 40
1
 40
1
 40
1
 40
1
 10
61.752351
 20
3.390630
 30
0.0
 10
65.730598
 20
3.390630
 30
0.0
 10
69.545907
 20
4.970983
 30
0.0
 10
72.358953
 20
7.784028
 30
0.0
  0
SPLINE
  5
106
100
AcDbEntity
  8
Calque_1
 62
7
100
AcDbSpline
 70
8
 71
3
 72
8
 73
4
 74
0
 40
0
 40
0
 40
0
 40
0
 40
1
 40
1
 40
1
 40
1
 10
72.358953
 20
7.784028
 30
0.0
 10
75.171998
 20
10.597074
 30
0.0
 10
76.752351
 20
14.412383
 30
0.0
 10
76.752351
 20
18.390630
 30
0.0
  0
LINE
  5
107
100
AcDbEntity
  8
Calque_1
 62
7
100
AcDbLine
 10
76.752351
 20
18.390630
 30
0.0
 11
76.752351
 21
36.390630
 31
0.0
  0
LINE
  5
108
100
AcDbEntity
  8
Calque_1
 62
7
100
AcDbLine
 10
76.752351
 20
36.390630
 30
0.0
 11
46.076906
 21
36.390630
 31
0.0
  0
SPLINE
  5
109
100
AcDbEntity
  8
Calque_1
 62
7
100
AcDbSpline
 70
8
 71
3
 72
8
 73
4
 74
0
 40
0
 40
0
 40
0
 40
0
 40
1
 40
1
 40
1
 40
1
 10
46.076906
 20
36.390630
 30
0.0
 10
44.918148
 20
38.833512
 30
0.0
 10
42.456123
 20
40.390635
 30
0.0
 10
39.752349
 20
40.390635
 30
0.0
  0
SPLINE
  5
10a
100
AcDbEntity
  8
Calque_1
 62
7
100
AcDbSpline
 70
8
 71
3
 72
8
 73
4
 74
0
 40
0
 40
0
 40
0
 40
0
 40
1
 40
1
 40
1
 40
1
 10
39.752349
 20
40.390635
 30
0.0
 10
37.048575
 20
40.390635
 30
0.0
 10
34.586549
 20
38.833512
 30
0.0
 10
33.427791
 20
36.390630
 30
0.0
  0
SPLINE
  5
10b
100
AcDbEntity
  8
Calque_1
 62
7
100
AcDbSpline
 70
8
 71
3
 72
8
 73
4
 74
0
 40
0
 40
0
 40
0
 40
0
 40
1
 40
1
 40
1
 40
1
 10
41.252351
 20
33.390630
 30
0.0
 10
41.252351
 20
33.926528
 30
0.0
 10
40.966453
 20
34.421719
 30
0.0
 10
40.502351
 20
34.689668
 30
0.0
  0
SPLINE
  5
10c
100
AcDbEntity
  8
Calque_1
 62
7
100
AcDbSpline
 70
8
 71
3
 72
8
 73
4
 74
0
 40
0
 40
0
 40
0
 40
0
 40
1
 40
1
 40
1
 40
1
 10
40.502351
 20
34.689668
 30
0.0
 10
40.038249
 20
34.957617
 30
0.0
 10
39.466453
 20
34.957617
 30
0.0
 10
39.002351
 20
34.689668
 30
0.0
  0
SPLINE
  5
10d
100
AcDbEntity
  8
Calque_1
 62
7
100
AcDbSpline
 70
8
 71
3
 72
8
 73
4
 74
0
 40
0
 40
0
 40
0
 40
0
 40
1
 40
1
 40
1
 40
1
 10
39.002351
 20
34.689668
 30
0.0
 10
38.538249
 20
34.421719
 30
0.0
 10
38.252351
 20
33.926528
 30
0.0
 10
38.252351
 20
33.390630
 30
0.0
  0
SPLINE
  5
10e
100
AcDbEntity
  8
Calque_1
 62
7
100
AcDbSpline
 70
8
 71
3
 72
8
 73
4
 74
0
 40
0
 40
0
 40
0
 40
0
 40
1
 40
1
 40
1
 40
1
 10
38.252351
 20
33.390630
 30
0.0
 10
38.252351
 20
32.854732
 30
0.0
 10
38.538249
 20
32.359541
 30
0.0
 10
39.002351
 20
32.091592
 30
0.0
  0
SPLINE
  5
10f
100
AcDbEntity
  8
Calque_1
 62
7
100
AcDbSpline
 70
8
 71
3
 72
8
 73
4
 74
0
 40
0
 40
0
 40
0
 40
0
 40
1
 40
1
 40
1
 40
1
 10
39.002351
 20
32.091592
 30
0.0
 10
39.466453
 20
31.823643
 30
0.0
 10
40.038249
 20
31.823643
 30
0.0
 10
40.502351
 20
32.091592
 30
0.0
  0
SPLINE
  5
110
100
AcDbEntity
  8
Calque_1
 62
7
100
AcDbSpline
 70
8
 71
3
 72
8
 73
4
 74
0
 40
0
 40
0
 40
0
 40
0
 40
1
 40
1
 40
1
 40
1
 10
40.502351
 20
32.091592
 30
0.0
 10
40.966453
 20
32.359541
 30
0.0
 10
41.252351
 20
32.854732
 30
0.0
 10
41.252351
 20
33.390630
 30
0.0
  0
LINE
  5
111
100
AcDbEntity
  8
Calque_1
 62
7
100
AcDbLine
 10
41.252351
 20
33.390630
 30
0.0
 11
41.252351
 21
33.390630
 31
0.0
  0
SPLINE
  5
112
100
AcDbEntity
  8
Calque_1
 62
7
100
AcDbSpline
 70
8
 71
3
 72
8
 73
4
 74
0
 40
0
 40
0
 40
0
 40
0
 40
1
 40
1
 40
1
 40
1
 10
20.030937
 20
59.149620
 30
0.0
 10
20.030937
 20
63.291756
 30
0.0
 10
16.673073
 20
66.649620
 30
0.0
 10
12.530937
 20
66.649620
 30
0.0
  0
SPLINE
  5
113
100
AcDbEntity
  8
Calque_1
 62
7
100
AcDbSpline
 70
8
 71
3
 72
8
 73
4
 74
0
 40
0
 40
0
 40
0
 40
0
 40
1
 40
1
 40
1
 40
1
 10
12.530937
 20
66.649620
 30
0.0
 10
8.388801
 20
66.649620
 30
0.0
 10
5.030937
 20
63.291756
 30
0.0
 10
5.030937
 20
59.149620
 30
0.0
  0
SPLINE
  5
114
100
AcDbEntity
  8
Calque_1
 62
7
100
AcDbSpline
 70
8
 71
3
 72
8
 73
4
 74
0
 40
0
 40
0
 40
0
 40
0
 40
1
 40
1
 40
1
 40
1
 10
5.030937
 20
59.149620
 30
0.0
 10
5.030937
 20
55.007484
 30
0.0
 10
8.388801
 20
51.649620
 30
0.0
 10
12.530937
 20
51.649620
 30
0.0
  0
SPLINE
  5
115
100
AcDbEntity
  8
Calque_1
 62
7
100
AcDbSpline
 70
8
 71
3
 72
8
 73
4
 74
0
 40
0
 40
0
 40
0
 40
0
 40
1
 40
1
 40
1
 40
1
 10
12.530937
 20
51.649620
 30
0.0
 10
16.673073
 20
51.649620
 30
0.0
 10
20.030937
 20
55.007484
 30
0.0
 10
20.030937
 20
59.149620
 30
0.0
  0
LINE
  5
116
100
AcDbEntity
  8
Calque_1
 62
7
100
AcDbLine
 10
20.030937
 20
59.149620
 30
0.0
 11
20.030937
 21
59.149620
 31
0.0
  0
SPLINE
  5
117
100
AcDbEntity
  8
Calque_1
 62
7
100
AcDbSpline
 70
8
 71
3
 72
8
 73
4
 74
0
 40
0
 40
0
 40
0
 40
0
 40
1
 40
1
 40
1
 40
1
 10
38.030937
 20
59.149620
 30
0.0
 10
38.030937
 20
61.829112
 30
0.0
 10
36.601445
 20
64.305065
 30
0.0
 10
34.280937
 20
65.644811
 30
0.0
  0
SPLINE
  5
118
100
AcDbEntity
  8
Calque_1
 62
7
100
AcDbSpline
 70
8
 71
3
 72
8
 73
4
 74
0
 40
0
 40
0
 40
0
 40
0
 40
1
 40
1
 40
1
 40
1
 10
34.280937
 20
65.644811
 30
0.0
 10
31.960429
 20
66.984556
 30
0.0
 10
29.101445
 20
66.984556
 30
0.0
 10
26.780937
 20
65.644811
 30
0.0
  0
SPLINE
  5
119
100
AcDbEntity
  8
Calque_1
 62
7
100
AcDbSpline
 70
8
 71
3
 72
8
 73
4
 74
0
 40
0
 40
0
 40
0
 40
0
 40
1
 40
1
 40
1
 40
1
 10
26.780937
 20
65.644811
 30
0.0
 10
24.460429
 20
64.305065
 30
0.0
 10
23.030937
 20
61.829112
 30
0.0
 10
23.030937
 20
59.149620
 30
0.0
  0
SPLINE
  5
11a
100
AcDbEntity
  8
Calque_1
 62
7
100
AcDbSpline
 70
8
 71
3
 72
8
 73
4
 74
0
 40
0
 40
0
 40
0
 40
0
 40
1
 40
1
 40
1
 40
1
 10
23.030937
 20
59.149620
 30
0.0
 10
23.030937
 20
56.470128
 30
0.0
 10
24.460429
 20
53.994175
 30
0.0
 10
26.780937
 20
52.654429
 30
0.0
  0
SPLINE
  5
11b
100
AcDbEntity
  8
Calque_1
 62
7
100
AcDbSpline
 70
8
 71
3
 72
8
 73
4
 74
0
 40
0
 40
0
 40
0
 40
0
 40
1
 40
1
 40
1
 40
1
 10
26.780937
 20
52.654429
 30
0.0
 10
29.101445
 20
51.314684
 30
0.0
 10
31.960429
 20
51.314684
 30
0.0
 10
34.280937
 20
52.654429
 30
0.0
  0
SPLINE
  5
11c
100
AcDbEntity
  8
Calque_1
 62
7
100
AcDbSpline
 70
8
 71
3
 72
8
 73
4
 74
0
 40
0
 40
0
 40
0
 40
0
 40
1
 40
1
 40
1
 40
1
 10
34.280937
 20
52.654429
 30
0.0
 10
36.601445
 20
53.994175
 30
0.0
 10
38.030937
 20
56.470128
 30
0.0
 10
38.030937
 20
59.149620
 30
0.0
  0
LINE
  5
11d
100
AcDbEntity
  8
Calque_1
 62
7
100
AcDbLine
 10
38.030937
 20
59.149620
 30
0.0
 11
38.030937
 21
59.149620
 31
0.0
  0
SPLINE
  5
11e
100
AcDbEntity
  8
Calque_1
 62
7
100
AcDbSpline
 70
8
 71
3
 72
8
 73
4
 74
0
 40
0
 40
0
 40
0
 40
0
 40
1
 40
1
 40
1
 40
1
 10
56.030937
 20
59.149620
 30
0.0
 10
56.030937
 20
61.829112
 30
0.0
 10
54.601445
 20
64.305065
 30
0.0
 10
52.280937
 20
65.644811
 30
0.0
  0
SPLINE
  5
11f
100
AcDbEntity
  8
Calque_1
 62
7
100
AcDbSpline
 70
8
 71
3
 72
8
 73
4
 74
0
 40
0
 40
0
 40
0
 40
0
 40
1
 40
1
 40
1
 40
1
 10
52.280937
 20
65.644811
 30
0.0
 10
49.960429
 20
66.984556
 30
0.0
 10
47.101445
 20
66.984556
 30
0.0
 10
44.780937
 20
65.644811
 30
0.0
  0
SPLINE
  5
120
100
AcDbEntity
  8
Calque_1
 62
7
100
AcDbSpline
 70
8
 71
3
 72
8
 73
4
 74
0
 40
0
 40
0
 40
0
 40
0
 40
1
 40
1
 40
1
 40
1
 10
44.780937
 20
65.644811
 30
0.0
 10
42.460429
 20
64.305065
 30
0.0
 10
41.030937
 20
61.829112
 30
0.0
 10
41.030937
 20
59.149620
 30
0.0
  0
SPLINE
  5
121
100
AcDbEntity
  8
Calque_1
 62
7
100
AcDbSpline
 70
8
 71
3
 72
8
 73
4
 74
0
 40
0
 40
0
 40
0
 40
0
 40
1
 40
1
 40
1
 40
1
 10
41.030937
 20
59.149620
 30
0.0
 10
41.030937
 20
56.470128
 30
0.0
 10
42.460429
 20
53.994175
 30
0.0
 10
44.780937
 20
52.654429
 30
0.0
  0
SPLINE
  5
122
100
AcDbEntity
  8
Calque_1
 62
7
100
AcDbSpline
 70
8
 71
3
 72
8
 73
4
 74
0
 40
0
 40
0
 40
0
 40
0
 40
1
 40
1
 40
1
 40
1
 10
44.780937
 20
52.654429
 30
0.0
 10
47.101445
 20
51.314684
 30
0.0
 10
49.960429
 20
51.314684
 30
0.0
 10
52.280937
 20
52.654429
 30
0.0
  0
SPLINE
  5
123
100
AcDbEntity
  8
Calque_1
 62
7
100
AcDbSpline
 70
8
 71
3
 72
8
 73
4
 74
0
 40
0
 40
0
 40
0
 40
0
 40
1
 40
1
 40
1
 40
1
 10
52.280937
 20
52.654429
 30
0.0
 10
54.601445
 20
53.994175
 30
0.0
 10
56.030937
 20
56.470128
 30
0.0
 10
56.030937
 20
59.149620
 30
0.0
  0
LINE
  5
124
100
AcDbEntity
  8
Calque_1
 62
7
100
AcDbLine
 10
56.030937
 20
59.149620
 30
0.0
 11
56.030937
 21
59.149620
 31
0.0
  0
SPLINE
  5
125
100
AcDbEntity
  8
Calque_1
 62
7
100
AcDbSpline
 70
8
 71
3
 72
8
 73
4
 74
0
 40
0
 40
0
 40
0
 40
0
 40
1
 40
1
 40
1
 40
1
 10
74.030937
 20
59.149620
 30
0.0
 10
74.030937
 20
63.291756
 30
0.0
 10
70.673073
 20
66.649620
 30
0.0
 10
66.530937
 20
66.649620
 30
0.0
  0
SPLINE
  5
126
100
AcDbEntity
  8
Calque_1
 62
7
100
AcDbSpline
 70
8
 71
3
 72
8
 73
4
 74
0
 40
0
 40
0
 40
0
 40
0
 40
1
 40
1
 40
1
 40
1
 10
66.530937
 20
66.649620
 30
0.0
 10
62.388801
 20
66.649620
 30
0.0
 10
59.030937
 20
63.291756
 30
0.0
 10
59.030937
 20
59.149620
 30
0.0
  0
SPLINE
  5
127
100
AcDbEntity
  8
Calque_1
 62
7
100
AcDbSpline
 70
8
 71
3
 72
8
 73
4
 74
0
 40
0
 40
0
 40
0
 40
0
 40
1
 40
1
 40
1
 40
1
 10
59.030937
 20
59.149620
 30
0.0
 10
59.030937
 20
56.470128
 30
0.0
 10
60.460429
 20
53.994175
 30
0.0
 10
62.780937
 20
52.654429
 30
0.0
  0
SPLINE
  5
128
100
AcDbEntity
  8
Calque_1
 62
7
100
AcDbSpline
 70
8
 71
3
 72
8
 73
4
 74
0
 40
0
 40
0
 40
0
 40
0
 40
1
 40
1
 40
1
 40
1
 10
62.780937
 20
52.654429
 30
0.0
 10
65.101445
 20
51.314684
 30
0.0
 10
67.960429
 20
51.314684
 30
0.0
 10
70.280937
 20
52.654429
 30
0.0
  0
SPLINE
  5
129
100
AcDbEntity
  8
Calque_1
 62
7
100
AcDbSpline
 70
8
 71
3
 72
8
 73
4
 74
0
 40
0
 40
0
 40
0
 40
0
 40
1
 40
1
 40
1
 40
1
 10
70.280937
 20
52.654429
 30
0.0
 10
72.601445
 20
53.994175
 30
0.0
 10
74.030937
 20
56.470128
 30
0.0
 10
74.030937
 20
59.149620
 30
0.0
  0
LINE
  5
12a
100
AcDbEntity
  8
Calque_1
 62
7
100
AcDbLine
 10
74.030937
 20
59.149620
 30
0.0
 11
74.030937
 21
59.149620
 31
0.0
  0
LINE
  5
12b
100
AcDbEntity
  8
Calque_1
 62
7
100
AcDbLine
 10
2.530937
 20
73.149620
 30
0.0
 11
2.530937
 21
60.149620
 31
0.0
  0
SPLINE
  5
12c
100
AcDbEntity
  8
Calque_1
 62
7
100
AcDbSpline
 70
8
 71
3
 72
8
 73
4
 74
0
 40
0
 40
0
 40
0
 40
0
 40
1
 40
1
 40
1
 40
1
 10
2.530937
 20
60.149620
 30
0.0
 10
2.530937
 20
56.171373
 30
0.0
 10
4.111290
 20
52.356064
 30
0.0
 10
6.924335
 20
49.543018
 30
0.0
  0
SPLINE
  5
12d
100
AcDbEntity
  8
Calque_1
 62
7
100
AcDbSpline
 70
8
 71
3
 72
8
 73
4
 74
0
 40
0
 40
0
 40
0
 40
0
 40
1
 40
1
 40
1
 40
1
 10
6.924335
 20
49.543018
 30
0.0
 10
9.737381
 20
46.729973
 30
0.0
 10
13.552690
 20
45.149620
 30
0.0
 10
17.530937
 20
45.149620
 30
0.0
  0
LINE
  5
12e
100
AcDbEntity
  8
Calque_1
 62
7
100
AcDbLine
 10
17.530937
 20
45.149620
 30
0.0
 11
19.030937
 21
45.149620
 31
0.0
  0
LINE
  5
12f
100
AcDbEntity
  8
Calque_1
 62
7
100
AcDbLine
 10
19.030937
 20
45.149620
 30
0.0
 11
19.030937
 21
50.149620
 31
0.0
  0
LINE
  5
130
100
AcDbEntity
  8
Calque_1
 62
7
100
AcDbLine
 10
19.030937
 20
50.149620
 30
0.0
 11
24.030937
 21
50.149620
 31
0.0
  0
LINE
  5
131
100
AcDbEntity
  8
Calque_1
 62
7
100
AcDbLine
 10
24.030937
 20
50.149620
 30
0.0
 11
24.030937
 21
45.149620
 31
0.0
  0
LINE
  5
132
100
AcDbEntity
  8
Calque_1
 62
7
100
AcDbLine
 10
24.030937
 20
45.149620
 30
0.0
 11
55.030937
 21
45.149620
 31
0.0
  0
LINE
  5
133
100
AcDbEntity
  8
Calque_1
 62
7
100
AcDbLine
 10
55.030937
 20
45.149620
 30
0.0
 11
55.030937
 21
50.149620
 31
0.0
  0
LINE
  5
134
100
AcDbEntity
  8
Calque_1
 62
7
100
AcDbLine
 10
55.030937
 20
50.149620
 30
0.0
 11
60.030937
 21
50.149620
 31
0.0
  0
LINE
  5
135
100
AcDbEntity
  8
Calque_1
 62
7
100
AcDbLine
 10
60.030937
 20
50.149620
 30
0.0
 11
60.030937
 21
45.149620
 31
0.0
  0
SPLINE
  5
136
100
AcDbEntity
  8
Calque_1
 62
7
100
AcDbSpline
 70
8
 71
3
 72
8
 73
4
 74
0
 40
0
 40
0
 40
0
 40
0
 40
1
 40
1
 40
1
 40
1
 10
60.030937
 20
45.149620
 30
0.0
 10
60.030937
 20
45.149620
 30
0.0
 10
61.530937
 20
45.149620
 30
0.0
 10
61.530937
 20
45.149620
 30
0.0
  0
SPLINE
  5
137
100
AcDbEntity
  8
Calque_1
 62
7
100
AcDbSpline
 70
8
 71
3
 72
8
 73
4
 74
0
 40
0
 40
0
 40
0
 40
0
 40
1
 40
1
 40
1
 40
1
 10
61.530937
 20
45.149620
 30
0.0
 10
65.509184
 20
45.149620
 30
0.0
 10
69.324493
 20
46.729973
 30
0.0
 10
72.137539
 20
49.543018
 30
0.0
  0
SPLINE
  5
138
100
AcDbEntity
  8
Calque_1
 62
7
100
AcDbSpline
 70
8
 71
3
 72
8
 73
4
 74
0
 40
0
 40
0
 40
0
 40
0
 40
1
 40
1
 40
1
 40
1
 10
72.137539
 20
49.543018
 30
0.0
 10
74.950584
 20
52.356064
 30
0.0
 10
76.530937
 20
56.171373
 30
0.0
 10
76.530937
 20
60.149620
 30
0.0
  0
LINE
  5
139
100
AcDbEntity
  8
Calque_1
 62
7
100
AcDbLine
 10
76.530937
 20
60.149620
 30
0.0
 11
76.530937
 21
73.149620
 31
0.0
  0
LINE
  5
13a
100
AcDbEntity
  8
Calque_1
 62
7
100
AcDbLine
 10
76.530937
 20
73.149620
 30
0.0
 11
2.530937
 21
73.149620
 31
0.0
  0
SPLINE
  5
13b
100
AcDbEntity
  8
Calque_1
 62
7
100
AcDbSpline
 70
8
 71
3
 72
8
 73
4
 74
0
 40
0
 40
0
 40
0
 40
0
 40
1
 40
1
 40
1
 40
1
 10
55.874375
 20
94.195370
 30
0.0
 10
55.874375
 20
96.874862
 30
0.0
 10
54.444883
 20
99.350815
 30
0.0
 10
52.124375
 20
100.690561
 30
0.0
  0
SPLINE
  5
13c
100
AcDbEntity
  8
Calque_1
 62
7
100
AcDbSpline
 70
8
 71
3
 72
8
 73
4
 74
0
 40
0
 40
0
 40
0
 40
0
 40
1
 40
1
 40
1
 40
1
 10
52.124375
 20
100.690561
 30
0.0
 10
49.803867
 20
102.030306
 30
0.0
 10
46.944883
 20
102.030306
 30
0.0
 10
44.624375
 20
100.690561
 30
0.0
  0
SPLINE
  5
13d
100
AcDbEntity
  8
Calque_1
 62
7
100
AcDbSpline
 70
8
 71
3
 72
8
 73
4
 74
0
 40
0
 40
0
 40
0
 40
0
 40
1
 40
1
 40
1
 40
1
 10
44.624375
 20
100.690561
 30
0.0
 10
42.303867
 20
99.350815
 30
0.0
 10
40.874375
 20
96.874862
 30
0.0
 10
40.874375
 20
94.195370
 30
0.0
  0
SPLINE
  5
13e
100
AcDbEntity
  8
Calque_1
 62
7
100
AcDbSpline
 70
8
 71
3
 72
8
 73
4
 74
0
 40
0
 40
0
 40
0
 40
0
 40
1
 40
1
 40
1
 40
1
 10
40.874375
 20
94.195370
 30
0.0
 10
40.874375
 20
91.515878
 30
0.0
 10
42.303867
 20
89.039925
 30
0.0
 10
44.624375
 20
87.700179
 30
0.0
  0
SPLINE
  5
13f
100
AcDbEntity
  8
Calque_1
 62
7
100
AcDbSpline
 70
8
 71
3
 72
8
 73
4
 74
0
 40
0
 40
0
 40
0
 40
0
 40
1
 40
1
 40
1
 40
1
 10
44.624375
 20
87.700179
 30
0.0
 10
46.944883
 20
86.360434
 30
0.0
 10
49.803867
 20
86.360434
 30
0.0
 10
52.124375
 20
87.700179
 30
0.0
  0
SPLINE
  5
140
100
AcDbEntity
  8
Calque_1
 62
7
100
AcDbSpline
 70
8
 71
3
 72
8
 73
4
 74
0
 40
0
 40
0
 40
0
 40
0
 40
1
 40
1
 40
1
 40
1
 10
52.124375
 20
87.700179
 30
0.0
 10
54.444883
 20
89.039925
 30
0.0
 10
55.874375
 20
91.515878
 30
0.0
 10
55.874375
 20
94.195370
 30
0.0
  0
LINE
  5
141
100
AcDbEntity
  8
Calque_1
 62
7
100
AcDbLine
 10
55.874375
 20
94.195370
 30
0.0
 11
55.874375
 21
94.195370
 31
0.0
  0
SPLINE
  5
142
100
AcDbEntity
  8
Calque_1
 62
7
100
AcDbSpline
 70
8
 71
3
 72
8
 73
4
 74
0
 40
0
 40
0
 40
0
 40
0
 40
1
 40
1
 40
1
 40
1
 10
73.874375
 20
94.195370
 30
0.0
 10
73.874375
 20
98.337506
 30
0.0
 10
70.516511
 20
101.695370
 30
0.0
 10
66.374375
 20
101.695370
 30
0.0
  0
SPLINE
  5
143
100
AcDbEntity
  8
Calque_1
 62
7
100
AcDbSpline
 70
8
 71
3
 72
8
 73
4
 74
0
 40
0
 40
0
 40
0
 40
0
 40
1
 40
1
 40
1
 40
1
 10
66.374375
 20
101.695370
 30
0.0
 10
62.232239
 20
101.695370
 30
0.0
 10
58.874375
 20
98.337506
 30
0.0
 10
58.874375
 20
94.195370
 30
0.0
  0
SPLINE
  5
144
100
AcDbEntity
  8
Calque_1
 62
7
100
AcDbSpline
 70
8
 71
3
 72
8
 73
4
 74
0
 40
0
 40
0
 40
0
 40
0
 40
1
 40
1
 40
1
 40
1
 10
58.874375
 20
94.195370
 30
0.0
 10
58.874375
 20
91.515878
 30
0.0
 10
60.303867
 20
89.039925
 30
0.0
 10
62.624375
 20
87.700179
 30
0.0
  0
SPLINE
  5
145
100
AcDbEntity
  8
Calque_1
 62
7
100
AcDbSpline
 70
8
 71
3
 72
8
 73
4
 74
0
 40
0
 40
0
 40
0
 40
0
 40
1
 40
1
 40
1
 40
1
 10
62.624375
 20
87.700179
 30
0.0
 10
64.944883
 20
86.360434
 30
0.0
 10
67.803867
 20
86.360434
 30
0.0
 10
70.124375
 20
87.700179
 30
0.0
  0
SPLINE
  5
146
100
AcDbEntity
  8
Calque_1
 62
7
100
AcDbSpline
 70
8
 71
3
 72
8
 73
4
 74
0
 40
0
 40
0
 40
0
 40
0
 40
1
 40
1
 40
1
 40
1
 10
70.124375
 20
87.700179
 30
0.0
 10
72.444883
 20
89.039925
 30
0.0
 10
73.874375
 20
91.515878
 30
0.0
 10
73.874375
 20
94.195370
 30
0.0
  0
LINE
  5
147
100
AcDbEntity
  8
Calque_1
 62
7
100
AcDbLine
 10
73.874375
 20
94.195370
 30
0.0
 11
73.874375
 21
94.195370
 31
0.0
  0
SPLINE
  5
148
100
AcDbEntity
  8
Calque_1
 62
7
100
AcDbSpline
 70
8
 71
3
 72
8
 73
4
 74
0
 40
0
 40
0
 40
0
 40
0
 40
1
 40
1
 40
1
 40
1
 10
37.874375
 20
94.195370
 30
0.0
 10
37.874375
 20
96.874862
 30
0.0
 10
36.444883
 20
99.350815
 30
0.0
 10
34.124375
 20
100.690561
 30
0.0
  0
SPLINE
  5
149
100
AcDbEntity
  8
Calque_1
 62
7
100
AcDbSpline
 70
8
 71
3
 72
8
 73
4
 74
0
 40
0
 40
0
 40
0
 40
0
 40
1
 40
1
 40
1
 40
1
 10
34.124375
 20
100.690561
 30
0.0
 10
31.803867
 20
102.030306
 30
0.0
 10
28.944883
 20
102.030306
 30
0.0
 10
26.624375
 20
100.690561
 30
0.0
  0
SPLINE
  5
14a
100
AcDbEntity
  8
Calque_1
 62
7
100
AcDbSpline
 70
8
 71
3
 72
8
 73
4
 74
0
 40
0
 40
0
 40
0
 40
0
 40
1
 40
1
 40
1
 40
1
 10
26.624375
 20
100.690561
 30
0.0
 10
24.303867
 20
99.350815
 30
0.0
 10
22.874375
 20
96.874862
 30
0.0
 10
22.874375
 20
94.195370
 30
0.0
  0
SPLINE
  5
14b
100
AcDbEntity
  8
Calque_1
 62
7
100
AcDbSpline
 70
8
 71
3
 72
8
 73
4
 74
0
 40
0
 40
0
 40
0
 40
0
 40
1
 40
1
 40
1
 40
1
 10
22.874375
 20
94.195370
 30
0.0
 10
22.874375
 20
91.515878
 30
0.0
 10
24.303867
 20
89.039925
 30
0.0
 10
26.624375
 20
87.700179
 30
0.0
  0
SPLINE
  5
14c
100
AcDbEntity
  8
Calque_1
 62
7
100
AcDbSpline
 70
8
 71
3
 72
8
 73
4
 74
0
 40
0
 40
0
 40
0
 40
0
 40
1
 40
1
 40
1
 40
1
 10
26.624375
 20
87.700179
 30
0.0
 10
28.944883
 20
86.360434
 30
0.0
 10
31.803867
 20
86.360434
 30
0.0
 10
34.124375
 20
87.700179
 30
0.0
  0
SPLINE
  5
14d
100
AcDbEntity
  8
Calque_1
 62
7
100
AcDbSpline
 70
8
 71
3
 72
8
 73
4
 74
0
 40
0
 40
0
 40
0
 40
0
 40
1
 40
1
 40
1
 40
1
 10
34.124375
 20
87.700179
 30
0.0
 10
36.444883
 20
89.039925
 30
0.0
 10
37.874375
 20
91.515878
 30
0.0
 10
37.874375
 20
94.195370
 30
0.0
  0
LINE
  5
14e
100
AcDbEntity
  8
Calque_1
 62
7
100
AcDbLine
 10
37.874375
 20
94.195370
 30
0.0
 11
37.874375
 21
94.195370
 31
0.0
  0
SPLINE
  5
14f
100
AcDbEntity
  8
Calque_1
 62
7
100
AcDbSpline
 70
8
 71
3
 72
8
 73
4
 74
0
 40
0
 40
0
 40
0
 40
0
 40
1
 40
1
 40
1
 40
1
 10
19.874375
 20
94.195370
 30
0.0
 10
19.874375
 20
98.337506
 30
0.0
 10
16.516511
 20
101.695370
 30
0.0
 10
12.374375
 20
101.695370
 30
0.0
  0
SPLINE
  5
150
100
AcDbEntity
  8
Calque_1
 62
7
100
AcDbSpline
 70
8
 71
3
 72
8
 73
4
 74
0
 40
0
 40
0
 40
0
 40
0
 40
1
 40
1
 40
1
 40
1
 10
12.374375
 20
101.695370
 30
0.0
 10
8.232239
 20
101.695370
 30
0.0
 10
4.874375
 20
98.337506
 30
0.0
 10
4.874375
 20
94.195370
 30
0.0
  0
SPLINE
  5
151
100
AcDbEntity
  8
Calque_1
 62
7
100
AcDbSpline
 70
8
 71
3
 72
8
 73
4
 74
0
 40
0
 40
0
 40
0
 40
0
 40
1
 40
1
 40
1
 40
1
 10
4.874375
 20
94.195370
 30
0.0
 10
4.874375
 20
90.053234
 30
0.0
 10
8.232239
 20
86.695370
 30
0.0
 10
12.374375
 20
86.695370
 30
0.0
  0
SPLINE
  5
152
100
AcDbEntity
  8
Calque_1
 62
7
100
AcDbSpline
 70
8
 71
3
 72
8
 73
4
 74
0
 40
0
 40
0
 40
0
 40
0
 40
1
 40
1
 40
1
 40
1
 10
12.374375
 20
86.695370
 30
0.0
 10
16.516511
 20
86.695370
 30
0.0
 10
19.874375
 20
90.053234
 30
0.0
 10
19.874375
 20
94.195370
 30
0.0
  0
LINE
  5
153
100
AcDbEntity
  8
Calque_1
 62
7
100
AcDbLine
 10
19.874375
 20
94.195370
 30
0.0
 11
19.874375
 21
94.195370
 31
0.0
  0
SPLINE
  5
154
100
AcDbEntity
  8
Calque_1
 62
7
100
AcDbSpline
 70
8
 71
3
 72
8
 73
4
 74
0
 40
0
 40
0
 40
0
 40
0
 40
1
 40
1
 40
1
 40
1
 10
45.698930
 20
108.195370
 30
0.0
 10
44.540172
 20
110.638252
 30
0.0
 10
42.078147
 20
112.195375
 30
0.0
 10
39.374373
 20
112.195375
 30
0.0
  0
SPLINE
  5
155
100
AcDbEntity
  8
Calque_1
 62
7
100
AcDbSpline
 70
8
 71
3
 72
8
 73
4
 74
0
 40
0
 40
0
 40
0
 40
0
 40
1
 40
1
 40
1
 40
1
 10
39.374373
 20
112.195375
 30
0.0
 10
36.670599
 20
112.195375
 30
0.0
 10
34.208573
 20
110.638252
 30
0.0
 10
33.049815
 20
108.195370
 30
0.0
  0
LINE
  5
156
100
AcDbEntity
  8
Calque_1
 62
7
100
AcDbLine
 10
33.049815
 20
108.195370
 30
0.0
 11
2.374375
 21
108.195370
 31
0.0
  0
LINE
  5
157
100
AcDbEntity
  8
Calque_1
 62
7
100
AcDbLine
 10
2.374375
 20
108.195370
 30
0.0
 11
2.374375
 21
80.195370
 31
0.0
  0
LINE
  5
158
100
AcDbEntity
  8
Calque_1
 62
7
100
AcDbLine
 10
2.374375
 20
80.195370
 30
0.0
 11
18.874375
 21
80.195370
 31
0.0
  0
LINE
  5
159
100
AcDbEntity
  8
Calque_1
 62
7
100
AcDbLine
 10
18.874375
 20
80.195370
 30
0.0
 11
18.874375
 21
85.195370
 31
0.0
  0
LINE
  5
15a
100
AcDbEntity
  8
Calque_1
 62
7
100
AcDbLine
 10
18.874375
 20
85.195370
 30
0.0
 11
23.874375
 21
85.195370
 31
0.0
  0
LINE
  5
15b
100
AcDbEntity
  8
Calque_1
 62
7
100
AcDbLine
 10
23.874375
 20
85.195370
 30
0.0
 11
23.874375
 21
80.195370
 31
0.0
  0
LINE
  5
15c
100
AcDbEntity
  8
Calque_1
 62
7
100
AcDbLine
 10
23.874375
 20
80.195370
 30
0.0
 11
54.874375
 21
80.195370
 31
0.0
  0
LINE
  5
15d
100
AcDbEntity
  8
Calque_1
 62
7
100
AcDbLine
 10
54.874375
 20
80.195370
 30
0.0
 11
54.874375
 21
85.195370
 31
0.0
  0
LINE
  5
15e
100
AcDbEntity
  8
Calque_1
 62
7
100
AcDbLine
 10
54.874375
 20
85.195370
 30
0.0
 11
59.874375
 21
85.195370
 31
0.0
  0
LINE
  5
15f
100
AcDbEntity
  8
Calque_1
 62
7
100
AcDbLine
 10
59.874375
 20
85.195370
 30
0.0
 11
59.874375
 21
80.195370
 31
0.0
  0
LINE
  5
160
100
AcDbEntity
  8
Calque_1
 62
7
100
AcDbLine
 10
59.874375
 20
80.195370
 30
0.0
 11
76.374375
 21
80.195370
 31
0.0
  0
LINE
  5
161
100
AcDbEntity
  8
Calque_1
 62
7
100
AcDbLine
 10
76.374375
 20
80.195370
 30
0.0
 11
76.374375
 21
108.195370
 31
0.0
  0
LINE
  5
162
100
AcDbEntity
  8
Calque_1
 62
7
100
AcDbLine
 10
76.374375
 20
108.195370
 30
0.0
 11
45.698930
 21
108.195370
 31
0.0
  0
SPLINE
  5
163
100
AcDbEntity
  8
Calque_1
 62
7
100
AcDbSpline
 70
8
 71
3
 72
8
 73
4
 74
0
 40
0
 40
0
 40
0
 40
0
 40
1
 40
1
 40
1
 40
1
 10
41.374375
 20
105.195370
 30
0.0
 10
41.374375
 20
105.909901
 30
0.0
 10
40.993177
 20
106.570155
 30
0.0
 10
40.374375
 20
106.927421
 30
0.0
  0
SPLINE
  5
164
100
AcDbEntity
  8
Calque_1
 62
7
100
AcDbSpline
 70
8
 71
3
 72
8
 73
4
 74
0
 40
0
 40
0
 40
0
 40
0
 40
1
 40
1
 40
1
 40
1
 10
40.374375
 20
106.927421
 30
0.0
 10
39.755573
 20
107.284686
 30
0.0
 10
38.993177
 20
107.284686
 30
0.0
 10
38.374375
 20
106.927421
 30
0.0
  0
SPLINE
  5
165
100
AcDbEntity
  8
Calque_1
 62
7
100
AcDbSpline
 70
8
 71
3
 72
8
 73
4
 74
0
 40
0
 40
0
 40
0
 40
0
 40
1
 40
1
 40
1
 40
1
 10
38.374375
 20
106.927421
 30
0.0
 10
37.755573
 20
106.570155
 30
0.0
 10
37.374375
 20
105.909901
 30
0.0
 10
37.374375
 20
105.195370
 30
0.0
  0
SPLINE
  5
166
100
AcDbEntity
  8
Calque_1
 62
7
100
AcDbSpline
 70
8
 71
3
 72
8
 73
4
 74
0
 40
0
 40
0
 40
0
 40
0
 40
1
 40
1
 40
1
 40
1
 10
37.374375
 20
105.195370
 30
0.0
 10
37.374375
 20
104.480839
 30
0.0
 10
37.755573
 20
103.820585
 30
0.0
 10
38.374375
 20
103.463319
 30
0.0
  0
SPLINE
  5
167
100
AcDbEntity
  8
Calque_1
 62
7
100
AcDbSpline
 70
8
 71
3
 72
8
 73
4
 74
0
 40
0
 40
0
 40
0
 40
0
 40
1
 40
1
 40
1
 40
1
 10
38.374375
 20
103.463319
 30
0.0
 10
38.993177
 20
103.106054
 30
0.0
 10
39.755573
 20
103.106054
 30
0.0
 10
40.374375
 20
103.463319
 30
0.0
  0
SPLINE
  5
168
100
AcDbEntity
  8
Calque_1
 62
7
100
AcDbSpline
 70
8
 71
3
 72
8
 73
4
 74
0
 40
0
 40
0
 40
0
 40
0
 40
1
 40
1
 40
1
 40
1
 10
40.374375
 20
103.463319
 30
0.0
 10
40.993177
 20
103.820585
 30
0.0
 10
41.374375
 20
104.480839
 30
0.0
 10
41.374375
 20
105.195370
 30
0.0
  0
LINE
  5
169
100
AcDbEntity
  8
Calque_1
 62
7
100
AcDbLine
 10
41.374375
 20
105.195370
 30
0.0
 11
41.374375
 21
105.195370
 31
0.0
  0
LINE
  5
16a
100
AcDbEntity
  8
Calque_1
 62
7
100
AcDbLine
 10
84.580199
 20
2.976189
 30
0.0
 11
114.580198
 21
2.976189
 31
0.0
  0
LINE
  5
16b
100
AcDbEntity
  8
Calque_1
 62
7
100
AcDbLine
 10
114.580198
 20
2.976189
 30
0.0
 11
94.580199
 21
117.976188
 31
0.0
  0
LINE
  5
16c
100
AcDbEntity
  8
Calque_1
 62
7
100
AcDbLine
 10
94.580199
 20
117.976188
 30
0.0
 11
84.580199
 21
117.976188
 31
0.0
  0
LINE
  5
16d
100
AcDbEntity
  8
Calque_1
 62
7
100
AcDbLine
 10
84.580199
 20
117.976188
 30
0.0
 11
84.580199
 21
112.976188
 31
0.0
  0
LINE
  5
16e
100
AcDbEntity
  8
Calque_1
 62
7
100
AcDbLine
 10
84.580199
 20
112.976188
 30
0.0
 11
89.580199
 21
112.976188
 31
0.0
  0
LINE
  5
16f
100
AcDbEntity
  8
Calque_1
 62
7
100
AcDbLine
 10
89.580199
 20
112.976188
 30
0.0
 11
89.580199
 21
107.976188
 31
0.0
  0
LINE
  5
170
100
AcDbEntity
  8
Calque_1
 62
7
100
AcDbLine
 10
89.580199
 20
107.976188
 30
0.0
 11
84.580199
 21
107.976188
 31
0.0
  0
LINE
  5
171
100
AcDbEntity
  8
Calque_1
 62
7
100
AcDbLine
 10
84.580199
 20
107.976188
 30
0.0
 11
84.580199
 21
17.976189
 31
0.0
  0
LINE
  5
172
100
AcDbEntity
  8
Calque_1
 62
7
100
AcDbLine
 10
84.580199
 20
17.976189
 30
0.0
 11
89.580199
 21
17.976189
 31
0.0
  0
LINE
  5
173
100
AcDbEntity
  8
Calque_1
 62
7
100
AcDbLine
 10
89.580199
 20
17.976189
 30
0.0
 11
89.580199
 21
12.976189
 31
0.0
  0
LINE
  5
174
100
AcDbEntity
  8
Calque_1
 62
7
100
AcDbLine
 10
89.580199
 20
12.976189
 30
0.0
 11
99.580198
 21
12.976189
 31
0.0
  0
LINE
  5
175
100
AcDbEntity
  8
Calque_1
 62
7
100
AcDbLine
 10
99.580198
 20
12.976189
 30
0.0
 11
99.580198
 21
7.976189
 31
0.0
  0
LINE
  5
176
100
AcDbEntity
  8
Calque_1
 62
7
100
AcDbLine
 10
99.580198
 20
7.976189
 30
0.0
 11
84.580199
 21
7.976189
 31
0.0
  0
LINE
  5
177
100
AcDbEntity
  8
Calque_1
 62
7
100
AcDbLine
 10
84.580199
 20
7.976189
 30
0.0
 11
84.580199
 21
2.976189
 31
0.0
  0
LINE
  5
178
100
AcDbEntity
  8
Calque_1
 62
7
100
AcDbLine
 10
125.368222
 20
158.447181
 30
0.0
 11
95.368222
 21
158.447181
 31
0.0
  0
LINE
  5
179
100
AcDbEntity
  8
Calque_1
 62
7
100
AcDbLine
 10
95.368222
 20
158.447181
 30
0.0
 11
115.368222
 21
43.447181
 31
0.0
  0
LINE
  5
17a
100
AcDbEntity
  8
Calque_1
 62
7
100
AcDbLine
 10
115.368222
 20
43.447181
 30
0.0
 11
125.368222
 21
43.447181
 31
0.0
  0
LINE
  5
17b
100
AcDbEntity
  8
Calque_1
 62
7
100
AcDbLine
 10
125.368222
 20
43.447181
 30
0.0
 11
125.368222
 21
48.447181
 31
0.0
  0
LINE
  5
17c
100
AcDbEntity
  8
Calque_1
 62
7
100
AcDbLine
 10
125.368222
 20
48.447181
 30
0.0
 11
120.368222
 21
48.447181
 31
0.0
  0
LINE
  5
17d
100
AcDbEntity
  8
Calque_1
 62
7
100
AcDbLine
 10
120.368222
 20
48.447181
 30
0.0
 11
120.368222
 21
53.447181
 31
0.0
  0
LINE
  5
17e
100
AcDbEntity
  8
Calque_1
 62
7
100
AcDbLine
 10
120.368222
 20
53.447181
 30
0.0
 11
125.368222
 21
53.447181
 31
0.0
  0
LINE
  5
17f
100
AcDbEntity
  8
Calque_1
 62
7
100
AcDbLine
 10
125.368222
 20
53.447181
 30
0.0
 11
125.368222
 21
143.447181
 31
0.0
  0
LINE
  5
180
100
AcDbEntity
  8
Calque_1
 62
7
100
AcDbLine
 10
125.368222
 20
143.447181
 30
0.0
 11
120.368222
 21
143.447181
 31
0.0
  0
LINE
  5
181
100
AcDbEntity
  8
Calque_1
 62
7
100
AcDbLine
 10
120.368222
 20
143.447181
 30
0.0
 11
120.368222
 21
148.447181
 31
0.0
  0
LINE
  5
182
100
AcDbEntity
  8
Calque_1
 62
7
100
AcDbLine
 10
120.368222
 20
148.447181
 30
0.0
 11
110.368222
 21
148.447181
 31
0.0
  0
LINE
  5
183
100
AcDbEntity
  8
Calque_1
 62
7
100
AcDbLine
 10
110.368222
 20
148.447181
 30
0.0
 11
110.368222
 21
153.447181
 31
0.0
  0
LINE
  5
184
100
AcDbEntity
  8
Calque_1
 62
7
100
AcDbLine
 10
110.368222
 20
153.447181
 30
0.0
 11
125.368222
 21
153.447181
 31
0.0
  0
LINE
  5
185
100
AcDbEntity
  8
Calque_1
 62
7
100
AcDbLine
 10
125.368222
 20
153.447181
 30
0.0
 11
125.368222
 21
158.447181
 31
0.0
  0
LINE
  5
186
100
AcDbEntity
  8
Calque_1
 62
7
100
AcDbLine
 10
3.357700
 20
143.609266
 30
0.0
 11
3.357700
 21
130.609266
 31
0.0
  0
SPLINE
  5
187
100
AcDbEntity
  8
Calque_1
 62
7
100
AcDbSpline
 70
8
 71
3
 72
8
 73
4
 74
0
 40
0
 40
0
 40
0
 40
0
 40
1
 40
1
 40
1
 40
1
 10
3.357700
 20
130.609266
 30
0.0
 10
3.357700
 20
126.631019
 30
0.0
 10
4.938053
 20
122.815710
 30
0.0
 10
7.751098
 20
120.002664
 30
0.0
  0
SPLINE
  5
188
100
AcDbEntity
  8
Calque_1
 62
7
100
AcDbSpline
 70
8
 71
3
 72
8
 73
4
 74
0
 40
0
 40
0
 40
0
 40
0
 40
1
 40
1
 40
1
 40
1
 10
7.751098
 20
120.002664
 30
0.0
 10
10.564144
 20
117.189619
 30
0.0
 10
14.379453
 20
115.609266
 30
0.0
 10
18.357700
 20
115.609266
 30
0.0
  0
LINE
  5
189
100
AcDbEntity
  8
Calque_1
 62
7
100
AcDbLine
 10
18.357700
 20
115.609266
 30
0.0
 11
19.857700
 21
115.609266
 31
0.0
  0
LINE
  5
18a
100
AcDbEntity
  8
Calque_1
 62
7
100
AcDbLine
 10
19.857700
 20
115.609266
 30
0.0
 11
19.857700
 21
125.609266
 31
0.0
  0
LINE
  5
18b
100
AcDbEntity
  8
Calque_1
 62
7
100
AcDbLine
 10
19.857700
 20
125.609266
 30
0.0
 11
24.857700
 21
125.609266
 31
0.0
  0
LINE
  5
18c
100
AcDbEntity
  8
Calque_1
 62
7
100
AcDbLine
 10
24.857700
 20
125.609266
 30
0.0
 11
24.857700
 21
115.609266
 31
0.0
  0
LINE
  5
18d
100
AcDbEntity
  8
Calque_1
 62
7
100
AcDbLine
 10
24.857700
 20
115.609266
 30
0.0
 11
55.857700
 21
115.609266
 31
0.0
  0
LINE
  5
18e
100
AcDbEntity
  8
Calque_1
 62
7
100
AcDbLine
 10
55.857700
 20
115.609266
 30
0.0
 11
55.857700
 21
125.609266
 31
0.0
  0
LINE
  5
18f
100
AcDbEntity
  8
Calque_1
 62
7
100
AcDbLine
 10
55.857700
 20
125.609266
 30
0.0
 11
60.857700
 21
125.609266
 31
0.0
  0
LINE
  5
190
100
AcDbEntity
  8
Calque_1
 62
7
100
AcDbLine
 10
60.857700
 20
125.609266
 30
0.0
 11
60.857700
 21
115.609266
 31
0.0
  0
LINE
  5
191
100
AcDbEntity
  8
Calque_1
 62
7
100
AcDbLine
 10
60.857700
 20
115.609266
 30
0.0
 11
62.357700
 21
115.609266
 31
0.0
  0
SPLINE
  5
192
100
AcDbEntity
  8
Calque_1
 62
7
100
AcDbSpline
 70
8
 71
3
 72
8
 73
4
 74
0
 40
0
 40
0
 40
0
 40
0
 40
1
 40
1
 40
1
 40
1
 10
62.357700
 20
115.609266
 30
0.0
 10
66.335947
 20
115.609266
 30
0.0
 10
70.151256
 20
117.189619
 30
0.0
 10
72.964302
 20
120.002664
 30
0.0
  0
SPLINE
  5
193
100
AcDbEntity
  8
Calque_1
 62
7
100
AcDbSpline
 70
8
 71
3
 72
8
 73
4
 74
0
 40
0
 40
0
 40
0
 40
0
 40
1
 40
1
 40
1
 40
1
 10
72.964302
 20
120.002664
 30
0.0
 10
75.777347
 20
122.815710
 30
0.0
 10
77.357700
 20
126.631019
 30
0.0
 10
77.357700
 20
130.609266
 30
0.0
  0
LINE
  5
194
100
AcDbEntity
  8
Calque_1
 62
7
100
AcDbLine
 10
77.357700
 20
130.609266
 30
0.0
 11
77.357700
 21
143.609266
 31
0.0
  0
LINE
  5
195
100
AcDbEntity
  8
Calque_1
 62
7
100
AcDbLine
 10
77.357700
 20
143.609266
 30
0.0
 11
67.857700
 21
143.609266
 31
0.0
  0
LINE
  5
196
100
AcDbEntity
  8
Calque_1
 62
7
100
AcDbLine
 10
67.857700
 20
143.609266
 30
0.0
 11
67.857700
 21
150.609266
 31
0.0
  0
SPLINE
  5
197
100
AcDbEntity
  8
Calque_1
 62
7
100
AcDbSpline
 70
8
 71
3
 72
8
 73
4
 74
0
 40
0
 40
0
 40
0
 40
0
 40
1
 40
1
 40
1
 40
1
 10
67.857700
 20
150.609266
 30
0.0
 10
67.857700
 20
152.730998
 30
0.0
 10
67.014845
 20
154.765829
 30
0.0
 10
65.514554
 20
156.266120
 30
0.0
  0
SPLINE
  5
198
100
AcDbEntity
  8
Calque_1
 62
7
100
AcDbSpline
 70
8
 71
3
 72
8
 73
4
 74
0
 40
0
 40
0
 40
0
 40
0
 40
1
 40
1
 40
1
 40
1
 10
65.514554
 20
156.266120
 30
0.0
 10
64.014263
 20
157.766411
 30
0.0
 10
61.979432
 20
158.609266
 30
0.0
 10
59.857700
 20
158.609266
 30
0.0
  0
LINE
  5
199
100
AcDbEntity
  8
Calque_1
 62
7
100
AcDbLine
 10
59.857700
 20
158.609266
 30
0.0
 11
59.857700
 21
143.609266
 31
0.0
  0
LINE
  5
19a
100
AcDbEntity
  8
Calque_1
 62
7
100
AcDbLine
 10
59.857700
 20
143.609266
 30
0.0
 11
54.857700
 21
143.609266
 31
0.0
  0
LINE
  5
19b
100
AcDbEntity
  8
Calque_1
 62
7
100
AcDbLine
 10
54.857700
 20
143.609266
 30
0.0
 11
54.857700
 21
158.609266
 31
0.0
  0
SPLINE
  5
19c
100
AcDbEntity
  8
Calque_1
 62
7
100
AcDbSpline
 70
8
 71
3
 72
8
 73
4
 74
0
 40
0
 40
0
 40
0
 40
0
 40
1
 40
1
 40
1
 40
1
 10
54.857700
 20
158.609266
 30
0.0
 10
52.735968
 20
158.609266
 30
0.0
 10
50.701137
 20
157.766411
 30
0.0
 10
49.200846
 20
156.266120
 30
0.0
  0
SPLINE
  5
19d
100
AcDbEntity
  8
Calque_1
 62
7
100
AcDbSpline
 70
8
 71
3
 72
8
 73
4
 74
0
 40
0
 40
0
 40
0
 40
0
 40
1
 40
1
 40
1
 40
1
 10
49.200846
 20
156.266120
 30
0.0
 10
47.700555
 20
154.765829
 30
0.0
 10
46.857700
 20
152.730998
 30
0.0
 10
46.857700
 20
150.609266
 30
0.0
  0
LINE
  5
19e
100
AcDbEntity
  8
Calque_1
 62
7
100
AcDbLine
 10
46.857700
 20
150.609266
 30
0.0
 11
46.857700
 21
143.609266
 31
0.0
  0
LINE
  5
19f
100
AcDbEntity
  8
Calque_1
 62
7
100
AcDbLine
 10
46.857700
 20
143.609266
 30
0.0
 11
3.357700
 21
143.609266
 31
0.0
  0
ENDSEC
  0
SECTION
  2
OBJECTS
  0
DICTIONARY
  5
C
330
0
100
AcDbDictionary
  3
ACAD_GROUP
350
D
  3
ACAD_MLINESTYLE
350
17
  0
DICTIONARY
  5
D
330
C
100
AcDbDictionary
  0
DICTIONARY
  5
1A
330
C
100
AcDbDictionary
  0
DICTIONARY
  5
17
330
C
100
AcDbDictionary
  3
STANDARD
350
18
  0
DICTIONARY
  5
19
330
C
100
AcDbDictionary
  0
ENDSEC
  0
EOF
