  0
SECTION
  2
HEADER
  9
$ACADVER
  1
AC1014
  9
$HANDSEED
  5
FFFF
  9
$MEASUREMENT
 70
     1
  0
ENDSEC
  0
SECTION
  2
TABLES
  0
TABLE
  2
VPORT
  5
8
330
0
100
AcDbSymbolTable
 70
     4
  0
VPORT
  5
2E
330
8
100
AcDbSymbolTableRecord
100
AcDbViewportTableRecord
  2
*ACTIVE
 70
     0
 10
0.0
 20
0.0
 11
1.0
 21
1.0
 12
210.0
 22
148.5
 13
0.0
 23
0.0
 14
10.0
 24
10.0
 15
10.0
 25
10.0
 16
0.0
 26
0.0
 36
1.0
 17
0.0
 27
0.0
 37
0.0
 40
341.0
 41
1.24
 42
50.0
 43
0.0
 44
0.0
 50
0.0
 51
0.0
 71
     0
 72
   100
 73
     1
 74
     3
 75
     0
 76
     0
 77
     0
 78
     0
  0
ENDTAB
  0
TABLE
  2
LTYPE
  5
5
330
0
100
AcDbSymbolTable
 70
     1
  0
LTYPE
  5
14
330
5
100
AcDbSymbolTableRecord
100
AcDbLinetypeTableRecord
  2
BYBLOCK
 70
     0
  3

 72
    65
 73
     0
 40
0.0
  0
LTYPE
  5
15
330
5
100
AcDbSymbolTableRecord
100
AcDbLinetypeTableRecord
  2
BYLAYER
 70
     0
  3

 72
    65
 73
     0
 40
0.0
  0
LTYPE
  5
16
330
5
100
AcDbSymbolTableRecord
100
AcDbLinetypeTableRecord
  2
CONTINUOUS
 70
     0
  3
Solid line
 72
    65
 73
     0
 40
0.0
  0
ENDTAB
  0
TABLE
  2
LAYER
  5
2
100
AcDbSymbolTable
 70
2
  0
LAYER
  5
50
100
AcDbSymbolTableRecord
100
AcDbLayerTableRecord
  2
0
 70
0
  6
CONTINUOUS
  0
LAYER
  5
51
100
AcDbSymbolTableRecord
100
AcDbLayerTableRecord
  2
Calque_1
 70
0
  6
CONTINUOUS
  0
ENDTAB
  0
TABLE
  2
STYLE
  5
3
330
0
100
AcDbSymbolTable
 70
     1
  0
STYLE
  5
11
330
3
100
AcDbSymbolTableRecord
100
AcDbTextStyleTableRecord
  2
STANDARD
 70
     0
 40
0.0
 41
1.0
 50
0.0
 71
     0
 42
2.5
  3
txt
  4

  0
ENDTAB
  0
TABLE
  2
VIEW
  5
6
330
0
100
AcDbSymbolTable
 70
     0
  0
ENDTAB
  0
TABLE
  2
UCS
  5
7
330
0
100
AcDbSymbolTable
 70
     0
  0
ENDTAB
  0
TABLE
  2
APPID
  5
9
330
0
100
AcDbSymbolTable
 70
     2
  0
APPID
  5
12
330
9
100
AcDbSymbolTableRecord
100
AcDbRegAppTableRecord
  2
ACAD
 70
     0
  0
ENDTAB
  0
TABLE
  2
DIMSTYLE
  5
A
330
0
100
AcDbSymbolTable
 70
     1
  0
DIMSTYLE
105
27
330
A
100
AcDbSymbolTableRecord
100
AcDbDimStyleTableRecord
  2
ISO-25
 70
     0
  3

  4

  5

  6

  7

 40
1.0
 41
2.5
 42
0.625
 43
3.75
 44
1.25
 45
0.0
 46
0.0
 47
0.0
 48
0.0
140
2.5
141
2.5
142
0.0
143
0.03937007874016
144
1.0
145
0.0
146
1.0
147
0.625
 71
     0
 72
     0
 73
     0
 74
     0
 75
     0
 76
     0
 77
     1
 78
     8
170
     0
171
     3
172
     1
173
     0
174
     0
175
     0
176
     0
177
     0
178
     0
270
     2
271
     2
272
     2
273
     2
274
     3
340
11
275
     0
280
     0
281
     0
282
     0
283
     0
284
     8
285
     0
286
     0
287
     3
288
     0
  0
ENDTAB
  0
TABLE
  2
BLOCK_RECORD
  5
1
330
0
100
AcDbSymbolTable
 70
     1
  0
BLOCK_RECORD
  5
1F
330
1
100
AcDbSymbolTableRecord
100
AcDbBlockTableRecord
  2
*MODEL_SPACE
  0
BLOCK_RECORD
  5
1B
330
1
100
AcDbSymbolTableRecord
100
AcDbBlockTableRecord
  2
*PAPER_SPACE
  0
ENDTAB
  0
ENDSEC
  0
SECTION
  2
BLOCKS
  0
BLOCK
  5
20
330
1F
100
AcDbEntity
  8
0
100
AcDbBlockBegin
  2
*MODEL_SPACE
 70
     0
 10
0.0
 20
0.0
 30
0.0
  3
*MODEL_SPACE
  1

  0
ENDBLK
  5
21
330
1F
100
AcDbEntity
  8
0
100
AcDbBlockEnd
  0
BLOCK
  5
1C
330
1B
100
AcDbEntity
 67
     1
  8
0
100
AcDbBlockBegin
  2
*PAPER_SPACE
  1

  0
ENDBLK
  5
1D
330
1B
100
AcDbEntity
 67
     1
  8
0
100
AcDbBlockEnd
  0
ENDSEC
  0
SECTION
  2
ENTITIES
  0
LINE
  5
100
100
AcDbEntity
  8
Calque_1
 62
7
100
AcDbLine
 10
18.166666
 20
84.255950
 30
0.0
 11
59.666666
 21
84.255950
 31
0.0
  0
LINE
  5
101
100
AcDbEntity
  8
Calque_1
 62
7
100
AcDbLine
 10
59.666666
 20
84.255950
 30
0.0
 11
59.666666
 21
104.755950
 31
0.0
  0
LINE
  5
102
100
AcDbEntity
  8
Calque_1
 62
7
100
AcDbLine
 10
59.666666
 20
104.755950
 30
0.0
 11
18.166666
 21
104.755950
 31
0.0
  0
LINE
  5
103
100
AcDbEntity
  8
Calque_1
 62
7
100
AcDbLine
 10
18.166666
 20
104.755950
 30
0.0
 11
18.166666
 21
84.255950
 31
0.0
  0
LINE
  5
104
100
AcDbEntity
  8
Calque_1
 62
7
100
AcDbLine
 10
18.166666
 20
44.255950
 30
0.0
 11
59.666666
 21
44.255950
 31
0.0
  0
LINE
  5
105
100
AcDbEntity
  8
Calque_1
 62
7
100
AcDbLine
 10
59.666666
 20
44.255950
 30
0.0
 11
59.666666
 21
23.755950
 31
0.0
  0
LINE
  5
106
100
AcDbEntity
  8
Calque_1
 62
7
100
AcDbLine
 10
59.666666
 20
23.755950
 30
0.0
 11
18.166666
 21
23.755950
 31
0.0
  0
LINE
  5
107
100
AcDbEntity
  8
Calque_1
 62
7
100
AcDbLine
 10
18.166666
 20
23.755950
 30
0.0
 11
18.166666
 21
44.255950
 31
0.0
  0
LINE
  5
108
100
AcDbEntity
  8
Calque_1
 62
7
100
AcDbLine
 10
76.166666
 20
59.255950
 30
0.0
 11
117.666666
 21
59.255950
 31
0.0
  0
LINE
  5
109
100
AcDbEntity
  8
Calque_1
 62
7
100
AcDbLine
 10
117.666666
 20
59.255950
 30
0.0
 11
117.666666
 21
38.755950
 31
0.0
  0
LINE
  5
10a
100
AcDbEntity
  8
Calque_1
 62
7
100
AcDbLine
 10
117.666666
 20
38.755950
 30
0.0
 11
76.166666
 21
38.755950
 31
0.0
  0
LINE
  5
10b
100
AcDbEntity
  8
Calque_1
 62
7
100
AcDbLine
 10
76.166666
 20
38.755950
 30
0.0
 11
76.166666
 21
59.255950
 31
0.0
  0
LINE
  5
10c
100
AcDbEntity
  8
Calque_1
 62
7
100
AcDbLine
 10
204.341906
 20
104.023943
 30
0.0
 11
200.406696
 21
83.905192
 31
0.0
  0
LINE
  5
10d
100
AcDbEntity
  8
Calque_1
 62
7
100
AcDbLine
 10
200.406696
 20
83.905192
 30
0.0
 11
241.134896
 21
75.938791
 31
0.0
  0
LINE
  5
10e
100
AcDbEntity
  8
Calque_1
 62
7
100
AcDbLine
 10
241.134896
 20
75.938791
 30
0.0
 11
245.070106
 21
96.057541
 31
0.0
  0
LINE
  5
10f
100
AcDbEntity
  8
Calque_1
 62
7
100
AcDbLine
 10
245.070106
 20
96.057541
 30
0.0
 11
204.341906
 21
104.023943
 31
0.0
  0
LINE
  5
110
100
AcDbEntity
  8
Calque_1
 62
7
100
AcDbLine
 10
93.166666
 20
84.255950
 30
0.0
 11
144.166666
 21
84.255950
 31
0.0
  0
LINE
  5
111
100
AcDbEntity
  8
Calque_1
 62
7
100
AcDbLine
 10
144.166666
 20
84.255950
 30
0.0
 11
144.166666
 21
105.255950
 31
0.0
  0
LINE
  5
112
100
AcDbEntity
  8
Calque_1
 62
7
100
AcDbLine
 10
144.166666
 20
105.255950
 30
0.0
 11
93.166666
 21
105.255950
 31
0.0
  0
LINE
  5
113
100
AcDbEntity
  8
Calque_1
 62
7
100
AcDbLine
 10
93.166666
 20
105.255950
 30
0.0
 11
93.166666
 21
84.255950
 31
0.0
  0
LINE
  5
114
100
AcDbEntity
  8
Calque_1
 62
7
100
AcDbLine
 10
192.179326
 20
71.780815
 30
0.0
 11
192.179326
 21
41.780815
 31
0.0
  0
LINE
  5
115
100
AcDbEntity
  8
Calque_1
 62
7
100
AcDbLine
 10
192.179326
 20
41.780815
 30
0.0
 11
284.179326
 21
41.780815
 31
0.0
  0
LINE
  5
116
100
AcDbEntity
  8
Calque_1
 62
7
100
AcDbLine
 10
284.179326
 20
41.780815
 30
0.0
 11
284.179326
 21
71.780815
 31
0.0
  0
LINE
  5
117
100
AcDbEntity
  8
Calque_1
 62
7
100
AcDbLine
 10
284.179326
 20
71.780815
 30
0.0
 11
192.179326
 21
71.780815
 31
0.0
  0
LINE
  5
118
100
AcDbEntity
  8
Calque_1
 62
7
100
AcDbLine
 10
157.269146
 20
104.755950
 30
0.0
 11
182.269146
 21
104.755950
 31
0.0
  0
LINE
  5
119
100
AcDbEntity
  8
Calque_1
 62
7
100
AcDbLine
 10
182.269146
 20
104.755950
 30
0.0
 11
182.269146
 21
94.755950
 31
0.0
  0
LINE
  5
11a
100
AcDbEntity
  8
Calque_1
 62
7
100
AcDbLine
 10
182.269146
 20
94.755950
 30
0.0
 11
157.269146
 21
94.755950
 31
0.0
  0
LINE
  5
11b
100
AcDbEntity
  8
Calque_1
 62
7
100
AcDbLine
 10
157.269146
 20
94.755950
 30
0.0
 11
157.269146
 21
104.755950
 31
0.0
  0
LINE
  5
11c
100
AcDbEntity
  8
Calque_1
 62
7
100
AcDbLine
 10
157.269146
 20
33.755950
 30
0.0
 11
182.269146
 21
33.755950
 31
0.0
  0
LINE
  5
11d
100
AcDbEntity
  8
Calque_1
 62
7
100
AcDbLine
 10
182.269146
 20
33.755950
 30
0.0
 11
182.269146
 21
23.755950
 31
0.0
  0
LINE
  5
11e
100
AcDbEntity
  8
Calque_1
 62
7
100
AcDbLine
 10
182.269146
 20
23.755950
 30
0.0
 11
157.269146
 21
23.755950
 31
0.0
  0
LINE
  5
11f
100
AcDbEntity
  8
Calque_1
 62
7
100
AcDbLine
 10
157.269146
 20
23.755950
 30
0.0
 11
157.269146
 21
33.755950
 31
0.0
  0
LINE
  5
120
100
AcDbEntity
  8
Calque_1
 62
7
100
AcDbLine
 10
288.166666
 20
34.755950
 30
0.0
 11
288.166666
 21
93.755950
 31
0.0
  0
SPLINE
  5
121
100
AcDbEntity
  8
Calque_1
 62
7
100
AcDbSpline
 70
8
 71
3
 72
8
 73
4
 74
0
 40
0
 40
0
 40
0
 40
0
 40
1
 40
1
 40
1
 40
1
 10
288.166666
 20
93.755950
 30
0.0
 10
268.166666
 20
97.755950
 30
0.0
 10
258.166666
 20
100.005950
 30
0.0
 10
249.833336
 20
101.547617
 30
0.0
  0
SPLINE
  5
122
100
AcDbEntity
  8
Calque_1
 62
7
100
AcDbSpline
 70
8
 71
3
 72
8
 73
4
 74
0
 40
0
 40
0
 40
0
 40
0
 40
1
 40
1
 40
1
 40
1
 10
249.833336
 20
101.547617
 30
0.0
 10
241.499996
 20
103.089283
 30
0.0
 10
234.833336
 20
103.922617
 30
0.0
 10
228.166666
 20
105.005950
 30
0.0
  0
SPLINE
  5
123
100
AcDbEntity
  8
Calque_1
 62
7
100
AcDbSpline
 70
8
 71
3
 72
8
 73
4
 74
0
 40
0
 40
0
 40
0
 40
0
 40
1
 40
1
 40
1
 40
1
 10
228.166666
 20
105.005950
 30
0.0
 10
221.499996
 20
106.089283
 30
0.0
 10
214.833336
 20
107.422617
 30
0.0
 10
208.166666
 20
108.589283
 30
0.0
  0
SPLINE
  5
124
100
AcDbEntity
  8
Calque_1
 62
7
100
AcDbSpline
 70
8
 71
3
 72
8
 73
4
 74
0
 40
0
 40
0
 40
0
 40
0
 40
1
 40
1
 40
1
 40
1
 10
208.166666
 20
108.589283
 30
0.0
 10
201.499996
 20
109.755950
 30
0.0
 10
194.833336
 20
110.755950
 30
0.0
 10
188.166666
 20
111.755950
 30
0.0
  0
SPLINE
  5
125
100
AcDbEntity
  8
Calque_1
 62
7
100
AcDbSpline
 70
8
 71
3
 72
8
 73
4
 74
0
 40
0
 40
0
 40
0
 40
0
 40
1
 40
1
 40
1
 40
1
 10
188.166666
 20
111.755950
 30
0.0
 10
181.499996
 20
112.755950
 30
0.0
 10
174.833336
 20
113.755950
 30
0.0
 10
164.833336
 20
114.839283
 30
0.0
  0
SPLINE
  5
126
100
AcDbEntity
  8
Calque_1
 62
7
100
AcDbSpline
 70
8
 71
3
 72
8
 73
4
 74
0
 40
0
 40
0
 40
0
 40
0
 40
1
 40
1
 40
1
 40
1
 10
164.833336
 20
114.839283
 30
0.0
 10
154.833336
 20
115.922617
 30
0.0
 10
141.499996
 20
117.089283
 30
0.0
 10
128.166666
 20
118.005950
 30
0.0
  0
SPLINE
  5
127
100
AcDbEntity
  8
Calque_1
 62
7
100
AcDbSpline
 70
8
 71
3
 72
8
 73
4
 74
0
 40
0
 40
0
 40
0
 40
0
 40
1
 40
1
 40
1
 40
1
 10
128.166666
 20
118.005950
 30
0.0
 10
114.833336
 20
118.922617
 30
0.0
 10
101.499999
 20
119.589283
 30
0.0
 10
84.833333
 20
120.172617
 30
0.0
  0
SPLINE
  5
128
100
AcDbEntity
  8
Calque_1
 62
7
100
AcDbSpline
 70
8
 71
3
 72
8
 73
4
 74
0
 40
0
 40
0
 40
0
 40
0
 40
1
 40
1
 40
1
 40
1
 10
84.833333
 20
120.172617
 30
0.0
 10
68.166666
 20
120.755950
 30
0.0
 10
48.166666
 20
121.255950
 30
0.0
 10
8.166666
 20
121.755950
 30
0.0
  0
LINE
  5
129
100
AcDbEntity
  8
Calque_1
 62
7
100
AcDbLine
 10
8.166666
 20
121.755950
 30
0.0
 11
8.166666
 21
6.755950
 31
0.0
  0
SPLINE
  5
12a
100
AcDbEntity
  8
Calque_1
 62
7
100
AcDbSpline
 70
8
 71
3
 72
8
 73
4
 74
0
 40
0
 40
0
 40
0
 40
0
 40
1
 40
1
 40
1
 40
1
 10
8.166666
 20
6.755950
 30
0.0
 10
48.166666
 20
7.255950
 30
0.0
 10
68.166666
 20
7.755950
 30
0.0
 10
84.833333
 20
8.339283
 30
0.0
  0
SPLINE
  5
12b
100
AcDbEntity
  8
Calque_1
 62
7
100
AcDbSpline
 70
8
 71
3
 72
8
 73
4
 74
0
 40
0
 40
0
 40
0
 40
0
 40
1
 40
1
 40
1
 40
1
 10
84.833333
 20
8.339283
 30
0.0
 10
101.499999
 20
8.922617
 30
0.0
 10
114.833336
 20
9.589283
 30
0.0
 10
128.166666
 20
10.505950
 30
0.0
  0
SPLINE
  5
12c
100
AcDbEntity
  8
Calque_1
 62
7
100
AcDbSpline
 70
8
 71
3
 72
8
 73
4
 74
0
 40
0
 40
0
 40
0
 40
0
 40
1
 40
1
 40
1
 40
1
 10
128.166666
 20
10.505950
 30
0.0
 10
141.499996
 20
11.422617
 30
0.0
 10
154.833336
 20
12.589283
 30
0.0
 10
164.833336
 20
13.672617
 30
0.0
  0
SPLINE
  5
12d
100
AcDbEntity
  8
Calque_1
 62
7
100
AcDbSpline
 70
8
 71
3
 72
8
 73
4
 74
0
 40
0
 40
0
 40
0
 40
0
 40
1
 40
1
 40
1
 40
1
 10
164.833336
 20
13.672617
 30
0.0
 10
174.833336
 20
14.755950
 30
0.0
 10
181.499996
 20
15.755950
 30
0.0
 10
188.166666
 20
16.755950
 30
0.0
  0
SPLINE
  5
12e
100
AcDbEntity
  8
Calque_1
 62
7
100
AcDbSpline
 70
8
 71
3
 72
8
 73
4
 74
0
 40
0
 40
0
 40
0
 40
0
 40
1
 40
1
 40
1
 40
1
 10
188.166666
 20
16.755950
 30
0.0
 10
194.833336
 20
17.755950
 30
0.0
 10
201.499996
 20
18.755950
 30
0.0
 10
208.166666
 20
19.922617
 30
0.0
  0
SPLINE
  5
12f
100
AcDbEntity
  8
Calque_1
 62
7
100
AcDbSpline
 70
8
 71
3
 72
8
 73
4
 74
0
 40
0
 40
0
 40
0
 40
0
 40
1
 40
1
 40
1
 40
1
 10
208.166666
 20
19.922617
 30
0.0
 10
214.833336
 20
21.089283
 30
0.0
 10
221.499996
 20
22.422617
 30
0.0
 10
228.166666
 20
23.505950
 30
0.0
  0
SPLINE
  5
130
100
AcDbEntity
  8
Calque_1
 62
7
100
AcDbSpline
 70
8
 71
3
 72
8
 73
4
 74
0
 40
0
 40
0
 40
0
 40
0
 40
1
 40
1
 40
1
 40
1
 10
228.166666
 20
23.505950
 30
0.0
 10
234.833336
 20
24.589283
 30
0.0
 10
241.499996
 20
25.422617
 30
0.0
 10
249.833336
 20
26.964283
 30
0.0
  0
SPLINE
  5
131
100
AcDbEntity
  8
Calque_1
 62
7
100
AcDbSpline
 70
8
 71
3
 72
8
 73
4
 74
0
 40
0
 40
0
 40
0
 40
0
 40
1
 40
1
 40
1
 40
1
 10
249.833336
 20
26.964283
 30
0.0
 10
258.166666
 20
28.505950
 30
0.0
 10
268.166666
 20
30.755950
 30
0.0
 10
288.166666
 20
34.755950
 30
0.0
  0
ENDSEC
  0
SECTION
  2
OBJECTS
  0
DICTIONARY
  5
C
330
0
100
AcDbDictionary
  3
ACAD_GROUP
350
D
  3
ACAD_MLINESTYLE
350
17
  0
DICTIONARY
  5
D
330
C
100
AcDbDictionary
  0
DICTIONARY
  5
1A
330
C
100
AcDbDictionary
  0
DICTIONARY
  5
17
330
C
100
AcDbDictionary
  3
STANDARD
350
18
  0
DICTIONARY
  5
19
330
C
100
AcDbDictionary
  0
ENDSEC
  0
EOF
